<?xml version="1.0" encoding="UTF-8"?>
<svg id="Layer_1" xmlns="http://www.w3.org/2000/svg" version="1.1" viewBox="0 0 1000 1000">
  <!-- Generator: Adobe Illustrator 29.0.0, SVG Export Plug-In . SVG Version: 2.1.0 Build 186)  -->
  <defs>
    <style>
      .st0 {
        fill: none;
      }
    </style>
  </defs>
  <path class="st0" d="M917.8,723.4c22.8,21.6-19.7,50.4-42.1,27.9-22.4-22.4,32.8-36.7,42.1-27.9ZM98.3,722c1.6-1.4,40.5-1.4,42.1,0,41.8,36.5-83.9,36.5-42.1,0ZM552.2,681.2c15.8-.2,27,3.9,33.1,9.6,10.3,9.6,6.5,23.7-13.2,29.6-5.4,1.6-19.1,3.6-32.9-10.2s13-29.1,13-29.1ZM404.2,666c22.8,21.6-19.8,37.2-42.1,27.9.4-18.2,32.8-36.7,42.1-27.9ZM242.8,793.6c-15.3-15.3,12.6-43.3,28-28,15.3,15.3-12.6,43.3-28,28ZM208.7,703.3c0-27.1,47.2-18.1,53.3-12.3,10.2,9.7,6.2,23.8-13.9,29.6-5.3,1.5-39.3,9.7-39.3-17.3ZM242.8,892.3c1.6-1.4,40.5-1.4,42.1,0,41.8,36.5-83.9,36.5-42.1,0ZM327.2,751.6c13.3-15.1,57.1,28.6,42.1,42.1-23.7,21.1-63.3-18-42.1-42.1ZM362.5,976.5c-50.7-18.7-4.1-66.9,20.8-42,4.1,4.1,9.3,53.1-20.8,42ZM383.4,849.9c-21.2-24.1,18.3-63.2,42.1-42.1,15.1,13.5-28.8,57.1-42.1,42.1ZM461.8,913c-33.2-7.6-15.7-22-12.5-25.1,14.9-14.4,29.2-12.6,39.8,4.3,2.4,3.9,5.8,28.4-27.4,20.8ZM467.8,751.4c-21.1-23.7,18-63.3,42.1-42.1,15.1,13.3-28.6,57.2-42.1,42.1ZM566.1,793.8c15.3,15.3-12.6,43.3-28,28s12.6-43.3,28-28ZM599.1,932.2c-1.9,24.9-86.8,30.3-52.6-12.6,3.1-3.9,18.4-14.9,35.5-14.2,17.1.7,17.3,23.2,17.1,26.8ZM670.4,870.9c-16.1,47.8-63.5-19.7-23-23.6,5.8-.5,12.1-6.2,21.1,2.8,9,9,4.1,14.5,1.9,20.8ZM650.8,793.7c-26.2-10.2-14.3-47.6,6.8-56.2s28.7,8.1,28.4,28.5-9.1,37.9-35.3,27.7ZM707,737.3c-27.4-23.9,56.3-63.6,55.9-21-.1,14.3-45.9,29.8-55.9,21ZM768.9,855.9c-21.1-23.7,18-63.3,42.1-42.1,15.1,13.3-28.6,57.2-42.1,42.1Z"/>
  <path d="M707,737.3c10,8.7,55.8-6.7,55.9-21,.4-42.6-83.3-2.8-55.9,21Z"/>
  <path d="M582.1,905.5c-17.1-.7-32.4,10.3-35.5,14.2-34.2,42.9,50.7,37.5,52.6,12.6.3-3.6,0-26.1-17.1-26.8Z"/>
  <path d="M717.4,905.4c-37.3-4.7-40.9,26.2-41.3,30.8-1.4,16.8,4.3,24.6,12.6,27,15.7-6.4,31-13.6,45.8-21.5,6.4-11.5,12.1-32.6-17.1-36.3Z"/>
  <path d="M362.5,976.5c30.1,11.1,24.9-37.9,20.8-42-24.9-24.9-71.5,23.3-20.8,42Z"/>
  <path d="M509.9,709.3c-24.1-21.2-63.2,18.3-42.1,42.1,13.5,15.1,57.1-28.8,42.1-42.1Z"/>
  <path d="M369.2,793.6c15.1-13.5-28.8-57.1-42.1-42.1-21.2,24.1,18.3,63.2,42.1,42.1Z"/>
  <path d="M425.5,807.8c-23.7-21.1-63.3,18-42.1,42.1,13.3,15.1,57.1-28.6,42.1-42.1Z"/>
  <path d="M811,813.8c-24.1-21.2-63.2,18.3-42.1,42.1,13.5,15.1,57.1-28.8,42.1-42.1Z"/>
  <path d="M572.1,720.5c19.8-6,23.6-20.1,13.2-29.6-6.2-5.7-17.3-9.8-33.1-9.6,0,0-26.8,15.3-13,29.1s27.5,11.8,32.9,10.2Z"/>
  <path d="M262,691c-6.1-5.8-53.3-14.8-53.3,12.3s34,18.9,39.3,17.3c20.1-5.8,24.1-20,13.9-29.6Z"/>
  <path d="M156.1,848.9c35.7-5.7,34.7-33.3,3.4-39.7-4.4-.9-47.2-10.9-39.2,16.2,6.8,8,13.9,15.7,21.3,23.3,6.8,1.8,12.8.5,14.5.3Z"/>
  <path d="M284.8,892.3c-1.6-1.4-40.5-1.4-42.1,0-41.8,36.5,83.9,36.5,42.1,0Z"/>
  <path d="M449.3,887.9c-3.2,3.1-20.7,17.5,12.5,25.1s29.8-17,27.4-20.8c-10.7-16.8-24.9-18.6-39.8-4.3Z"/>
  <path d="M495.9,962.7c-10.8-16-34.1-15.9-42.1,0-5.6,11-3.4,27,5.5,35.7,9.9.8,19.9,1.3,30,1.5,10.9-8.3,14.6-25.4,6.7-37.2Z"/>
  <path d="M647.4,847.3c-40.5,3.8,6.9,71.4,23,23.6,2.1-6.3,7-11.9-1.9-20.8-9-9-15.3-3.3-21.1-2.8Z"/>
  <path d="M140.4,722c-1.6-1.4-40.5-1.4-42.1,0-41.8,36.5,83.9,36.5,42.1,0Z"/>
  <path d="M657.6,737.5c-21.1,8.6-33,46-6.8,56.2,26.2,10.2,35-7.3,35.3-27.7s-7.4-37.1-28.4-28.5Z"/>
  <path d="M404.2,666c-9.3-8.8-41.7,9.8-42.1,27.9,22.3,9.3,65-6.3,42.1-27.9Z"/>
  <path d="M917.8,723.4c-9.3-8.8-64.6,5.5-42.1,27.9,22.4,22.4,65-6.3,42.1-27.9Z"/>
  <path d="M242.8,793.6c15.3,15.3,43.3-12.6,28-28-15.3-15.3-43.3,12.6-28,28Z"/>
  <path d="M566.1,793.8c-15.3-15.3-43.3,12.6-28,28s43.3-12.6,28-28Z"/>
</svg>