<?xml version="1.0" encoding="UTF-8"?>
<svg id="Layer_1" xmlns="http://www.w3.org/2000/svg" version="1.1" viewBox="0 0 1000 1000">
  <!-- Generator: Adobe Illustrator 29.0.0, SVG Export Plug-In . SVG Version: 2.1.0 Build 186)  -->
  <defs>
    <style>
      .st0 {
        fill: none;
      }
    </style>
  </defs>
  <path class="st0" d="M109.8,791.2c-19.8-2.1-16.7-21.1-15.5-25.4,5.8-21.1,24.2-22.5,30.6-.5,1.3,4.4,4.7,28-15.1,25.9ZM584,689c11.1-.2,28.6,29.4,17.3,34.4-11.3,5-34.4-5.7-34.4-17.3s6-16.9,17.1-17.1ZM219.7,688.8c17.4,19.5-14.8,52-34.6,34.6-12.4-10.9,23.5-47,34.6-34.6ZM196.8,868.1c0-17.8,39.4-13.2,45.9-5.7,25.4,29.3-46,29.8-45.9,5.7ZM225.5,804.2c-17.4-4.8-18.9-42.9-5.7-46,13.2-3.1,34.4,5.7,34.4,17.3s-11.2,33.4-28.7,28.7ZM300.8,769.7c-13.7-4.4-4.9-22.3,2-30.1,8.2-9.3,22.4-13.3,32.6-4.5,10,8.8.4,18.6-11.3,25.6-10.4,6.2-9.5,13.5-23.2,9.1ZM316.3,814.3c17.1-10.7,30.2,27,23,34.6-17.7,18.8-40-24-23-34.6ZM331.8,935.7c-9.6,3.5-24.9-32.9-7-35.4,6-.8,21.5-7.8,26.3,4s-9.7,27.9-19.3,31.4ZM341.3,711.8c-41.7-15.3-3.3-55,17.1-34.5,3.4,3.4,7.6,43.6-17.1,34.5ZM383.6,753.8c7.2-24.7,42-21.1,36.3,1.4-5.7,22.5-14.5,26.8-27.2,22.5-12.7-4.3-10.3-19.5-9.1-23.9ZM410.5,977.7c-11.6,0-17.1-8.9-17.1-17.1s7.7-17.1,17.1-17.1,17.1,6.5,17.1,17.1-5.5,17.1-17.1,17.1ZM414.2,867.2c-12.6-12.6,10.4-35.6,23-23,12.6,12.6-10.4,35.6-23,23ZM439.7,702c-22.1-4.7-16.4-32,5.3-24.7,4.9,1.7,17.5,10,17.5,22.9s-17.2,3.1-22.9,1.8ZM474.2,781.4c1.3-1.1,33.3-1.1,34.6,0,34.4,30-68.9,30-34.6,0ZM502.8,920.1c-14.7,0-13.8-15.6-11.9-23.3,3.3-13.4,12.6-23.2,23.9-11.3,7.2,7.7,2.7,34.6-12,34.6ZM495,739.6c0-15.3,21.8-16.6,26.3-15.2,20.4,6.2,21.2,24.4-1,30.5-4.3,1.2-25.3,0-25.3-15.3ZM529.2,980c-12.6-12.6,10.4-35.6,23-23,12.6,12.6-10.4,35.6-23,23ZM555.2,804.4c-10.6-10.6.3-37.5,11.7-46.2,11.4-8.7,30.9,3.9,34.5,11.7,3.6,7.8-35.6,45.1-46.2,34.5ZM612.9,816.1c12.6,12.6-10.4,35.6-23,23-12.6-12.6,10.4-35.6,23-23ZM590,914.3c0-25,46-10.1,46,5.7s-46,19.4-46-5.7ZM659.2,677.3c17.3-15.1,61,21.6,46.1,34.6-17.3,15.1-61-21.6-46.1-34.6ZM705.4,885.3c-11.5,15.6-27,14.8-34.6,0s8.2-31.4,16.8-31.8c8.6-.4,29.3,16.2,17.8,31.8ZM740.1,792.7c-10.2,25.5-60.8-6.8-46.3-22.9,14.5-16.1,56.5-2.6,46.3,22.9ZM799.9,863.6c-5.6,11.6-22.8,8.8-35.1-3.5-12.3-12.3,12.2-31.4,21.5-27.6,6.4,2.6,19.2,19.5,13.6,31.1ZM821.1,758.1c-17.5-19.8,15.1-52,34.6-34.6,12.4,11.1-23.7,47-34.6,34.6ZM868.6,834c-13.8,11.3-34.5-13.7-20.7-25.1,13.8-11.3,34.5,13.7,20.7,25.1Z"/>
  <path d="M601.4,769.9c-3.6-7.8-23.1-20.4-34.5-11.7-11.4,8.7-22.3,35.6-11.7,46.2,10.6,10.6,49.8-26.7,46.2-34.5Z"/>
  <path d="M705.4,711.8c14.9-13-28.8-49.7-46.1-34.6-14.9,13,28.8,49.7,46.1,34.6Z"/>
  <path d="M219.8,758.2c-13.2,3.1-11.7,41.2,5.7,46,17.4,4.8,28.7-17.1,28.7-28.7s-21.2-20.3-34.4-17.3Z"/>
  <path d="M196.8,868.1c0,24.2,71.4,23.6,45.9-5.7-6.5-7.5-45.9-12.1-45.9,5.7Z"/>
  <path d="M855.7,723.5c-19.5-17.4-52,14.8-34.6,34.6,10.9,12.4,47-23.5,34.6-34.6Z"/>
  <path d="M786.3,832.5c-9.3-3.8-33.9,15.2-21.5,27.6,12.3,12.3,29.5,15.2,35.1,3.5,5.6-11.6-7.2-28.5-13.6-31.1Z"/>
  <path d="M341.3,711.8c24.7,9.1,20.5-31.2,17.1-34.5-20.5-20.5-58.8,19.2-17.1,34.5Z"/>
  <path d="M219.7,688.8c-11.1-12.4-47,23.7-34.6,34.6,19.8,17.5,51.9-15.1,34.6-34.6Z"/>
  <path d="M335.3,735.1c-10.1-8.8-24.4-4.8-32.6,4.5-6.9,7.8-15.7,25.7-2,30.1,13.7,4.4,12.8-2.8,23.2-9.1,11.6-7,21.3-16.8,11.3-25.6Z"/>
  <path d="M521.3,724.4c-4.5-1.4-26.3,0-26.3,15.2s21.1,16.4,25.3,15.3c22.2-6.1,21.3-24.3,1-30.5Z"/>
  <path d="M94.4,765.8c-1.2,4.3-4.4,23.4,15.5,25.4s16.4-21.5,15.1-25.9c-6.4-22-24.8-20.6-30.6.5Z"/>
  <path d="M590,914.3c0,25,46,21.4,46,5.7s-46-30.7-46-5.7Z"/>
  <path d="M419.9,755.2c5.7-22.5-29.1-26.2-36.3-1.4-1.3,4.4-3.7,19.6,9.1,23.9,12.7,4.3,21.5,0,27.2-22.5Z"/>
  <path d="M324.8,900.3c-17.9,2.5-2.7,38.8,7,35.4,9.6-3.5,24-19.7,19.3-31.4s-20.3-4.8-26.3-4Z"/>
  <path d="M687.6,853.5c-8.6.4-24.3,17-16.8,31.8s23.1,15.6,34.6,0c11.5-15.6-9.2-32.2-17.8-31.8Z"/>
  <path d="M484.1,779.2c-9.9,2.2-15.7,8.3-16.6,10.8-6.5,19.1,58.1,18.5,47-1.9-1.1-2.1-20.6-11.1-30.5-8.9Z"/>
  <path d="M693.9,769.9c-14.5,16.1,36,48.4,46.3,22.9,10.2-25.5-31.7-39-46.3-22.9Z"/>
  <path d="M601.3,723.4c11.3-5-6.2-34.6-17.3-34.4-11.1.2-17.1,5.5-17.1,17.1s23.1,22.3,34.4,17.3Z"/>
  <path d="M339.3,848.9c7.2-7.7-5.9-45.3-23-34.6s5.2,53.4,23,34.6Z"/>
  <path d="M490.9,896.8c-1.9,7.7-2.7,23.3,11.9,23.3s19.2-27,12-34.6c-11.3-11.9-20.6-2.1-23.9,11.3Z"/>
  <path d="M410.5,943.5c-9.4,0-17.1,8.9-17.1,17.1s5.5,17.1,17.1,17.1,17.1-6.5,17.1-17.1-7.7-17.1-17.1-17.1Z"/>
  <path d="M445.1,677.3c-21.8-7.3-27.4,20-5.3,24.7,5.7,1.2,22.9,11.1,22.9-1.8s-12.6-21.3-17.5-22.9Z"/>
  <path d="M612.9,816.1c-12.6-12.6-35.6,10.4-23,23,12.6,12.6,35.6-10.4,23-23Z"/>
  <path d="M529.2,980c12.6,12.6,35.6-10.4,23-23-12.6-12.6-35.6,10.4-23,23Z"/>
  <path d="M414.2,867.2c12.6,12.6,35.6-10.4,23-23-12.6-12.6-35.6,10.4-23,23Z"/>
  <path d="M847.9,808.9c-13.8,11.3,6.9,36.4,20.7,25.1,13.8-11.3-6.9-36.4-20.7-25.1Z"/>
</svg>