<?xml version="1.0" encoding="UTF-8"?>
<svg id="Layer_1" xmlns="http://www.w3.org/2000/svg" version="1.1" viewBox="0 0 1000 1000">
  <!-- Generator: Adobe Illustrator 29.0.0, SVG Export Plug-In . SVG Version: 2.1.0 Build 186)  -->
  <defs>
    <style>
      .st0 {
        fill: none;
      }
    </style>
  </defs>
  <path class="st0" d="M137.6,757.6c-6.7,6.7-21.6,4.2-27,1.8-21.2-9.2,4.8-39.8,21.5-33.1s12.2,24.6,5.5,31.3ZM193.8,763.1c-13.2-11.8,25.2-50,36.8-36.8,18.6,21.1-16,55.3-36.8,36.8ZM243,664.7c15.3-12.7,35.4-1.2,36.8,0,18.3,16,0,24-18.4,24-18.3,0-33.7-11.3-18.4-24ZM255.3,800c-15.8-13.8,30.7-52.9,49.1-36.8,15.8,13.8-30.7,52.9-49.1,36.8ZM326.3,879.4c-9.3.2-21.2-1.7-21.2-15.1,3.8-28.8,26.5-33,33.9-7.4,1.3,4.7-3.4,22.3-12.8,22.5ZM372.9,670.8c1.2-1.9,5.3-10.4,22-12,16.8-1.6,26.2,12.1,27.2,14.6,8.2,21.2-64.2,20.3-49.2-2.7ZM388.5,754.6c4.6-5.4,26-6.2,32.1,0,6.2,6.2,5.2,21.5-5.5,33.1-19.7,19.4-50-5.9-26.6-33.1ZM439.8,909.6c-3.6.7-20.2,1.2-27.5-18.5-7.3-19.7,24.6-16.8,28.5-16,27,5.5,28.5,28.9-1,34.5ZM489.2,664.7c11.6-13.2,50,25,36.8,36.8-20.7,18.5-55.4-15.7-36.8-36.8ZM520.1,775.3c-44.3-16.3-3.6-58.5,18.2-36.7,3.6,3.6,8.1,46.4-18.2,36.7ZM545.1,874.5c-15.8-18.1-9.6-27.7,16.1-26.5,4.2.2,14,6.2,14,23.8s-27.1,6.3-30.1,2.8ZM575.3,972.4c-13.2-11.8,25.2-50,36.8-36.8,18.6,21.1-16,55.3-36.8,36.8ZM599.9,701.5c-3.1-15.9,1.6-36.8,18.5-36.8s28.7,23.7,18.4,36.7c-10.3,13.1-33.8,16-36.9,0ZM637,793.9c-.4-37.2,72.9-2.5,48.9,18.4-8.8,7.6-48.8-5.9-48.9-18.4ZM673.8,910.8c-18.6-21.1,16-55.3,36.8-36.8,13.2,11.8-25.2,50-36.8,36.8ZM772.2,738.5c-19.5-19.5,17.3-56.3,36.8-36.8,19.5,19.5-17.3,56.3-36.8,36.8ZM796.8,849.3c-24.8-21.7,48.9-48.9,48.9-18.4,0,12.4-40.2,26.1-48.9,18.4ZM865.4,764.1c-16.5-18.6-9.9-28.3,17.1-26.8,3.8.2,10.8,5.2,10.5,24.7-.3,19.5-24.5,5.6-27.6,2.2Z"/>
  <path d="M304.4,763.2c-18.4-16.1-65,23-49.1,36.8,18.4,16.1,65-23,49.1-36.8Z"/>
  <path d="M193.7,837.1c-15-15-40.2,3.3-42.2,21.4,7.3,7.1,14.8,13.9,22.5,20.6,17.5-3.3,34.3-27.4,19.7-42Z"/>
  <path d="M420.7,754.6c-6.2-6.2-27.5-5.4-32.1,0-23.3,27.2,6.9,52.5,26.6,33.1,10.6-11.6,11.6-27,5.5-33.1Z"/>
  <path d="M809,701.7c-19.5-19.5-56.3,17.3-36.8,36.8,19.5,19.5,56.3-17.3,36.8-36.8Z"/>
  <path d="M686,812.3c24-20.9-49.3-55.6-48.9-18.4.1,12.5,40.1,26,48.9,18.4Z"/>
  <path d="M526,701.5c13.2-11.8-25.2-50-36.8-36.8-18.6,21.1,16,55.3,36.8,36.8Z"/>
  <path d="M710.6,874c-20.7-18.5-55.4,15.7-36.8,36.8,11.6,13.2,50-25,36.8-36.8Z"/>
  <path d="M575.3,972.4c20.7,18.5,55.4-15.7,36.8-36.8-11.6-13.2-50,25-36.8,36.8Z"/>
  <path d="M538.3,738.6c-21.8-21.8-62.5,20.4-18.2,36.7,26.3,9.7,21.8-33.2,18.2-36.7Z"/>
  <path d="M796.8,849.3c8.8,7.7,48.9-6,48.9-18.4,0-30.5-73.7-3.3-48.9,18.4Z"/>
  <path d="M193.8,763.1c20.7,18.5,55.4-15.7,36.8-36.8-11.6-13.2-50,25-36.8,36.8Z"/>
  <path d="M575.2,871.8c0-17.5-9.9-23.6-14-23.8-25.7-1.1-31.9,8.5-16.1,26.5,3.1,3.5,30.1,14.8,30.1-2.8Z"/>
  <path d="M132.1,726.3c-16.6-6.6-42.7,23.9-21.5,33.1,5.4,2.4,20.3,4.9,27-1.8s11.1-24.6-5.5-31.3Z"/>
  <path d="M316.8,948c-5.6,6.3-5.9,11.8-3.2,16.1,10.4,4.2,20.9,8,31.6,11.5,3.7-.4,6.7-1.4,8.5-3.2,20.9-20.9-13.2-51.2-36.8-24.4Z"/>
  <path d="M440.8,875.1c-3.9-.8-35.8-3.7-28.5,16,7.3,19.7,23.9,19.2,27.5,18.5,29.5-5.6,28.1-29,1-34.5Z"/>
  <path d="M882.4,737.2c-26.9-1.5-33.5,8.2-17.1,26.8,3,3.4,27.3,17.3,27.6-2.2.3-19.5-6.7-24.4-10.5-24.7Z"/>
  <path d="M305.1,864.4c0,13.4,11.8,15.2,21.2,15.1,9.3-.2,14.1-17.8,12.8-22.5-7.4-25.6-30.1-21.4-33.9,7.4Z"/>
  <path d="M279.8,664.7c-1.4-1.2-21.5-12.7-36.8,0s0,24,18.4,24c18.3,0,36.7-8,18.4-24Z"/>
  <path d="M422.1,673.4c-1-2.6-10.5-16.2-27.2-14.6-16.8,1.6-20.8,10.1-22,12-15,23,57.5,23.8,49.2,2.7Z"/>
  <path d="M618.4,664.7c-16.8,0-21.5,20.9-18.5,36.8,3.1,15.9,26.6,13,36.9,0,10.3-13.1-1.6-36.7-18.4-36.7Z"/>
  <path d="M476.7,972.5c-7.6-7.6-39,6.5-36.6,18.4.4,2.2,1.1,4.1,1.9,5.8,9.4,1.1,18.8,1.9,28.3,2.5,7.3-7.6,11.9-21.1,6.4-26.6Z"/>
</svg>