<?xml version="1.0" encoding="UTF-8"?>
<svg id="Layer_1" xmlns="http://www.w3.org/2000/svg" version="1.1" viewBox="0 0 1000 1000">
  <!-- Generator: Adobe Illustrator 29.0.0, SVG Export Plug-In . SVG Version: 2.1.0 Build 186)  -->
  <defs>
    <style>
      .st0 {
        fill: none;
      }
    </style>
  </defs>
  <path class="st0" d="M234.7,692.5c16.8-16.9,59.3,17.8,33.2,44.5-4.9,5-53.5-24.1-33.2-44.5ZM123.4,770.3c-11.9-10.6,22.8-45.2,33.3-33.3,16.8,19.1-14.5,50-33.3,33.3ZM229.1,837c-33.7.3-2.2-65.9,16.6-44.3,6.9,7.9-5.3,44.2-16.6,44.3ZM251.1,899.9c1-2.1.5-3.9,14.4-9.9,13.9-6.1,28.1,6.2,29.1,7.6,16.1,21.9-53.6,22.7-43.5,2.3ZM312.6,759.4c22.2-21.1,60.4,8.2,44.5,22.1-13,11.3-52.4-14.5-44.5-22.1ZM348.7,891.1c-3.9,1-24.4,4.5-28.1-15-3.7-19.5,22.4-16.4,25.9-15.7,23.9,4.6,26.1,24.6,2.2,30.6ZM490.8,670.2c7.9-6.9,44.1,5.3,44.3,16.6.3,33.7-65.9,2.2-44.3-16.6ZM440.8,770.1c24.5-23.6,47.2,8.8,30.8,25.1s-30.4,8.2-36.3-2.1c-5.9-10.3,3.7-21.3,5.5-23ZM385.1,703.5c-40.1-14.8-3.2-52.9,16.5-33.2,3.2,3.2,7.3,42-16.5,33.2ZM424.1,887.2c-19.4-54.5,64.7-18.6,44.3,5.6-6.2,7.4-38,12.2-44.3-5.6ZM468.5,981.9c-17.7-17.7,15.6-51,33.3-33.3,17.7,17.7-15.6,51-33.3,33.3ZM513.1,892.8c-17.7-17.7,15.6-51,33.3-33.3,17.7,17.7-15.6,51-33.3,33.3ZM546.5,759.3c18.9-21.7,50.3,44.6,16.6,44.3-11.3-.1-23.6-36.3-16.6-44.3ZM585.2,981.9c-19.8,6.6-25.7-16.4-8.5-22.8,5.8-2.1,25.2-6.6,25.4.8s-12.1,20.5-16.9,22ZM646.6,904c-8.1,8.1-49.6-4.2-44.4-27.6,9.1-41.2,65.9,6.1,44.4,27.6ZM641.2,670.2c23.6-5.3,34.6,27.9,10.8,33.3-23.6,5.3-34.6-27.9-10.8-33.3ZM657.8,814.9c-17.7-17.7,15.6-51,33.3-33.3,17.7,17.7-15.6,51-33.3,33.3ZM724.6,892.8c-17.7-17.7,15.6-51,33.3-33.3,17.7,17.7-15.6,51-33.3,33.3ZM773.1,741.1c-2.7,2.2-13,6.8-28.7,6.8s-15.6-15.1,2.5-33.1,63.9-3.6,26.3,26.3ZM811.2,852.2c-10.3-10.3-13-25.5,0-31.5,16.4-7.7,23.2,7.7,23.2,16.2s-12.9,25.6-23.2,15.3ZM820.2,745.3c1-2.6,5.1-7.1,16.5-8.4,11.4-1.3,20.3,10.1,21.4,11.4,25.4,28.8-52.3,32.3-37.9-3Z"/>
  <path d="M602.1,876.4c-5.2,23.4,36.3,35.7,44.4,27.6,21.5-21.5-35.4-68.8-44.4-27.6Z"/>
  <path d="M468.4,892.8c20.3-24.2-63.7-60.1-44.3-5.6,6.3,17.8,38.1,13,44.3,5.6Z"/>
  <path d="M267.9,737c26.1-26.7-16.5-61.3-33.2-44.5-20.2,20.4,28.3,49.5,33.2,44.5Z"/>
  <path d="M229.1,837c11.3-.1,23.6-36.3,16.6-44.3-18.9-21.7-50.3,44.6-16.6,44.3Z"/>
  <path d="M724.6,892.8c17.7,17.7,50.9-15.6,33.3-33.3-17.7-17.7-50.9,15.6-33.3,33.3Z"/>
  <path d="M513.1,892.8c17.7,17.7,50.9-15.6,33.3-33.3-17.7-17.7-50.9,15.6-33.3,33.3Z"/>
  <path d="M657.8,814.9c17.7,17.7,50.9-15.6,33.3-33.3-17.7-17.7-50.9,15.6-33.3,33.3Z"/>
  <path d="M546.5,759.3c-6.9,7.9,5.3,44.2,16.6,44.3,33.7.3,2.2-65.9-16.6-44.3Z"/>
  <path d="M471.6,795.3c16.4-16.4-6.3-48.7-30.8-25.1-1.8,1.7-11.4,12.7-5.5,23,5.9,10.3,19.9,18.5,36.3,2.1Z"/>
  <path d="M535,686.9c-.1-11.3-36.3-23.6-44.3-16.6-21.7,18.9,44.6,50.3,44.3,16.6Z"/>
  <path d="M468.5,981.9c17.7,17.7,50.9-15.6,33.3-33.3-17.7-17.7-50.9,15.6-33.3,33.3Z"/>
  <path d="M746.9,714.8c-18,18-18.2,33.1-2.5,33.1s26-4.6,28.7-6.8c37.6-29.9-8.2-44.4-26.3-26.3Z"/>
  <path d="M685.4,937.5c-18.8-6.7-26.3,19.3-11.1,31.2,10.4-3.9,20.6-8,30.6-12.5-6.7-8.6-15.4-17.3-19.4-18.7Z"/>
  <path d="M123.4,770.3c18.8,16.7,50.1-14.2,33.3-33.3-10.5-11.9-45.2,22.6-33.3,33.3Z"/>
  <path d="M357.1,781.5c16-13.9-22.2-43.2-44.5-22.1-8,7.6,31.5,33.4,44.5,22.1Z"/>
  <path d="M641.2,670.2c-23.8,5.4-12.8,38.6,10.8,33.3,23.8-5.4,12.8-38.6-10.8-33.3Z"/>
  <path d="M385.1,703.5c23.8,8.8,19.7-30,16.5-33.2-19.7-19.7-56.6,18.5-16.5,33.2Z"/>
  <path d="M346.5,860.5c-3.4-.7-29.5-3.8-25.9,15.7,3.7,19.5,24.2,15.9,28.1,15,23.9-6,21.7-26-2.2-30.6Z"/>
  <path d="M858.1,748.3c-1.2-1.3-10.1-12.7-21.4-11.4-11.4,1.3-15.5,5.9-16.5,8.4-14.3,35.3,63.3,31.8,37.9,3Z"/>
  <path d="M390.5,948.6c-10.6-10.5-39.3,16.8-35.2,30.1,4.8,1.4,9.5,2.8,14.3,4.1,13.5-5.6,29.2-25.9,20.9-34.2Z"/>
  <path d="M265.5,890c-13.9,6.1-13.4,7.8-14.4,9.9-10,20.3,59.7,19.6,43.5-2.3-1.1-1.5-15.3-13.7-29.1-7.6Z"/>
  <path d="M576.7,959c-17.3,6.4-11.3,29.5,8.5,22.8,4.7-1.6,17-14.7,16.9-22s-19.6-2.9-25.4-.8Z"/>
  <path d="M811.2,820.7c-13,6.1-10.3,21.2,0,31.5,10.3,10.3,23.2-6.8,23.2-15.3s-6.8-23.9-23.2-16.2Z"/>
</svg>