<?xml version="1.0" encoding="UTF-8"?>
<svg id="Layer_1" xmlns="http://www.w3.org/2000/svg" version="1.1" viewBox="0 0 1000 1000">
  <!-- Generator: Adobe Illustrator 29.0.0, SVG Export Plug-In . SVG Version: 2.1.0 Build 186)  -->
  <defs>
    <style>
      .st0 {
        fill: none;
      }
    </style>
  </defs>
  <path class="st0" d="M561.7,665.3c9.9-3.4,16.1,2.1,20.3,11.2,7.1,15.1,8.7,36.2,4.4,42.3-3,4.2-28.4-6.4-33.3-26.3-2.2-9-1.4-23.8,8.5-27.2ZM164.7,764.5c-6.1,1.2-20.7,2.4-33.4-10.2-12.7-12.7,22.9-24.2,27.8-23.7,34.3,3.5,36.1,28.1,5.6,33.9ZM221.8,865.3c-2.1,9.1-12.8,12.2-17.7,12.1-27.2-.5-21.7-66,5.9-41.7,1.4,1.2,13.9,20.6,11.8,29.6ZM285.4,824.8c-17.7-5.3-32.1-26.8-17.7-35,14.4-8.2,42.2,4.1,46.7,11.8,4.5,7.7-11.4,28.5-29,23.2ZM317.7,718.7c-9.5,12.3-28.1,6.9-35,0-6.9-6.9,8.3-31.7,17-32.1,8.7-.4,27.5,19.8,18,32.1ZM338.6,944.3c-2.9-.9-19.4-18-11.7-31.6s18.9-14.8,37.5-1.3c18.5,13.5,5.8,42.8-25.8,32.9ZM399.5,870.7c-8.5,4.6-30.4-7.4-34.8-17.5-4.4-10.1,6.1-17.3,17.3-17.3s26,30.2,17.5,34.8ZM405.6,788.8c-42.1-15.5-3.4-55.6,17.3-34.9,3.4,3.4,7.7,44.1-17.3,34.9ZM423,707c-7.3-8.3,5.6-46.4,17.5-46.5,35.4-.4,2.4,69.2-17.5,46.5ZM464.1,975.9c-42.1-15.5-3.4-55.6,17.3-34.9,3.4,3.4,7.7,44.1-17.3,34.9ZM490.1,866.7c-1.3,7.9-15.8,21.5-32,15.7-16.2-5.8-12.5-31.9,0-35s33.6,9.8,32,19.3ZM511.9,804.9c-23.2,18-24.3-55.1-3.3-45.6,2.3,1,8.5,4.2,11.3,9.9,2.8,5.7.5,30.2-8,35.7ZM563.2,917.5c-11.4,7.1-33.3-6.4-34.9-17.7-1.6-11.3,1.2-29,17.5-29s28.8,39.5,17.4,46.7ZM575,835.6c-18.5-18.5,16.4-53.5,34.9-35s-16.4,53.5-34.9,35ZM607,974.4c-22.7-5.7-24-25.5.2-31.6,4.1-1,21,2.9,21,17.3s-17,15.4-21.1,14.3ZM686,905.6c-24.4,0-23.9-72.2,5.8-46.5,7.6,6.6,12.3,46.4-5.8,46.5ZM681.5,800.2c-24.8-4.7-31.5-24.7-4.8-32.2,4.2-1.2,24-2.5,26.7,11.8,2.7,14.4-15.7,21.5-21.9,20.3ZM668.5,718.7c-22.7-19.8,46.8-52.9,46.5-17.5-.1,11.9-38.1,24.7-46.5,17.5ZM766,830.2c-20.1,9.3-20.2-56.6-.1-47.6,2.3,1,11.7,3.1,11.7,15s-9.3,31.5-11.6,32.5ZM808.8,753.8c-18.5-18.5,16.4-53.5,34.9-35,18.5,18.5-16.4,53.5-34.9,35Z"/>
  <path d="M586.5,718.7c4.2-6.1,2.7-27.2-4.4-42.3-4.3-9.1-10.4-14.6-20.3-11.2-9.9,3.4-10.8,18.2-8.5,27.2,4.9,19.8,30.3,30.5,33.3,26.3Z"/>
  <path d="M159.1,730.6c-4.9-.5-40.5,11-27.8,23.7,12.7,12.7,27.3,11.4,33.4,10.2,30.6-5.8,28.7-30.4-5.6-33.9Z"/>
  <path d="M440.5,660.5c-11.9.1-24.7,38.1-17.5,46.5,19.8,22.8,52.8-46.8,17.5-46.5Z"/>
  <path d="M364.4,911.4c-18.5-13.5-29.7-12.2-37.5,1.3s8.7,30.7,11.7,31.6c31.6,9.9,44.3-19.3,25.8-32.9Z"/>
  <path d="M865.4,824c-22.8-21.1-47.9,15.2-34.9,46.7,2.8-.4,6.1-1.9,9.5-4.2,6.5-6,12.8-12.2,19-18.6,7.1-9.6,11.1-19.6,6.4-23.9Z"/>
  <path d="M668.5,718.7c8.3,7.3,46.3-5.6,46.5-17.5.4-35.4-69.2-2.4-46.5,17.5Z"/>
  <path d="M609.9,800.7c-18.5-18.5-53.5,16.4-34.9,35,18.5,18.5,53.5-16.4,34.9-35Z"/>
  <path d="M843.7,718.8c-18.5-18.5-53.5,16.4-34.9,35s53.5-16.4,34.9-35Z"/>
  <path d="M267.8,789.9c-14.4,8.2,0,29.6,17.7,35,17.7,5.3,33.5-15.5,29-23.2-4.5-7.7-32.3-19.9-46.7-11.8Z"/>
  <path d="M676.7,768.1c-26.7,7.5-20,27.4,4.8,32.2,6.3,1.2,24.6-5.9,21.9-20.3-2.7-14.4-22.6-13-26.7-11.8Z"/>
  <path d="M405.6,788.8c25,9.2,20.7-31.5,17.3-34.9-20.7-20.7-59.4,19.4-17.3,34.9Z"/>
  <path d="M545.8,870.8c-16.3,0-19.1,17.7-17.5,29,1.6,11.3,23.5,24.8,34.9,17.7,11.4-7.1-1.1-46.7-17.4-46.7Z"/>
  <path d="M756.3,894.2c-13.2,4.1-25.8,24.6-17.7,35,2.1,2.6,6.1,4,10.9,4.2,12-6.9,23.7-14.3,35-22.2-3.5-10.4-17.2-20.4-28.2-17Z"/>
  <path d="M691.7,859.1c-29.6-25.7-30.2,46.5-5.8,46.5,18,0,13.4-39.9,5.8-46.5Z"/>
  <path d="M464.1,975.9c25,9.2,20.7-31.5,17.3-34.9-20.7-20.7-59.4,19.4-17.3,34.9Z"/>
  <path d="M458.1,847.4c-12.5,3-16.2,29.2,0,35,16.2,5.8,30.7-7.8,32-15.7,1.6-9.4-19.5-22.3-32-19.3Z"/>
  <path d="M299.7,686.5c-8.7.4-23.9,25.3-17,32.1,6.9,6.9,25.5,12.3,35,0,9.5-12.3-9.3-32.6-18-32.1Z"/>
  <path d="M204.1,877.4c4.8,0,15.6-3,17.7-12.1,2.1-9.1-10.4-28.4-11.8-29.6-27.5-24.3-33,41.2-5.9,41.7Z"/>
  <path d="M607.1,942.7c-24.2,6.1-22.9,25.9-.2,31.6,4.2,1.1,21.1,0,21.1-14.3s-16.9-18.3-21-17.3Z"/>
  <path d="M508.7,759.2c-21.1-9.5-20,63.6,3.3,45.6,8.5-5.6,10.8-30.1,8-35.7-2.8-5.7-9-8.8-11.3-9.9Z"/>
  <path d="M765.9,782.6c-20.1-9-20,56.9.1,47.6,2.3-1.1,11.6-20.6,11.6-32.5s-9.4-14-11.7-15Z"/>
  <path d="M382.1,835.9c-11.2,0-21.7,7.2-17.3,17.3,4.4,10.1,26.2,22.1,34.8,17.5,8.5-4.6-6.3-34.8-17.5-34.8Z"/>
</svg>