<?xml version="1.0" encoding="UTF-8"?>
<svg id="Layer_1" xmlns="http://www.w3.org/2000/svg" version="1.1" viewBox="0 0 1000 1000">
  <!-- Generator: Adobe Illustrator 29.0.0, SVG Export Plug-In . SVG Version: 2.1.0 Build 186)  -->
  <defs>
    <style>
      .st0 {
        fill: none;
      }
    </style>
  </defs>
  <path class="st0" d="M162.3,759.8c-18.1-18.1,16-52.2,34.1-34.1,18.1,18.1-16,52.2-34.1,34.1ZM227.4,861.1c-8.6,4.4-19.7,13.1-30.8,1.9-11.1-11.1,13.7-29.8,30.2-25.6,16.4,4.1,9.2,19.3.7,23.7ZM264.9,919.6c-12.2-10.9,23.3-46.3,34.1-34.1,17.2,19.5-14.9,51.3-34.1,34.1ZM283.3,811.3c-16,.2-10.4-13.3-8.7-19.4,4.2-15.6,24.5-26.3,37.8-14.8,8,7-13,34-29,34.2ZM336.2,697.3c5.2-3.3,24-11.5,33.4-.2,9.4,11.3,3.8,20.7-17.9,28.5s-31-18.5-15.5-28.3ZM356.2,828.4c8.1-7.1,45.2,5.5,45.3,17.1.3,34.5-67.5,2.3-45.3-17.1ZM403.5,953.6c-27.9,6.1-38-39.6-11.1-45.5,27.9-6.1,38,39.6,11.1,45.5ZM419.8,767.6c-2.3-5.2-7.6-18.1,4.3-30s31.8,8.1,34.6,10.9c15.7,15.7-16.2,69-38.9,19ZM470.6,889.9c4.3-32.7,29.1-32.7,33.4,0,.7,5.3.7,27-16.4,29.9-17,2.9-17.7-24.6-17-29.9ZM520.3,985.9c-5.5,10.9-28.3,12.8-38.3-4.1-10-16.9,8.7-31.4,22.2-31.4s21.5,24.6,16.1,35.5ZM527.2,691.4c20.8-5.7,30.2,5,30.2,17.1s-3.1,17-30.2,17.1-20.8-28.4,0-34.1ZM538.7,771.4c17.1-14.9,60.2,21.3,45.5,34.1-17.1,14.9-60.2-21.3-45.5-34.1ZM592.9,862.8c6.9-11.7,16.7-21.6,25.5-11.6,9.5,10.9,3.9,26.6-7.1,34.2-7.5,5.2-15.5,10.4-24.1,1.9-8.6-8.6-.3-14.3,5.7-24.5ZM595.7,976.6c-18.1-18.1,16-52.2,34.1-34.1,18.1,18.1-16,52.2-34.1,34.1ZM675.4,748.5c-17.5,3.7-40.6-22.6-34.1-34.1s18.4-19,34.1-11.5c15.7,7.4,17.5,41.9,0,45.6ZM742.1,923c-13.4,8.6-23.5.3-26.3-3-14.6-16.8-8.5-25.6,15.9-24.4,3.7.2,23.9,18.8,10.5,27.4ZM742.5,837c-11.7-11.8,22.6-45.7,34.1-34.1,11.7,11.8-22.6,45.7-34.1,34.1ZM784.4,752.3c-22,4.8-30-31.3-8.7-36,22-4.8,30,31.3,8.7,36ZM857,792.6c-6.8,2.8-22.8,1.5-27.5-15.3-4.7-16.8,22.9-40.2,39.3-21.4,10.8,12.4,2.1,31-11.8,36.8Z"/>
  <path d="M392.4,908c-27,5.9-16.8,51.7,11.1,45.5,27-5.9,16.8-51.7-11.1-45.5Z"/>
  <path d="M424.2,737.6c-11.9,11.9-6.7,24.8-4.3,30,22.7,50,54.6-3.3,38.9-19-2.8-2.8-22.7-22.9-34.6-10.9Z"/>
  <path d="M487.6,919.8c17-2.9,17.1-24.6,16.4-29.9-4.3-32.7-29.1-32.7-33.4,0-.7,5.3,0,32.8,17,29.9Z"/>
  <path d="M538.7,771.4c-14.7,12.8,28.4,49,45.5,34.1,14.7-12.8-28.4-49-45.5-34.1Z"/>
  <path d="M196.4,725.7c-18.1-18.1-52.2,16-34.1,34.1s52.2-16,34.1-34.1Z"/>
  <path d="M595.7,976.6c18.1,18.1,52.2-16,34.1-34.1-18.1-18.1-52.2,16-34.1,34.1Z"/>
  <path d="M401.5,845.5c-.1-11.6-37.2-24.1-45.3-17.1-22.2,19.4,45.7,51.6,45.3,17.1Z"/>
  <path d="M264.9,919.6c19.2,17.1,51.3-14.6,34.1-34.1-10.8-12.2-46.3,23.2-34.1,34.1Z"/>
  <path d="M742.5,837c11.5,11.6,45.8-22.3,34.1-34.1-11.5-11.6-45.8,22.3-34.1,34.1Z"/>
  <path d="M731.6,895.6c-24.4-1.3-30.5,7.6-15.9,24.4,2.9,3.3,12.9,11.6,26.3,3,13.4-8.6-6.8-27.2-10.5-27.4Z"/>
  <path d="M274.6,791.9c-1.6,6.1-7.3,19.6,8.7,19.4,16-.2,37.1-27.2,29-34.2-13.2-11.5-33.5-.8-37.8,14.8Z"/>
  <path d="M611.3,885.4c11-7.6,16.6-23.3,7.1-34.2-8.7-10-18.6-.1-25.5,11.6-6,10.2-14.2,15.9-5.7,24.5,8.6,8.6,16.6,3.3,24.1-1.9Z"/>
  <path d="M369.7,697.1c-9.4-11.3-28.3-3.1-33.4.2-15.5,9.8-6.2,36.2,15.5,28.3s27.4-17.2,17.9-28.5Z"/>
  <path d="M557.4,708.4c0-12.1-9.4-22.8-30.2-17.1-20.8,5.7-27.2,34.1,0,34.1s30.2-5,30.2-17.1Z"/>
  <path d="M675.4,702.8c-15.7-7.4-27.6,0-34.1,11.5s16.6,37.8,34.1,34.1c17.5-3.7,15.7-38.2,0-45.6Z"/>
  <path d="M868.8,755.8c-16.4-18.8-43.9,4.6-39.3,21.4,4.7,16.8,20.7,18.2,27.5,15.3,13.9-5.8,22.6-24.4,11.8-36.8Z"/>
  <path d="M226.8,837.4c-16.4-4.1-41.3,14.5-30.2,25.6,11.1,11.1,22.2,2.5,30.8-1.9,8.6-4.4,15.8-19.6-.7-23.7Z"/>
  <path d="M504.2,950.3c-13.5,0-32.2,14.5-22.2,31.4,10,16.9,32.8,15,38.3,4.1s-2.6-35.5-16.1-35.5Z"/>
  <path d="M775.6,716.4c-21.3,4.7-13.3,40.8,8.7,36,21.3-4.7,13.3-40.8-8.7-36Z"/>
</svg>