<?xml version="1.0" encoding="UTF-8"?>
<svg id="Layer_1" xmlns="http://www.w3.org/2000/svg" version="1.1" viewBox="0 0 1000 1000">
  <!-- Generator: Adobe Illustrator 29.0.0, SVG Export Plug-In . SVG Version: 2.1.0 Build 186)  -->
  <defs>
    <style>
      .st0 {
        fill: none;
      }
    </style>
  </defs>
  <path class="st0" d="M887.6,666.5c22.1,22.1-19.6,63.8-41.7,41.7-22.1-22.1,19.6-63.8,41.7-41.7ZM483.5,680.3c-9.9,8.7-55.2-6.7-55.4-20.8-.4-42.2,82.5-2.8,55.4,20.8ZM167.1,751.3c-1.1,9.7-14.8,18.9-19.3,20-38.9,9.2-33.6-79.6,1.1-49,1.6,1.5,19.3,19.3,18.2,29.1ZM177.1,708.2c-27.1-23.6,55.8-63,55.4-20.8-.1,14.2-45.5,29.5-55.4,20.8ZM204.9,819.7c-18.9-16.4,37.3-60,55.6-41.7,29,29.1-33,61.3-55.6,41.7ZM320,695.2c-13.2,8.8-18.2,20-31.4,13.1-13.2-6.9-6.7-21.6-1.8-30.5,8.4-15.1,29.2-23.6,43.4-11.3,11.1,9.7,2.2,20.5-10.2,28.7ZM385.9,945.1c-20.4,7.5-68.9-36.6-19.7-41.6,5.8-.6,17.3-2,26.4,3.9s13.7,30.1-6.7,37.6ZM413.6,795.2c-22.9,0-46.9-38.4-17.5-43.2,9.8-1.6,29.6-7.4,38.6,1.6,8.9,8.9,1.9,41.7-21,41.7ZM501.6,883.8c-22.6,19.7-84.6-12.5-55.6-41.7,18.2-18.3,74.5,25.2,55.6,41.7ZM525.6,743.1c-.4-42.2,82.5-2.8,55.4,20.8-9.9,8.7-55.2-6.7-55.4-20.8ZM567.2,986.9c-26.9-26.9,44.3-86.1,55.6-34.6,6.5,29.3-45.5,44.7-55.6,34.6ZM588.2,889.3c-42-14.9,3.7-83.1,32.7-39.8,16.3,24.4.9,51.7-32.7,39.8ZM636.7,666.4c-23.5,20.9-62.7-17.8-41.7-41.7,13.1-14.9,56.6,28.3,41.7,41.7ZM692.6,833.6c-30.4-30.6,36.8-60.6,55.7-41.7,30.4,30.6-36.8,60.6-55.7,41.7ZM773.9,711c-3.7,7-16.6,21.9-32.4,11-15.7-10.8,5-67.4,20.6-55.5s15.5,37.5,11.7,44.5ZM818.1,778.1c11.9-4.8,42.7-23.6,55.6-14,12.9,9.5,14.2,35.9,0,41.7-14.2,5.8-42.7-1.2-53.8-5.6-11.1-4.4-13.6-17.2-1.7-22Z"/>
  <path d="M746.7,886.1c-10.9-6.9-29.1-5.8-40.3,3.9-10.7,9.2-14.7,40,13.3,59.3,17.2-8.4,33.8-17.8,49.8-28.1-.7-12.9-10-26.9-22.9-35.1Z"/>
  <path d="M567.2,986.9c10.1,10.1,62-5.2,55.6-34.6-11.3-51.5-82.5,7.6-55.6,34.6Z"/>
  <path d="M692.6,833.6c18.8,18.9,86.1-11.1,55.7-41.7-18.8-18.9-86.1,11.1-55.7,41.7Z"/>
  <path d="M446,842.1c-29,29.1,33,61.3,55.6,41.7,18.9-16.4-37.3-60-55.6-41.7Z"/>
  <path d="M204.9,819.7c22.6,19.7,84.6-12.5,55.6-41.7-18.2-18.3-74.5,25.2-55.6,41.7Z"/>
  <path d="M588.2,889.3c33.6,11.9,49-15.3,32.7-39.8-29-43.4-74.7,24.8-32.7,39.8Z"/>
  <path d="M396.1,752c-29.4,4.8-5.4,43.2,17.5,43.2s30-32.7,21-41.7c-8.9-8.9-28.8-3.2-38.6-1.6Z"/>
  <path d="M392.6,907.5c-9-5.9-20.6-4.5-26.4-3.9-49.3,5-.7,49,19.7,41.6s15.7-31.7,6.7-37.6Z"/>
  <path d="M260.5,889.5c-4.2-9.9-52.3-1-57.5,8.1-.6,1-.9,2.4-.9,4,13.3,9.9,27.2,19.1,41.5,27.7,19.8-10.5,21-30.4,17-39.8Z"/>
  <path d="M581,763.9c27.1-23.6-55.8-63-55.4-20.8.1,14.2,45.5,29.5,55.4,20.8Z"/>
  <path d="M887.6,666.5c-22.1-22.1-63.8,19.6-41.7,41.7,22.1,22.1,63.8-19.6,41.7-41.7Z"/>
  <path d="M762.1,666.5c-15.6-11.9-36.3,44.7-20.6,55.5,15.7,10.8,28.6-4,32.4-11,3.7-7,3.9-32.6-11.7-44.5Z"/>
  <path d="M232.4,687.4c.4-42.2-82.5-2.8-55.4,20.8,9.9,8.7,55.2-6.7,55.4-20.8Z"/>
  <path d="M483.5,680.3c27.1-23.6-55.8-63-55.4-20.8.1,14.2,45.5,29.5,55.4,20.8Z"/>
  <path d="M595.1,624.7c-21,23.9,18.2,62.6,41.7,41.7,14.9-13.3-28.5-56.6-41.7-41.7Z"/>
  <path d="M873.6,805.8c14.2-5.8,12.9-32.2,0-41.7-12.9-9.5-43.7,9.3-55.6,14s-9.3,17.7,1.7,22c11.1,4.4,39.6,11.4,53.8,5.6Z"/>
  <path d="M79.4,722.3c-8.7-7.7-19.5-7.3-28.6-2.5,5.7,11.6,11.8,22.9,18.3,34,10.7-10.6,17.8-24.8,10.3-31.4Z"/>
  <path d="M149,722.2c-34.7-30.6-40,58.3-1.1,49,4.5-1.1,18.2-10.2,19.3-20,1.1-9.7-16.5-27.6-18.2-29.1Z"/>
  <path d="M330.2,666.5c-14.2-12.3-34.9-3.8-43.4,11.3-4.9,8.8-11.5,23.6,1.8,30.5,13.2,6.9,18.2-4.3,31.4-13.1,12.4-8.2,21.3-19,10.2-28.7Z"/>
</svg>