<?xml version="1.0" encoding="UTF-8"?>
<svg id="Layer_1" xmlns="http://www.w3.org/2000/svg" version="1.1" viewBox="0 0 1000 1000">
  <!-- Generator: Adobe Illustrator 29.0.0, SVG Export Plug-In . SVG Version: 2.1.0 Build 186)  -->
  <defs>
    <style>
      .st0 {
        fill: none;
      }
    </style>
  </defs>
  <path class="st0" d="M179.8,772.9c-13.8,10.1-24.3,0-24.3-18.6s14.7-25.8,24.3-18.6,13.8,27.2,0,37.2ZM254.6,897.5c-8.9,7.7-49.4-6-49.5-18.6-.4-37.7,73.7-2.5,49.5,18.6ZM316.9,822.8c-21.1,24.2-56.3-49.9-18.6-49.5,12.7.1,26.4,40.6,18.6,49.5ZM366.7,698.3c19.8,19.8-17.5,57-37.2,37.3-19.8-19.8,17.5-57,37.2-37.3ZM391.6,909.9c-6,21.9-35.2,24.2-49.7,12.5-14.5-11.6,1.6-33.3,6.8-40.3,9.6-12.8,48.9,5.8,42.9,27.8ZM426.7,829.7c-6.1-.8-19.7-5.3-23-16-3.3-10.7,14.6-14.7,19.3-15.7,28.7-6.5,40.5,36.8,3.7,31.7ZM479.1,716.9c7.5-12.7,25.2-24.6,37-18.6s-5.8,33.6-18.6,37.1c-12.9,3.4-25.9-5.7-18.4-18.4ZM516.2,935c-23,22.7-59.5-20.3-23.8-41.5,5.8-3.5,29.1-9.7,34,2,4.9,11.7-7.2,36.5-10.2,39.5ZM562,805.4c-7.3,3.7-20.7,9.3-28.2,4.9-7.6-4.4-6.9-12.9-4.9-18.4,21.3-59.6,68.4-4.3,33.2,13.5ZM609.1,734.9c-17-20.4,18.3-35.5,31.6-24.1s3.6,31.5-6.2,33.8-22.1-5.8-25.4-9.7ZM658.8,929.3c-5.9,5.9-20.6,12.2-32.3,4.7-11.7-7.5-7.9-32.1-3.6-38.3,10.9-15.6,31.6-13.7,39.5,7.9,1.9,5.1,2.2,19.8-3.7,25.7ZM740.4,822.8c-10.5,14.8-36.3,13.4-49.7,0s11-35.6,22.9-36.9c12.8-1.4,37.3,22,26.8,36.9ZM777.9,785.4c-18.8-21.3,16.2-56,37.2-37.2,13.4,11.9-25.5,50.6-37.2,37.2Z"/>
  <path d="M622.9,895.7c-4.4,6.2-8.1,30.8,3.6,38.3,11.7,7.5,26.4,1.2,32.3-4.7s5.5-20.5,3.7-25.7c-7.9-21.7-28.6-23.5-39.5-7.9Z"/>
  <path d="M492.4,893.4c-35.7,21.2.8,64.2,23.8,41.5,3.1-3,15.2-27.8,10.2-39.5-4.9-11.7-28.2-5.5-34-2Z"/>
  <path d="M785.9,875.1c-20.7,6.2-23,21.6-7,29.9,2.2,1.2,5.2,2.8,8.5,4.3,11-7.7,21.6-15.9,31.9-24.4-.2-.3-.4-.6-.5-.8-6.1-9.1-25.5-11.1-32.9-8.9Z"/>
  <path d="M348.7,882.2c-5.2,7-21.3,28.7-6.8,40.3,14.5,11.6,43.7,9.4,49.7-12.5,6-21.9-33.4-40.6-42.9-27.8Z"/>
  <path d="M528.8,791.9c-2,5.5-2.6,14.1,4.9,18.4,7.6,4.4,21-1.2,28.2-4.9,35.2-17.8-11.9-73.1-33.2-13.5Z"/>
  <path d="M713.6,785.9c-11.9,1.3-36.3,23.4-22.9,36.9s39.2,14.8,49.7,0-14-38.3-26.8-36.9Z"/>
  <path d="M298.2,773.3c-37.7-.4-2.5,73.8,18.6,49.5,7.7-8.9-6-49.4-18.6-49.5Z"/>
  <path d="M205.1,878.9c.1,12.7,40.6,26.4,49.5,18.6,24.2-21.1-49.9-56.3-49.5-18.6Z"/>
  <path d="M366.7,698.3c-19.8-19.8-57,17.5-37.2,37.3,19.8,19.8,57-17.5,37.2-37.3Z"/>
  <path d="M423,960c-18.6,4.2-18.2,23.7-7.2,32.9,7.5,1.3,15.1,2.4,22.7,3.3,22.2-8.3,9.8-42-15.4-36.3Z"/>
  <path d="M815.1,748.2c-21-18.7-56,15.9-37.2,37.2,11.7,13.3,50.6-25.3,37.2-37.2Z"/>
  <path d="M423,798c-4.7,1.1-22.6,5-19.3,15.7,3.3,10.7,16.8,15.1,23,16,36.8,5.1,25.1-38.2-3.7-31.7Z"/>
  <path d="M563.2,978.6c-6.8-20.9-24.2-20.3-31.3-1.6-1.8,4.8-3,14.6,2,21.8,10.3-.7,20.6-1.7,30.7-3,1.2-6.3-.1-13.7-1.3-17.3Z"/>
  <path d="M634.5,744.6c9.8-2.3,19.6-22.5,6.2-33.8s-48.6,3.8-31.6,24.1c3.3,3.9,15.5,12,25.4,9.7Z"/>
  <path d="M179.8,735.7c-9.6-7.2-24.3,0-24.3,18.6s10.4,28.7,24.3,18.6c13.8-10.1,9.6-30,0-37.2Z"/>
  <path d="M497.5,735.4c12.9-3.4,30.4-31.1,18.6-37.1s-29.5,5.9-37,18.6c-7.5,12.7,5.6,21.9,18.4,18.4Z"/>
</svg>