<?xml version="1.0" encoding="UTF-8"?>
<svg id="Layer_1" xmlns="http://www.w3.org/2000/svg" version="1.1" viewBox="0 0 1000 1000">
  <!-- Generator: Adobe Illustrator 29.0.0, SVG Export Plug-In . SVG Version: 2.1.0 Build 186)  -->
  <path d="M659,899.2l-187.5-102.2c-25.5-15.5,33.3-76.7,47.1-93.2,27.1-32.4,130.5-107.5,107.3-147.4l-209.9-109.8c-77.2,64.9-28.2,198.2-141.7,216.5-79.5,12.8-136.1,6-186.9-58.7l-63,59.3c11.8,36.3,27.6,70.8,46.9,102.9,30,27.4,67.5,41.1,107.5,72.5,162.5,127.6,219.3,206,453,150.2,32.4-7.7,111.2-45.5,181.1-89.9,49.8-40,91.8-89.3,123.2-145.3-40.6-103.9-306.9,32.2-277.1,145.1Z"/>
  <path d="M655.6,34c24,66.2,58.6,186.9,58.8,206,.2,23.7-25.1,45.6-25.6,86.9-.3,22.1,26.9,157.6,35.1,162.9,46.4,10,101.3-6.2,146.4,2.4,41.5,7.9,69.9,68,126.9,69.4,1.8-17.2,2.7-34.7,2.7-52.4,0-50.1-7.4-98.5-21.1-144.2-7.6-1.4-15-3.4-21.2-7.2-22.9-13.9-66-98.8-103.5-117.1-10.6-21.3,7-41.8,17.6-65.8-57.8-64.3-132.1-113.5-216.2-141Z"/>
  <path d="M384.5,320.7c53.8,30.6,133.8-27.8,195.2-33.7l-30.8-238.3,45.4-30.5c-30.6-5.8-62.1-8.9-94.4-8.9-58.9,0-115.4,10.2-167.9,28.9-27.6,94-11.9,246,52.4,282.5Z"/>
  <path d="M123.8,341.9l-23.6-133C43.5,284.4,7.6,376.4,1.1,476.5c68-5.5,50.4-104.9,122.8-134.6Z"/>
</svg>