<?xml version="1.0" encoding="UTF-8"?>
<svg id="Layer_1" xmlns="http://www.w3.org/2000/svg" version="1.1" viewBox="0 0 1000 1000">
  <!-- Generator: Adobe Illustrator 29.0.0, SVG Export Plug-In . SVG Version: 2.1.0 Build 186)  -->
  <path d="M277.9,925.5c3.9-29.5-5.9-157,0-162.7,45.9-10.8,97.4,20.9,139.4,9.3,68.9-19,169-129.6,247.2-148.6l-131.3-118.3-139.3,102.8c-96-135.9-188.9-261.3-326.7-358.4C24.4,323.3,0,408.8,0,500s4.1,73.6,11.8,108.6c33.1-4.4,28-55.6,75.6-59.9,36-3.2,145.1,178.1,175,214-39.5,11.9-79.9,28.6-117.6,45.2-9.4,4.1-26.2-.8-35.5,4.1,45.1,56.4,102.1,102.8,167.3,135.4,2.5-3.1-.2-10.1,1.3-21.9Z"/>
  <path d="M999.6,519.6l-165.5,18.7-7.4,39.2,93.5,139.3-155,154.3c-23.8-5.4-50.1-107.5-66.3-135-7.6-12.9,4-25.6-26.5-19.4l-163.4,149.9,29.7,132c251.6-19.3,451.1-224.8,460.9-478.9Z"/>
  <path d="M347.5,299.9l151.9,89.1,163.5-110.6c-44.4-91.9-165.1-177.9-84-272.3-25.7-4.1-52-6.2-78.9-6.2-65.4,0-127.8,12.6-185,35.4,74.4,90.2,49.7,155.4,32.5,264.5Z"/>
</svg>