<?xml version="1.0" encoding="UTF-8"?>
<svg id="Layer_1" xmlns="http://www.w3.org/2000/svg" version="1.1" viewBox="0 0 1000 1000">
  <!-- Generator: Adobe Illustrator 29.0.0, SVG Export Plug-In . SVG Version: 2.1.0 Build 186)  -->
  <path d="M999.7,518.1c-1.2,33.5-5.7,66.2-13.2,97.8,9.3-32.2,14.9-65,13.2-97.8Z"/>
  <path d="M935.5,748.8c1.6-3.9,3.2-7.9,4.9-11.9-2.1,3.8-4.2,7.7-6.4,11.4l1.5.4Z"/>
  <path d="M385.8,988.1c2.2,0,4.4.1,6.6.3-2.3-.5-4.6-1-6.8-1.6,0,.4.2.9.3,1.3Z"/>
  <path d="M999.7,518.1c-.5-9.5-1.6-19-3.5-28.4-9.8-50-124.7-123.2-148.3-179.1l89.1-52.4c-5.3-10.1-10.9-19.9-16.8-29.4C831.1,91.1,676.2,0,500,0s-235.1,44.2-322.1,117.5c-5.1,4.8-10.2,9.8-15.2,14.9l90,88,50.6,23.7,82.4-157.5,146.7,25.5,28.1,187.7c21.9,48,106.6,62.1,130,93.4,13.4,17.9,65.8,172.9,64.3,196.6-1.3,20.7-32.9,93.6-26.5,100.5l205.7,58.2c2.2-3.8,4.3-7.6,6.4-11.4,15.8-38.3,34-79.1,46.1-121.1,7.5-31.5,12-64.2,13.2-97.8Z"/>
  <path d="M66.6,734.1c56.6,15.1,35.8-47.1,69.5-63.4,59.7-28.8,181.1-40.1,249.7-54.9l-133.3-201.4c-121.6,50.7-215.4-29.6-247.5,14.8C1.7,452.3,0,476,0,500,0,579.8,18.7,655.2,51.9,722.1c4.9,6.2,9.8,10.5,14.7,12Z"/>
  <path d="M607.9,934.8c19.9-16.7,45-15.9,61.6-31.7,48.4-46,42.9-107.3,27.7-166.6l-281.6-39.6c-67.4,61.2.3,137.6-1.7,195.2-1.1,31.6-35.5,58.5-28.4,94.8,2.3.5,4.6,1.1,6.8,1.6,20.7,1.2,42.3,5.8,64.1,9.7,14.4,1.2,28.9,1.9,43.6,1.9s34.6-.9,51.6-2.6c6-2.2,11.8-4.9,17.6-8.3,15.4-9.3,21.9-40.1,38.8-54.2Z"/>
</svg>