<?xml version="1.0" encoding="UTF-8"?>
<svg id="Layer_1" xmlns="http://www.w3.org/2000/svg" version="1.1" viewBox="0 0 1000 1000">
  <!-- Generator: Adobe Illustrator 29.0.0, SVG Export Plug-In . SVG Version: 2.1.0 Build 186)  -->
  <path d="M593.3,829c6.1,58.3-11.5,109.4-15,164.9,58.9-9.3,114.3-28.8,164.4-56.7l-97.1-107.1c-29.1-20.4-35.6-2.7-52.3-1.1h0Z"/>
  <path d="M608.8,484.6l47.2-172.1h0c25.9,3.8,84.9,15.9,92.5,41.2l-30.6,146.3,14.3,33.7c18.5,11.7,49.7,178.8,111.5,170.2v-328.7c65.7,12.1,83.9-33,115.2-73.7-60.2-139-181.6-245.2-330.3-284.7-16.7,17.5-30.7,43-74.4,46.8-65.3,5.6-134.3-31.2-199-42.3-47.2,14.2-91.4,35.3-131.6,61.9,74.5,146.3,251,198,165.9,389.7-29.3,34.5-94.7,36.4-124.6,67-18.1,18.6-18.2,49.5-38.8,70.7-26.6,27.3-118.2,58.8-161.1,89-7.5,5.3-17.4,1.7-20,7.9,9.6,21,20.6,41.1,32.8,60.4l33.1,46c7.9,9.8,16.1,19.2,24.7,28.3l152.6-103.2,144.2,118.9v.2c57.7-1.5,100.1-23.5,160.8-29-7-66.9-55.9-140.4-63.9-209.5l79.4-135Z"/>
  <path d="M72.7,396.3l-19.7-120.6c-5.8,11.5-11.2,23.3-16.1,35.3-14.6,46.2-28,96.2,35.8,85.3Z"/>
  <path d="M529.4,619.6c68.7-25,125.1-95.9,202.9-85.9l-14.3-33.7-109.2-15.4-79.4,135Z"/>
</svg>