<?xml version="1.0" encoding="UTF-8"?>
<svg id="Layer_1" xmlns="http://www.w3.org/2000/svg" version="1.1" viewBox="0 0 1000 1000">
  <!-- Generator: Adobe Illustrator 29.0.0, SVG Export Plug-In . SVG Version: 2.1.0 Build 186)  -->
  <path d="M722.8,763.2c6.5-47.5-49.8-141.3-40.2-198.4-55.3-7.3-81,50.5-118.8,82l133.7,141.3c-203.8,91.8-196.7-154.2-357.2-193.4-54.2,100.4-55.8,230.4-144.8,302,83.9,64.5,188.9,103,302.8,103.3,7.5,0,15-.2,22.6-.4,38.7-1.6,76.3-7.6,112.3-17.5,7.1-7.6,10.4-17.4,16-26.3,9.6-15.4,71.7-178.8,73.6-192.6Z"/>
  <path d="M354.9,296.8l45-163.8,163.5,74.5,72.8-188.8C594.1,6.9,549.7.4,503.9,0c-42.3.3-84.4,5.2-125.1,14.8-103.5,25.8-194.2,83.8-260.9,162.7,51.5-1.2,204.2,148.2,237,119.3Z"/>
  <path d="M611.5,270.1l-1.3,54.7c80.1,22.2,170,62.9,251.1,76.3,15.2-110.9,19.6-204.2-26.5-272.4-42.2-38.1-91-69.1-144.5-91.2l65.7,101-144.5,131.6Z"/>
  <path d="M971,403.1c-34.9-8.8-76.5,3.4-109.7-2.1-4.9,35.5-26,74.7-24.9,109.4,1.5,43.5,36.5,96.9,24.6,148.1l98.7,38.1c5.1-11.9,9.8-24.1,14-36.5,17.6-83,47.3-240.9-2.8-257.1Z"/>
  <path d="M27.2,386.1l59.6-163.6c-1.6.9-3.3,1.9-4.9,3.1-30.7,46.7-53.8,98.9-67.5,154.7,2.3,3.8,6.3,6.1,12.8,5.8Z"/>
</svg>