<?xml version="1.0" encoding="UTF-8"?>
<svg id="Layer_1" xmlns="http://www.w3.org/2000/svg" version="1.1" viewBox="0 0 1000 1000">
  <!-- Generator: Adobe Illustrator 29.0.0, SVG Export Plug-In . SVG Version: 2.1.0 Build 186)  -->
  <path d="M654.9,881.2l-9.1-37.1c-114.4-41.5-153-185.7-235.1-267.5,74.9-78.4,20.3-141.7,27.8-235.7H114.1c-66.2,60.2-21.8,145.9.3,215.8l251.9,43.6c-1,112-57.4,125.9-144.5,166.6l39.8,172.7c28.7,15.6,59.1,28.5,90.9,38.3,101.1,3.9,206.9-68.9,302.3-96.7Z"/>
  <path d="M897.1,401.1l-163.7-43.4c-40.5,6.8-8.9,112.4-24.2,138.7l-96.1,48,70.5,243.2,113.7-30.3,3.3-205.7,113.1-38.3-16.6-112.2Z"/>
  <polygon points="430.7 23.2 424.1 211.2 582.3 181.8 537.2 26.1 430.7 23.2"/>
</svg>