<?xml version="1.0" encoding="UTF-8"?>
<svg id="Layer_1" xmlns="http://www.w3.org/2000/svg" version="1.1" viewBox="0 0 1000 1000">
  <!-- Generator: Adobe Illustrator 29.0.0, SVG Export Plug-In . SVG Version: 2.1.0 Build 186)  -->
  <path d="M0,500c0,150.9,15,139.5,42.1,201l80.6-74.6,179.1,128.6-114,135.5c85.3,68.3,193.4,109.2,311.1,109.5,8.9,0,18-.3,27.2-.7,101.9-5.2,195.8-41,272.6-98.3-84.7-42.7-166.3-21-253.4-10h0l-114.5-114.8c107.6-74.4,218.7-75.6,242.5-229.1l-69.4-82.6,141.2-245.4c-107.7-104.9-216.9,84.1-278.6,86.9-13.7.6-129.8-48-133.6-54.1-10.8-17.8,7.6-66.7-22.8-84.5l-137.5-45.4-82.5,206.8,226-45.7-41.3,193.5h0c0,.1-154.3,118.6-154.3,118.6L0,500Z"/>
  <path d="M894.3,583c48.6-60.1,85.2-94.8,103.4-131.6-9.9-102.1-50.4-195.3-112.4-270.1l-77.1,65.3c39.3,111.4-56.6,295.4,86,336.4h0Z"/>
  <path d="M120.5,595.2c-145.6-45.4-48.8-166.1-30.4-266.4l82.5-206.8C66.9,213.7,0,349.1,0,500l120.5,95.2Z"/>
</svg>