<?xml version="1.0" encoding="UTF-8"?>
<svg id="Layer_1" xmlns="http://www.w3.org/2000/svg" version="1.1" viewBox="0 0 1000 1000">
  <!-- Generator: Adobe Illustrator 29.0.0, SVG Export Plug-In . SVG Version: 2.1.0 Build 186)  -->
  <path d="M473.9,605.4c15.1-33.3,76.3,7.4,95.9,21.3,19.9,14.2,43.4,51.1,62.2,56.5,12.1,3.4,138.5,14.3,147.1,11.4,50.9-40.4,65.8-130.1,135.2-140.1l12.3-181.9c-24.9-6.3-17.8,4.8-24.6,13.6-15.2,19.4-56.6,100.5-77.7,102l-86.8-40c-74.4,71.4-182.5,33.8-277.5,51.4l-125.5-102.4,63.3-175.7-171.2,9.3-31.1-127.3c-52.7,40.6-97.1,91.4-130.2,149.5,13.9,75.6,91.3,41.2,117.3,70.3,36.3,40.5,7.5,76.3,10.1,108.4,2.5,31.9,147.4,149.9,194.3,102.7l-107.8,226.5c66.1,2.1,137.2-20.8,167.4,54.5,13.5,33.7-61,130.4-48.5,174.2,32.9,6.8,67,10.4,102,10.4s49.6-1.8,73.7-5.4l-45.6-152c182-76.1-76-162.1-54.2-237.2Z"/>
  <path d="M710,136.1c9.3,29.8-31.5,75-26.7,97,1.9,8.9,63.7,99,70.4,102.3l128.1-50.9c6.6-10.5-6.1-104-11.6-119.9-.1-.4-.3-.8-.5-1.3-56.1-61.6-127.5-109.1-208.1-136.7l-69.5-10.2c17.1,74.3,44.7,99.5,117.9,119.6Z"/>
  <path d="M445.6,222.1c17.2,20.6,56,128.7,76.3,128.5l124.1-97.1c-28-75.8-125.7-82.9-194.2-64.5,5.7-63.7-30.4-122.1-64.5-176.3-39.3,9.1-76.9,22.8-112.1,40.5,46,60.8,127.6,117.6,170.4,168.9Z"/>
  <path d="M204.1,658.9c29.1-19.4-40.9-142.3-33-178.6L.6,524.9c1.1,21.6,3.5,42.9,7.2,63.7,51.1,16.5,155.7,97.4,196.2,70.3Z"/>
</svg>