<?xml version="1.0" encoding="UTF-8"?>
<svg id="Layer_1" xmlns="http://www.w3.org/2000/svg" version="1.1" viewBox="0 0 1000 1000">
  <!-- Generator: Adobe Illustrator 29.0.0, SVG Export Plug-In . SVG Version: 2.1.0 Build 186)  -->
  <defs>
    <style>
      .st0 {
        fill: none;
      }
    </style>
  </defs>
  <path class="st0" d="M514.7,395.5c-26.4,52,14.9,152.3-25.9,207.7-33.1,21.1-90.8,32.1-118.4-2.5-49.5-62.1,67.7-158.8-29.2-242-32.4-27.8-104.4-20.4-106.6-60.8-9.4-173.3,402.7-335.7,418.7-73.3,7.9,129.2-117.9,130.1-138.6,171Z"/>
  <path d="M669.9,817.9c-17-86.3-116.2,15.1-133.2,7.3-24.3-11.1-33.8-69-69.7-79.9-43.1-13.1-100.6,7.2-144.8-5.9-46-13.7-97.6-128.2-176.1-118-7.5-74.9,96.6-115.5,41.1-191.7-65.2-49.6-107.6,25.6-177.1,11.3-5.9,32.3-8.2,71.7-7,115,27.9,249.7,239.7,443.9,496.9,443.9s110.9-9.4,161.6-26.7c9.5-50.4,16.9-112,8.4-155.4Z"/>
  <path d="M653.4,224.5c-16-262.3-428.1-99.9-418.7,73.3,2.2,40.3,74.2,33,106.6,60.8,96.9,83.3-20.3,179.9,29.2,242,27.6,34.6,85.4,23.6,118.4,2.5,40.8-55.3-.5-155.7,25.9-207.7,20.8-40.9,146.5-41.8,138.6-171Z"/>
  <path d="M969.5,672.3c-6.4-25.1-17.1-47.6-32.8-65.1-27-30.2-73.7-27.2-103.4-47.3-13.7-9.2-68.7-53.7-84.2-66.6-24.3-20.2-12.8-99.6-65.5-95.1-16.8,1.4-47.1,20.3-53.1,37.7-3.1,9-17.1,181.1-15.1,190.4,12.1,53.9,95,54.8,114.7,74.2,33.2,32.7,14.5,155.6,37,222,92.3-58.5,164.1-146.3,202.3-250.4Z"/>
  <path d="M725.2,245.9c13.6,42.5,67.1,67.7,87,109,30.4,63.2,10.2,190.9,121.5,158.8,37.6-10.9,55.3-43.9,61.4-84-21.4-152.3-111.4-282.5-237.8-358.5-21.5,57.8-53.4,108.2-32.1,174.7Z"/>
</svg>