<?xml version="1.0" encoding="UTF-8"?>
<svg id="Layer_1" xmlns="http://www.w3.org/2000/svg" version="1.1" viewBox="0 0 1000 1000">
  <!-- Generator: Adobe Illustrator 29.0.0, SVG Export Plug-In . SVG Version: 2.1.0 Build 186)  -->
  <path d="M990,599.9c-95-18.6-117.6,118.8-193.8,128-138.3,16.7-174.6-148.6-340.5-94.1-108.9,35.8-74.9,105.4-116.6,176-29,49.1-103,46.1-90.9,122.1,0,0,0,.2,0,.3,73.9,43.2,159.9,67.9,251.7,67.9,241.9,0,443.7-171.8,490-400.1Z"/>
  <path d="M229.3,653.7c18.6-113.2-48.4-159.1-43.1-211.6,5.6-55.7,122.5-56.6,107.8-199.1-3.8-36.7-31.3-71-31-110,.3-33.5,22.6-58.2,29.8-88.2C120.1,123.5,0,297.7,0,500s28.3,189.6,77.1,266.8c59.2,41.7,130.2,20.6,152.2-113.1Z"/>
  <path d="M768.8,352.5c11,60-35,215.2,56.9,205.4,46.2-4.9,49.6-56.5,77.1-78.3,24.7-19.6,68-20.3,85.7-37.5,2.7-2.6,5-5.4,7-8.3-19.9-150.1-106.3-279.2-228.7-356.6-111.7,99.4-16.2,176.6,1.9,275.4Z"/>
  <path d="M510,225.4c-8.8,44.9-194,198.3-92,247,36.1,17.2,78.5,1.5,114.8,8.5,39.1,7.5,70.9,39.9,116.3,30.1,39.3-39.1-61.8-315.1-59.5-378.5,1.7-48.5,52.6-67.1,59.5-109.9-29.3-9.1-59.8-15.7-91.1-19.3-107.4,19.4-28.2,120.9-48,222.1Z"/>
</svg>