<?xml version="1.0" encoding="UTF-8"?>
<svg id="Layer_1" xmlns="http://www.w3.org/2000/svg" version="1.1" viewBox="0 0 1000 1000">
  <!-- Generator: Adobe Illustrator 29.0.0, SVG Export Plug-In . SVG Version: 2.1.0 Build 186)  -->
  <path d="M990.8,596.1c-54.6-118.6-188.4-240.4-40.2-313.2-29.8-61.7-71.8-116.3-123-160.7-70.9,30-203.5,97.8-214.5,113-24.5,33.8-16.7,99-34.8,140.4-28.8,65.9-159.1,136.2-42.9,210.5,146.2,93.5,131.3-84.2,166.5-86.6,13.9,7.1,82.9,83.2,85.1,89.4,40,111.8-133.7,279.7-9.4,327.1,108.7-72.7,187.4-186.9,213.3-319.9Z"/>
  <path d="M331,319.7c114.4-53.3,33.9-142.3,76.5-178.6,81.9-69.9,242.7-7.4,311.2-90.8C652.6,18.1,578.4,0,500,0,354.6,0,223.8,62,132.4,161.1c-22.5,105.2,90.9,208.7,198.5,158.6Z"/>
  <path d="M231,634c26-44.3,100.2-64.6,123.4-91.4,26-30.1,29.1-79.3-11.2-99.1-57.3-28.1-121,23.5-191.9.9-91.3-29.1-78.1-152.4-102.8-152-3.6,5.2-7.1,10.4-10.4,15.7C13.6,367.2,0,432,0,500c0,140.9,58.3,268.2,152.1,359.1,53.7-16.6,56-186,78.9-225.1Z"/>
  <path d="M635.8,692.7c-30.1-5.7-60.6,42.4-94.3,45.7-44.4,4.3-82.8-41.1-127.8-47.4-144.4-20-65.1,95.2-73.6,163.2-3,24-38.9,68.3-54.6,97.5,65,30.9,137.7,48.2,214.5,48.2s119.3-10.9,173.3-30.9c-85.6-85.2,68-213.2-37.4-276.4Z"/>
</svg>