<?xml version="1.0" encoding="UTF-8"?>
<svg id="Layer_1" xmlns="http://www.w3.org/2000/svg" version="1.1" viewBox="0 0 1000 1000">
  <!-- Generator: Adobe Illustrator 29.0.0, SVG Export Plug-In . SVG Version: 2.1.0 Build 186)  -->
  <path d="M405.3,116.2c-17.6,59.8,44.4,99.2,41.7,160.8-3.4,77.7-102,141.2-45.6,228.1,107.4,88.9,125.7-121.5,204.8-129.3,85.7-8.5,198.5,121.6,271.1,46.1,53.2-55.4,40.1-166,5.8-243.2C799.6,79.3,678.3,12.9,541.2,1.7c-2.4.4-4.8.8-7.2,1.3-30,6.5-120.8,86.3-128.7,113.3Z"/>
  <path d="M460.2,802.3c-25.6-22.8-19.4-151.5-46.6-186.6-21.9-28.3-93.1-39.2-117.3-11.5-32.4,37.1-25.3,120.6-43,169.9-17,47.1-67.2,72.5-83.3,101.6,88.1,77.4,203.5,124.4,330,124.4s106.9-8.7,156-24.8c5-9.2,8.8-19.5,11.2-31,36.5-175.2-149.4-90.5-207-141.9Z"/>
  <path d="M161.1,446.3c19.6-28.3,105.3-20.7,129.7-99.5,30.3-98.1-34.7-147.1-20.7-215.3,9.9-48.1,60.5-71.3,84.1-109.9C149.2,84,0,274.6,0,500s1.9,49.7,5.4,73.8c12.2,56.7,36.3,111.2,73.8,160,132.4-52.4,14.5-190.2,81.8-287.5Z"/>
  <path d="M1000,500c0-15.2-.7-30.3-2-45.1-47.8,22.4-73.2,93.5-102.5,122.7-39.4,39.4-131.9-21-218.1-21s-96.6,104.5-65.6,135.4c31,31,119.3,6.9,145.7,43.9,29.6,41.5-8.5,144.5,37.8,167.5,124.1-91,204.6-237.8,204.6-403.5Z"/>
</svg>