<?xml version="1.0" encoding="UTF-8"?>
<svg id="Layer_1" xmlns="http://www.w3.org/2000/svg" version="1.1" viewBox="0 0 1000 1000">
  <!-- Generator: Adobe Illustrator 29.0.0, SVG Export Plug-In . SVG Version: 2.1.0 Build 186)  -->
  <path d="M919.1,227.9c-37-59.7-87.5-108.9-146-146.1,58.2,38,108,87.9,146,146.1Z"/>
  <path d="M561.6,4.5c-73.2-10.3-148.7-5.6-219.7,15.7-17.8,5.3-56.7,21.7-81.3,41.5C331.7,22.8,413.3.7,500,.7s41.4,1.3,61.6,3.8Z"/>
  <path d="M238.9,97.5c1.6,10.9,104.6,140.3,115.2,187,15.9,69.8-35,158.9,18.9,211.4,28.7,27.9,105.6,32.8,134.1,4.2,51.2-51.2-30.2-173.7,18-235.3,71.2-28.9,106.7,52.8,177.7,55.9,35.3,1.5,132.7-24.5,184.3-31.4,22.8-3,38.3,0,53-23.3-6.4-13.2-13.4-25.9-21.1-38.2-38-58.2-87.8-108.1-146-146.1-63.5-40.4-136.3-66.7-211.5-77.3-20.2-2.5-40.7-3.8-61.6-3.8-86.7,0-168.3,22.1-239.4,60.9-14.1,11.3-23.5,23.7-21.7,35.8Z"/>
  <path d="M989.9,400.2c-18-17.5-45.2-24.9-84.4-16-46.7,10.6-66.5,57.7-109.6,74.7-60.9,24.1-117,2.9-166.9,17.2-75.9,21.8-30.7,161.2-27.5,217.8,2.1,38.5-35.5,137.2,31.9,170.6,117.2,58.2,125.5-50.3,169.8-91.4,43.9-40.7,112.4-28,157.8-78.4,25.1-59.6,39-125.2,39-194s-3.5-68.1-10.1-100.6Z"/>
  <path d="M295.9,650.2c-15.5-82.3-107.6-25.1-141.5-104.4-33.6-78.5,13.1-122.5,18-190,3.7-51.6-20.5-147.9-79.7-145.2C38.1,287.2,4.6,379.7.4,479.7c1.8,49.1,7.4,100.7,16.5,150.7,30.3,113.3,99.5,210.7,192.3,277.2,58.3-51.1,94.8-213.7,86.6-257.3Z"/>
  <path d="M585.4,954c-15.4-25.5-79.8-31.9-96.1-49.5-21.1-22.8-10.7-77.8-41.1-105.5-55.9-50.9-144.9,90.7-109.4,175.2,50.6,17.2,104.8,26.6,161.2,26.6s64.8-3.2,95.8-9.2c1.7-10.2-1.3-22.7-10.4-37.6Z"/>
</svg>