<?xml version="1.0" encoding="UTF-8"?>
<svg id="Layer_1" xmlns="http://www.w3.org/2000/svg" version="1.1" viewBox="0 0 1000 1000">
  <!-- Generator: Adobe Illustrator 29.0.0, SVG Export Plug-In . SVG Version: 2.1.0 Build 186)  -->
  <path d="M649.2,619.7c-45.5-22.6-78.4,10.3-117,7.8-36.8-2.4-53.7-36.9-106.4-28.4-114.2,18.5-159.1,119.9-252.2,152.7C102.7,733.6,108,493.4.8,472.4c-.5,9.1-.8,18.3-.8,27.6,0,276.1,223.9,500,500,500s195.4-30.1,274.1-81.8c-8.9-57-91.9-104.7-101.2-147-8.3-38,37-121.3-23.7-151.5Z"/>
  <path d="M879.4,174.3c-56.7,17.8-48,154.3-59.8,200.5l-246.2,35.8c-65.8,172.7,158.7,46,233.7,177.2,28.1,49.2,1.8,70.8,9.8,115.5,7.9,44.2,50.2,84.9,52.4,134,81.3-88.9,130.8-207.3,130.8-337.2s-45.4-238.2-120.6-325.7Z"/>
  <path d="M416.9,208.3c4.9,24.3,26.4,49.2,36.3,74.6,6.2,16.1-10.1,45.7,6.3,55.3,20.7,12,94.1,12.8,117,5.1,39.6-13.3,29.7-91.3,50-122.5,14.8-22.7,55.8-27,73.7-67.5,20-45.1,19.4-81.4,5.5-109.1C643,15.8,573.3,0,500,0s-22.4.4-33.4,1.1c-41.9,42.3-58.5,162.6-49.6,207.2Z"/>
  <path d="M160.5,340c35.3,61,17.2,157.7,105.8,162.5,131,7,38.2-156.1,36.8-195.3-2.8-82.7,96.9-204.7,23.3-276.2-106.4,39.4-195.8,114-254,209.6,10.5,29.7,70.9,69.7,88,99.4Z"/>
</svg>