<?xml version="1.0" encoding="UTF-8"?>
<svg id="Layer_1" xmlns="http://www.w3.org/2000/svg" version="1.1" viewBox="0 0 1000 1000">
  <!-- Generator: Adobe Illustrator 29.0.0, SVG Export Plug-In . SVG Version: 2.1.0 Build 186)  -->
  <path d="M129.3,343.2c63.9-.3,76.1,85.2,128.3,89.9,44.5.4,82.6-60.7,123.7-59.8,43,.9,40.2,54.8,62.8,78.2,36.7,38,158.8,77.2,188.9,16.1,34.8-70.7-86.4-79-96.4-92.9-15.2-21.1-3.7-134.8-55.4-195.9-22.4-26.5-50.3-23.4-68.6-41.3-15-14.7-40.7-80-58.6-115.7C173.1,76.8,35.9,231.6,6,422.1c23.8-41.5,83.7-78.7,123.3-78.9Z"/>
  <path d="M831.8,762.6c-23.1-23.2-14.5-103.4-50.3-130.3-108,13.2-230.4-85.4-313.7.1,52.8,85.9,108.4,88.3,94.3,205.1-18.1,150-107-58.5-195.5-55.1-49.7,1.9-152,53.9-184.5,103.5,84.1,69.3,191.2,111.7,308.2,114,56.4-1,112.3-9,168.8-25.8,102.4-34.4,190.1-101,250.8-187.8-.8-1.5-1.8-3-3-4.4-21.5-2.2-60.4-4.6-75.1-19.4Z"/>
  <path d="M723.9,52.8c10.7,29.2,34.5,62,38.4,80.9,20.4,100.4-79.3,161.6-57.9,229.2,13.4,42.3,125.6,48.6,156.5,95.8,39.2,60-42.5,198.3,72.2,210.4,4.9.5,22.8.8,37.4.8,19.2-53,29.6-110.2,29.6-169.9,0-195.7-112.4-365.1-276.1-447.2Z"/>
  <path d="M319,705c38.6-32.3,26-105.4-.8-143.5-61-8.2-215-81.7-255.5-42.5-31.5,30.6-44.6,72.7-44.1,116.9,19.3,68.5,52.9,131.1,97.3,184.3l25.2-97.5,177.9-17.8Z"/>
  <path d="M600.6,168.9c25.1-47.3,36.6-108,25.9-152.8-31.7-8.3-64.7-13.5-98.6-15.4,29.8,57.2,1.5,124.8,72.7,168.2Z"/>
</svg>