<?xml version="1.0" encoding="UTF-8"?>
<svg id="Layer_1" xmlns="http://www.w3.org/2000/svg" version="1.1" viewBox="0 0 1000 1000">
  <!-- Generator: Adobe Illustrator 29.0.0, SVG Export Plug-In . SVG Version: 2.1.0 Build 186)  -->
  <path d="M642,726c-96.6-21.5-58.4-146.7-120.9-176.9-51-24.6-88.7,10.6-129.7,5-24.5-3.3-41.1-31.4-78.1-26.1-133.8,19.3-38.2,140.6-42.6,191.7-5.7,65.8-77.9,119.3-81.8,171.7,85.4,68,193.6,108.7,311.2,108.7,191.3,0,357.4-107.4,441.5-265.1-70.8-85.3-204.3,12.3-299.5-8.9Z"/>
  <path d="M402.9,54.8c-35.3,113.1,35.5,92.3,49,140.4,15.2,53.8-8.1,81.9-4.8,117.1,11.2,119.7,293.3,87.7,168.3-60.9,30.6-37.3,64.2-1.5,113.4-26.6,43.7-22.4,65.2-80.7,61.3-132.1C708.3,34.3,608.2,0,500,0s-41.9,1.3-62.3,3.8c-16.2,13.4-28.4,30.3-34.8,51Z"/>
  <path d="M822.6,294.4c-40.2,39.7,1.3,96-6.1,126.4-4.8,19.8-37.2,30.6-44.4,65.8-15.9,76.9,5.8,173.1,99.9,164.3,64.6-6.1,112.9-95.1,126.8-186.8-4.7-66.6-22.5-129.6-50.7-186.4-35.2-10-105.6-2.9-125.4,16.7Z"/>
  <path d="M154.5,323.5c35.2-22.3,102.1-13.9,124.3-64.8,25.5-58.4-59.1-109.5-55.5-171.7-1.5-.2-3.1-.3-4.6-.4C108.5,161.7,29.9,279.7,6.9,416.5c87.5,20.8,106.1-66.7,147.6-93Z"/>
</svg>