<?xml version="1.0" encoding="UTF-8"?>
<svg id="Layer_1" xmlns="http://www.w3.org/2000/svg" version="1.1" viewBox="0 0 1000 1000">
  <!-- Generator: Adobe Illustrator 29.0.0, SVG Export Plug-In . SVG Version: 2.1.0 Build 186)  -->
  <defs>
    <style>
      .st0 {
        fill: #010101;
      }
    </style>
  </defs>
  <g id="_x38_">
    <path class="st0" d="M880.7,753.9c-2.5,2.5-64.2-3.3-69.2-4.9-106.2-35.4-20.6-186.1-140-152.3-22.2,6.6-23.9,28.8-28,30.5-53.5,17.3-17.3-46.1,9.1-61.7,48.6-28,102.9-9.9,126.8,42s0,55.2,15.6,77.4,123.5,24.7,86.4,70l-.8-.8v-.2Z"/>
    <path class="st0" d="M553,833c-25.5,25.5-114.4-.8-120.2,42.8-5.8,43.6,24.7,69.2,18.9,75.7-5.8,6.6-33.8,14-41.2,0-7.4-14-17.3-90.6-11.5-104.6,29.6-70.8,185.2,14.8,133.4-139.1,52.7-5.8,38.7,106.2,20.6,124.3v.8h0Z"/>
    <path class="st0" d="M961.4,337.4c-16.5,163-107,46.1-189.4,50.2-60.1,2.5-.8,70-65,54.3,7.4-154.8,108.7-66.7,180.3-58.5,71.6,8.2,4.9-16.5,8.2-18.1,24.7-9.1,42.8-19.8,66.7-28h-.8Z"/>
    <path class="st0" d="M567.8,453.4c-36.2,167.1-132.6,45.3-191,45.3s-47.8,46.9-86.4,47.8c17.3-163,157.2-33.8,200.9-37,43.6-3.3,39.5-57.6,77.4-55.2l-.8-.8h-.1Z"/>
    <path class="st0" d="M567.8,140.6c-100.4,16.5-46.9,74.1-52.7,129.3-5.8,58.5-81.5,122.7-121,56,158.1,4.9,34.6-139.1,92.2-191.8,24.7-23.1,65-29.6,81.5,6.6h0Z"/>
    <path class="st0" d="M371,209.7c28.8,31.3-50.2,58.5-75.7,58.5-57.6,0-81.5-65-117.7-67.5s-69.2,53.5-73.3,15.6c-4.1-37.9,51-53.5,74.1-52.7,50.2,2.5,74.1,79.9,139.1,70,65-9.9,43.6-32.9,52.7-23.1l.8-.8h0Z"/>
    <path class="st0" d="M231.9,348.9c23.9,30.5-47.8,29.6-51.9,33.8-29.6,32.1-15.6,135.8-98.8,112-83.2-23.9-42-26.3-46.1-36.2-17.3-42,72.5,14,80.7,5.8,8.2-8.2,8.2-82.3,28.8-104.6,20.6-22.2,74.1-27.2,86.4-11.5l.8.8h0Z"/>
    <path class="st0" d="M194.9,606.6c37.9,37.9-13.2,173.7,130.1,78.2,8.2,9.1-49.4,66.7-53.5,67.5-88.9,30.5-77.4-97.1-104.6-115.3-27.2-18.1-56,5.8-61.7,1.6-23.1-18.9,57.6-64.2,89.7-32.1h0Z"/>
    <path class="st0" d="M787.6,244.3c-29.6,49.4-107.9,19.8-115.3-29.6-7.4-49.4,14.8-62.6,8.2-79-12.3-28.8-52.7-28-55.2-30.5s10.7-32.9,12.3-34.6c20.6-15.6,63.4,28.8,71.6,49.4,28.8,67.5-51.9,112.8,78.2,124.3h.2Z"/>
  </g>
</svg>