<?xml version="1.0" encoding="UTF-8"?>
<svg id="Layer_1" xmlns="http://www.w3.org/2000/svg" version="1.1" viewBox="0 0 1000 1000">
  <!-- Generator: Adobe Illustrator 29.0.0, SVG Export Plug-In . SVG Version: 2.1.0 Build 186)  -->
  <defs>
    <style>
      .st0 {
        fill: none;
      }

      .st1 {
        fill: #010101;
      }
    </style>
  </defs>
  <path class="st0" d="M644.2,190.8c22.1-89.2,115.4-46.7,90.1-20.5h.8c-5.7,5.7-47.5-12.3-47.5,40.9s31.9,19.6,41.8,39.3c26.2,51.6-31.1,99.9-52.4,81-21.3-18.8,26.2-37.7,22.9-51.6-3.3-13.9-70.4-27.8-55.7-89.2ZM44.1,642.7h0s0,0,0,0h0s68.8,11.5,68.8,11.5c13.1-54,16.4-108.9,80.2-122,113-22.9-14.7,49.1-21.3,59.8-15.6,24.6-6.5,63.9-23.7,79.4-28.7,25.4-105.6,26.2-104-28.7ZM222.6,756.5c-54,.8-63.9,46.7-74.5,35.2-19.6-21.3,40.9-75.3,65.5-78.6,40.9-6.5,103.2,63,139.2,41.8v.8c5.7-3.3,15.6-37.7,31.1-44.2,10.6,171.1-107.2,44.2-161.3,45ZM468.2,496.1c-5.7,33.6-45,54.8-78.6,54-4.1-38.5,58.1-33.6,45.8-74.5-12.3-40.9-138.4-57.3-63.9-122,44.2-38.5,84.3-1.6,63.9,23.7-1.6,2.5-54-10.6-34.4,28.7,14.7,28.7,81,4.9,67.1,90.1ZM358.5,148.2c-38.5-10.6-67.9,39.3-72,33.6-29.5-40.9,52.4-89.2,104-63.9,51.6,25.4,43.4,122,138.4,40.1l-.8.8c-41.8,164.6-131,0-169.5-10.6ZM579.5,740.2c-60.8,64.5-87.8-44.2-40.8-85.4,47-41.2,96-2.2,109.2-8.3,35-17.9,15.4-98,67.4-70.3l-.4.7c-12.7,159.1-115.2,84.4-139.1,98.8-24,14.4-37.3,61.8,3.7,64.5ZM680.3,876.5c-19.4,21.1,16.2,69.1-18.6,79.6-34.8,10.5-19.9-98.2-16.1-102.8v-.8c2-2.3,41.2-32.9,44.4-32.6,50.1-7.4,72,28.5,111.7-39.9,39.7-68.5,17.4-76.4,31.7-38,46.5,120.6-141.1,120.9-153.2,134.5ZM857.1,479.8c-72.9-39.3-9.8-53.2-107.2-23.7-60.6,18-4.1-61.4,48.3-61.4s80.2,80.2,118.7,60.6v-.8c2.5-1.6,2.5-18.8,7.4-18,91.7,5.7,5.7,82.7-67.1,43.4Z"/>
  <path class="st1" d="M801.8,780c-39.7,68.5-61.6,32.6-111.7,39.9-3.3-.3-42.5,30.3-44.4,32.6v.8c-3.8,4.6-18.7,113.3,16.1,102.8,34.8-10.5-.8-58.5,18.6-79.6,12-13.6,199.6-13.9,153.2-134.5-14.3-38.4,8-30.5-31.7,38Z"/>
  <path class="st1" d="M401.1,406.1c-19.6-39.3,32.7-26.2,34.4-28.7,20.5-25.4-19.6-62.2-63.9-23.7-74.5,64.7,51.6,81,63.9,122,12.3,40.9-49.9,36-45.8,74.5,33.6.8,72.9-20.5,78.6-54,13.9-85.1-52.4-61.4-67.1-90.1Z"/>
  <path class="st1" d="M575.8,675.7c24-14.4,126.4,60.3,139.1-98.8l.4-.7c-52.1-27.7-32.4,52.4-67.4,70.3-13.2,6.1-62.2-32.9-109.2,8.3-47,41.2-20,149.9,40.8,85.4-41-2.6-27.6-50.1-3.7-64.5Z"/>
  <path class="st1" d="M352.8,755.6v-.8c-36,21.3-98.2-48.3-139.2-41.8-24.6,3.3-85.1,57.3-65.5,78.6,10.6,11.5,20.5-34.4,74.5-35.2,54-.8,171.9,126.1,161.3-45-15.6,6.5-25.4,40.9-31.1,44.2Z"/>
  <path class="st1" d="M528.8,158c-95,81.9-86.8-14.7-138.4-40.1-51.6-25.4-133.4,22.9-104,63.9,4.1,5.7,33.6-44.2,72-33.6,38.5,10.6,127.7,175.2,169.5,10.6l.8-.8Z"/>
  <path class="st1" d="M924.2,436.4c-4.9-.8-4.9,16.4-7.4,18v.8c-38.5,19.6-66.3-60.6-118.7-60.6s-108.9,79.4-48.3,61.4c97.4-29.5,34.4-15.6,107.2,23.7,72.9,39.3,158.8-37.7,67.1-43.4Z"/>
  <path class="st1" d="M699.9,280c3.3,13.9-44.2,32.7-22.9,51.6,21.3,18.8,78.6-29.5,52.4-81-9.8-19.6-41.8,13.9-41.8-39.3s41.8-35.2,47.5-40.9h-.8c25.4-26.2-67.9-68.8-90.1,20.5-14.7,61.4,52.4,75.3,55.7,89.2Z"/>
  <path class="st1" d="M171.9,591.9c6.5-10.6,134.3-82.7,21.3-59.8-63.9,13.1-67.1,67.9-80.2,122l-68.8-11.5c-1.6,54.8,75.3,54,104,28.7,17.2-15.6,8.2-54.8,23.7-79.4Z"/>
  <polygon class="st1" points="44.1 642.7 44.1 642.7 44.1 642.7 44.1 642.7"/>
  <path class="st1" d="M99.8,356.1c25.4,15.6,45.8,165.4,128.5,55.7-78.6,37.7-83.5-81.9-126.1-97.4-9.2-3.1-69.7,12.6-79.1,17.3-3.1,8.7-6,17.6-8.7,26.5,10,11.8,66.1-13.8,85.3-2Z"/>
  <polygon class="st1" points="228.3 411.8 228.3 411.8 228.3 411.8 228.3 411.8"/>
</svg>