<?xml version="1.0" encoding="UTF-8"?>
<svg id="Layer_1" xmlns="http://www.w3.org/2000/svg" version="1.1" viewBox="0 0 1000 1000">
  <!-- Generator: Adobe Illustrator 29.0.0, SVG Export Plug-In . SVG Version: 2.1.0 Build 186)  -->
  <defs>
    <style>
      .st0 {
        fill: #010101;
      }
    </style>
  </defs>
  <g id="_x36_">
    <path class="st0" d="M829.8,144c-70.3-26.1-126.7,41.7-198.6,20.4-71.9-21.2-61.3-121.7-13.9-124.2s4.9,81.7,36,90.7c30.2,9,159.3-76,176.5,12.3v.8Z"/>
    <path class="st0" d="M577.3,626.9c0,49.8-69.5,57.2-103.8,40-34.3-17.2-32.7-109.5-47.4-119.3-14.7-9.8-73.5,4.1-79.3-1.6-35.1-36,69.5-58,110.3-23.7,40.9,34.3-11.4,158.5,119.3,104.6h.8Z"/>
    <path class="st0" d="M921.3,316.4c-4.1,4.9-31.9-6.5-34.3,5.7-9.8,52.3,75.2,111.9,12.3,173.2-85.8,83.3-12.3-40-12.3-46.6,1.6-47.4-94.8-96.4-14.7-175.7,44.9-44.1,60.5,31.9,49,43.3Z"/>
    <path class="st0" d="M618.3,450.7c34.5,3.8,45.1-95.3,81.1-109.4,17.9,1.4,108.7,15.8,111.2,25s-2.3,39.5-17.1,16.9c-111.3-33.9-73.9,9.7-112.3,67.5-59.5,90.4-152.3-8.3-103.7-27.2,15.7-6,36.6,25.3,41.1,26.1l-.2,1.1Z"/>
    <path class="st0" d="M909.9,672.6c-1.6,2.5-36,13.1-41.7,47.4l-134.8-11.4c-24.5,7.4-4.1,35.1-12.3,44.9-45.8,61.3-70.3-68.6,4.9-86.6,75.2-18,86.6,25.3,118.5,16.3,31.9-9,24.5-53.9,48.2-44.1,23.7,9.8,23.7,23.7,17.2,33.5Z"/>
    <path class="st0" d="M459.6,290.2c-40,39.2-129.1-28.6-161.8-18.8s-14.7,64.6-53.1,56.4c4.1-168.3,104.6-56.4,177.3-68.6,72.7-12.3,38.9-74.4,75.2-58s-31.1,82.5-37.6,89.1h0Z"/>
    <path class="st0" d="M382,937.4c-22.9-22.9,64.6-114.4,134.8-83.3,20.4,9,34.3,34.3,62.9,41.7,28.6,7.4,44.1-30.2,66.2,1.6-67.8,92.3-127.5-17.2-173.2-12.3-45.8,4.9-68.6,74.4-90.7,52.3Z"/>
    <path class="st0" d="M165.5,825.4c-5.7,3.3,1.6,23.7-8.2,19.6-9.8-4.1-37.6-36.8-28.6-45.8s51.5,13.1,84.2-10.6c32.7-23.7,20.4-80.1,74.4-90.7,53.9-10.6,83.3,38.4,83.3,61.3-.8,39.2-63.7-23.7-85-17.2s-22.1,61.3-53.1,74.4c-31.1,13.1-51.5,0-66.2,9h-.8Z"/>
    <path class="st0" d="M205.5,474.1c-10.6,11.4-36,13.1-40.9,34.3-4.9,21.2,11.4,44.9,11.4,67-2.5,76-133.2,58-93.1,17.2,40-40.9,53.1,4.1,57.2,0,9-9-29.4-76.8,5.7-125.8,36.8-52.3,98.1-33.5,59.6,8.2v-.8Z"/>
  </g>
</svg>