<?xml version="1.0" encoding="UTF-8"?>
<svg id="Layer_1" xmlns="http://www.w3.org/2000/svg" version="1.1" viewBox="0 0 1000 1000">
  <!-- Generator: Adobe Illustrator 29.0.0, SVG Export Plug-In . SVG Version: 2.1.0 Build 186)  -->
  <defs>
    <style>
      .st0 {
        fill: none;
      }

      .st1 {
        fill: #010101;
      }
    </style>
  </defs>
  <path class="st0" d="M873.6,406.7c42.7-8.9,22.5-53.1,46.7-43.5,24.1,9.7,13.7,52.3,3.2,65.2h0c-44.3,49.9-125.6-17.7-158.6-17.7-76.5.8-25,77.3-87.7,66,7.2-181.9,153.7-61.2,196.4-70ZM514.6,149.9c20.9-67.6,66-65.2,83.7-47.5l-.8.8c29.8,30.6-42.7,32.2-45.9,62-5.6,61.2,90.2,71.6,6.4,152.9-83.7,81.3-5.6-36.2-5.6-51.5-.8-28.2-58.8-49.1-37.8-116.7ZM467.9,544.3c29,37,94.2,32.2,73.3,57.2-3.2,4-82.1-10.5-96.6-22.5-42.7-34.6-16.9-91-33-114.3-16.1-23.3-67.6,7.2-62.8-27.4,119.9-74.9,90.2,70,119.1,107.1ZM166,174.9c57.2-15.3,83.7,30.6,132,30.6s45.1-41.9,84.5-34.6c-50.7,136.8-134.4,36.2-186.7,44.3s-24.1,24.1-35.4,33.8c-58.8,53.1-51.5-58.8,5.6-74.1ZM128.2,555.6c-35.4.8-33.8,30.6-40.2,34.6-12.9,9.7-53.1-8.9-11.3-50.7,68.4-68.4,117.5,33,168.2,3.2,5.6-3.2,8.9-26.6,19.3-31.4,49.1-23.3,25,58.8-23.3,67.6-48.3,8.9-77.3-24.1-112.7-23.3ZM313.3,676.3c-11.3,16.1,0,49.1-5.6,70-23.3,81.3-124.8,37-95,2.4,29.8-34.6,36.2,22.5,51.5,0,15.3-22.5-8-71.6,19.3-99s59.6-19.3,65.2-13.7v-.8c28.2,29-31.4,35.4-35.4,41.1ZM531.5,910c-33.8,5.6-77.3-39.4-131.2-29-53.9,10.5-.8,52.3-23.3,57.2-46.7,9.7-29.8-112.7,69.2-92.6,47.5,9.7,71.6,37.8,128.8,13.7v-.8c8.1,16.9-37,49.9-43.5,51.5ZM563.7,748.8c-7.2-39.4,45.9-17.7,62.8-45.1,16.9-27.4-12.9-91.8,31.4-132.8,44.3-41.1,87.7-46.7,86.9,7.2v.8c-143.3,9.7,5.6,190.8-181.1,169.8Z"/>
  <path class="st1" d="M764.9,410.7c33,0,114.3,67.6,158.6,17.7h0c10.5-12.9,20.9-55.5-3.2-65.2-24.1-9.7-4,34.6-46.7,43.5-42.7,8.9-189.2-111.9-196.4,70,62.8,11.3,11.3-65.2,87.7-66Z"/>
  <path class="st1" d="M160.4,248.9c11.3-9.7-16.9-25.8,35.4-33.8s136,92.6,186.7-44.3c-39.4-7.2-36.2,34.6-84.5,34.6s-74.9-45.9-132-30.6c-57.2,15.3-64.4,127.2-5.6,74.1Z"/>
  <path class="st1" d="M558,318.1c83.7-81.3-12.1-91.8-6.4-152.9,3.2-29.8,75.7-31.4,45.9-62l.8-.8c-17.7-17.7-62.8-20.1-83.7,47.5-20.9,67.6,37,88.5,37.8,116.7,0,15.3-78.1,132.8,5.6,51.5Z"/>
  <path class="st1" d="M744.8,578.1c.8-53.9-42.7-48.3-86.9-7.2-44.3,41.1-14.5,105.4-31.4,132.8-16.9,27.4-70,5.6-62.8,45.1,186.7,20.9,37.8-160.2,181.1-169.8v-.8Z"/>
  <path class="st1" d="M411.5,464.6c16.1,23.3-9.7,79.7,33,114.3,14.5,12.1,93.4,26.6,96.6,22.5,20.9-25-44.3-20.1-73.3-57.2s.8-181.9-119.1-107.1c-4.8,34.6,46.7,4,62.8,27.4Z"/>
  <path class="st1" d="M240.9,578.9c48.3-8.9,72.4-91,23.3-67.6-10.5,4.8-13.7,28.2-19.3,31.4-50.7,29.8-99.8-71.6-168.2-3.2-41.9,41.9-1.6,60.4,11.3,50.7,6.4-4,4.8-33.8,40.2-34.6,35.4-.8,64.4,32.2,112.7,23.3Z"/>
  <path class="st1" d="M574.9,859.3c-57.2,24.1-81.3-4-128.8-13.7-99-20.1-115.9,102.2-69.2,92.6,22.5-4.8-30.6-46.7,23.3-57.2,53.9-10.5,97.4,34.6,131.2,29,6.4-1.6,51.5-34.6,43.5-51.5v.8Z"/>
  <path class="st1" d="M348.7,635.3v.8c-5.6-5.6-37.8-13.7-65.2,13.7s-4,76.5-19.3,99c-15.3,22.5-21.7-34.6-51.5,0-29.8,34.6,71.6,78.9,95-2.4,5.6-20.9-5.6-53.9,5.6-70,4-5.6,63.6-12.1,35.4-41.1Z"/>
  <path class="st1" d="M744.8,709.3c-10.5,46.7-2.4,12.9,51.5,5.6,42-5.6,101.1,35.6,127.4,51,4.8-7.6,9.4-15.4,13.8-23.2-28.5-47.4-178.1-96-192.7-33.4Z"/>
</svg>