<?xml version="1.0" encoding="UTF-8"?>
<svg id="Layer_1" xmlns="http://www.w3.org/2000/svg" version="1.1" viewBox="0 0 1000 1000">
  <!-- Generator: Adobe Illustrator 29.0.0, SVG Export Plug-In . SVG Version: 2.1.0 Build 186)  -->
  <defs>
    <style>
      .st0 {
        fill: none;
      }

      .st1 {
        fill: #010101;
      }
    </style>
  </defs>
  <path class="st0" d="M179.3,231.4c18.8-96.3,34.9-38.4,52.8-32.4,38.4,12.8-17.9,47.7-15.3,75.9,2.6,28.1,57.1,56.3,46,121-11.1,64.8-78.4,85.2-83.5,78.4h-.9c-23-28.1,47.7-48.6,46.9-89.5-.9-40.9-64.8-57.1-46-153.4ZM203.1,754.7c-26.4-17-25.6-68.2-75.9-40.1-50.3,28.1-23,24.7-32.4,29-53.7,28.1-33.2-70.7,43.5-74.1,76.7-3.4,80.1,60.5,121,66.5s72.4-34.1,86.9-22.2h0c12.8,10.2-57.1,96.3-143.2,40.9ZM562,689.1c-27.3,26.4-29-52.8-37.5-58-25.6-17-94.6,26.4-128.7-33.2-51.1-88.6,75.9-144.9,56.3-73.3-19.6,71.6-29.8,31.5-21.3,56.3l-.9.9c10.2,15.3,141.5-18.8,142.3,65.6.9,84.4-8.5,40.9-10.2,41.8ZM530.4,391.7c-59.7-28.1-27.3-75-58-98-36.6-28.1-76.7,4.3-79.3.9-27.3-37.5,67.3-88.6,120.2-18.8,15.3,20.5,28.1,95.5,63.1,88.6,34.9-6.8,32.4-34.1,44.3-22.2h.9c11.9,11.9-31.5,77.6-91.2,49.4ZM633.5,119.8c13.6-79.3,84.4-64.8,96.3-54.5v.9c13.6,12.8-46,54.5-45.2,88.6.9,34.1,73.3,63.9,69,120.2-4.3,56.3-32.4,92.9-59.7,66.5s13.6-52.8,10.2-75c-8.5-48.6-84.4-67.3-70.7-146.6ZM879,780.3c-24.7-4.3-49.4-45.2-75.9-29.8-26.4,15.3-54.5,103.1-69.9,106.5-83.5,20.5-127.8-61.4-69-60.5,58.8.9-1.7,40.9,41.8,18.8,43.5-22.2,42.6-131.3,141.5-106.5,7.7,1.7,58.8,27.3,60.5,30.7h-.9c12.8,23-3.4,45.2-28.1,40.9ZM849.2,455.6c-23.9,14.5-11.9,93.8-68.2,123.6s-132.1-22.2-81.8-29c50.3-6.8,23.9,9.4,35.8,7.7,52.8-6,43.5-72.4,61.4-106.5,36.6-68.2,174.7-36.6,149.2-.9v-.9c-11.1,14.5-72.4-8.5-96.3,6Z"/>
  <path class="st1" d="M694.1,341.4c27.3,26.4,55.4-10.2,59.7-66.5,4.3-56.3-68.2-86.1-69-120.2-.9-34.1,58.8-75.9,45.2-88.6v-.9c-11.9-10.2-82.7-24.7-96.3,54.5-13.6,79.3,62.2,98,70.7,146.6,3.4,22.2-37.5,48.6-10.2,75Z"/>
  <path class="st1" d="M908,739.4c-1.7-3.4-52.8-29-60.5-30.7-98.9-24.7-98,84.4-141.5,106.5-43.5,22.2,17-17.9-41.8-18.8-58.8-.9-14.5,81,69,60.5,15.3-3.4,43.5-91.2,69.9-106.5,26.4-15.3,51.1,25.6,75.9,29.8,24.7,4.3,40.9-17.9,28.1-40.9h.9Z"/>
  <path class="st1" d="M796.3,451.3c-17.9,34.1-8.5,100.6-61.4,106.5-11.9,1.7,14.5-14.5-35.8-7.7-50.3,6.8,25.6,58.8,81.8,29s44.3-109.1,68.2-123.6c23.9-14.5,85.2,8.5,96.3-6v.9c25.6-35.8-112.5-67.3-149.2.9Z"/>
  <path class="st1" d="M429.8,581.7l.9-.9c-8.5-24.7,1.7,15.3,21.3-56.3,19.6-71.6-107.4-15.3-56.3,73.3,34.1,59.7,103.1,16.2,128.7,33.2,8.5,5.1,10.2,84.4,37.5,58,1.7-.9,11.1,42.6,10.2-41.8-.9-84.4-132.1-50.3-142.3-65.6Z"/>
  <path class="st1" d="M346.3,713.8h0c-14.5-11.9-46,28.1-86.9,22.2s-44.3-69.9-121-66.5c-76.7,3.4-97.2,102.3-43.5,74.1,9.4-4.3-17.9-.9,32.4-29,50.3-28.1,49.4,23,75.9,40.1,86.1,55.4,156-30.7,143.2-40.9Z"/>
  <path class="st1" d="M178.4,474.3h.9c5.1,6.8,72.4-13.6,83.5-78.4,11.1-64.8-43.5-92.9-46-121-2.6-28.1,53.7-63.1,15.3-75.9-17.9-6-34.1-63.9-52.8,32.4s45.2,112.5,46,153.4c.9,40.9-69.9,61.4-46.9,89.5Z"/>
  <path class="st1" d="M620.8,342.2c-11.9-11.9-9.4,15.3-44.3,22.2-34.9,6.8-47.7-68.2-63.1-88.6-52.8-69.9-147.4-18.8-120.2,18.8,2.6,3.4,42.6-29,79.3-.9,30.7,23-1.7,69.9,58,98,59.7,28.1,103.1-37.5,91.2-49.4h-.9Z"/>
  <path class="st1" d="M371.9,894.5c14.5-22.2,155.1,11.9,118.5-109.1h-.9c-36.6-4.3-11.1,46-57.1,58.8-46,12.8-115.9-12.8-109.9,65.6.6,6.7,10.9,43.2,17.9,64.3,9.4,3.2,19,6.1,28.6,8.7,5.9-2.2,11.2-4.6,13.2-6.5,5.1-5.1-24.7-59.7-10.2-81.8Z"/>
</svg>