<?xml version="1.0" encoding="UTF-8"?>
<svg id="Layer_1" xmlns="http://www.w3.org/2000/svg" version="1.1" viewBox="0 0 1000 1000">
  <!-- Generator: Adobe Illustrator 29.0.0, SVG Export Plug-In . SVG Version: 2.1.0 Build 186)  -->
  <path d="M41.4,699.4c-1.7-3.9-3.3-7.8-4.9-11.8-1.3,5.4.4,9.7,4.9,11.8Z"/>
  <path d="M135.8,360.5c-21.8-24.3,31-61.3,63.8-58.7,68.8,4.2,99,139.3,183.8,58.7-57.1,147.7-141-8.4-188-18.5s-50.3,29.4-59.6,18.5h0ZM325.4,710.4c-22.7,33.6-128.4,41.1-95.7-6.7,0-.8,17.6,8.4,27.7,7.6,52-5.9,24.3-37.8,34.4-81.4,26.9-110.8,176.2-19.3,150.2,3.4v-.8l-88.1-23.5c-33.6,25.2-5.9,68-28.5,101.5h0ZM737.4,879.9c-49.5,29.4-96.5,42.8-152.7,17.6s-32.7-43.6-68-50.3c-68.8-14.3-75.5,33.6-79.7,33.6-70.5-2.5,0-100.7,113.3-65.5s44.5,70.5,120.8,51.2c76.4-19.3,69.6-6.7,66.3,13.4h0ZM655.2,691.1c-5.9-30.2,25.2-46.2,23.5-75.5-2.5-50.3-83.9-93.1-31.9-156.9,33.6-41.1,84.7-17.6,67.1,7.6-2.5,3.4-32.7-.8-36.1,30.2-6.7,66.3,125.9,130.1-22.7,194.7h.1ZM645.9,347.1c-18.5,1.7-88.9-13.4-97.3-21-40.3-39.4,88.9-10.9,97.3-13.4,25.2-6.7,37.8-50.3,73.8-57.1s72.2,12.6,111.6,23.5l.8-.8-17.6,35.2c-77.2-71.3-112.4,29.4-168.7,33.6h.1ZM879.2,762.5c-16.8-20.1,0-78.9-5.9-94.8-7.6-23.5-33.6-36.1-39.4-55.4-8.4-28.5-2.5-104.9,38.6-98.2,41.1,6.7-11.7,43.6,5,78,16.8,34.4,30.2,25.2,33.6,31h.8c11.7,20.1,1.7,98.2-7.6,122.5s-8.4,36.9-25.2,16.8h.1Z"/>
  <path d="M671.1,866.5c-76.4,19.3-7.6-15.9-120.8-51.2-113.3-35.2-183.8,62.9-113.3,65.5,4.2,0,10.9-47.8,79.7-33.6,35.2,6.7,11.7,25.2,68,50.3,56.2,25.2,103.2,11.7,152.7-17.6,3.4-20.1,10.1-32.7-66.3-13.4h0Z"/>
  <path d="M713.9,466.3c17.6-25.2-33.6-48.7-67.1-7.6-52,63.8,29.4,106.6,31.9,156.9,1.7,29.4-29.4,45.3-23.5,75.5,148.5-64.6,15.9-128.4,22.7-194.7,3.4-31,33.6-26.9,36.1-30.2h-.1Z"/>
  <path d="M442,633.2c26-22.7-123.3-114.1-150.2-3.4-10.1,43.6,17.6,75.5-34.4,81.4-10.1.8-27.7-8.4-27.7-7.6-32.7,47.8,73,40.3,95.7,6.7,22.7-33.6-5-76.4,28.5-101.5l88.1,23.5v.8h0Z"/>
  <path d="M831.4,279.1c-39.4-10.9-75.5-30.2-111.6-23.5-36.1,6.7-48.7,50.3-73.8,57.1-8.4,2.5-137.6-26-97.3,13.4,8.4,7.6,78.9,22.7,97.3,21,56.2-4.2,91.5-104.9,168.7-33.6l17.6-35.2-.8.8h-.1Z"/>
  <path d="M911.9,623.2h-.8c-3.4-5.9-16.8,3.4-33.6-31s36.1-71.3-5-78-47,69.6-38.6,98.2c5.9,19.3,31.9,31.9,39.4,55.4,5.9,15.9-10.9,74.7,5.9,94.8,16.8,20.1,15.9,7.6,25.2-16.8s19.3-102.4,7.6-122.5h-.1Z"/>
  <path d="M383.3,360.5c-84.7,80.6-115-54.5-183.8-58.7-32.7-2.5-85.6,34.4-63.8,58.7,9.2,10.9,12.6-28.5,59.6-18.5,47,10.1,130.9,166.1,188,18.5Z"/>
  <path d="M87.9,684.4c81.4-54.5,30.2-81.4,38.6-127.5,3.4-19.3,70.5-40.3,44.5-66.3h.8c-10.9-10.9-49.5-21.8-77.2,35.2s50.3,85.6-37.8,138.5c-12,7.5-18.7,16.3-20.4,23.4,1.6,4,3.2,7.9,4.9,11.8,7.6,3.4,23.1.4,46.5-15h0Z"/>
  <path d="M346.4,115.7c-20.3,20.3-30.5,88.9-12.1,107.3s29.5-8.7,29.5-33.3,7.6-66.9,55.1-50.7,90.8,28.5,127.4-6.4,56.7-64.6,56.7-89.3-39.1-15.9-39.1,11.6-48,66.4-71,66.7-108.7-43.5-146.4-5.8Z"/>
</svg>