<?xml version="1.0" encoding="UTF-8"?>
<svg id="Layer_1" xmlns="http://www.w3.org/2000/svg" version="1.1" viewBox="0 0 1000 1000">
  <!-- Generator: Adobe Illustrator 29.0.0, SVG Export Plug-In . SVG Version: 2.1.0 Build 186)  -->
  <defs>
    <style>
      .st0 {
        fill: #010101;
      }
    </style>
  </defs>
  <g id="_x32_">
    <path class="st0" d="M323.4,896.1c-5.5-5.6-11.4-11.4-17.2-17.2-20.7-21-51.6-28.4-79.6-19.2l-56.8,18.7c-5-81.1,86.9-96.9,144.1-57.1,57.1,39.7,31.5,58.8,74.5,67.1,43.1,8.3,71.2-33.1,84.5-21.5,13.2,11.6-23.2,45.5-35.6,51.3-28,13.6-50.9,10.4-76.1,7.9-5.4-.5-27.3-19.3-37.6-29.9Z"/>
    <path class="st0" d="M794.9,745.8c-36.4,23.2-151.2-6.9-136.6,67.9,12.9,66.2-12.4,59.6-23.2,52.2-10.8-7.5-19-67.9-18.2-76.2,5-75.4,129.2-61.3,162.3-86.1,33.1-24.8,10.8-47.2,24.8-47.2,29.8-.8,14.1,74.5-9.1,89.4Z"/>
    <path class="st0" d="M749.3,420.4c-36.4,36.4-128.3-14.1-160.6,3.3-32.3,17.4,10.8,38.9,0,46.4-32.3,21.5-60.4-33.9-28.2-69.6,51.3-57.1,127.5,9.1,156.5-5.8,29-14.9,26.5-63.8,40.6-64.6,29.8-2.5.8,80.3-8.3,90.3Z"/>
    <path class="st0" d="M588.7,96.6c-101-13.2,4.1,71.2-29.8,151.5-11.6,27.3-56.3,43.9-75.4,23.2-19-20.7,34.8-30.6,41.4-57.1s-28.2-62.1-28.2-88.6c0-52.2,99.4-118.4,92.7-29h-.8Z"/>
    <path class="st0" d="M332.8,283.8c25.7,26.5-43.1,68.7-85.3,56.3-42.2-12.4-40.6-79.5-78.7-97.7-38.1-18.2-34.8,17.4-40.6,18.2-18.2,1.7-41.4-63.8,32.3-55.5,69.6,7.5,94.4,97.7,119.2,100.2,24.8,2.5,42.2-31.5,52.2-20.7l.8-.8Z"/>
    <path class="st0" d="M427.2,631.5c8.3,6.6,42.2-1.7,57.1.8-2.5,49.7-56.3,48-84.5,24-28.2-24-28.2-101-31.5-105.2-3.3-4.1-53.8,4.1-58,0-24.8-24.8,36.4-68.7,81.1-29,44.7,39.7,29.8,103.5,36.4,109.3h-.8Z"/>
    <path class="st0" d="M18.2,562.8c91.9,23.2,70.4-72.9,119.2-96.1,48.9-23.2,78.7-15.7,78.7,9.1s-46.4,15.7-58,23.2c-11.6,7.5-16.6,44.7-29.8,63.8-58,86.1-128.3,15.7-110.1,0h0Z"/>
    <path class="st0" d="M985.3,516.4c-13.2,77-104.3,1.7-144.1,3.3-39.7,1.7-44.7,52.2-65.4,31.5-20.7-20.7,38.1-65.4,64.6-69.6,68.7-9.9,83.6,34.8,144.9,34.8h0Z"/>
  </g>
</svg>