<?xml version="1.0" encoding="UTF-8"?>
<svg id="Layer_1" xmlns="http://www.w3.org/2000/svg" version="1.1" viewBox="0 0 1000 1000">
  <!-- Generator: Adobe Illustrator 29.0.0, SVG Export Plug-In . SVG Version: 2.1.0 Build 186)  -->
  <defs>
    <style>
      .st0 {
        fill: none;
      }

      .st1 {
        fill: #010101;
      }
    </style>
  </defs>
  <path class="st1" d="M982.5,319.4c-.3,0-.6-.1-.8-.2,0,0,0,.1,0,.2h.9Z"/>
  <path class="st0" d="M590.1,225.4c22.8,65.8,23.7,18.4,34.2,27.2,28.1,23.7-8.8,36.9-47.4,10.5-72.9-50-18.4-122.9-25.5-129h-.9c-3.5-2.6-63.2,2.6-73.7-30.7,154.5-51.8,90.4,56.2,113.2,122ZM181.1,418.5c7.9-160.6,87.8-68.5,141.3-73.7,53.5-5.3,50.9-72,68.5-50h-.9c12.3,15.8-21.1,82.5-36.9,93-37.7,22.8-69.3-22.8-104.5-19.3s-29.8,55.3-67.6,50ZM351.4,721.4c-44.8-9.7-43.9-70.2-64.1-90.4s-118.5,8.8-83.4-27.2c35.1-36,72-15.8,90.4-10.5,36,10.5,38.6,66.7,57.9,79s65-15.8,73.7-7h.9c17.6,16.7-51.8,61.4-75.5,56.2ZM543.6,911.9c-58.8,3.5-96.6-54.4-85.1,62.3-60.6,38.6-40.4-73.7-19.3-93,41.3-36.9,101.8,1.8,128.2-7,26.3-8.8,3.5-58.8,44.8-48.3h0c4.4,42.1-25.5,83.4-68.5,86ZM698.1,646.8c-1.8,29-29.8,29-43.9,30.7-84.3,13.2-53.5-86.9-79-106.2-25.5-19.3-75.5,19.3-74.6-11.4.9-30.7,94.8-25.5,111.5-13.2s14.9,86.9,23.7,93.9h.9c6.1,4.4,63.2-22.8,61.4,6.1Z"/>
  <path class="st1" d="M160,159.6c5.3.9,58.8,59.7,88.7,60.6s140.4-63.2,42.1-55.3c-98.3,7.9-55.3-11.4-101.8-51.8l.9.9c-4-3.5-8.6-6-13.6-7.8-22.3,18.9-42.9,39.7-61.5,62.2,16.3-6.3,33.7-11.4,45.3-8.8Z"/>
  <path class="st1" d="M248.7,368.5c35.1-3.5,66.7,42.1,104.5,19.3,15.8-10.5,49.2-77.2,36.9-93h.9c-17.6-21.9-14.9,44.8-68.5,50-53.5,5.3-133.4-86.9-141.3,73.7,37.7,5.3,32.5-46.5,67.6-50Z"/>
  <path class="st1" d="M550.6,134.2h.9c7,6.1-47.4,79,25.5,129,38.6,26.3,75.5,13.2,47.4-10.5-10.5-8.8-11.4,38.6-34.2-27.2-22.8-65.8,41.3-173.8-113.2-122,10.5,33.4,70.2,28.1,73.7,30.7Z"/>
  <path class="st1" d="M880.6,629.2c-21.9,5.3-31.6,81.6-58.8,104.5-27.2,22.8-57.9,12.3-86,24.6,37.7,42.1,123.8,14,142.2-31.6,7.9-20.2-10.5-43.9-7-49.2l.9,1.8c15.6-22.5,37.1,7.8,89.7-.5,4.8-11.5,9.1-23.3,13-35.2-17-14.6-52.5-25.7-94-14.3Z"/>
  <path class="st1" d="M426.8,665.2h-.9c-8.8-8.8-54.4,19.3-73.7,7s-21.9-68.5-57.9-79c-18.4-5.3-55.3-25.5-90.4,10.5-35.1,36,63.2,7,83.4,27.2s19.3,80.8,64.1,90.4c23.7,5.3,93-39.5,75.5-56.2Z"/>
  <path class="st1" d="M636.6,640.6h-.9c-8.8-7-7-81.6-23.7-93.9s-110.6-17.6-111.5,13.2c-.9,30.7,49.2-7.9,74.6,11.4,25.5,19.3-5.3,119.4,79,106.2,14-1.8,42.1-1.8,43.9-30.7,1.8-29-55.3-1.8-61.4-6.1Z"/>
  <path class="st1" d="M861.3,337.8c-16.7,54.4,26.3,74.6-64.1,111.5,14.9,37.7,48.3,32.5,86.9-23.7,37.1-54-14.1-124.2,85.4-108.6-5.8-16-12.4-31.7-19.8-46.9-32.7,2.9-78.6,35.7-88.4,67.6Z"/>
  <path class="st1" d="M612.1,825.8c-41.3-10.5-18.4,39.5-44.8,48.3-26.3,8.8-86.9-29.8-128.2,7-21.1,19.3-41.3,131.7,19.3,93-11.4-116.7,26.3-58.8,85.1-62.3,43-2.6,72.9-43.9,68.5-86h0Z"/>
  <path class="st1" d="M203.9,720.5c-35.1-39.5-18.4-3.5-26.3,3.5l-.9-.9c-26.3,23.7-105.3-55.3-127.3-54.4-3.2.2-8,2.6-13.7,6.4,6,14.8,12.7,29.3,20,43.4,44.2,16.3,81.5,96.7,148.1,2.1Z"/>
</svg>