<?xml version="1.0" encoding="UTF-8"?>
<svg id="Layer_1" xmlns="http://www.w3.org/2000/svg" version="1.1" viewBox="0 0 1000 1000">
  <!-- Generator: Adobe Illustrator 29.0.0, SVG Export Plug-In . SVG Version: 2.1.0 Build 186)  -->
  <path d="M574.5,677.9c-61.1,12.6-73.1,118.6-8.2,139.1,130.7,41.2,133.5-164.9,8.2-139.1Z"/>
  <path d="M257.1,522.7c133.6,61.5,148.7-145.8,36.6-135.9-72.6,6.4-97.5,107.9-36.6,135.9Z"/>
  <path d="M353.5,359.4c103.5.3,103.5-147.1,0-146.8-91.8.3-91.8,146.5,0,146.8Z"/>
  <path d="M512,272.2c-64,13.2-67.5,119.5-8.3,139.2,128.9,42.8,135-165.3,8.3-139.2Z"/>
  <path d="M470.6,637.2c-57.5-53.2-161.7,14.2-112.5,96.8,53.8,90.5,193.2-22.1,112.5-96.8Z"/>
  <path d="M181.2,597.3c-46.2,77.1,51.5,145.3,112.1,96.4,82.7-66.8-53.1-194.9-112.1-96.4Z"/>
  <path d="M106.2,334.6c-77.6,16-66.3,162.8,36.7,142,88.6-17.9,66.3-163.2-36.7-142Z"/>
  <path d="M602.7,239.3c90-15.1,64.6-160.8-28.2-144.2-84.2,15.1-81.7,162.5,28.2,144.2Z"/>
  <path d="M608.7,515.2c-86.9,64.1,15.1,176.9,90.3,116.2,67.2-54.2-16-171-90.3-116.2Z"/>
  <path d="M522.5,854.5c-82.2,14.8-73.3,135.1,2.7,144.8,11.7-.6,23.2-1.6,34.7-2.9,74.5-23.1,54.3-158.4-37.3-141.9Z"/>
  <path d="M334.9,803.2c-66.1,15.2-65.9,116.4.1,130.9,127.9,28.1,131.4-161.1-.1-130.9Z"/>
  <path d="M803.2,563.4c-82.2,24-53.9,158.4,36.8,142.2,92.9-16.5,58.9-170.2-36.8-142.2Z"/>
  <path d="M865.9,386.4c-87.5,15.7-68.7,149.4,17.5,143.9,98.1-6.2,80.3-161.4-17.5-143.9Z"/>
  <path d="M707.3,327c-81.8,0-94.7,126.9-20.4,140.9,119.4,22.5,117-140.9,20.4-140.9Z"/>
  <path d="M43.5,511.7c-18.7,5.6-33.1,21.3-40.9,40.1,2.8,27,7.7,53.3,14.6,78.9,6.9,5.6,15.7,9.8,26.4,12.2,137,30.1,110.1-164.2-.2-131.1Z"/>
  <path d="M194.9,300c79.5-14.2,68-154.9-36.8-131.5-81.2,18.1-48,146.6,36.8,131.5Z"/>
  <path d="M884.1,253.4c-23,43.3,13,101,71.4,88.5,6.2-1.9,11.2-5.8,15.1-11.1-12.8-35.5-29.4-69.1-49.4-100.4-21.9,3.6-33.6,16.3-37.1,22.9Z"/>
  <path d="M649.4,977.3c34.4-10.8,67.3-25.2,98-42.7-39.8-36.8-97.9-10.3-98,42.7Z"/>
  <path d="M296.8,43c-33.5,14.9-65.1,33.4-94.2,55.1,0,.2.1.3.2.5,20,43.4,116,3.4,94.1-55.5Z"/>
  <path d="M678.8,54.6c7.2-3.1,12.1-8.5,14.9-15.7-34.2-14.4-70.3-25.1-107.9-31.5,0,6.3.4,12.6,2.1,18.6,5.9,20.9,47.5,47.7,90.9,28.7Z"/>
  <path d="M949.8,718.7c13.1-26.9,23.8-55.1,32-84.4-39.8,3.1-54,50.4-32,84.4Z"/>
  <path d="M999.3,474c-2,1.2-3.9,2.7-5.7,4.5-11.2,11.2-17.5,55.3,4.1,69.7,1.5-15.9,2.3-32,2.3-48.2s-.2-17.4-.7-26Z"/>
</svg>