<?xml version="1.0" encoding="UTF-8"?>
<svg id="Layer_1" xmlns="http://www.w3.org/2000/svg" version="1.1" viewBox="0 0 1000 1000">
  <!-- Generator: Adobe Illustrator 29.0.0, SVG Export Plug-In . SVG Version: 2.1.0 Build 186)  -->
  <defs>
    <style>
      .st0 {
        fill: none;
      }
    </style>
  </defs>
  <path class="st0" d="M735.3,299c102.7-30.9,122.6,109.6,53.6,130.2-101.3,30.2-128.5-107.7-53.6-130.2ZM629.8,88.1c105.6-24.2,113,99.6,58,125-98.1,45.5-145.5-105-58-125ZM498.1,426.2c62.8-70.9,160.3,36.8,103.2,98.5-56.5,61-171.9-21-103.2-98.5ZM510.4,707.8c-96.1,17.1-120.5-122.9-33.8-140.6,99.8-20.4,119.1,125.5,33.8,140.6ZM607.7,383.2c-94.7,9.5-109.1-128.7-16-142.1,88.2-12.7,111.6,132.5,16,142.1ZM486.3,30.3c89.3-7.7,93.7,139.4,7.4,141-89.4,1.7-98.2-133.2-7.4-141ZM396.9,200.5c79.7-47.2,151.1,62.8,89,112.8-77.1,62.1-173-63.1-89-112.8ZM361.3,356.6c134.4-30.8,123.4,171.1-7.4,127.9-53.8-17.8-52.3-114.2,7.4-127.9ZM208,298.5c98.1-17.4,121,122.8,33.8,140.6-99.7,20.4-119.1-125.5-33.8-140.6ZM227.2,481.5c67.4,72.8-60.1,179.1-113.2,89.4-47.3-79.9,61.1-145.6,113.2-89.4ZM146.2,755.2c-99.6,29.9-135.8-109.8-43.9-130.3,96.8-21.6,113.9,109.2,43.9,130.3ZM229.5,791c-64.9-72.6,42.4-158.7,103-98.2,67.9,67.6-37.9,171-103,98.2ZM395.5,850.3c-63-50.7,9.2-164.7,89.1-112.8,77.9,50.6-10.8,175.8-89.1,112.8ZM607.7,920.2c-91.2,9.4-100-127.1-16-142.3,87.4-15.9,115.3,132.1,16,142.3ZM603.6,733.5c-65.5-73.4,45.6-151.7,103.3-98.4,67.5,62.4-36.1,173.6-103.3,98.4ZM762.4,785.7c-57-66,47.4-156.9,107.4-93.1,60.5,64.3-46.4,163.8-107.4,93.1ZM924.8,622.7c-86.8,102.6-188.9-94.3-64.6-113.3,54-8.3,106.4,63.9,64.6,113.3ZM916.3,488.6c-82.4-5.3-86-139.8,8.9-139.5,91.2.3,79,145.1-8.9,139.5Z"/>
  <path d="M241.8,439.1c87.2-17.8,64.3-158.1-33.8-140.6-85.3,15.2-65.9,161,33.8,140.6Z"/>
  <path d="M476.6,567.1c-86.7,17.7-62.3,157.7,33.8,140.6,85.3-15.1,66-161-33.8-140.6Z"/>
  <path d="M591.8,241.1c-93.1,13.4-78.7,151.7,16,142.1,95.6-9.6,72.3-154.8-16-142.1Z"/>
  <path d="M229.5,791c65.1,72.8,170.9-30.6,103-98.2-60.7-60.5-168,25.6-103,98.2Z"/>
  <path d="M353.8,484.5c130.9,43.2,141.8-158.7,7.4-127.9-59.8,13.7-61.3,110.1-7.4,127.9Z"/>
  <path d="M227.2,481.5c-52.1-56.3-160.5,9.4-113.2,89.4,53.1,89.8,180.6-16.6,113.2-89.4Z"/>
  <path d="M591.7,777.9c-83.9,15.2-75.1,151.8,16,142.3,99.3-10.3,71.4-158.2-16-142.3Z"/>
  <path d="M485.9,313.2c62.1-50-9.3-160-89-112.8-83.9,49.7,11.9,174.9,89,112.8Z"/>
  <path d="M484.6,737.4c-79.9-51.9-152.1,62.1-89.1,112.8,78.2,63,167-62.2,89.1-112.8Z"/>
  <path d="M706.9,635.1c-57.7-53.4-168.9,25-103.3,98.4,67.2,75.2,170.8-36,103.3-98.4Z"/>
  <path d="M601.3,524.7c57.1-61.7-40.4-169.4-103.2-98.5-68.7,77.5,46.7,159.5,103.2,98.5Z"/>
  <path d="M102.3,624.9c-91.9,20.5-55.7,160.2,43.9,130.3,70.1-21.1,52.9-151.9-43.9-130.3Z"/>
  <path d="M788.9,429.2c69-20.6,49.1-161.1-53.6-130.2-75,22.5-47.7,160.4,53.6,130.2Z"/>
  <path d="M687.9,213.1c55-25.5,47.5-149.3-58-125-87.4,20.1-40.1,170.5,58,125Z"/>
  <path d="M493.8,171.3c86.3-1.6,81.9-148.7-7.4-141-90.7,7.8-82,142.7,7.4,141Z"/>
  <path d="M860.2,509.4c-124.2,19-22.2,215.8,64.6,113.3,41.8-49.4-10.6-121.5-64.6-113.3Z"/>
  <path d="M762.4,785.7c61,70.7,168-28.9,107.4-93.1-60-63.7-164.5,27.1-107.4,93.1Z"/>
  <path d="M925.1,349.2c-94.9-.3-91.2,134.2-8.9,139.5,87.9,5.6,100.1-139.2,8.9-139.5Z"/>
  <path d="M421.4,896.5c-66.8-30.2-115,42.4-101.1,70.2,39.4,15.2,81.3,25.5,124.8,30.3,1.6-.3,2.9-.8,3.8-1.4,25.9-16.4,1.9-85.8-27.5-99.1Z"/>
  <path d="M71,249c-1.3,0-2.7.3-4,.8-21,36.3-37.6,75.5-49,116.8.4,2.4,1,4.4,1.9,5.8,103.6,48.7,160.9-91.6,51.1-123.5Z"/>
  <path d="M795.4,839c-72.6-32.9-121.6,44.1-85.8,109.8,1.7,1.2,4.7,1.5,8.7,1.1,36.5-17.8,70.6-39.9,101.5-65.6,7.8-16.3,3.4-32.7-24.4-45.3Z"/>
  <path d="M7.8,411.4C2.7,440.1,0,469.8,0,500s.7,30.5,2,45.5c106.5,6.5,105-137.1,5.8-134.1Z"/>
  <path d="M280.3,93.1c48,52,138.8-7.7,108.2-74.7-1.3-1.9-3.2-3.3-5.7-4.5-38.7,9.3-75.7,23.1-110.3,40.8-6,11.5-4.9,24.5,7.9,38.4Z"/>
  <path d="M275.2,855.6c-17.8-16.8-76.6-19.3-94.3,1.4l-7.1,21.8c30.8,26.6,64.9,49.4,101.6,67.9,28.3-20.8,21.9-70.4-.1-91.2Z"/>
  <path d="M172.1,124.4c-.4-.3-.7-.6-1.2-.8-30.1,26.3-57,56.2-80,88.9,60.6,21.5,98.6-28.2,81.2-88.1Z"/>
  <path d="M965.4,316.8c-12.4-31.4-27.8-61.2-46-89.2-26.5,38.3,1.1,87.6,46,89.2Z"/>
  <path d="M724.7,53.2c-26.7-13.5-54.7-24.6-83.9-33.1,8.6,21.4,68.2,52.6,83.9,33.1Z"/>
  <path d="M973.1,662.1c9.5-27.9,16.7-56.8,21.2-86.7-25.4,5.4-31.8,69.7-21.2,86.7Z"/>
</svg>