<?xml version="1.0" encoding="UTF-8"?>
<svg id="Layer_1" xmlns="http://www.w3.org/2000/svg" version="1.1" viewBox="0 0 1000 1000">
  <!-- Generator: Adobe Illustrator 29.0.0, SVG Export Plug-In . SVG Version: 2.1.0 Build 186)  -->
  <defs>
    <style>
      .st0 {
        fill: none;
      }
    </style>
  </defs>
  <path class="st0" d="M760.9,144.2c92.4-16.4,111.1,133,16.9,139-83.4,5.3-101.3-124-16.9-139ZM700.6,315.2c99.8-20.2,120.7,119.9,35.4,137.1-96.3,19.4-115.6-120.8-35.4-137.1ZM539.6,254.9c89.5-14.1,110,123,27.7,138.7-110.7,21.1-110-125.7-27.7-138.7ZM479.6,425.5c86-15.6,118.7,118.3,35.5,137-105.6,23.8-123.6-121.1-35.5-137ZM497,704.9c-60,83.5-171.6-13.8-112.2-87.3,49.9-61.7,167.7,10.1,112.2,87.3ZM489.6,54.8c65.5,69.6-55.1,169.2-108.6,93.6-50-70.7,45.8-160.3,108.6-93.6ZM359,204.7c98.5-20.3,126.9,118.4,35.4,137.1-99.1,20.3-110.5-121.6-35.4-137.1ZM188.1,154.7c140-30.8,101.5,169.5-7.1,123.3-53.6-22.8-55.7-109.5,7.1-123.3ZM147.7,315.2c114.8-18.1,101.3,184.9-24.7,131.2-60.8-25.9-35.6-121.7,24.7-131.2ZM115,624.9C20,641.4,0,501.5,87.8,485.7c89.1-16,114.6,124,27.2,139.2ZM246.5,675c-66.1-12.4-60.1-133.3,21.3-137.6,97.4-5.2,105.2,161.3-21.3,137.6ZM386.1,906c-81,5.3-103.8-120.7-17-138.7,96-20,115.6,132.3,17,138.7ZM593.3,941.8c-100.2,72.7-163.9-116.8-44.3-123.1,65-3.4,103.6,80,44.3,123.1ZM675.7,623.2c-83,15-115.9-112.7-35.6-137.1,97.2-29.5,129.3,120.2,35.6,137.1ZM777.9,845.7c-82.5,5.3-96.7-124.8-16.9-139,95.8-17,115.6,132.6,16.9,139ZM837.9,675.1c-83.1,7.8-106.3-122.7-16.7-139.1,91.9-16.8,114.5,129.9,16.7,139.1Z"/>
  <path d="M394.4,341.8c91.5-18.7,63.1-157.4-35.4-137.1-75.1,15.5-63.7,157.4,35.4,137.1Z"/>
  <path d="M384.8,617.7c-59.4,73.5,52.1,170.8,112.2,87.3,55.5-77.1-62.3-149-112.2-87.3Z"/>
  <path d="M267.7,537.4c-81.4,4.3-87.3,125.2-21.3,137.6,126.5,23.7,118.7-142.7,21.3-137.6Z"/>
  <path d="M736,452.3c85.3-17.2,64.4-157.3-35.4-137.1-80.2,16.2-60.9,156.5,35.4,137.1Z"/>
  <path d="M479.6,425.5c-88.1,15.9-70.1,160.8,35.5,137,83.1-18.7,50.5-152.6-35.5-137Z"/>
  <path d="M567.3,393.6c82.3-15.7,61.9-152.8-27.7-138.7-82.4,13-83.1,159.8,27.7,138.7Z"/>
  <path d="M123.1,446.4c126,53.7,139.5-149.2,24.7-131.2-60.3,9.5-85.5,105.2-24.7,131.2Z"/>
  <path d="M87.8,485.7C0,501.5,20,641.4,115,624.9c87.3-15.2,61.8-155.1-27.2-139.2Z"/>
  <path d="M640.1,486.2c-80.3,24.4-47.4,152,35.6,137.1,93.6-16.9,61.6-166.6-35.6-137.1Z"/>
  <path d="M821.2,535.9c-89.6,16.4-66.4,147,16.7,139.1,97.8-9.2,75.2-155.9-16.7-139.1Z"/>
  <path d="M369,767.2c-86.8,18.1-63.9,144,17,138.7,98.6-6.4,79-158.7-17-138.7Z"/>
  <path d="M489.6,54.8c-62.8-66.7-158.6,22.9-108.6,93.6,53.5,75.6,174.1-24,108.6-93.6Z"/>
  <path d="M549.1,818.6c-119.6,6.3-55.9,195.9,44.3,123.1,59.3-43.1,20.7-126.6-44.3-123.1Z"/>
  <path d="M761,706.7c-79.8,14.2-65.6,144.3,16.9,139,98.7-6.4,78.8-156-16.9-139Z"/>
  <path d="M777.9,283.2c94.1-6,75.4-155.4-16.9-139-84.4,15-66.5,144.3,16.9,139Z"/>
  <path d="M181,278c108.6,46.2,147.2-154.1,7.1-123.3-62.8,13.8-60.8,100.5-7.1,123.3Z"/>
  <path d="M87.8,677.7c-13.2-12.6-41-17.8-58-7.4,13,36,30.1,70,50.6,101.6l10.7-2.7c17.6-27.6,22.8-66.7-3.3-91.6Z"/>
  <path d="M331.3,37.8l-8.9-5.4c-36.4,13.8-70.8,31.8-102.6,53.4,40.5,50.4,106.2,17.9,111.5-47.9Z"/>
  <path d="M665.2,972c43.2-15.1,83.6-36,120.4-61.6-52.3-53.4-128.7-12-120.4,61.6Z"/>
  <path d="M885.8,286c8.5,30.6,49.6,43.5,78.7,37.4l-28.4-68.4c-6.7-11.9-13.8-23.4-21.4-34.6-25.2-6-35.8,40.5-28.8,65.7Z"/>
  <path d="M291.4,946.4c-2.1,2.2-3,4.5-3,6.7,31.5,14.7,64.7,26.3,99.3,34.2,1.7-.2,3.1-.5,4.1-1-3.4-41.7-76.5-65.9-100.4-39.9Z"/>
  <path d="M632.4,47.7c15.8,5.2,62.7,15.9,61.9-8.6-29.4-12.4-60.3-22.1-92.3-28.8-.8,20.1,10,30.7,30.4,37.4Z"/>
  <path d="M984.5,604.7c-41.1,6.2-56.8,54-40,90.4,2.8,6,6.4,9.8,10.6,12.1,14.9-32.6,26.3-67.1,34-102.9-1.5,0-3,.2-4.6.4Z"/>
</svg>