<?xml version="1.0" encoding="UTF-8"?>
<svg id="Layer_1" xmlns="http://www.w3.org/2000/svg" version="1.1" viewBox="0 0 1000 1000">
  <!-- Generator: Adobe Illustrator 29.0.0, SVG Export Plug-In . SVG Version: 2.1.0 Build 186)  -->
  <defs>
    <style>
      .st0 {
        fill: none;
      }
    </style>
  </defs>
  <path class="st0" d="M760,159.3c64.1-3.4,101.1,77.7,50.7,122.2-101,89-178-115.5-50.7-122.2ZM760.9,455.7c-84.8,91.2-195.9-104.9-64.1-122.2,74.3-9.8,106.5,76.5,64.1,122.2ZM690.6,51.9c-45.4,18.9-93.5,14.9-104.1-41.5,5.5-4.9,99.9,19.1,104.1,41.5ZM562.7,106.1c134.6-29.6,126.6,173.1-10.8,131.3-50.2-15.3-55.3-116.7,10.8-131.3ZM405.7,44.7c90.2-4.8,109.8,139.9,8.5,143.5-92.9,3.4-104.9-138.4-8.5-143.5ZM270.8,397.8c105.6-31.3,138,123.6,34.6,139.8-85.8,13.4-110.7-117.2-34.6-139.8ZM166.9,168.2c93.8-16.6,106.3,128,17.6,133.7-82.8,5.3-98.8-119.3-17.6-133.7ZM104.2,477c-63.4-14.3-66.9-114.4-10.6-131.1,126.2-37.3,133.9,158.8,10.6,131.1ZM218.8,575c91.8-20.7,124.6,96.2,63.1,125.7-113,54.3-153.5-105.4-63.1-125.7ZM368.1,943.5c-90.6,14.6-107.7-117.5-34.8-139.4,98.1-29.5,138.6,122.7,34.8,139.4ZM422.3,768.8c-84.2,7.3-103.8-119.5-26.3-142.1,96.8-28.3,134.7,132.6,26.3,142.1ZM476.1,396.7c-65-77.5,50.2-156.7,107.7-102.4,71.8,67.8-47.4,174.3-107.7,102.4ZM562.6,820.7c-53.6-15.8-53.9-115.1,0-131,133.1-39.3,133.2,170.2,0,131ZM664.9,646.5c-160.3,17.5-74.1-209.1,33.1-122.5,42.1,34,28,115.9-33.1,122.5ZM795.5,870.4c-108.6,36.1-129.1-114.2-45-129.2,78.5-14,121.4,103.8,45,129.2ZM812.7,564.3c97.1-15.3,112.8,130.3,28.5,144.1-108.8,17.9-116.2-130.3-28.5-144.1Z"/>
  <path d="M812.7,564.3c-87.7,13.8-80.3,162,28.5,144.1,84.3-13.9,68.6-159.4-28.5-144.1Z"/>
  <path d="M551.9,237.4c137.4,41.8,145.4-160.9,10.8-131.3-66.1,14.6-61,116-10.8,131.3Z"/>
  <path d="M698,523.9c-107.2-86.6-193.4,140-33.1,122.5,61.1-6.7,75.2-88.5,33.1-122.5Z"/>
  <path d="M414.1,188.2c101.3-3.7,81.8-148.3-8.5-143.5-96.5,5.1-84.5,146.9,8.5,143.5Z"/>
  <path d="M305.5,537.5c103.3-16.1,70.9-171.1-34.6-139.8-76,22.5-51.2,153.2,34.6,139.8Z"/>
  <path d="M696.8,333.5c-131.8,17.3-20.7,213.4,64.1,122.2,42.4-45.6,10.2-131.9-64.1-122.2Z"/>
  <path d="M583.8,294.3c-57.5-54.3-172.6,24.9-107.7,102.4,60.3,71.9,179.4-34.6,107.7-102.4Z"/>
  <path d="M333.3,804.1c-72.9,21.9-55.8,154,34.8,139.4,103.8-16.7,63.3-168.9-34.8-139.4Z"/>
  <path d="M395.9,626.7c-77.5,22.6-57.9,149.4,26.3,142.1,108.4-9.5,70.5-170.4-26.3-142.1Z"/>
  <path d="M69.8,656.1c98.2-6.3,80.4-161.7-17.6-144.1-25,4.5-41.4,18.6-49.9,36.4,3,31.3,8.9,61.7,17.4,91,12.4,11.3,29.3,18.1,50.1,16.7Z"/>
  <path d="M218.8,575c-90.5,20.4-49.9,180,63.1,125.7,61.5-29.5,28.7-146.4-63.1-125.7Z"/>
  <path d="M810.7,281.4c50.4-44.4,13.4-125.5-50.7-122.2-127.3,6.7-50.3,211.2,50.7,122.2Z"/>
  <path d="M562.6,689.7c-53.9,15.9-53.6,115.2,0,131,133.2,39.2,133.1-170.2,0-131Z"/>
  <path d="M93.6,345.9c-56.4,16.7-52.9,116.8,10.6,131.1,123.3,27.7,115.7-168.4-10.6-131.1Z"/>
  <path d="M750.5,741.2c-84.1,15-63.6,165.3,45,129.2,76.4-25.4,33.5-143.2-45-129.2Z"/>
  <path d="M184.5,301.9c88.8-5.7,76.2-150.3-17.6-133.7-81.3,14.4-65.3,139,17.6,133.7Z"/>
  <path d="M904.4,229.1c-34.5,30.2-37.3,87,1.5,112.9l66,1.7c1-.9,1.3-2.9,1.2-5.6-11-32.2-25.3-63-42.3-91.9-9.3-11.6-18.6-18.8-26.4-17Z"/>
  <path d="M648.3,977.6c33.1-10.3,64.8-23.9,94.6-40.5-26.5-30.5-86.9-3.2-94.6,40.5Z"/>
  <path d="M200.9,114.4c62.1,6.3,102.5-.6,93.9-70.5-33.3,15-64.7,33.5-93.6,55.1-4.2,5.9-5,11.3-.3,15.4Z"/>
  <path d="M690.6,51.9c-4.2-22.4-98.6-46.4-104.1-41.5,10.6,56.4,58.7,60.4,104.1,41.5Z"/>
</svg>