<?xml version="1.0" encoding="UTF-8"?>
<svg id="Layer_1" xmlns="http://www.w3.org/2000/svg" version="1.1" viewBox="0 0 1000 1000">
  <!-- Generator: Adobe Illustrator 29.0.0, SVG Export Plug-In . SVG Version: 2.1.0 Build 186)  -->
  <defs>
    <style>
      .st0 {
        fill: none;
      }
    </style>
  </defs>
  <path d="M889.7,186.7c-4.5-23.7-20.9-45.3-47-50.7,16.8,15.8,32.5,32.8,47,50.7Z"/>
  <path class="st0" d="M630.8,370.9c-82.9,15-111.3-114.1-33.5-130.1,95.4-19.7,118.3,114.8,33.5,130.1ZM516.5,512.7c-34-35.9-11.6-112.3,49.9-112.3,129.1,0,34.3,201.3-49.9,112.3ZM517.4,693.4c-77.1,6.9-99.5-112-25-128.7,99.5-22.3,119.1,120.4,25,128.7ZM492.4,31.7c100.2-22.2,106.5,116.2,23,126.6-72.4,9-102.2-109-23-126.6ZM504.2,206.1c66.2,56.9-32.3,154.1-92.5,97.1-59.1-55.9,26.4-153.9,92.5-97.1ZM283,136.1c94-19.2,104.7,115.2,33.6,129.9-92.1,19-118.9-112.5-33.6-129.9ZM225.8,298.2c97.4-21.9,117,114.8,33.7,129.8-81.6,14.7-112.4-112.1-33.7-129.8ZM113.6,739.4c-53.2-17.7-50.2-104.6,7.5-117.6,112.8-25.4,105,155-7.5,117.6ZM145.4,569.6c-56.4-55.9,26.5-154.4,93.4-98.1,63.7,53.6-27.3,163.7-93.4,98.1ZM250,779.2c-54.6-58.1,41.4-163.1,102.5-88.3,56.5,69.2-45.4,149-102.5,88.3ZM319.9,628.2c-54.7-31.2-37.1-109.2,20.2-120.9,121.6-24.8,92.8,185.5-20.2,120.9ZM435.1,846.3c-49-14.4-49.2-105.1,0-119.7,120-35.4,120.1,155,0,119.7ZM673.4,883.9c-69.4,73.8-170.3-49.8-88.7-102.9,69.9-45.4,137,51.5,88.7,102.9ZM621.7,721.8c-55.6-68.8,47.7-162.1,106.3-82.6,50.2,68-56.7,144.1-106.3,82.6ZM775.5,562.4c-59.2,68.9-158.4-35.7-97.2-92.4,57.2-53.1,155,25.3,97.2,92.4ZM749.3,298.3c89.3-26.4,129.2,85.3,59.8,116.7-97.1,44-129.3-96.2-59.8-116.7ZM863.6,507.5c96-28.5,126.9,111.8,31.8,127.5-82.7,13.7-98.5-107.7-31.8-127.5Z"/>
  <path d="M340.2,507.3c-57.4,11.7-75,89.7-20.2,120.9,113,64.5,141.8-145.8,20.2-120.9Z"/>
  <path d="M316.6,266c71.2-14.7,60.4-149.1-33.6-129.9-85.3,17.4-58.5,148.9,33.6,129.9Z"/>
  <path d="M621.7,721.8c49.6,61.4,156.5-14.7,106.3-82.6-58.7-79.4-161.9,13.8-106.3,82.6Z"/>
  <path d="M259.4,428c83.3-15.1,63.8-151.8-33.7-129.8-78.7,17.7-47.9,144.6,33.7,129.8Z"/>
  <path d="M584.7,781c-81.6,53.1,19.3,176.7,88.7,102.9,48.4-51.4-18.8-148.3-88.7-102.9Z"/>
  <path d="M630.8,370.9c84.8-15.3,61.9-149.8-33.5-130.1-77.7,16-49.3,145.1,33.5,130.1Z"/>
  <path d="M250,779.2c57.1,60.7,158.9-19.2,102.5-88.3-61-74.7-157.1,30.2-102.5,88.3Z"/>
  <path d="M238.8,471.5c-66.9-56.3-149.8,42.2-93.4,98.1,66.1,65.6,157.1-44.5,93.4-98.1Z"/>
  <path d="M895.4,634.9c95.1-15.7,64.2-155.9-31.8-127.5-66.7,19.8-50.9,141.1,31.8,127.5Z"/>
  <path d="M492.4,564.7c-74.5,16.7-52.1,135.6,25,128.7,94-8.4,74.5-151.1-25-128.7Z"/>
  <path d="M749.3,298.3c-69.5,20.5-37.3,160.7,59.8,116.7,69.4-31.5,29.5-143.1-59.8-116.7Z"/>
  <path d="M566.4,400.4c-61.4,0-83.9,76.4-49.9,112.3,84.2,88.9,178.9-112.3,49.9-112.3Z"/>
  <path d="M678.3,470c-61.2,56.7,38,161.3,97.2,92.4,57.7-67.1-40-145.5-97.2-92.4Z"/>
  <path d="M411.7,303.3c60.2,56.9,158.6-40.3,92.5-97.1-66.1-56.8-151.5,41.3-92.5,97.1Z"/>
  <path d="M515.3,158.2c83.5-10.3,77.3-148.7-23-126.6-79.2,17.5-49.4,135.5,23,126.6Z"/>
  <path d="M435.1,726.6c-49.2,14.5-49,105.2,0,119.7,120.1,35.4,120-155.1,0-119.7Z"/>
  <path d="M920.9,345.5c-77.7,16-46.6,141.3,24.2,130.1,26.2-4.1,43-21.5,50.5-42.3-3.4-25.8-8.8-50.9-16-75.3-13.2-11.8-32.7-17.8-58.6-12.5Z"/>
  <path d="M121,621.8c-57.6,13-60.6,99.9-7.5,117.6,112.5,37.4,120.2-143,7.5-117.6Z"/>
  <path d="M816.3,135.9c-74.9,13.7-51.2,145.1,33.7,120.6,33.3-9.6,45.2-41.2,39.8-69.8-14.5-18-30.2-34.9-47-50.7-8-1.7-16.8-1.8-26.5,0Z"/>
  <path d="M123.5,357.8c67.3-48.4-6.3-124.4-57-107.2-14.3,24.8-26.5,50.9-36.4,78.1,10.1,35.9,49.4,60.6,93.4,29Z"/>
  <path d="M303,915c3.6-13.6,8.6-32.3-3.1-57.4-11.7-25.1-50.2-24.6-74.3-17.2-16.5,5-35,32.5-34.3,52.9,23.4,18.4,48.5,34.7,75,48.8,17.9.9,31.5-7.6,36.7-27.1Z"/>
  <path d="M398.7,10.3c-38.8,8-75.9,20.4-110.8,36.8,19.7,97.5,158.2,49.9,110.8-36.8Z"/>
  <path d="M785.3,833.6c-55.3.2-80.2,66.8-38.4,101.3,30.4-17.3,58.8-37.7,84.8-60.7,6-22-4.9-40.7-46.4-40.5Z"/>
  <path d="M504.4,1000c45-.4,88.5-6.7,129.9-18.2-31.1-72.9-127.3-63.3-129.9,18.2Z"/>
  <path d="M180.5,195.9c27.1-26.1,20.6-56.9,10.2-88.8-34.7,27.4-65.7,59.3-92.1,94.8,28.6,8.7,56.6,15.9,82-6Z"/>
  <path d="M5.5,574.1c4.5,30.3,11.7,59.8,21.4,88.1,33.1-26.1,16.9-73.6-21.4-88.1Z"/>
</svg>