<?xml version="1.0" encoding="UTF-8"?>
<svg id="Layer_1" xmlns="http://www.w3.org/2000/svg" version="1.1" viewBox="0 0 1000 1000">
  <!-- Generator: Adobe Illustrator 29.0.0, SVG Export Plug-In . SVG Version: 2.1.0 Build 186)  -->
  <defs>
    <style>
      .st0 {
        fill: none;
      }
    </style>
  </defs>
  <path class="st0" d="M766.2,449.9c-75.9,49-151.8-53.6-94.9-110.1,76.3-75.7,179.9,55.2,94.9,110.1ZM584,94c107.4-24.2,125.5,123.1,36.1,139.2-84.3,15.2-120.6-120.2-36.1-139.2ZM558.8,406.6c-74.2,11.1-107.3-117.9-36.2-138.9,109.6-32.3,143.7,122.9,36.2,138.9ZM410.3,43.1c129.1-29.6,125.6,156,.1,128.5-64.8-14.2-65-113.6-.1-128.5ZM379.5,497.3c-49.2,60.8-157.6-5.7-124.4-78.4,45.2-99,193.9-7.6,124.4,78.4ZM196.2,154.8c86.3-15.4,104.4,109.1,36.1,129.1-104.3,30.6-124.1-113.4-36.1-129.1ZM124.4,328.9c130.4-38.5,130.5,166.7,0,128.3-52.5-15.5-52.8-112.7,0-128.3ZM240.3,852.9c-103.6,34.3-132.7-108.1-44.2-126.3,81.6-16.8,118.3,101.7,44.2,126.3ZM247.1,553.3c104.5-23.5,125.5,123.1,36.1,139.2-87.5,15.8-120.5-120.2-36.1-139.2ZM387,918.5c-84.5,5.4-103.2-125.7-17.2-141.2,99.3-17.9,112.9,135.1,17.2,141.2ZM461.1,569.6c-48.8-14.8-49.3-113.6,0-128.6,140.1-42.6,140.2,171.1,0,128.6ZM665.8,783.4c-53.8,57.9-162.1-21.9-110.4-95.2,54.7-77.5,178.8,21.4,110.4,95.2ZM681.3,631.3c-87.5,15.8-120.5-120.2-36.1-139.2,104.5-23.5,125.5,123.1,36.1,139.2ZM793.6,855.8c-87,15.7-99.7-110.4-36.1-129.1,104.2-30.6,124.2,113.3,36.1,129.1ZM845,391c77.4-62.5,168.2,57.9,94.8,109.9-73.7,52.2-165.5-52.9-94.8-109.9Z"/>
  <path d="M255.1,418.8c-33.2,72.7,75.3,139.3,124.4,78.4,69.5-86-79.2-177.5-124.4-78.4Z"/>
  <path d="M766.2,449.9c85-54.9-18.6-185.8-94.9-110.1-56.9,56.5,19,159.2,94.9,110.1Z"/>
  <path d="M461.1,441c-49.3,15-48.8,113.8,0,128.6,140.2,42.5,140.1-171.2,0-128.6Z"/>
  <path d="M645.2,492.1c-84.4,19-51.4,155,36.1,139.2,89.4-16.1,68.4-162.7-36.1-139.2Z"/>
  <path d="M247.1,553.3c-84.4,19-51.4,155,36.1,139.2,89.4-16.1,68.4-162.7-36.1-139.2Z"/>
  <path d="M620.1,233.3c89.4-16.1,71.2-163.4-36.1-139.2-84.5,19-48.2,154.4,36.1,139.2Z"/>
  <path d="M558.8,406.6c107.4-16,73.4-171.2-36.2-138.9-71.1,21-37.9,150,36.2,138.9Z"/>
  <path d="M410.5,171.6c125.4,27.6,128.9-158.1-.1-128.5-64.9,14.9-64.7,114.2.1,128.5Z"/>
  <path d="M845,391c-70.6,57,21.1,162.1,94.8,109.9,73.4-52-17.4-172.4-94.8-109.9Z"/>
  <path d="M369.8,777.4c-85.9,15.5-67.3,146.6,17.2,141.2,95.6-6.1,82.1-159.1-17.2-141.2Z"/>
  <path d="M555.5,688.3c-51.7,73.3,56.6,153.1,110.4,95.2,68.5-73.8-55.7-172.7-110.4-95.2Z"/>
  <path d="M124.4,328.9c-52.8,15.6-52.5,112.8,0,128.3,130.5,38.4,130.4-166.8,0-128.3Z"/>
  <path d="M196.1,726.6c-88.5,18.2-59.4,160.6,44.2,126.3,74.1-24.6,37.5-143.1-44.2-126.3Z"/>
  <path d="M232.3,283.9c68.3-20,50.2-144.5-36.1-129.1-88,15.7-68.2,159.7,36.1,129.1Z"/>
  <path d="M757.5,726.7c-63.6,18.7-50.9,144.7,36.1,129.1,88.1-15.8,68.1-159.7-36.1-129.1Z"/>
  <path d="M969.8,328.4c-12.8-35.1-29.5-68.4-49.4-99.3-59.7,27-18.8,121.6,49.4,99.3Z"/>
  <path d="M667.4,971.3c38.2-13.6,74.3-31.7,107.6-53.6-46.4-46.7-113.4-10.9-107.6,53.6Z"/>
  <path d="M331.3,45.9s-.3-7.2-2-16c-37.5,13.6-72.8,31.6-105.5,53.3,26.7,56.9,95.2,19,107.6-37.3Z"/>
  <path d="M91.8,704.1c-8.6-26.5-36.4-34.4-60.5-29.6,13,34.8,29.7,67.7,49.6,98.3,20.3-11.1,20.8-38.3,10.9-68.7Z"/>
  <path d="M683.9,51.3c8.6-1.1,17.9-3,20.5-7.7-30.8-13.8-63.3-24.6-97-32,1.8,40.7,44.7,44,76.5,39.7Z"/>
  <path d="M945.9,639.6c-6,16.5-9.5,44.6,13.7,57.7,13.1-30.6,23.3-62.7,30.2-96.1-24.6,5-37.3,20.4-43.9,38.4Z"/>
  <path d="M454.8,998c14.9,1.3,30,2,45.2,2,23.1,0,45.8-1.6,68.1-4.6-27.9-30.8-101.7-26.6-113.3,2.6Z"/>
</svg>