<?xml version="1.0" encoding="UTF-8"?>
<svg id="Layer_1" xmlns="http://www.w3.org/2000/svg" version="1.1" viewBox="0 0 1000 1000">
  <!-- Generator: Adobe Illustrator 29.0.0, SVG Export Plug-In . SVG Version: 2.1.0 Build 186)  -->
  <defs>
    <style>
      .st0 {
        fill: none;
      }
    </style>
  </defs>
  <path class="st0" d="M704.9,323.3c139.6,0,37.1,217.7-54,121.5-36.8-38.9-12.5-121.5,54-121.5ZM635.3,110.4c99.1,93.1-108.1,189.1-120.9,63.3-7.2-70.6,80.8-100.9,120.9-63.3ZM501.1,274.6c131.5-38.8,131.6,168.2,0,129.4-53-15.6-53.2-113.7,0-129.4ZM424.2,754.2c-83.2,7-105.1-124.1-25.8-140.3,107.4-22,122.1,132.2,25.8,140.3ZM407.9,38.7c96.6-5.1,94.8,137.1,8.7,142.1-89.9,5.2-105.8-137-8.7-142.1ZM336.5,212.8c105.4-23.7,126.5,124.1,36.4,140.4-88.2,15.9-121.6-121.3-36.4-140.4ZM274.8,387.7c153.5-33.7,97.8,202.6-17.2,126-47.5-31.7-41.7-113,17.2-126ZM120.3,325.5c75.9-11.9,116,125.8,28.2,142.3-114,21.4-112.3-129.2-28.2-142.3ZM174.8,618.2c17-129.4,210.6-21.7,120.7,63.3-40.2,38-130.7,12.4-120.7-63.3ZM370.8,926.9c-91.5,14.8-107.5-115.8-34.4-137.7,94.5-28.4,136.5,121.3,34.4,137.7ZM483.9,966.9c-71.6-61.5,34.9-166.6,100-105.1,63.9,60.4-28.6,166.4-100,105.1ZM612.4,808.7c-84.5,31.2-129.6-108.7-49.5-132.6,100-29.9,140.2,99.2,49.5,132.6ZM585.8,607.7c-46.1-70.8,45.3-148.4,111-95.5,82.9,66.8-51.6,186.7-111,95.5ZM712.7,846.2c-61.9-58.6,32-171.6,100.5-95.3,68.8,76.6-50.2,143-100.5,95.3ZM851.4,387.7c109.8-24.1,123.2,106.6,47,129.8-90.9,27.6-136.2-110.1-47-129.8Z"/>
  <path d="M696.8,512.3c-65.7-53-157.1,24.6-111,95.5,59.4,91.2,193.8-28.7,111-95.5Z"/>
  <path d="M257.6,513.7c115,76.7,170.7-159.7,17.2-126-58.9,12.9-64.7,94.3-17.2,126Z"/>
  <path d="M372.9,353.2c90.1-16.3,69-164.1-36.4-140.4-85.2,19.1-51.8,156.4,36.4,140.4Z"/>
  <path d="M84.6,641.4c97.8-17.7,57.5-168.2-36.4-140.8-25.8,7.5-40.6,26-45.9,47.3,2,21.1,5.3,41.9,9.9,62.1,13.8,22.4,38.8,37.4,72.4,31.3Z"/>
  <path d="M398.4,613.9c-79.3,16.3-57.4,147.3,25.8,140.3,96.3-8.1,81.6-162.3-25.8-140.3Z"/>
  <path d="M120.3,325.5c-84.1,13.2-85.8,163.8,28.2,142.3,87.8-16.5,47.7-154.2-28.2-142.3Z"/>
  <path d="M635.3,110.4c-40.1-37.7-128.1-7.4-120.9,63.3,12.8,125.9,220,29.9,120.9-63.3Z"/>
  <path d="M174.8,618.2c-9.9,75.7,80.6,101.3,120.7,63.3,89.9-85.1-103.7-192.8-120.7-63.3Z"/>
  <path d="M562.9,676.1c-80.1,24-35,163.9,49.5,132.6,90.7-33.5,50.5-162.6-49.5-132.6Z"/>
  <path d="M336.4,789.2c-73.1,22-57.1,152.5,34.4,137.7,102.1-16.5,60.1-166.1-34.4-137.7Z"/>
  <path d="M416.5,180.8c86.1-5,88-147.2-8.7-142.1-97.1,5.1-81.2,147.3,8.7,142.1Z"/>
  <path d="M650.9,444.8c91,96.2,193.5-121.4,54-121.5-66.5,0-90.7,82.6-54,121.5Z"/>
  <path d="M583.8,861.9c-65.1-61.6-171.6,43.6-100,105.1,71.4,61.4,163.9-44.7,100-105.1Z"/>
  <path d="M851.4,387.7c-89.2,19.6-43.9,157.4,47,129.8,76.2-23.1,62.8-153.9-47-129.8Z"/>
  <path d="M501.1,404c131.6,38.8,131.5-168.2,0-129.4-53.2,15.7-53,113.8,0,129.4Z"/>
  <path d="M712.7,846.2c50.3,47.6,169.3-18.7,100.5-95.3-68.5-76.3-162.4,36.7-100.5,95.3Z"/>
  <path d="M879.9,313.7c22.6,22.6,61.8,19.3,87.3,7.8-14.4-37.5-33.1-72.9-55.6-105.5-37.9,0-57.7,71.6-31.7,97.6Z"/>
  <path d="M647.4,977.9c35.7-11,69.6-25.9,101.4-44.1-21.3-55.2-110.3-14-101.4,44.1Z"/>
  <path d="M299.3,41.9c-33.9,14.9-65.8,33.4-95.3,55.1,41.5,38.4,105,4.4,95.3-55.1Z"/>
  <path d="M677.1,50c7.4-2.7,13.6-6.4,18.3-10.4-37.5-15.9-77.4-27.4-118.9-33.8,2.1,5.9,4.5,11.3,7.1,16.1,19.6,35.3,65.1,38.6,93.5,28.1Z"/>
  <path d="M977.7,622.5c-47.1,0-78.4,55.2-41.1,92.5,3.8,3.8,7.8,5.9,11.7,6.5,15.3-31,27.5-63.7,36.2-97.9-2-.7-4.3-1.1-6.9-1.1Z"/>
</svg>