<?xml version="1.0" encoding="UTF-8"?>
<svg id="Layer_1" xmlns="http://www.w3.org/2000/svg" version="1.1" viewBox="0 0 1000 1000">
  <!-- Generator: Adobe Illustrator 29.0.0, SVG Export Plug-In . SVG Version: 2.1.0 Build 186)  -->
  <defs>
    <style>
      .st0 {
        fill: none;
      }
    </style>
  </defs>
  <path d="M120.9,826c5.6,22.2,21,41.4,45.6,46.5-16.2-14.5-31.4-30-45.6-46.5Z"/>
  <path class="st0" d="M565.9,96.1c123.3-27.8,115.6,168.3-10.5,131-56.3-16.6-52.9-116.7,10.5-131ZM503.2,273.2c132.1-39.7,127.8,169.3,0,131-59.4-17.8-59.7-113.1,0-131ZM418.1,562.3c-62.6-72.8,44.8-162.2,106.1-100.9,67.3,67.3-43.4,173.8-106.1,100.9ZM406.9,229.8c62.1,72.2-45.2,165.7-106.3,101.1-62.3-65.8,44.1-173.5,106.3-101.1ZM347.4,507.8c-65.9,62.3-173.5-44.1-101.1-106.3,72.3-62.1,165.8,45.2,101.1,106.3ZM159.6,158.3c90.7-26.5,120.7,114.1,36.9,131.7-87.9,18.5-118.3-108-36.9-131.7ZM211.6,695.7c-53.6-15.8-53.8-115,0-130.9,131.3-38.8,131.4,169.6,0,130.9ZM410,914.2c-21.2,21.4-84.8,20.1-106.7-8.1-59.7-77.1,60.7-162.6,113.9-82.4,15.6,23.5,11.5,71.7-7.2,90.6ZM513.9,987.7c-65.7-13.6-61.4-116-10.9-131.5,125.4-38.5,133.8,156.9,10.9,131.5ZM540.1,799.4c-94.5-89.4,104.9-195.4,122.1-64.1,10.1,76.6-81.5,102.5-122.1,64.1ZM667.8,636.5c-87.4,32.3-125.6-111.9-50-134.2,101.5-29.9,141.6,100.3,50,134.2ZM703.6,181.9c44-73,177.8,4.6,112,86.2-50.1,62.1-161-5-112-86.2ZM823.9,698.6c-67.2,0-91.8-83.6-54.6-122.9,92.1-97.3,195.8,122.8,54.6,122.9ZM857.5,518.8c-66.3-14.9-60.7-115.9-10.7-131.2,128.1-39.3,137.6,159.7,10.7,131.2Z"/>
  <path d="M540.1,799.4c40.6,38.4,132.2,12.6,122.1-64.1-17.2-131.3-216.6-25.3-122.1,64.1Z"/>
  <path d="M418.1,562.3c62.7,72.9,173.4-33.6,106.1-100.9-61.3-61.3-168.7,28.1-106.1,100.9Z"/>
  <path d="M617.8,502.4c-75.6,22.3-37.4,166.5,50,134.2,91.5-33.9,51.5-164.1-50-134.2Z"/>
  <path d="M503.2,404.2c127.8,38.3,132.1-170.7,0-131-59.7,17.9-59.4,113.2,0,131Z"/>
  <path d="M769.4,575.7c-37.2,39.3-12.6,122.9,54.6,122.9,141.2,0,37.5-220.2-54.6-122.9Z"/>
  <path d="M406.9,229.8c-62.2-72.4-168.6,35.3-106.3,101.1,61.1,64.6,168.4-28.9,106.3-101.1Z"/>
  <path d="M347.4,507.8c64.6-61.1-28.9-168.4-101.1-106.3-72.4,62.2,35.3,168.5,101.1,106.3Z"/>
  <path d="M211.6,564.8c-53.8,15.9-53.6,115.1,0,130.9,131.4,38.7,131.3-169.7,0-130.9Z"/>
  <path d="M846.8,387.6c-50,15.3-55.6,116.3,10.7,131.2,126.9,28.5,117.4-170.5-10.7-131.2Z"/>
  <path d="M555.3,227.2c126.2,37.3,133.8-158.8,10.5-131-63.4,14.3-66.9,114.4-10.5,131Z"/>
  <path d="M503,856.2c-50.5,15.5-54.9,117.9,10.9,131.5,122.9,25.4,114.5-170-10.9-131.5Z"/>
  <path d="M303.3,906.1c21.9,28.3,85.5,29.5,106.7,8.1,18.7-18.8,22.8-67.1,7.2-90.6-53.3-80.2-173.6,5.3-113.9,82.4Z"/>
  <path d="M815.6,268c65.8-81.6-68-159.2-112-86.2-49,81.2,61.9,148.3,112,86.2Z"/>
  <path d="M118.1,523.6c-36.6-38.7-95.2-19.2-116.3,19.4,2.3,27.2,6.8,53.8,13.3,79.6,59.1,63.5,161.4-37.2,103-98.9Z"/>
  <path d="M196.5,290c83.8-17.6,53.8-158.2-36.9-131.7-81.4,23.7-51,150.2,36.9,131.7Z"/>
  <path d="M170.2,741.3c-42.6,7.6-58.1,49.9-49.3,84.8,14.2,16.5,29.4,32,45.6,46.5,3.6.7,7.4,1.2,11.3,1.3,97.1,2.7,85.9-149.2-7.6-132.6Z"/>
  <path d="M907.4,219c-44.6,9.3-48.8,141.5,50.5,113.1l8.3-13.1c-13.7-35.3-31.4-68.7-52.4-99.7-2.1-.6-4.3-.8-6.4-.3Z"/>
  <path d="M641.6,973.7c.3,2.2,1,3.9,1.8,5.4,37.8-11.3,73.6-26.9,107.1-46.3-24.8-41.6-105.9-13-108.9,40.9Z"/>
  <path d="M298.8,42.2c-33.6,14.8-65.2,33.1-94.4,54.6,41.9,26.5,94.9-5.2,94.4-54.6Z"/>
  <path d="M680,33.4c-31.6-12.2-64.8-21.3-99.2-26.9,13.9,41.3,81.9,68.9,99.2,26.9Z"/>
  <path d="M943.8,718.8c1.7,1.4,3.9.9,6.3-.9,14.2-29.4,25.7-60.4,34-92.6-45.6,6.9-58.2,55.4-40.3,93.5Z"/>
  <path d="M998.6,538c.9-12.5,1.4-25.2,1.4-38s-.3-19.7-.9-29.4c-19.5,17.6-21.1,53.3-.6,67.4Z"/>
</svg>