<?xml version="1.0" encoding="UTF-8"?>
<svg id="Layer_1" xmlns="http://www.w3.org/2000/svg" version="1.1" viewBox="0 0 1000 1000">
  <!-- Generator: Adobe Illustrator 29.0.0, SVG Export Plug-In . SVG Version: 2.1.0 Build 186)  -->
  <defs>
    <style>
      .st0 {
        fill: none;
      }
    </style>
  </defs>
  <path class="st0" d="M555.2,839.7c-111,19.9-134.6-74.9-223.9-115.9l143.2-313.8c168-21.5,249.4,15.2,332.4,161-53.2,162.7-68.6,235.8-251.6,268.7Z"/>
  <path d="M474.4,410l-143.2,313.8c89.3,41.1,112.9,135.9,223.9,115.9,183.1-32.9,198.4-106,251.6-268.7-82.9-145.8-164.4-182.6-332.4-161Z"/>
  <path d="M385.6,400.4c4.6-101.5-193.5-162.3-292.8-190.6C34.4,291.6,0,391.8,0,500s5.1,82.2,14.7,120.9h261.8c38.1-36.5,106.9-173.6,109-220.5Z"/>
  <path d="M697.2,335.5c41.2-68.2,92.8-147,113.5-227.2C725.5,40.5,617.5,0,500,0s-13.8.1-20.6.4v335h217.9Z"/>
  <path d="M415.6,887.6c-6.4-15.6-215.8-176-237.3-183.3-28.7-9.8-99.6-14.3-138.8-9.3,67,158.1,212.9,274.5,388.3,299.9,6.6-27.8-2.7-84.2-12.2-107.2Z"/>
  <path d="M989.6,601.7c6.8-32.8,10.4-66.9,10.4-101.7,0-127.6-47.8-244.1-126.6-332.5l-107.3,248.2c29.6,18,160.3,153.1,223.5,186Z"/>
  <path d="M410.7,8c-82.8,14.9-158.5,50.3-221.7,100.6-9.2,9.5-17.6,19.8-25.1,31.4C368.9,277.4,455,249.2,410.7,8Z"/>
  <path d="M494.7,1000c1.8,0,3.5,0,5.3,0,114,0,219.1-38.2,303.2-102.4-50-116.6-308.2,4.8-308.5,102.4Z"/>
  <path d="M800.2,793.6c.5,7.9,27.1,45.4,46,67.1,54.6-52.4,97.3-117,123.7-189.5l-84.6-50.2c-5.9,42.2-87.1,140.1-85.1,172.6Z"/>
</svg>