<?xml version="1.0" encoding="UTF-8"?>
<svg id="Layer_1" xmlns="http://www.w3.org/2000/svg" version="1.1" viewBox="0 0 1000 1000">
  <!-- Generator: Adobe Illustrator 29.0.0, SVG Export Plug-In . SVG Version: 2.1.0 Build 186)  -->
  <defs>
    <style>
      .st0 {
        fill: none;
      }
    </style>
  </defs>
  <path class="st0" d="M669.9,590.7c-10.6,12.1-182.4,139.5-194.1,142.4-54.5,13.3-206.3-85.5-245.3-130-10.3-37.6,82.3-288.5,109.4-319.6,83.9-96,163.7,89.7,215.9,147.7,40.7,45.2,163.9,102.3,114.1,159.5Z"/>
  <path d="M555.8,431.3c-52.2-58-132.1-243.7-215.9-147.7-27.1,31.1-119.7,282-109.4,319.6,39,44.5,190.8,143.3,245.3,130,11.7-2.9,183.6-130.3,194.1-142.4,49.8-57.2-73.4-114.3-114.1-159.5Z"/>
  <path d="M449.2,202.6c24.4,50.2,351.6,123,403.7,98.7,4-1.9,51-41.2,74.3-61.4C839.3,96,680.9,0,500,0s-21.5.3-32.2,1c-10.3,60.5-39.5,158.6-18.6,201.6Z"/>
  <path d="M535.7,761.7c-16.6,53.6,30.8,167.5,53.4,230.4,112.3-20.2,211.6-77.9,284.4-159.7l-112.2-233.6c-15.7-11.7-217.9,137.8-225.7,163Z"/>
  <path d="M274.1,255.9c11.7-52.9-3.4-135.1-2.5-200.8C110.3,138.1,0,306.2,0,500s1.6,46,4.6,68.4c29.2-5.4,80.3-24.1,92.3-32.5,17.5-12.2,173.4-262.9,177.1-279.9Z"/>
  <path d="M422,816.3c-7.9-9.5-192.7-134.7-204.5-138.1-22.8-6.6-129.4-10.3-184.4,1.1,65.5,170.4,221.5,295.9,409.2,317.4,4.5-46.2,5-149.8-20.3-180.4Z"/>
  <path d="M965,315.9c-37.8,14.8-91.2,77.9-121.7,81.2-36.5,3.8-119.4-48.8-173.1-26.9-24.3,101.3,94.9,128.1,147.2,188.1,11.4,13,78.8,139,117.4,188.9,41.5-72.9,65.3-157.2,65.3-247.1s-12.4-127.1-35-184.1Z"/>
</svg>