<?xml version="1.0" encoding="UTF-8"?>
<svg id="Layer_1" xmlns="http://www.w3.org/2000/svg" version="1.1" viewBox="0 0 1000 1000">
  <!-- Generator: Adobe Illustrator 29.0.0, SVG Export Plug-In . SVG Version: 2.1.0 Build 186)  -->
  <defs>
    <style>
      .st0 {
        fill: none;
      }
    </style>
  </defs>
  <path d="M996.5,575.3c2.4-12.5,7-20.1,1-28.6-1.7,18.4-4.4,36.5-8,54.2,3.5-11.4,6.1-20.4,7.1-25.6Z"/>
  <path class="st0" d="M307,675.1l-214-13.9c-25.1-1.6-44.6-22.5-44.5-47.6.1-45.2,13.9-111.9,18.6-153.1,1.8-16.2,11.9-30.4,26.6-37.5l121.1-58.6c25.8-12.5,56.6.5,65.8,27.6l74.6,220.4c10.9,32.1-14.4,64.9-48.2,62.8ZM637.4,540.5l-93.2,104.2c-20.3,22.7-57.3,16.2-68.7-12l-101.5-251.1c-6.3-15.6-2.5-33.5,9.7-45.1l41.6-39.8c17.3-16.5,44.9-14.8,60.1,3.6l153.2,186.6c12.8,15.7,12.4,38.3-1.1,53.4Z"/>
  <path class="st0" d="M989.4,600.9c-10.6,34.1-30.1,89.3-43.9,125.6,19.9-39.2,34.9-81.3,43.9-125.6Z"/>
  <path d="M678.6,33l-122.8,170.3c-6.9,10.5-7,24-.4,34.6l101.2,161.8c4.9,7.8,12.9,13.1,21.9,14.6l268.5,44.6c12,2,34.5-6.8,49.1-18.2-22.1-187.1-147.5-342.5-317.5-407.7Z"/>
  <path d="M988.3,538.3l-216.1.7c-65.1,58.5-106.5,158.7-185.9,195.9l71.2,239.7c125.5-41.7,228.9-131.8,288.1-248.1,13.8-36.3,33.4-91.6,43.9-125.6,3.6-17.7,6.3-35.8,8-54.2-1.9-2.6-4.8-5.4-9.2-8.4Z"/>
  <path d="M225.4,289.9c42.2-5.2,157.6-43.4,191.8-65.8,24.2-15.8,147.8-207.2,133.3-220.2-19.8-2.3-39.4-3.6-58.7-3.8C295.1,3.1,126,119.6,47,287.1c50.9,11.1,154.7,5.7,178.3,2.7Z"/>
  <path d="M280.6,392c-9.2-27.1-40-40.1-65.8-27.6l-121.1,58.6c-14.7,7.1-24.7,21.3-26.6,37.5-4.7,41.3-18.5,107.9-18.6,153.1,0,25.1,19.4,46,44.5,47.6l214,13.9c33.8,2.2,59-30.7,48.2-62.8l-74.6-220.4Z"/>
  <path d="M485.4,300.5c-15.2-18.5-42.8-20.1-60.1-3.6l-41.6,39.8c-12.2,11.6-16,29.5-9.7,45.1l101.5,251.1c11.4,28.2,48.4,34.6,68.7,12l93.2-104.2c13.5-15.1,14-37.8,1.1-53.4l-153.2-186.6Z"/>
  <path d="M472,769l-133.2,3.6c-11.4.3-21.7,7-26.6,17.3l-60.7,126.8c-2.5,5.2-3.3,10.7-2.8,15.9,73.7,42.9,159.5,67.4,250.9,67.4s48.1-1.7,71.4-5.1c-16.2-54.4-55.4-171.6-70.1-207.2-4.8-11.6-16.3-19.1-28.9-18.7Z"/>
  <path d="M153.6,751.1l-86.2.5c31.8,54.4,73.5,102.3,122.7,141.1l-4.7-111.3c-.7-17.1-14.8-30.5-31.9-30.4Z"/>
</svg>