<?xml version="1.0" encoding="UTF-8"?>
<svg id="Layer_1" xmlns="http://www.w3.org/2000/svg" version="1.1" viewBox="0 0 1000 1000">
  <!-- Generator: Adobe Illustrator 29.0.0, SVG Export Plug-In . SVG Version: 2.1.0 Build 186)  -->
  <path d="M360.3,400.7l204.3-8.7L726.6,54.2C658.6,19.5,581.6,0,500,0s-123.5,11.7-179.1,33.1c-48.5,26.8-110.4,62.3-134.7,77.7-4.9,4-9.7,8-14.5,12.2l-8.6,10c-5.9,24.7,163.8,255.3,197.2,267.8Z"/>
  <path d="M1000,500c0-7.7-.2-15.4-.5-23.1-81.6,13.3-300.4,75.3-321,93.2-19.5,17-130.5,233.4-131.2,259-.4,15.4,52.5,121.4,74.5,156,217.3-54.4,378.3-250.9,378.3-485.1Z"/>
  <path d="M515,467.5c-41,6.7-105.3-22.2-138.9-9.6-34.9,13.1-217.6,134.9-249,164-17.3,15.9-40.6,28-35.9,56.1,73.1,11.7,275.5,145,331.2,126.3,68.2-117.9,193.2-200.3,92.5-336.8Z"/>
  <path d="M697.9,491.5c32.6,4.9,263.4-102,271.7-135.4,2.6-10.3,1-23.1-3.6-37.5-5.1-13.1-10.7-25.9-16.9-38.4-25.1-46.7-67.3-100.2-101.5-139.5-22.6-21.9-47.3-41.7-73.7-59-.3,0-.7.1-1,.2-8.5,87-245.6,383.8-75.1,409.5Z"/>
  <path d="M218.8,486.5c70.2-85.3-38.6-217-129.6-271.5C33,295.8,0,394.1,0,500s3.1,64,8.9,94.6c33.9-14.4,66.4-29.2,82.2-35,53.8-19.9,115.7-58.6,127.7-73.1Z"/>
  <path d="M508.5,932.2c-39.6-41.6-322.2-122.5-382.6-100.4,91.6,103.2,225.2,168.2,374.1,168.2s21.7-.3,32.3-1c.3-24.6-9-51.2-23.9-66.8Z"/>
</svg>