<?xml version="1.0" encoding="UTF-8"?>
<svg id="Layer_1" xmlns="http://www.w3.org/2000/svg" version="1.1" viewBox="0 0 1000 1000">
  <!-- Generator: Adobe Illustrator 29.0.0, SVG Export Plug-In . SVG Version: 2.1.0 Build 186)  -->
  <path d="M91.7,522l254.7-4.3,130.9-306.7c-5.6-19.4-222.9-132.1-253-124.9-20.9,5-62.9,41.4-105.1,85.4C66.4,230.9,27.6,303,7.8,382.7c17.6,55,57.4,131.3,83.9,139.3Z"/>
  <path d="M756.6,912l-46.6-148.3-327.4-131-210.6,253.8c35.7,30,75.8,55.1,119,74.2,158.2,51.7,336.9,67.7,465.6-48.7Z"/>
  <path d="M831.3,296.9c-3.1-16.7-5-29.8-24.1-34.7l-142.1-14.4-230.3,313.9c1.6,21.2,267.3,128.6,300.9,125.4,27.7-2.6,72-72.7,77.8-99.2,10.3-47,25.8-247.5,17.7-291Z"/>
  <path d="M429.4,12.6c-14.4,4.5-27.8,17.8-24.3,34.2,36.2,22.2,129.3,128.6,157.3,136.9,52.5,15.6,294.7,11.3,255.2-60.9-21-17.9-43.4-34.1-67.1-48.3-46.4-21.8-113.2-50.6-127.6-54.1-44.1-11-153.7-20.1-193.4-7.7Z"/>
  <path d="M992.2,471.3c-1.8-28.4-6-56.1-12.3-83-32.5,12.1-72.5,170-79,184-46.5,100.4-133.7,161.4-69.4,275.9,6.2,5.2,13.2,5.9,20.6,3.2,40.6-41.9,74-90.9,98-144.9,27.4-73.4,38.8-155.3,42-235.2Z"/>
  <path d="M173.9,585.6c-7.6-3.1-14.9-1-22.6,0-11.8,1.7-100.5,35.7-139.2,54.6,18.4,64.6,49.4,123.9,90.2,174.9.5,0,1,0,1.5,0,55.9-70.3,198.2-158.2,70.1-229.6Z"/>
</svg>