<?xml version="1.0" encoding="UTF-8"?>
<svg id="Layer_1" xmlns="http://www.w3.org/2000/svg" version="1.1" viewBox="0 0 1000 1000">
  <!-- Generator: Adobe Illustrator 29.0.0, SVG Export Plug-In . SVG Version: 2.1.0 Build 186)  -->
  <path d="M524.9,334.3c-48-21.9-229.9,60.4-271.4,104,.4,63.4-30.1,283.9,26.1,311.6,53.3,26.2,335.1-77.1,351.3-126.2,13.1-39.8-64.5-270.5-106.1-289.4Z"/>
  <path d="M632.7,288.9c-4.2,42.3,68.6,233.7,100.7,267.7,14.9,15.7,151.7,74.1,171.5,75.3,22.2,1.3,24-6.5,32.1-24.1,8.7-18.7,49.7-153.1,59.3-192.8-5.5-32.6-14.1-64.2-25.6-94.3-98.5-32.6-326.7-144.5-337.9-31.8Z"/>
  <path d="M556.9,765.5c-77.1,58.7-62.9,146.3-62.2,233,2.8,0,5.6,0,8.5,0,170.4,0,321-85.3,411.2-215.5-111-142.7-224.4-118.8-357.5-17.6Z"/>
  <path d="M275.1,293.4c43.4,6.8,232.8-65.9,231.9-124.9L450.2,1.4c-127.3,13.4-240.4,74.6-321,165.2,42.9,42.4,100.2,119.6,145.8,126.8Z"/>
  <path d="M575.6,99.9c42.5,94.9,228.3,100.3,331,103.3C826,93.3,701.6,17.6,559.1,1.7c-8.1,19.9-4.3,51.6,16.5,98.2Z"/>
  <path d="M110.3,756.9c49.4-79.1,63.4-208,46-299.1-8.8-46.2-85.3-91.6-114.9-130.6-4.8,3.1-8.5,6.3-11.4,9.5-4.6,13.5-8.7,27.3-12.2,41.3,0,.6-.1,1.2-.2,1.8-3.3,30.4-10.8,94.4-13.9,143.7,2,41.1,9,80.8,20.3,118.7,23.2,58.9,61,132.7,86.2,114.6Z"/>
  <path d="M376.6,835.6c-30-9.7-177.1,14.4-188.1,51.6,65,52.7,143.6,89.5,229.6,104.2,1.6-48.1,5.5-140.7-41.5-155.8Z"/>
</svg>