<?xml version="1.0" encoding="UTF-8"?>
<svg id="Layer_1" xmlns="http://www.w3.org/2000/svg" version="1.1" viewBox="0 0 1000 1000">
  <!-- Generator: Adobe Illustrator 29.0.0, SVG Export Plug-In . SVG Version: 2.1.0 Build 186)  -->
  <path d="M385.6,571.3l-222.8-125.7c-37,40.1-130.4,102.3-151.7,161.2,10.5,48.4,28.1,94.1,51.5,136.2,7.4,12.3,15.1,24.8,22.7,36.9,66.3,98,166.5,171.2,283.7,202.8,3.3-8.7,3.6-18.6,4.9-30.2,14.1-126.1,17.4-254.4,11.6-381.2Z"/>
  <path d="M252.3,192.8c14.5,218.9,197.1,332.4,408.1,290.1,37.7-21.4,65.7-295.4,33-328.5-140.9-58.4-301.2-.5-441,38.4Z"/>
  <path d="M767.3,567.3l-237.8,75.1c-4.5,91.2-66.5,266.3-48.2,357.2,6.1.2,12.3.3,18.4.3,106.3,0,204.8-33.2,285.8-89.7,30.9-65.7,79.4-180.1,80-191.1,2.4-43.8-70-116.3-98.2-151.9Z"/>
  <path d="M791.7,94.1c-15.5,107.7-46.4,255.2-18.4,348.6,5.6,18.7,97.5,162.2,111,168.8,27.2,13.1,68.2,9.1,101.4,6.6,9.2-37.9,14-77.4,14-118.1,0-167.2-82-315.1-208-405.9Z"/>
  <path d="M251.2,88.5c33.5,13.2,72.7-.2,95.7,0,108,1.2,216,0,324,0s27.7-26.7,14.8-52.8C628.2,12.7,565.5,0,499.7,0c-94.3,0-182.5,26.1-257.8,71.5,0,5.5,2.9,11.1,9.3,17Z"/>
  <path d="M180.1,309.1c6.1-14.7-16.1-156.8-22.7-161.6-13.6,5-32.5,22.3-53.3,46.8C43.1,273,5.2,370.4.3,476.5c59.9-37.3,173.2-151.4,179.8-167.4Z"/>
</svg>