<?xml version="1.0" encoding="UTF-8"?>
<svg id="Layer_1" xmlns="http://www.w3.org/2000/svg" version="1.1" viewBox="0 0 1000 1000">
  <!-- Generator: Adobe Illustrator 29.0.0, SVG Export Plug-In . SVG Version: 2.1.0 Build 186)  -->
  <path d="M388.4,190.8c-24.4,3.1-144.8,198.4-163.7,235.2-23.3,45.4-52.7,87.7-40.7,142,66.9,2.1,178.3,68.2,239.3,57.9,13.8-2.3,210.2-99.7,218.6-108.5,35.3-37.2-49.4-177.4-81.5-214.8-41.8-48.6-110-92.9-172-111.7Z"/>
  <path d="M738,567.9c-47.3,0-155.3,34.1-185.2,67.7-17.7,19.8-10.3,206.5,24.9,329.2,2.8,9.8,6.3,19.3,10.5,28.3,183.6-34.7,331.6-169.7,385.1-345.9-2.6-5.8-6-11.1-9.8-15-29.8-30-179.2-64.4-225.4-64.3Z"/>
  <path d="M734.1,485.2l260.5,24.5c0-2.6,0-5.3,0-8,0-198.3-115.4-369.6-282.8-450.5-28.5,47.4-95,189.6-97.4,203.3-10.3,61,81.2,181,119.5,230.7Z"/>
  <path d="M407.9,695.1c-126.1-44.5-268-98.8-393.6-54.3,17.2,59.4,45.1,114.3,81.5,162.4,43.1,49.9,92.6,94.8,147.3,130.7,57.7,33.7,122.7,56.1,192.1,64.4l12.6-243.5c1.4-26.5-14.9-50.8-39.9-59.6Z"/>
  <path d="M96.8,223.9C54.8,286.7,10.7,358.5,5.2,435.8c46.4-.2,113.5-4.2,148.5-36.4,9.7-8.9,140.9-198.9,144.5-211.1,11.9-39.6.7-85.4-26.2-115.9-9.4-5.8-20.6-5.4-32.8-.5-12.7,7.6-25,15.6-36.9,24.3-44.3,38.3-90.2,104.7-105.6,127.8Z"/>
  <path d="M329.3,58.8l136.5,87.9c22.1,14.2,50.5,13.8,72.2-1,48.2-32.9,120.2-87.9,113.9-118.7C602.5,10.6,549.6,1.8,494.8,1.8s-118.6,10.8-172.3,30.5c-2.4,9.9-1.5,20.4,6.9,26.5Z"/>
</svg>