<?xml version="1.0" encoding="UTF-8"?>
<svg xmlns="http://www.w3.org/2000/svg" version="1.1" viewBox="0 0 1000 1000">
  <!-- Generator: Adobe Illustrator 29.0.0, SVG Export Plug-In . SVG Version: 2.1.0 Build 186)  -->
  <defs>
    <style>
      .st0 {
        fill: none;
      }

      .st1 {
        fill: #fff;
      }

      .st2 {
        display: none;
      }
    </style>
  </defs>
    <g>
        <path class="st0" d="M148.8,295.9c-32.5-54.8,39.9-158.8,89.7-126.9,71.1,45.5-38.7,213-89.7,126.9ZM762,212.1c23.4-37.3,128.4-6.5,109.2,62.4-19.1,68.5-157.1,14.2-109.2-62.4Z"/>
        <path d="M652.1,175.5c22.5-46.9,8.1-97.7,40.1-137.2-47.6-19.8-99-32.5-152.7-36.7,18,20.7,15.8,122-45.6,125.8-83.9,5.2-77.5-73.4-90.8-118-48.3,9.5-94,25.9-136.2,48.2.7,4.7,1.7,9.6,3,14.8,48.3,192.3,283.2,309.4,382.2,103.2Z"/>
        <path d="M238.5,169c-49.9-32-122.2,72.1-89.7,126.9,51,86.1,160.8-81.3,89.7-126.9Z"/>
        <path d="M762,212.1c-47.9,76.5,90.1,130.9,109.2,62.4,19.2-68.9-85.8-99.7-109.2-62.4Z"/>
    </g>
</svg>