<?xml version="1.0" encoding="UTF-8"?>
<svg id="Layer_1" xmlns="http://www.w3.org/2000/svg" version="1.1" viewBox="0 0 1000 1000">
  <!-- Generator: Adobe Illustrator 29.0.0, SVG Export Plug-In . SVG Version: 2.1.0 Build 186)  -->
  <defs>
    <style>
      .st0 {
        fill: none;
      }
    </style>
  </defs>
  <path class="st0" d="M166.3,300.9c-74.7-45.6,41.8-164.4,96.4-87.5,44.3,62.5-42.6,120.3-96.4,87.5ZM835.9,288.2c-54,39.3-144.2-38.1-85.4-94.4,82.1-78.7,141.8,53.5,85.4,94.4Z"/>
  <path d="M750.5,193.8c-58.8,56.3,31.4,133.7,85.4,94.4,56.4-41-3.3-173.1-85.4-94.4Z"/>
  <path d="M166.3,300.9c53.7,32.8,140.7-25,96.4-87.5-54.6-76.9-171.1,41.9-96.4,87.5Z"/>
  <path d="M374.1,218.5c62.5,66.5,190.4,76.8,249.9-.2,46.6-60.2,35.9-90.6,35.9-139s-1.5-41-5.6-56.6c-32.1-10.4-65.5-17.6-100.1-21.3-.3,11.5-1.3,26.9-1.3,47.8,0,48-15.2,110.4-64.6,110.4s-59.9-79.2-59.9-107.3,2-32.9,4.1-49.3c-40.4,5.5-79.3,15.7-116,30.2-12.1,48.2-.9,123,57.6,185.3Z"/>
</svg>