<?xml version="1.0" encoding="UTF-8"?>
<svg id="Layer_1" xmlns="http://www.w3.org/2000/svg" version="1.1" viewBox="0 0 1000 1000">
  <!-- Generator: Adobe Illustrator 29.0.0, SVG Export Plug-In . SVG Version: 2.1.0 Build 186)  -->
  <defs>
    <style>
      .st0 {
        fill: none;
      }
    </style>
  </defs>
  <path class="st0" d="M258,296.2c-31,53.2-150-18.6-99-89.8,45.2-63.1,140.6,18.4,99,89.8ZM851.7,301.2c-26.6,26.4-153.1-16.2-107.4-89.3,46-73.7,157.1,39.9,107.4,89.3Z"/>
  <path d="M328.1,189.5c117.9,234.4,444.9,91.4,336.8-161.7-37.1-13-76.3-21.7-116.9-25.5,10.3,31.4,22.1,86.1,11.5,114.8-14.1,38.3-92.2,40.5-119.3-1.9-16.7-26.1-15.7-91.7-17.3-109.2-46.5,7.2-90.8,20.8-132.1,39.8-1.2,36.4,25.3,120.1,37.3,143.8Z"/>
  <path d="M158.9,206.4c-50.9,71.1,68,142.9,99,89.8,41.6-71.3-53.9-152.8-99-89.8Z"/>
  <path d="M744.3,211.9c-45.7,73.1,80.8,115.7,107.4,89.3,49.7-49.4-61.4-162.9-107.4-89.3Z"/>
</svg>