<?xml version="1.0" encoding="UTF-8"?>
<svg id="Layer_1" xmlns="http://www.w3.org/2000/svg" version="1.1" viewBox="0 0 1000 1000">
  <!-- Generator: Adobe Illustrator 29.0.0, SVG Export Plug-In . SVG Version: 2.1.0 Build 186)  -->
  <defs>
    <style>
      .st0 {
        fill: none;
      }
    </style>
  </defs>
  <path class="st0" d="M170.2,269.3c-30.2-97.8,71.9-99.4,91.8-67,37.5,61-60.7,167.6-91.8,67ZM858.2,302.5c-72.2,46-138.2-107.5-70.5-127.9,61.1-18.4,115.8,99.1,70.5,127.9Z"/>
  <path d="M787.7,174.6c-67.7,20.4-1.6,173.9,70.5,127.9,45.3-28.8-9.4-146.3-70.5-127.9Z"/>
  <path d="M170.2,269.3c31,100.6,129.3-6,91.8-67-19.9-32.4-121.9-30.8-91.8,67Z"/>
  <path d="M410.9,250.5c152.4,112.3,320.5-124.5,243.3-227.5-33.6-10.9-68.7-18.3-104.9-21.8,30.1,37,15.4,121.4-40,137-51.2,14.4-87.3-92.6-76.6-134.9-48,6.5-93.9,19.7-136.5,38.8.9,5.7,2.4,11.9,4.4,18.5,33.8,112,64.1,155.8,110.4,189.9Z"/>
</svg>