<?xml version="1.0" encoding="UTF-8"?>
<svg id="Layer_1" xmlns="http://www.w3.org/2000/svg" version="1.1" viewBox="0 0 1000 1000">
  <!-- Generator: Adobe Illustrator 29.0.0, SVG Export Plug-In . SVG Version: 2.1.0 Build 186)  -->
  <defs>
    <style>
      .st0 {
        fill: none;
      }
    </style>
  </defs>
  <path class="st0" d="M253.5,294.5c-58.8,57.3-148.1-21.2-95.1-86.8,60.4-74.8,150.6,32.8,95.1,86.8ZM774.2,306.4c-114.4-31.7,45.6-199.3,83.9-101,21.4,54.9-22.6,118-83.9,101Z"/>
  <path d="M858.1,205.4c-38.3-98.3-198.2,69.3-83.9,101,61.2,17,105.2-46.1,83.9-101Z"/>
  <path d="M158.4,207.7c-53,65.6,36.3,144,95.1,86.8,55.4-54-34.7-161.5-95.1-86.8Z"/>
  <path d="M513,287.7c141.2-.5,193.9-168.2,165.6-256.2-36.8-14.1-75.7-23.9-116.1-29,5.3,21.9,6.5,81.7,1.1,99.1-17.9,57.8-82.4,44-108.2,9.5-21.1-28.1-15.4-83.5-7.5-109.8-42.1,4.4-82.6,13.9-120.9,28.1.3,1.9.6,3.9.9,5.9,8.1,60.5,10.2,253.1,185.2,252.4Z"/>
</svg>