<?xml version="1.0" encoding="UTF-8"?>
<svg id="Layer_1" xmlns="http://www.w3.org/2000/svg" version="1.1" viewBox="0 0 1000 1000">
  <!-- Generator: Adobe Illustrator 29.0.0, SVG Export Plug-In . SVG Version: 2.1.0 Build 186)  -->
  <defs>
    <style>
      .st0 {
        fill: none;
      }
    </style>
  </defs>
  <path class="st0" d="M251.2,285.3c-49.3,36.2-123.4-31.9-80.6-88.7,28-37.1,149.2,38.4,80.6,88.7ZM838.6,292.1c-22.6,14-136.1-67-48.2-103,84.1-34.4,67.6,90.9,48.2,103Z"/>
  <path d="M170.6,196.6c-42.8,56.8,31.4,124.9,80.6,88.7,68.6-50.4-52.7-125.9-80.6-88.7Z"/>
  <path d="M790.4,189.2c-87.9,36,25.6,117,48.2,103,19.4-12,35.9-137.4-48.2-103Z"/>
  <path d="M688.9,35.2c-29-11.8-59.3-21-90.7-27.3.7,4.4,1.1,9.2,1.1,14.4,0,108.4-31,149.7-99.2,137.5-64.4-11.4-59.2-143.5-58.5-158.2-46.9,5.5-91.8,17.4-133.8,34.9,1.7,62.8,26.8,134,26.8,134,176.1,333.8,462.9-8.3,354.4-135.4Z"/>
</svg>