<?xml version="1.0" encoding="UTF-8"?>
<svg id="Layer_1" xmlns="http://www.w3.org/2000/svg" version="1.1" viewBox="0 0 1000 1000">
  <!-- Generator: Adobe Illustrator 29.0.0, SVG Export Plug-In . SVG Version: 2.1.0 Build 186)  -->
  <defs>
    <style>
      .st0 {
        fill: none;
      }
    </style>
  </defs>
  <path d="M346.1,23.3c15.1-4.9,30.4-9,46.1-12.5-17.9,3.8-33.2,7.8-46.1,12.5Z"/>
  <path d="M445.9.8c-13.8,2.4-26.6,4.7-38.4,7,12.5-2.3,25.2-4.2,38.1-5.6.1-.5.2-.9.4-1.4Z"/>
  <path class="st0" d="M146,272.1c-37.4-101.7,100.8-103.4,111.9-33.7,7.2,45-87.7,99.6-111.9,33.7ZM843.7,291.6c-50,40.3-157.3-50-61.4-99.9,73.6-38.3,111.4,59.6,61.4,99.9Z"/>
  <path class="st0" d="M392.2,10.9c4.9-1,10-2.1,15.3-3.1-5.1,1-10.2,2-15.3,3.1Z"/>
  <path d="M322.7,193c57.8,147.4,272.4,159.6,329.4,36.9,10.6-22.8,27.3-155.5,23.4-199-38.8-14.5-79.9-24.4-122.5-28.9-.2,11,.3,23.9,1.3,39.3,8.5,122.2-146,103.4-108.8-39.1-12.8,1.4-25.5,3.3-38.1,5.6-5.3,1-10.4,2.1-15.3,3.1-15.7,3.4-31,7.6-46.1,12.5-61.3,22.3-66.3,60.4-23.4,169.7Z"/>
  <path d="M782.3,191.7c-95.9,49.9,11.4,140.2,61.4,99.9,50-40.3,12.2-138.2-61.4-99.9Z"/>
  <path d="M146,272.1c24.2,65.9,119.1,11.3,111.9-33.7-11.1-69.7-149.3-68-111.9,33.7Z"/>
</svg>