<?xml version="1.0" encoding="UTF-8"?>
<svg id="Layer_1" xmlns="http://www.w3.org/2000/svg" version="1.1" viewBox="0 0 1000 1000">
  <!-- Generator: Adobe Illustrator 29.0.0, SVG Export Plug-In . SVG Version: 2.1.0 Build 186)  -->
  <defs>
    <style>
      .st0 {
        fill: none;
      }
    </style>
  </defs>
  <path class="st0" d="M689.2,37c-40.1,34.2-15.6,312.4-255.1,258.5,0,0-94.7-27.5-94.7-264.2s0-3.3,0-4.9C142.1,93.2,0,280,0,500s223.9,500,500,500,500-223.9,500-500S871.5,111.6,689.2,37ZM237.7,295.9c-87.1,86.2-140.6-85.5-96.6-113.2,47.5-30,161.3,49.3,96.6,113.2ZM825.3,314.4c-79.5,50.5-99.8-104.1-59.3-128.8,40.5-24.8,83.8-17.7,97.5,29.2,13.7,46.9,3.9,73-38.2,99.7Z"/>
  <path d="M434.2,295.5c239.4,54,215-224.2,255.1-258.5-39-16-80.5-27.1-123.7-32.8-3.5,3-6,7.2-7.3,12.6-12.2,52.4-12.2,106.9-60.6,98.2-3.6-.6-28.3,3-42.1-41.8-7.9-25.4-9.6-52.1-9.5-70.4-36.9,4-72.5,11.9-106.6,23.4,0,1.6,0,3.3,0,4.9,0,236.8,94.7,264.2,94.7,264.2Z"/>
  <path d="M141.1,182.6c-44,27.7,9.5,199.4,96.6,113.2,64.7-64-49.1-143.2-96.6-113.2Z"/>
  <path d="M863.5,214.7c-13.7-46.9-57-53.9-97.5-29.2-40.5,24.8-20.2,179.3,59.3,128.8,42.1-26.7,51.9-52.8,38.2-99.7Z"/>
</svg>