<?xml version="1.0" encoding="UTF-8"?>
<svg id="Layer_1" xmlns="http://www.w3.org/2000/svg" version="1.1" viewBox="0 0 1000 1000">
  <!-- Generator: Adobe Illustrator 29.0.0, SVG Export Plug-In . SVG Version: 2.1.0 Build 186)  -->
  <path d="M771.5,696.8c1.1-18.1-33.5-66.2-32-104.4,2.7-71.4,14.4-140.3,18.9-210.9,3.1-48.4-35.3-198.2-26.1-265,2.3-16.7,16.9-30,24.8-45.4-54.7-32.9-116.3-55.5-182-65.4-8.5,43.7,9.4,137,5.6,166.2-3.3,25.3-12.9,88.3-.8,164.4,12.2,76.1,15.4,130.7,20.6,194.7s11.1,128.9,13,197.1c2.4,85.6,4.3,176.7-15.2,259.8,1.6.6,3.1,1.1,4.7,1.6,67.4-14.1,129.7-41.7,184.2-79.9-7.6-43-39.6-104.7-41.3-138-2.1-41,24.9-60.2,25.8-74.7Z"/>
  <path d="M413.1,771.8c1.1-27.2-27.5-65.3-30.6-94.9-16.6-158.4-17.2-355.5-8.1-516.8,2.5-44.4-28.3-88.3,15-143.9-.2-1.3-.7-2.5-1.2-3.6-64.6,14.7-124.3,42-176.7,79,1.4,33.8,13.5,67.2,13.8,98.4,2.4,195.6,33.5,383.3,39.9,567,.3,8.3-34.1,41.8-39.7,75.8-1.4,8.6,1.4,50.7,5.3,88.7,51.3,32.9,109.1,56.6,170.9,68.9-34.3-71,9.6-173.2,11.4-218.6Z"/>
</svg>