<?xml version="1.0" encoding="UTF-8"?>
<svg id="Layer_1" xmlns="http://www.w3.org/2000/svg" version="1.1" viewBox="0 0 1000 1000">
  <!-- Generator: Adobe Illustrator 29.0.0, SVG Export Plug-In . SVG Version: 2.1.0 Build 186)  -->
  <path d="M387,629.7c1.4-35,29.1-62.5,25.7-88.6l-40.1-37.6c69.6-67.1,10.2-124.3,3-177.3-2-15.1-4.7-163.7-4-186.7,1.4-46.8,48.1-75.1,22.4-128.3-71.7,15.5-137.6,46.3-194.2,88.9-9,31.5-25.8,60.2-26.6,72.2-1,16.7,27.9,42,25.8,77.5-2.1,34.7-39,60.4-31.9,110.3,4.7,32.7,42.2,56.8,44.6,82.6,2.5,27.6-26.7,185.7-24.4,245.7,2.9,74.3,37.6,138.1,14.4,212.9,50.4,37.5,108.1,65.8,170.6,82.3,8.5-39.6,43.2-97.5,44.7-120.1,1.9-28.7-32-181.3-30-233.7Z"/>
  <path d="M793.2,837c-8.5-119-52.9-293.5-52.4-412.6,0-18.3,28.2-38.9,24.1-60.8-3.6-19.5-44.2-32.7-45.2-64.9-1.5-50.1,97.7-103,15.5-189.4l45.3-23.2c-61.5-41.7-132.7-70.1-209.6-81.1-26.5,32.4,22.7,73.1,23.3,119.3.6,49.3-44.4,108.6-44.7,145.2-.2,22.4,27.7,42.1,29.8,75.8,2.2,36.7-22.8,74.5-18,109.9,4.6,33.5,41.7,44.7,48.1,80.2,10.9,60.5-18.4,217-7.7,293.9,6.9,49.7,63.6,85.5,29.8,153.2,59.5-16.1,114.5-43,163-78.3,1.1-21.2.6-44-1.1-67.2Z"/>
</svg>