<?xml version="1.0" encoding="UTF-8"?>
<svg id="Layer_1" xmlns="http://www.w3.org/2000/svg" version="1.1" viewBox="0 0 1000 1000">
  <!-- Generator: Adobe Illustrator 29.0.0, SVG Export Plug-In . SVG Version: 2.1.0 Build 186)  -->
  <path d="M397.7,807c-6.4-53.7-48.6-91.4-48.3-149.3,1.1-184.7,24.2-387.3,43.6-565.2,3.4-31.2-1-56.7-4.4-80-49.8,11.3-96.8,30.1-139.7,55.1,0,.4-.1.8-.2,1.2-6.4,37.3-51.7,63.2-55.6,92.9-3.6,27.6,23.3,49.8,24.7,73.4,2.4,40.3-32.2,91.6-27.7,136.4,4.1,41.2,41.8,69.8,41.1,116.5-1.9,116.4-7.9,300-17.2,422.3,50.5,35.3,107.9,61.5,169.7,76.2,16.3-64.7,19.3-135.2,14-179.4Z"/>
  <path d="M746.7,783c-12.4-237.9-6.5-480.8,12.4-710.7-48.7-29.5-102.8-51-160.5-62.5-14.6,220.2,12.4,449.3,1.6,662.9-2,38.5-38.1,66.8-38.1,121.9,0,45.1,32,77.1,32.7,111.9.5,25.6-11.6,56.3-18.5,87.8,66-10.1,127.7-33.1,182.6-66.3,22.7-57.6-9.5-94.8-12.1-144.9Z"/>
</svg>