<?xml version="1.0" encoding="UTF-8"?>
<svg id="Layer_1" xmlns="http://www.w3.org/2000/svg" version="1.1" viewBox="0 0 1000 1000">
  <!-- Generator: Adobe Illustrator 29.0.0, SVG Export Plug-In . SVG Version: 2.1.0 Build 186)  -->
  <path d="M383.6,882c-.8-27.1,29.6-50.4,25.3-74.7-3-17.1-27.3-32.3-27.4-65.4-.1-33.1,26.1-50.6,29.9-78.7,26-191.8-7.6-400.5-8.7-574.9-.2-23.6,22.5-57.4,24.3-82.9-54.1,7.9-105.5,24.5-152.5,48.4,2.8,16,6.2,33.2,5.8,50.6-4.5,181.3-59.4,412.7-41.1,605.9,4.1,43,45.5,46.6-.6,124.6l30.3,18c-14.6,37.7-12.1,68.1,1,91.2,44.6,23.2,93.2,39.8,144.4,48.7,12.5-43.1-29.8-85.8-30.5-110.7Z"/>
  <path d="M743,164.3c.7-11.5-1.2-93.4-2.7-102.8-49.5-27.2-104.1-46.2-161.9-55.3,2.9,12.3,8.1,25.3,6.2,34.5-22,107.6-7.6,48.4-1.9,128.1,2.4,33.2-5,50.6,3,121,7.3,63.8-13.4,121.9-13.3,174.1.5,175.9,39.2,352,13.3,529,51-8.8,99.3-25.4,143.8-48.4l-7.7-217.8c25.7-189.9,11.1-388.1,21.1-562.2Z"/>
</svg>