<?xml version="1.0" encoding="UTF-8"?>
<svg id="Layer_1" xmlns="http://www.w3.org/2000/svg" version="1.1" viewBox="0 0 1000 1000">
  <!-- Generator: Adobe Illustrator 29.0.0, SVG Export Plug-In . SVG Version: 2.1.0 Build 186)  -->
  <path d="M405.8,884.7c-1.4-80.8,16.1-176.8,13.7-246.7-3.2-93.1-36.6-226.8-35.9-339.4.3-55.1-2.9-140.4,0-187.5,2.3-37.7,34.2-70.7,35.8-104.1-66.8,10.8-129.1,34.9-184.3,69.4-16.9,138.4-5.4,370.7-5.7,445.9-.2,45.2,13.7,117.1,12.5,123.5-2.5,13.4-28.4,27.6-30.2,50-2.1,26.2,34.5,61.9,30.4,112.3-3,37-31.9,61.9-45.3,90.1,60.3,46,131.4,78.7,208.8,93.5-2.6-35.7.9-71.2.2-107Z"/>
  <path d="M596.2,9.8c-8.7,33.6-15.7,79.1-15.9,93.6-.5,54-5.5,81.5-6.5,123.6-1.6,62.3,34,217.4,34.9,289.9.4,36.7-25.2,70.2-24.2,106.2,1,38.6,41.7,96.2,38.6,130.9-5.9,65.1-18.3,118.7-23.1,202.6-.6,10.7-6.7,23.2-12.5,36.3,62-10.9,120-33.3,171.9-64.8l-37.1-875.6c-39.3-19.5-81.6-34.1-126-42.7Z"/>
</svg>