<?xml version="1.0" encoding="UTF-8"?>
<svg id="Layer_1" xmlns="http://www.w3.org/2000/svg" version="1.1" viewBox="0 0 1000 1000">
  <!-- Generator: Adobe Illustrator 29.0.0, SVG Export Plug-In . SVG Version: 2.1.0 Build 186)  -->
  <path d="M755,681.4c-4.8-55.8,17.8-161,17.2-219.2-1-104.2-29.5-212.6-28.5-316.3.1-14.5,5.8-46.8,11.1-76.2-57.5-34.2-122.5-57.1-191.9-65.8,7.1,16.3,16.5,32.7,18.6,48.8,10.6,78.1-11.6,160.5-11.3,222.8.1,25.1,32.3,46,29.6,91.3-2.1,35-32.1,56.3-32.9,78.8-.9,25.2,28.4,51.6,31.4,80.4,4.7,44.5-26.1,64.6-26.2,77.3,0,9.3,25.1,33,27.4,62.8,4.7,60.5-6.1,155.3-.2,219.2,3,32.7,15.4,66,16.9,101,63.2-15.1,121.7-42.1,173-78.6,4-76.9-29.5-169.4-34.4-226.3Z"/>
  <path d="M355.5,792.8c-1.1-63.1,38.5-222,40.4-285.9,3-97.2-25.9-202.6-25.5-295.7.2-37.2,29.4-135.8,25-200.1-58.3,12.4-112.9,35-161.8,65.8,3.8,7.3,7.1,13.7,6.7,19.5-1.4,18.2-28.3,38.9-28.4,65.8,0,25.7,26.9,46.5,26.8,75.7-.4,76.1-2.8,213.2-12.3,285.9-5.3,40.7-43.2,93.8-43.2,158.4,0,59.1,42.6,133.1,43.4,157.5.7,24.1-18.8,36.5-23.7,62.5,50.1,37.1,107.5,65.1,169.5,81.4,27.2-71.5-16-137.1-16.9-190.8Z"/>
</svg>