<?xml version="1.0" encoding="UTF-8"?>
<svg id="Layer_1" xmlns="http://www.w3.org/2000/svg" version="1.1" viewBox="0 0 1000 1000">
  <!-- Generator: Adobe Illustrator 29.0.0, SVG Export Plug-In . SVG Version: 2.1.0 Build 186)  -->
  <path d="M379.8,911c11.6-119.3-10.5-271-25.4-377-14.9-106,39.4-229.3,43.7-338.6.8-21.5-13.2-44.4-11.8-64.8,2.8-41.9,49.6-76,37.3-124.9-82.9,12.7-159.2,45.8-223.4,94,0,0,27.7,123.6,27.7,190.6s-42.8,112.3-42.8,178.9,29.8,180.1,39.1,224.7-8.9,217.1-8.9,217.1c52.6,36.5,112.4,63.1,177,77.3-4.5-28.5-14.3-58.6-12.5-77.3Z"/>
  <path d="M763.7,550.6c7.1-127.4-15.1-252.8-10.4-378,.9-24.5,12.4-59.7,18-92.7-47.1-30.5-99.6-53.2-155.7-66.5-11,14.5-17.8,35-19.3,62.6-2.3,41,28.4,68.9,29.1,110.6.9,52.8-38.9,84.9-37,124.6,6,127.9,28.3,281.8,19.3,415.1-5.4,79.4-66,187.6-39.7,269.1,65.3-8.9,126.5-30.3,181.3-61.8-1.7-4.1-3-8.4-3.6-12.9-18.5-132.4,11.4-249.7,18-370Z"/>
</svg>