<?xml version="1.0" encoding="UTF-8"?>
<svg id="Layer_1" xmlns="http://www.w3.org/2000/svg" version="1.1" viewBox="0 0 1000 1000">
  <!-- Generator: Adobe Illustrator 29.0.0, SVG Export Plug-In . SVG Version: 2.1.0 Build 186)  -->
  <path d="M382.2,753.4c-1.6-31.2,27.5-73.3,27.2-122-.2-36.5-29.4-76.3-25.8-120.9,2.3-28.4,23-17.1,27-23,38.9-58.1-21.3-99.5-19.4-137.5,1.4-27.6,24.3-59.5,27.9-94,4.4-42.4-20.9-77.9-14.9-116.7,8.7-55.8,54.3-42.9,23.2-118-2.2-5.4-4.6-10.4-7.1-14.9-74.9,12-144.3,40.6-204.1,82-10,24.9-34.4,48-37,70.7-3.6,31.6,31.8,49.7,31,86.1-.8,34.5-24.7,64.8-26.4,106.6-1.8,44.5,41.9,51.6,39,93.9-2.6,39-33.9,51.6-39.4,89.1-6.7,46.3,32.3,77.9,27,118-5.5,41.3-53.6,61-55.7,105.7-1.1,22.6,18.4,44.3,18.5,69.8,0,15.3-1.6,31-3.9,46.9,55.1,48.6,121,85.3,193.6,106,6.6-60.8,44.4-120.6,45.4-152.7.9-27.9-24.9-51.9-26.1-74.8Z"/>
  <path d="M771,691.7c-2.8-41.4-42.4-96.4-38.2-141.9,3-32.7,32.4-55.5,35.3-88.2,3.6-39.9-30.6-88.1-27.3-137.1,3.4-51,43.5-158.1,40.7-237.8-54-36.9-115.7-63.4-182.1-76.8-35.5,33,23.7,99.3,21.5,118.8-3,26.8-40.6,52.1-46.1,92.3-9.2,68.1,29.8,251.4,23.4,330.3-3.5,42.1-27.4,73.9-30.7,108.5-4.5,46.5,29.6,82.7,31,120.7,2.6,68.6-53.3,148.4-5.4,210.9,52-9.8,101.1-27.6,146.1-52.2,25.4-50.1,34.7-202.8,31.7-247.4Z"/>
</svg>