<?xml version="1.0" encoding="UTF-8"?>
<svg id="Layer_1" xmlns="http://www.w3.org/2000/svg" version="1.1" viewBox="0 0 1000 1000">
  <!-- Generator: Adobe Illustrator 29.0.0, SVG Export Plug-In . SVG Version: 2.1.0 Build 186)  -->
  <defs>
    <style>
      .st0 {
        fill: #231f20;
      }
    </style>
  </defs>
  <path class="st0" d="M979.2,537.5c-21.9,10.1-47.4,29.1-74.3,49.2-22.3,16.6-45.4,33.8-66.1,45.4-47.2,26.5-102.2,51.8-155.3,76.3-13.8,6.4-27,12.4-39.8,18.4-.8-6-1.3-18.7.6-44.9,1.9-26,5.4-55.7,8.2-79.5,2.1-17.6,3.6-30.4,3.8-36.1.2-5.5,3.2-9.9,5.3-13.2,2.1-3.2,5.3-8,1.9-12.9-3.4-5-9.8-4-14.5-3.3-4.9.8-12.5,2.4-22.7,4.5-24.6,5.2-86.5,43.6-152.1,84.3-33.1,20.5-67.4,41.8-94.4,57.1-26.2,14.8-39.2,20.3-45.5,22.3,0,0,32-171.1,32-194.6s-70.3,20-70.3,20L28.8,667.7c4.8,13.4,10.1,26.6,16,39.5,23.4-11.5,71.4-39.9,122-69.8,53.4-31.6,126.5-74.8,136.9-76.7,4.6-.2,6.5,1.4,7.6,2.5,3.7,4.1,4.7,14.2,2.7,27.5-.8,5.5-7.8,21-15.2,37.5-24.1,53.7-57.1,127.3-25.9,149.9,11.6,8.5,34.2,2.3,75.3-20.5,32.7-18.1,72.4-44.3,110.9-69.6,33-21.7,64.1-42.1,89.4-56.8,26.5-15.3,38.3-19.2,43.4-20,0,0-4.4,127.2-8.1,145.7-3.6,18.5,15.9,32.6,20.1,33.2,3.3.4,6.6.8,10.7.8,7.8,0,18.3-1.5,36.6-7.3,36-11.4,165.1-87.2,227.1-123.6,6.8-4,12.6-7.4,17.4-10.2,3.4-2,8.3-4.7,14-7.9,29.3-16.5,60-34.2,82-50.3,3.8-20.4,6.3-41.1,7.5-62.3-5.5,1.7-12.1,4.4-20,8v.2Z"/>
  <path class="st0" d="M883.4,707.5l-3.9-3.5-355.5,184.3c-1.8-1.6-4.5-7-6.2-20.3-1.9-15.7-1.8-37-1.6-57.7.2-32.6.4-63.4-6.9-77.8l-3.3-6.5-282.3,135.3c-.2-1.2-.3-2.4-.5-3.6-12.5-86.9-26.5-145.7-54-150.7l-2.6-.5-94.5,52.1c7.3,12.1,15.1,23.8,23.4,35.2,6-4.1,12-8.6,17.9-13,22.6-17.1,38.2-27.7,47.9-20,13.5,11.2,9.6,45.7,6.1,76.2-1.3,11.5-2.6,22.8-3.2,33.4,22.4,20.3,46.7,38.6,72.5,54.7.5-.2,1-.4,1.6-.6h.1c10.8-4.4,35.9-20.6,67.6-41.2,31.4-20.3,66.9-43.3,97.5-60.5,46.7-26.3,56.9-24.6,58.4-24,1.3,1.4,4.1,6.2,4.9,22.5.7,12.8.1,28.4-.5,45-.8,20.9-1.6,42.6.3,59.5.9,8.3,3.7,33.4,22.8,35.2.6,0,1.3,0,2.3,0,8.8,0,36.6-5.8,164-78.5,71.7-40.9,145.3-86.1,170.2-102,2.8,0,4.7,1.4,5.8,5.9,3,11.8-2.6,36.6-14.2,63.1-4.6,10.6-10.5,29.8-15.9,49.2,25.6-19.4,49.3-41.2,70.8-65.2,5.2-14.9,9.7-31,13.2-47.5,4-19.4,11.9-66-2.1-78.7h0Z"/>
</svg>