<?xml version="1.0" encoding="UTF-8"?>
<svg id="Layer_1" xmlns="http://www.w3.org/2000/svg" version="1.1" viewBox="0 0 1000 1000">
  <!-- Generator: Adobe Illustrator 29.0.0, SVG Export Plug-In . SVG Version: 2.1.0 Build 186)  -->
  <defs>
    <style>
      .st0 {
        fill: none;
      }

      .st1 {
        fill: #010101;
      }
    </style>
  </defs>
  <path class="st0" d="M358.1,686.4c.2.5.4,1,.6,1.3l-.6-1.3Z"/>
  <path class="st1" d="M325.4,593.4c37.2,1.9-21.9,117.2-6.7,146.8,63.9-6.7,54.3-32.4,164.9-82.9,110.6-50.5,193.5-89.6,129.6,69.6,27.6,23.8,296.4-108.7,348.9-127.7,6-2.2,17.6-4.1,29.3-6.9,2.5-13.5,4.5-27.2,5.9-41-69.9,13.9-303.7,147.5-330.7,121.4-6.9-6.3,14.2-54,21.7-90.6,5-24.3,17.3-46.8-38.2-17.2-5.8,3.1-12.7,6.6-20.6,10.5-83.8,41-187.7,65.8-271.6,110.5,0,.2.1.5.2.7l.6,1.3c-.3-.3-.5-.8-.6-1.3l-.3-.6h.1c-5.3-21.9,51.6-160,7.5-159.1-3.8,0-41,38.1-69.6,50.5-68.6,29.5-171.6,56.2-245,77.2-6.6,1.8-15.7,2.7-25.4,3.7,3.5,10.5,7.3,20.8,11.5,31,7.4-2.8,16.1-5.8,26.3-8.9,88.6-26.7,179.2-45.8,262.1-86.7v-.3Z"/>
  <path class="st1" d="M358.1,686.4c0-.2-.1-.4-.2-.7h-.1l.3.6h0Z"/>
  <path class="st1" d="M907.8,699.2c-13.3-14.3-341.3,171.6-362.2,147.7l-1-1c-9.5-11.4,19.1-123.9-21-133.5-24.8-5.7-228.8,120.1-281.2,120.1s-12.4-131.5-52.4-133.5c-11.9-.7-73,47-119.9,56.3,6.5,10.9,13.4,21.6,20.7,32,29.3-18.3,62.1-42,79.2-29.2,39.1,28.6-21,124.9,20,127.7,41,2.9,287.9-139.2,315.5-120.1,20,31.5-26.7,121.1,20,121.1,84.8,1,291.7-140.1,321.2-134.4s17.2,62.9,6.7,83.9c-2.2,4.3-5.2,13.7-7.5,24.5,18.2-17.5,35.1-36.3,50.5-56.3,8-32.1,21.6-94.4,11.3-105.4h0Z"/>
</svg>