<?xml version="1.0" encoding="UTF-8"?>
<svg id="Layer_1" xmlns="http://www.w3.org/2000/svg" version="1.1" viewBox="0 0 1000 1000">
  <!-- Generator: Adobe Illustrator 29.0.0, SVG Export Plug-In . SVG Version: 2.1.0 Build 186)  -->
  <defs>
    <style>
      .st0 {
        fill: #010101;
      }
    </style>
  </defs>
  <path class="st0" d="M408.6,727.9c-1.8,9.2-35,30.4,8.3,33.1s388.6-216.4,407.9-194.3c14.7,70-35.9,151-38.7,213.6-.9,27.6-31.3,34.1,30.4,17.5,48.7-13.1,88.9-58.4,137.2-78.6,5.8-11.9,11.1-24,16-36.3-36.5,2.5-102.3,54-118.2,39.5-8.3-6.4,49.7-174,12-206.3h-.9c-33.1-27.6-311.2,151-369.2,167.6-40.5,12-3.7-112.3-24.9-128.9-131.7,66.3-273.1,114.9-411.3,169.8,6.8,13.4,14.1,26.5,22,39.2,117-47.4,227-115.3,350.7-144.6,11,33.1-14.7,77.3-21.2,108.7Z"/>
  <path class="st0" d="M687.6,696.6c-23.9-6.4-312.1,174-342.5,142.7-12.9-13.8,24.9-105.9-19.3-104-20.1.8-157.4,50.8-208.2,82.1,8.1,9.9,16.6,19.4,25.4,28.7,47.2-15.3,149.5-73.9,163.5-58.3,15.7,17.5-35.9,98.5,6.4,116.9l342.5-142.7c19.3,42.4-47.9,180.5-4.6,193.4,33.3,9.9,113.7-44.6,174.5-71.9,19.8-16.6,38.3-34.7,55.2-54.1l-185.6,61.6c-7.4-9.2,42.4-179.6-7.4-194.3Z"/>
</svg>