<?xml version="1.0" encoding="UTF-8"?>
<svg id="Layer_1" xmlns="http://www.w3.org/2000/svg" version="1.1" viewBox="0 0 1000 1000">
  <!-- Generator: Adobe Illustrator 29.0.0, SVG Export Plug-In . SVG Version: 2.1.0 Build 186)  -->
  <defs>
    <style>
      .st0 {
        fill: #010101;
      }
    </style>
  </defs>
  <path class="st0" d="M870.3,779.4c-100.2,10.1-343.3,142-358.4,126.8-15.2-15.2,63.4-208.6-16.5-191.2l-241.7,114,12.9-168.2-.9-.9c-21.7.7-155,33.8-210.9,67.7,6.3,12.3,13.1,24.3,20.4,36,46.1-13.2,114.7-49.7,139.1-52.2,20.2,65.3-52.4,134.2,6.4,179.2l265.6-114s-53.4,179.1-38.6,193.9,337.7-112.3,436.7-150.7c8.1-9.7,15.8-19.7,23.1-30-6.8-10.7-19.7-12.4-37.1-10.5Z"/>
  <path class="st0" d="M342.8,654.4c-13.8,29.4-35.7,60.8-20.2,76.3s116.8-29.2,148.9-47.5,175.5-117.9,196.6-98.6c5.5,4.6-38.8,115.7-47.8,138.8-9,23-29,62.2,2.8,55.1,31.8-7.1,313.4-90.1,345.6-106.6.4-.2.8-.4,1.2-.6,6-16.5,11.2-33.5,15.5-50.8-3.7.5-8,1.3-13,2.7-22.5,6.3-69.8,28-121.3,51-76.6,34.3-169,55.2-179.4,44.8-10.4-10.4,19.9-93.9,27.5-115.2,12.7-35.4,20.7-74.8-12.7-72.5-53.3,3.7-268.2,139.3-284.6,122.9s46.6-131.2,32.8-161.5v.9S11.7,608.1,11.7,608.1c2.5,11.5,5.5,22.9,8.8,34.1l362.7-96.3c8.3,8.3-26.7,79-40.4,108.4Z"/>
</svg>