<?xml version="1.0" encoding="UTF-8"?>
<svg id="Layer_1" xmlns="http://www.w3.org/2000/svg" version="1.1" viewBox="0 0 1000 1000">
  <!-- Generator: Adobe Illustrator 29.0.0, SVG Export Plug-In . SVG Version: 2.1.0 Build 186)  -->
  <defs>
    <style>
      .st0 {
        fill: #010101;
      }
    </style>
  </defs>
  <path class="st0" d="M310.8,744.5c-8.6,26.4,14.6,30.4,73.4,12.8,58.8-17.6,135.6-75.6,198.3-104,17.5-7.9,163.9-79.6,172.2-69.7,8.3,9.9-32.5,129.1-39.8,146.8-7.3,17.7-31.8,76.6-16.6,86,15.1,9.4,158.9-75.8,167.5-78.9,21.2-7.6,54.9-19.5,82.8-33.3,6.8-15.1,12.8-30.6,18-46.4l-211.5,100.2c10.7-76.1,61.7-135.1,64.5-213.4q.4-21-21.3-17.5l-383.7,162.3c20.4-59.6,90-99,81.3-167h0S16.7,656.6,16.7,656.6c4.2,12.9,9,25.6,14.2,38l402.3-113.4-122.5,163.3Z"/>
  <path class="st0" d="M872.6,802.7c-44.2,8-282.5,112.1-294.8,101.5-10.9-19.2,52-176.3,20.6-175.9l-385.7,135.8c8.3-30.2,72.2-174,52.8-191.6l-1.1-1.8c-18.8-16.9-137.3,53.3-206.7,77.9,7.6,13.2,15.8,26.1,24.5,38.6,48-27.1,117.3-69,133-58.5,6.5,4.3-34.7,89.2-50.1,150.2,14.7,12.7,30.1,24.5,46.2,35.5,95.1-38,300.3-120,322.5-128.8,29.1-11.6-4.3,85.9-9.9,102.4-18.5,54.5-54.2,106.9,34.6,80.7,28.8-27.3,191.5-75,279.2-107.4,19.2-18.5,37-38.5,53.1-59.8-4.4-.4-10.4,0-18.5,1.4Z"/>
</svg>