<?xml version="1.0" encoding="UTF-8"?>
<svg id="Layer_1" xmlns="http://www.w3.org/2000/svg" version="1.1" viewBox="0 0 1000 1000">
  <!-- Generator: Adobe Illustrator 29.0.0, SVG Export Plug-In . SVG Version: 2.1.0 Build 186)  -->
  <defs>
    <style>
      .st0 {
        fill: #010101;
      }
    </style>
  </defs>
  <path class="st0" d="M596.7,771.3c1.7-22,80.1-43.4-21.8-30-89.1,11.7-236.7,80.4-335.8,133.9-34.6,18.7-17.9-62.4-16.9-76.5,2.3-30.9,2.1-73.6-2-77.7l-.8,1c-5.6-5.3-101.6,28.2-141.9,61.9,6.4,9.3,13.1,18.3,20.2,27.2l75.5-34c7.8,8.4-9.3,51.2-21.1,92.2,21.5,19.6,44.6,37.3,69.3,53,25.3-11.4,49.2-23.5,56.8-28.5,17.2-11.5,42.5-24.7,72.8-32.8s173.2-73.4,184-64.3l-50.6,152.1c56.3,49.8,88-15.9,142.8-46.2,37.5-19.7,168.6-53,214.8-67,6-1.8,13.8-3.6,22.5-5.4,18-20.4,34.3-42.3,48.8-65.5l-344.2,131.1c-19-50.3,23-81.3,27.5-124.6Z"/>
  <path class="st0" d="M314.8,769.4c65,34.5,359.3-177.2,384-155.6,16.8,14.9-67.3,147-49.5,164.8s179.7-53.2,295.4-72c5.4-11.9,10.3-24,14.8-36.4l-238.1,57.5c15.5-21.4,49.8-172.1,4.6-167.3-45.2,4.8-311,176.6-339.1,158.1v-.9c-7.7-3.9,110.6-142.8,44.8-144.3-9.1-.1-103.2,50.9-167,72-55.7,18.4-172.4,37.9-232.6,58,5.1,11.5,10.6,22.7,16.5,33.7l343.1-109.1-77,141.6Z"/>
</svg>