<?xml version="1.0" encoding="UTF-8"?>
<svg id="Layer_1" xmlns="http://www.w3.org/2000/svg" version="1.1" viewBox="0 0 1000 1000">
  <!-- Generator: Adobe Illustrator 29.0.0, SVG Export Plug-In . SVG Version: 2.1.0 Build 186)  -->
  <defs>
    <style>
      .st0 {
        fill: none;
      }

      .st1 {
        fill: #010101;
      }
    </style>
  </defs>
  <path class="st0" d="M131.7,854.6c4.1,3.2,15,2.5,30.2-1-8.1-8.1-16-16.5-23.6-25.2-6.3,13.3-10.3,23.3-6.7,26.2Z"/>
  <path class="st1" d="M895.1,737.3c-25.6,15.4-12.6-6.4-12.6-6.4,6-25.3,28.1-114.8,14.8-126.2-13.3-11.4-268.5,157.1-327.3,120.1,8.7-23.8,99.7-128.5,56.6-134.9-39-5.7-220.4,58-293.7,96.2-25.8,13.5-13.3-20.3-10.2-25.8,0,0,16.3-39,16.5-64.6.1-15.3,9.2-25.3-54.3,12.6-44.1,26.3-158.1,63.7-229.4,88.4,4.8,11.1,9.9,22,15.4,32.7l176.1-72.9-38.7,70.5c8.4,38.3,139.9-24.5,196.3-40.5,56.4-16,115.7-27.8,172.1-43.9-59.5,98.7-148,167.8,36.9,118.5,36.5-9.1,104.4-35.8,133.7-47,17.2-6.7,87.8-51.3,103.3-42s-155.4,199.6,21.3,125.2c9.9-4.5,36.9-12.2,62.9-25.1,17.4-26.8,32.3-55.3,44.4-85.3-19.6.5-57.4,34.3-84.1,50.4Z"/>
  <path class="st1" d="M159.8,739.8c.5.6.9,1.2,1.3,1.9l.6-.2-1.9-1.6Z"/>
  <path class="st1" d="M161.1,741.7l-66.7,28.2c13.2,20.6,28,40.2,44,58.6,12.8-26.9,35.3-66.9,22.7-86.8Z"/>
  <path class="st1" d="M696.3,897.4c-15.1-11.2,70.8-123.6,20.9-126.7-12.1-.8-13.6,6.6-29.6,17l-107.8,40.1c-51.7,16.8-111.5,34.8-166.8,41.6-80.8,10,28.8-72.3-1.7-99.2-8.7-8.1-177.5,67.3-249.4,83.4,8.6,8.5,17.4,16.8,26.6,24.7,69.6-22.5,154.2-60.4,166.1-53,6.5,3.9-105.4,113,12,94.8,46.3-7.5,255.6-80.3,255.6-80.3l.4-.2c2.6-1,63.5-25.5,63.5-25.5,10.8,35.6-64.4,112.9-48.5,125.1,68.9-4.1,131-29.6,194.5-52.4,11.3-9.2,22.1-18.9,32.5-29.1-44.6-17.4-113.8,57.1-168.3,39.6Z"/>
</svg>