<?xml version="1.0" encoding="UTF-8"?>
<svg id="Layer_1" xmlns="http://www.w3.org/2000/svg" version="1.1" viewBox="0 0 1000 1000">
  <!-- Generator: Adobe Illustrator 29.0.0, SVG Export Plug-In . SVG Version: 2.1.0 Build 186)  -->
  <defs>
    <style>
      .st0 {
        fill: none;
      }

      .st1 {
        fill: #010101;
      }
    </style>
  </defs>
  <path class="st0" d="M991,603.8c-1.2,5.8-2.6,11.6-4,17.4,2.7-5.8,4.2-11.6,4-17.4Z"/>
  <path class="st1" d="M889,838.6c33-13.2,54.1-51.6,20.2-48.6-12.7,17.8-26.5,34.7-41.4,50.7,7.2-.9,14.3-1.6,21.2-2.1Z"/>
  <path class="st1" d="M380.9,648.4c1.8.9,15.6,30.3,11.9,36.8s-155.3,92.8-56,92.8,381.3-152.5,407-129.6c25.7,23-164.5,165.4-49.6,148.9,13.8-2.8,114.9-35.8,161.7-56,22.3-9.6,72.8-31.1,110.6-56.5,8.2-20.5,15-41.8,20.4-63.6-31.1,65.7-233.3,128-242.3,118.2l64.3-155.3h-2.8l-407,142.4c-15.6-31.2,33.1-21.1,43.2-86.4s34-45.9-46.9-21.1c-80.9,24.8-195.7,74.4-272.9,89.1-17,3-46.8,1.9-74.2,3.1,6.2,13.2,12.9,26.1,20.2,38.7,21.6-4.6,42.9-10.3,56.8-14.2,35.8-10.1,246.2-96.5,255.4-87.3Z"/>
  <path class="st1" d="M786.1,838.6c-29.4,7.4-238,49.6-248.1,42.3-6.4-4.6,110.3-115.8,33.1-115.8s-201.2,71.7-252.7,83.6c-19.3,4.6-110.3,25.7-116.7,19.3l38.6-115.8-.9-.9-145.1,38.5c7.6,10.6,15.6,20.9,23.9,30.9,23.6-13,46.1-28.7,56.8-18,11.4,11.4-7.3,30.5-26.4,51.1,18.8,18.8,39.1,36,60.6,51.6,108.8-29.7,286.5-91.8,327.8-89.9-6.4,45-92.8,64.3-115.8,91-23,26.6-59.7,46.9,54.2,35.8,107.6-10.4,269.4-86.4,392.3-101.8,14.9-16,28.7-32.9,41.4-50.7-3.9.3-8.4,1.2-13.8,2.7-34.9,10.1-72.6,36.8-109.3,45.9Z"/>
</svg>