<?xml version="1.0" encoding="UTF-8"?>
<svg id="Layer_1" xmlns="http://www.w3.org/2000/svg" version="1.1" viewBox="0 0 1000 1000">
  <!-- Generator: Adobe Illustrator 29.0.0, SVG Export Plug-In . SVG Version: 2.1.0 Build 186)  -->
  <defs>
    <style>
      .st0 {
        fill: none;
      }
    </style>
  </defs>
  <path class="st0" d="M381.2,698.7c-88.7,28-90-255.2-47.1-268.4,94.4-29,87.4,255.6,47.1,268.4ZM705.2,683.1s-61.7,54.5-78.2,15.4-16.6-33.5-16.6-39.1c0-54.6-11.3-216.4,0-252.8,6.8-22,46.9-27.8,69-24.7,8.9,2,25.8,37.1,25.8,40.5v260.7Z"/>
  <path d="M293.8,340.7c133.6,77.2,86.1-95,85.6-168.4-.4-51.1,15.4-102.4,2.3-158.2-33.9,8.2-66.5,19.9-97.3,34.7-21.4,79.1,29.6,215.9,9.4,291.9Z"/>
  <path d="M620.1,286.4c20.6,6.2,48.4-4.1,53.5-22V31c-33.1-12.2-67.8-21.1-103.7-26.1,31.1,83.5-14.2,262.2,50.2,281.6Z"/>
  <path d="M679.4,381.9c-22-3.1-62.2,2.7-69,24.7-11.3,36.4,0,198.2,0,252.8s0,0,16.6,39.1,78.2-15.4,78.2-15.4v-260.7c0-3.4-17-38.5-25.8-40.5Z"/>
  <path d="M334.1,430.4c-42.9,13.2-41.6,296.3,47.1,268.4,40.4-12.7,47.4-297.3-47.1-268.4Z"/>
  <path d="M389,809.4s-21.2-54.6-46.2.6c-15.6,34.5-32.4,106.2-16.8,158.8,29.9,11.1,61.2,19.4,93.4,24.7,3.6-55.3-32.2-155-30.4-184.1Z"/>
  <path d="M614.1,850.8l13.8,132.7c29.6-7.8,58-18.2,85.2-31-14.2-81.9,1.3-211.6-98.9-101.6Z"/>
</svg>