<?xml version="1.0" encoding="UTF-8"?>
<svg id="Layer_1" xmlns="http://www.w3.org/2000/svg" version="1.1" viewBox="0 0 1000 1000">
  <!-- Generator: Adobe Illustrator 29.0.0, SVG Export Plug-In . SVG Version: 2.1.0 Build 186)  -->
  <defs>
    <style>
      .st0 {
        fill: none;
      }
    </style>
  </defs>
  <path class="st0" d="M365.4,551.6c-18.4,18.5-65.2,19.9-91.1,19.4,46.6-84-36.4-237.3,35.5-311.7,89.6-92.8,62.8,70.6,64.9,96,4.9,57.1,43,143.6-9.4,196.3ZM653.7,586.9c5.2-67.1-97.4-332.8,7.7-332.1,126.6.8,65.5,383.8-7.7,332.1Z"/>
  <path d="M677.5,653.6c-112.7-9.1-28.4,249.1-49.5,329.9,45.9-12.1,89.2-30.6,129-54.4-1.1-34.2-23.5-79.6-36.6-132.4-8.1-32.8,8.1-138.8-42.8-143Z"/>
  <path d="M352.6,848.3c-.3-65,63-164.1-62.1-166.3-21.3,42.9-48.9,170.9-33.6,255.1,33.8,18.8,70,33.9,108.1,44.5,5.8-41.6-12.2-111.8-12.3-133.2Z"/>
  <path d="M661.4,254.7c-105.2-.7-2.5,265.1-7.7,332.1,73.2,51.6,134.3-331.3,7.7-332.1Z"/>
  <path d="M309.8,259.3c-71.9,74.4,11.1,227.7-35.5,311.7,25.9.5,72.7-.8,91.1-19.4,52.4-52.7,14.2-139.2,9.4-196.3-2.2-25.5,24.7-188.8-64.9-96Z"/>
  <path d="M716,175.5c13-40.3,11.4-90.7-6.1-129.5-33.3-15.4-68.5-27.2-105.2-35.1-3.8,82.3,8.1,177.1,111.4,164.6Z"/>
  <path d="M361.3,144.7c34.3-35.3,22.2-84.5,13-128.8-40.1,10.4-78.3,25.6-113.8,45.1,30,46.9,44.8,141.4,100.8,83.7Z"/>
</svg>