<?xml version="1.0" encoding="UTF-8"?>
<svg id="Layer_1" xmlns="http://www.w3.org/2000/svg" version="1.1" viewBox="0 0 1000 1000">
  <!-- Generator: Adobe Illustrator 29.0.0, SVG Export Plug-In . SVG Version: 2.1.0 Build 186)  -->
  <defs>
    <style>
      .st0 {
        fill: none;
      }
    </style>
  </defs>
  <path class="st0" d="M326.7,626.9c-26.7-.5-53.8-168.5-53.7-195.4.2-59.1,12.2-163.7,91.7-134.4,24.4,16.3,28.5,306.7-38,329.9ZM725.3,575.8c-41.8,2.6-11.4,60.6-50.6,51.1-28.2-6.9-63.3-44.8-68.9-74.6,10.9-40.8-6.9-244.5,37.1-256.8,98.7,1.7,47.5,103.4,54.4,166.2,4.2,38.5,42.3,87.3,28,114.1Z"/>
  <path d="M642.9,295.6c-44,12.3-26.2,215.9-37.1,256.8,5.6,29.8,40.7,67.8,68.9,74.6,39.2,9.5,8.8-48.5,50.6-51.1,14.3-26.8-23.8-75.6-28-114.1-6.9-62.8,44.3-164.5-54.4-166.2Z"/>
  <path d="M689,690.9c-92.3-24.1-75.9,204.5-59.4,292.1,32.7-8.7,64-20.7,93.7-35.5-13.6-68.4,5.4-246.2-34.3-256.6Z"/>
  <path d="M364.8,297.1c-79.5-29.3-91.5,75.3-91.7,134.4,0,26.9,26.9,194.9,53.7,195.4,66.5-23.2,62.4-313.5,38-329.9Z"/>
  <path d="M365.7,904c3.4-44.2,70.2-175.4,6.8-196.5l-54,6.3c-47.2,28.4-24.9,157.9-35.8,236.7,29,14,59.5,25.3,91.2,33.5-1.2-25.6-9.9-58.8-8.3-80Z"/>
  <path d="M658.8,197.1c55.9-31.4,34.7-98.4,45.9-153.4-31.6-14.2-65-25.2-99.6-32.6-1.2,72.9-27.8,163.9,53.8,186Z"/>
  <path d="M396.1,128.4l-10.9-115.1c-37.8,8.9-74,22.1-108,39,10.7,76.3,33.5,148,118.9,76.1Z"/>
</svg>