<?xml version="1.0" encoding="UTF-8"?>
<svg id="Layer_1" xmlns="http://www.w3.org/2000/svg" version="1.1" viewBox="0 0 1000 1000">
  <!-- Generator: Adobe Illustrator 29.0.0, SVG Export Plug-In . SVG Version: 2.1.0 Build 186)  -->
  <defs>
    <style>
      .st0 {
        fill: none;
      }
    </style>
  </defs>
  <path class="st0" d="M352.9,665.7c-8.3,57.2-40.8,83.4-78.4,29.2-12.3-17.8-21.8-239.5,24-258.1,99.4-31.8,61.9,176.7,54.4,228.9ZM729.6,678.9c-10.2,31.1-47.3,30.3-75.3,24.4-22.2-14.7-28.7-241.7-2.6-260.2l54.8-5.4c47.1,15.5,19.4,194.1,23.1,241.3Z"/>
  <path d="M329,325.1c2.8,0,38.6-35.8,39.5-38.9,12.3-43.4,0-207.9,0-268.6s0,0,0-.1c-36.6,9.9-71.5,24-104.2,41.5.6,43.2,9.5,197.7,12.7,208.2,6.9,23.1,35.7,40.6,52.1,57.9Z"/>
  <path d="M651.2,161.5c6.9,53.4-23.6,151.1,40.9,164.1,42.3-8.8,57.1-199.7,50.1-263.2-34.8-19.3-72.2-34.6-111.6-45.2-11.3,52,14,93.1,20.6,144.3Z"/>
  <path d="M706.5,437.6l-54.8,5.4c-26,18.5-19.6,245.5,2.6,260.2,28,5.9,65.1,6.8,75.3-24.4-3.7-47.2,24-225.8-23.1-241.3Z"/>
  <path d="M298.6,436.8c-45.9,18.6-36.4,240.3-24,258.1,37.6,54.2,70.1,28,78.4-29.2,7.6-52.2,45-260.6-54.4-228.9Z"/>
  <path d="M731.9,815.4l-80.8,9.3c-11.7,27.6-23.9,112-10.1,155.2,30.7-9,60.2-20.9,88.1-35.3,8.8-45.6,4.4-103.6,2.8-129.1Z"/>
  <path d="M257.3,810.3c.8,39.5-4.4,89,2.7,128.4,25.9,14.2,53.2,26.2,81.6,35.7-15.7-84,29.1-242.2-84.3-164.1Z"/>
</svg>