<?xml version="1.0" encoding="UTF-8"?>
<svg id="Layer_1" xmlns="http://www.w3.org/2000/svg" version="1.1" viewBox="0 0 1000 1000">
  <!-- Generator: Adobe Illustrator 29.0.0, SVG Export Plug-In . SVG Version: 2.1.0 Build 186)  -->
  <defs>
    <style>
      .st0 {
        fill: none;
      }
    </style>
  </defs>
  <path class="st0" d="M255.6,594.6l16.3-291c153.5-23.3,78.8,108.9,76.9,196.7-1.8,82.4,56,283.8-93.2,94.3ZM721,618.8c-115.8,22.6-87.7-257-100-329.5,153.5-105.1,141,321.5,100,329.5Z"/>
  <path d="M341.4,744.4c-78.3-7.6-85.7,127.7-58.4,206.2,47.8,23,99.7,38.7,154.4,45.5-19.5-71.1-17.3-244.1-96-251.7Z"/>
  <path d="M621,289.3c12.3,72.5-15.8,352.1,100,329.5,40.9-8,53.4-434.6-100-329.5Z"/>
  <path d="M271.8,303.6l-9.1,162.8s-7.2,128.2,16.8,157.3c115.3,140.4,67.6-45.8,69.3-123.4,1.9-87.8,76.6-220-76.9-196.7Z"/>
  <path d="M723.6,735c-9.9-10.4-63.4-47.5-73.3-37.2l-14.9,283.6c44.1-12.4,85.8-30.7,124.1-54,3.7-68.4,14.6-139.3-35.9-192.5Z"/>
  <path d="M270.4,61.6c25.3,49.5-11.8,110.4,40.4,146.3,76.4-26.9,73.1-118.7,71.1-193.9-40.4,9.8-78.9,24.5-114.8,43.4,1.3,1.1,2.4,2.5,3.3,4.2Z"/>
  <path d="M650.4,207.9c61.7,32.6,87.7-88.9,92.9-144.8-28.9-16.1-59.5-29.4-91.5-39.6-34.3,39-16.2,143.9-1.4,184.5Z"/>
</svg>