<?xml version="1.0" encoding="UTF-8"?>
<svg id="Layer_1" xmlns="http://www.w3.org/2000/svg" version="1.1" viewBox="0 0 1000 1000">
  <!-- Generator: Adobe Illustrator 29.0.0, SVG Export Plug-In . SVG Version: 2.1.0 Build 186)  -->
  <defs>
    <style>
      .st0 {
        fill: none;
      }
    </style>
  </defs>
  <path class="st0" d="M402.6,568.6c-3.9,23.1-12.8,41.5-39.4,40.2-86.1-.2-90.9-357.2,39.4-316.7,2.8,90,15.2,186.7,0,276.5ZM684.6,550.4c-7.6,23.3-36.3,27.7-53.1,41.2-57.1-3.4-53-283.3-39.1-331.1,59.6-11.9,103.5,31.3,110.2,88.4,1.8,14.9-14.7,191.3-18,201.4Z"/>
  <path d="M592.4,260.6c-13.9,47.8-17.9,327.7,39.1,331.1,16.8-13.6,45.5-17.9,53.1-41.2,3.3-10.2,19.8-186.5,18-201.4-6.8-57.1-50.6-100.3-110.2-88.4Z"/>
  <path d="M363.2,608.9c26.6,1.3,35.5-17.1,39.4-40.2,15.2-89.8,2.8-186.5,0-276.5-130.3-40.4-125.5,316.6-39.4,316.7Z"/>
  <path d="M688,46.4c-.5-3.8-1.1-7.3-1.9-10.7-47.9-19.2-99.4-31.2-153.3-34.7l28.8,195.4c105.1,15.6,138.7-53.9,126.4-150Z"/>
  <path d="M661.5,735.5c-72.2-11.8-62.3,171.5-55.8,253.3,32.5-7,63.8-17.1,93.6-30.1,24.3-83,1.2-216.8-37.8-223.2Z"/>
  <path d="M323,792.5l-14.5,169.5c32.4,13.4,66.4,23.6,101.8,30,12-79.2,7.4-295-87.3-199.5Z"/>
  <path d="M396.4,10.8c-36.4,7.7-71.3,19.3-104.3,34.4l15.8,152.1c115.3,11.5,122.4-103.4,88.6-186.5Z"/>
</svg>