<?xml version="1.0" encoding="UTF-8"?>
<svg id="Layer_1" xmlns="http://www.w3.org/2000/svg" version="1.1" viewBox="0 0 1000 1000">
  <!-- Generator: Adobe Illustrator 29.0.0, SVG Export Plug-In . SVG Version: 2.1.0 Build 186)  -->
  <defs>
    <style>
      .st0 {
        fill: none;
      }
    </style>
  </defs>
  <path class="st0" d="M669.9,727.2c-57.1,1.3-73.3,150.5-72,220.7,1.3-80.4,19-219.5,72-220.7Z"/>
  <path class="st0" d="M704.7,927.9c2.9-23.4-14.9-196.5-34.7-200.7,17,3.6,32.4,144.8,34.7,200.7Z"/>
  <path class="st0" d="M324,636.6c-39.4-8.3-19.7-177.8-20.7-216.2,9.5-29,44.7-30,71.2-22.6,36.8,22.7,36.1,237.2-50.5,238.8ZM670.6,622c-20.5,31-68.2,7.1-68.2-7.9,0-49-10.2-193.6,0-226,4.2-13.4,40.9-25.5,52.8-37.3,50.1,3.5,35.6,240.7,15.4,271.2Z"/>
  <path d="M405.1,973.4c6.8-20.6-16.2-225.4-37.4-230.8-66.1-16.9-84.7,136.4-65.6,216.6,29.4,12.7,60.2,22.6,92.2,29.5,4.8-3.8,8.6-8.9,10.7-15.4Z"/>
  <path d="M655.2,350.8c-11.9,11.8-48.6,23.9-52.8,37.3-10.2,32.4,0,176.9,0,226s47.7,38.9,68.2,7.9c20.2-30.5,34.7-267.7-15.4-271.2Z"/>
  <path d="M317.5,243.6c90.1,60.3,113.7-162.4,61.8-228.9-22.2,5.5-43.7,12.5-64.6,20.8-32.6,62.8-13.3,197.4,2.7,208.2Z"/>
  <path d="M639.8,245c50.2-11.4,63.1-164,9-222.5-24.8-7.7-50.4-13.5-76.6-17.3-2.4,36.7-1.8,255.5,67.6,239.8Z"/>
  <path d="M704.7,927.9c-2.3-55.9-17.8-197.1-34.7-200.7-52.9,1.2-70.7,140.4-72,220.7-.3,17.6.2,32.3,1.4,42.2,35.4-7.1,69.4-18,101.6-32.1,1.8-3,3-6,3.6-9.2.6-3,.6-10.5.1-20.9Z"/>
  <path d="M374.4,397.8c-26.5-7.4-61.7-6.4-71.2,22.6,1,38.4-18.7,208,20.7,216.2,86.6-1.6,87.3-216.1,50.5-238.8Z"/>
</svg>