<?xml version="1.0" encoding="UTF-8"?>
<svg id="Layer_1" xmlns="http://www.w3.org/2000/svg" version="1.1" viewBox="0 0 1000 1000">
  <!-- Generator: Adobe Illustrator 29.0.0, SVG Export Plug-In . SVG Version: 2.1.0 Build 186)  -->
  <defs>
    <style>
      .st0 {
        fill: none;
      }
    </style>
  </defs>
  <path class="st0" d="M372.7,681c-72.5,155.4-101.4-204.2-93.5-249.8,5.8-33.6,64.2-21.7,82.5-3.4,26.6,26.7,27,219,11.1,253.2ZM696,656.4l-64.4,25.7c-45.2-9.8-60.6-415.1,47.6-284.3,21.5,26,27.9,224.8,16.8,258.5Z"/>
  <path d="M683.1,287.9c-9.1-92.2,38.4-201.7-4.9-255.2-36.4-13.9-74.9-23.7-114.8-28.7,37.2,99,35.5,181.7,45.7,282.1l74,1.8Z"/>
  <path d="M631.6,682.1l64.4-25.7c11.1-33.7,4.7-232.5-16.8-258.5-108.2-130.9-92.8,274.4-47.6,284.3Z"/>
  <path d="M279.2,431.1c-7.8,45.6,21,405.2,93.5,249.8,16-34.2,15.5-226.5-11.1-253.2-18.2-18.3-76.7-30.2-82.5,3.4Z"/>
  <path d="M290.4,128.3c-3.8,43.4-25.5,87.3-16.5,134.4l69.2,25.8c29.5,4.9,18.4-6.7,24.2-21.5,24-61.7,8.6-180.4-1.6-248.7-28.9,8-56.7,18.6-83.2,31.4-3.1,19.3,10.7,46,7.9,78.6Z"/>
  <path d="M663,758.5c-61.7,15.9-30.7,86.6-30.8,124.4,0,18.4-17.8,73.5-5.4,100.9,29.5-7.7,58-18,85.1-30.8,32.6-74.9,16.8-211.4-48.8-194.5Z"/>
  <path d="M391.9,791c-91.2-88.3-102.6,90.1-82.6,171.3,30.9,12.8,63.4,22.5,97,28.9-27.1-56.2,15.6-171.1-14.4-200.2Z"/>
</svg>