<?xml version="1.0" encoding="UTF-8"?>
<svg id="Layer_1" xmlns="http://www.w3.org/2000/svg" version="1.1" viewBox="0 0 1000 1000">
  <!-- Generator: Adobe Illustrator 29.0.0, SVG Export Plug-In . SVG Version: 2.1.0 Build 186)  -->
  <defs>
    <style>
      .st0 {
        fill: none;
      }

      .st1 {
        fill: #010101;
      }
    </style>
  </defs>
  <path class="st0" d="M186.4,721.6l21.6,54.1c-15.5,17-78.1-59.5-21.6-54.1ZM719.7,733.2c16.2-13.1,27,51.8,10.8,64.9-17,13.1-27-51.8-10.8-64.9ZM643.9,754.9c17-17.8,46.4,38.6,32.5,54.1-19.3,22.4-40.2-46.4-32.5-54.1ZM610.7,569.4c22.4,22.4-25.5,47.9-43.3,32.5s29.4-47.1,43.3-32.5ZM632.3,656.7l-16.2,32.5-37.9-27,54.1-5.4ZM518.7,526.1c23.2,0,8.5,61.8,5.4,64.9-29.4,27.8-28.6-64.9-5.4-64.9ZM404.4,536.9c22.4-10.8,51.8,46.4,43.3,54.1-22.4,10.8-51.8-46.4-43.3-54.1ZM361.1,618.9l16.2-16.2,37.9,42.5-54.1-10.8v-15.5ZM306.2,700c7,7-16.2,62.6-32.5,43.3-16.2-19.3,19.3-57.2,32.5-43.3ZM241.3,667.5c2.3,1.5,13.1,52.5,10.8,54.1-42.5,36.3-44-84.2-10.8-54.1ZM241.3,798.1c4.6-7,59.5-4.6,64.1.8,41,47.9-73.4,109-64.1-.8ZM371.9,754.1c23.2,20.1-51,35.5-54.1,32.5-17.8-17.8,39.4-45.6,54.1-32.5ZM327.9,938.8c-3.1-7-22.4-95.1,10.8-64.9,7,7,20.9,61-10.8,64.9ZM393.5,884.7c-54.9-24.7-57.2-87.3,0-37.9,17.8,15.5-3.9,18.5,0,37.9ZM404.4,721.6c-17.8-17.8,15.5-27.8,37.9-20.9,44,13.1-15.5,43.3-37.9,20.9ZM480.9,759.5c-4.6-40.2,17-55.6,32.5-37.9,20.9,23.2-27.8,78-32.5,37.9ZM533.4,687.6h0c-10.8,7-71.1-5.4-74.2-10-26.3-38.6,54.1-82.7,81.9-43.3s-1.5,49.5-7.7,53.3ZM556.6,700c11.6-10.8,54.9,32.5,43.3,43.3-12.4,11.6-54.9-32.5-43.3-43.3ZM632.3,873.9c-11.6-.8-27,3.1-37.9,0-37.9-11.6,11.6-61.8,37.9,0ZM605.3,960.4c-41.7-3.1-4.6-37.1,24-41,64.9-8.5,17.8,44-24,41ZM700.3,915.6c-81.1-10.8-38.6-51-5.4-61,71.9-20.9,86.5,71.9,5.4,61ZM779.2,829.8c-27,1.5-5.4-85.8,27-75.7,2.3,16.2-13.9,75-27,75.7Z"/>
  <path class="st1" d="M694.9,854.5c-33.2,10-75.7,50.2,5.4,61s66.5-81.9-5.4-61Z"/>
  <path class="st1" d="M459.2,677.6c3.1,4.6,63.4,17,74.2,10h0c6.2-3.9,35.5-13.9,7.7-53.3s-108.2,4.6-81.9,43.3Z"/>
  <path class="st1" d="M241.3,798.1c-9.3,109.7,105.1,48.7,64.1.8-4.6-5.4-59.5-7.7-64.1-.8Z"/>
  <path class="st1" d="M284.6,900.9c-1.5-31.7-54.9,14.7-64.9,5.4.5,3.2,1.1,6.2,1.8,9,13.8,9.3,28.1,17.9,42.9,25.8,11.9-6.1,21.2-20.6,20.2-40.2Z"/>
  <path class="st1" d="M208.9,830.6h0c-12.2-13.3-61.2-8.7-76.8,7.9,7.1,7.7,14.4,15.2,21.9,22.4,14.2-2.6,31.7-6.5,38.7-8.6,12.4-3.9,34-2.3,16.2-21.6Z"/>
  <path class="st1" d="M629.2,919.5c-28.6,3.9-65.7,37.9-24,41,41.7,3.1,88.9-49.5,24-41Z"/>
  <path class="st1" d="M806.2,754.1c-32.5-10-54.1,77.3-27,75.7,13.1-.8,29.4-59.5,27-75.7Z"/>
  <path class="st1" d="M872.6,833.4c-.2-.9-.4-1.9-.7-2.8l-75.7,27c6.3,12.7,28.7,12.4,47.6,5.4,10-9.5,19.6-19.4,28.8-29.6Z"/>
  <path class="st1" d="M393.5,846.8c-57.2-49.5-54.9,13.1,0,37.9-3.9-19.3,17.8-22.4,0-37.9Z"/>
  <path class="st1" d="M524.1,591c3.1-3.1,17.8-64.9-5.4-64.9s-24,92.7,5.4,64.9Z"/>
  <path class="st1" d="M730.5,798.1c16.2-13.1,5.4-78-10.8-64.9s-6.2,78,10.8,64.9Z"/>
  <path class="st1" d="M447.6,591c8.5-7.7-20.9-64.9-43.3-54.1-8.5,7.7,20.9,64.9,43.3,54.1Z"/>
  <path class="st1" d="M327.9,938.8c31.7-3.9,17.8-58,10.8-64.9-33.2-30.1-13.9,58-10.8,64.9Z"/>
  <path class="st1" d="M676.4,809c13.9-15.5-15.5-71.9-32.5-54.1-7.7,7.7,13.1,76.5,32.5,54.1Z"/>
  <path class="st1" d="M208.1,775.7l-21.6-54.1c-56.4-5.4,6.2,71.1,21.6,54.1Z"/>
  <path class="st1" d="M241.3,667.5c-33.2-30.1-31.7,90.4,10.8,54.1,2.3-1.5-8.5-52.5-10.8-54.1Z"/>
  <path class="st1" d="M567.4,601.9c17.8,15.5,65.7-10,43.3-32.5-13.9-14.7-61,17-43.3,32.5Z"/>
  <polygon class="st1" points="377.3 602.6 361.1 618.9 361.1 634.3 415.2 645.1 377.3 602.6"/>
  <path class="st1" d="M371.9,754.1c-14.7-13.1-71.9,14.7-54.1,32.5,3.1,3.1,77.3-12.4,54.1-32.5Z"/>
  <path class="st1" d="M632.3,873.9c-26.3-61.8-75.7-11.6-37.9,0,10.8,3.1,26.3-.8,37.9,0Z"/>
  <path class="st1" d="M480.9,759.5c4.6,40.2,53.3-14.7,32.5-37.9-15.5-17.8-37.1-2.3-32.5,37.9Z"/>
  <path class="st1" d="M599.9,743.3c11.6-10.8-31.7-54.1-43.3-43.3-11.6,10.8,30.9,54.9,43.3,43.3Z"/>
  <path class="st1" d="M442.2,700.8c-22.4-7-55.6,3.1-37.9,20.9,22.4,22.4,81.9-7.7,37.9-20.9Z"/>
  <polygon class="st1" points="616.1 689.2 632.3 656.7 578.2 662.1 616.1 689.2"/>
  <path class="st1" d="M306.2,700c-13.1-13.9-48.7,24-32.5,43.3,16.2,19.3,39.4-36.3,32.5-43.3Z"/>
</svg>