<?xml version="1.0" encoding="UTF-8"?>
<svg id="Layer_1" xmlns="http://www.w3.org/2000/svg" version="1.1" viewBox="0 0 1000 1000">
  <!-- Generator: Adobe Illustrator 29.0.0, SVG Export Plug-In . SVG Version: 2.1.0 Build 186)  -->
  <defs>
    <style>
      .st0 {
        fill: none;
      }

      .st1 {
        fill: #010101;
      }
    </style>
  </defs>
  <path class="st0" d="M128.2,739.1c-51-18.7-38.2-75.6,11.9-29.7,19.5,17.8,23.8,43.3-11.9,29.7ZM634.6,562.4h-.9c1.7,1.7,4.2,26.3,12.7,35.7h-71.4c-15.3-28.9,56.9-38.2,59.5-35.7ZM424.8,491l17.8,59.5c-20.4,19.5-51.8-42.5-17.8-59.5ZM347.4,599c22.1-22.9,81.6,28,83.3,47.6-21.2,11.9-105.4-24.6-83.3-47.6ZM322.8,694.1c21.2,18.7-39.9,43.3-47.6,35.7-15.3-14.4,30.6-51,47.6-35.7ZM227.7,646.5c2.5,2.5,2.5,68.8,0,71.4-34,38.2-34-109.6,0-71.4ZM176.7,810.5c-34.8-75.6,46.7-77.3,84.1-41.6,45.9,45-49.3,117.2-84.1,41.6ZM310.9,944.7c-20.4,20.4-49.3-63.7-47.6-71.4,33.1-9.3,52.7,66.3,47.6,71.4ZM371.2,873.4c-17.8,5.9-70.5-17-71.4-29.7-2.5-34.8,73.9,8.5,71.4,29.7ZM299.9,765.5c38.2-34,68.8-2.5,71.4,0,38.2,34-109.6,34-71.4,0ZM406.9,741.7c-20.4-27.2,46.7-71.4,59.5-59.5,15.3,15.3-56.9,62.9-59.5,59.5ZM520.8,753.6c-29.7,0-5.9-98.6,17.8-71.4,6.8,7.6-.9,71.4-17.8,71.4ZM457,626.1c-10.2-54.4,69.7-41.6,79.9-26.3,34,54.4-69.7,80.7-79.9,26.3ZM514.8,562.4c-21.2-24.6,17-79,35.7-59.5,8.5,8.5-14.4,84.1-35.7,59.5ZM621.9,670.3c-17.8,15.3-62.9-22.1-47.6-35.7,15.3-13.6,62.9,22.1,47.6,35.7ZM646.5,897.2c-9.5-18,65.1-46.8,83.3-35.7,18.2,11.1-73.8,53.7-83.3,35.7ZM729.8,837.7c-3.4,2.5-86.7-3.4-71.4-35.7,19.5-12.7,96,14.4,71.4,35.7ZM753.6,789.3c-14.4,15.3-60.3-35.7-47.6-59.5,17,5.9,58.6,47.6,47.6,59.5ZM801.1,706.9c28-33.1,34.8,60.3,23.8,71.4h0c-37.4,13.6-26.3-68.8-23.8-71.4ZM756.1,855.5c0-57.8,80.7-57.8,92.6-40.8,30.6,43.3-92.6,132.5-92.6,40.8ZM861.5,802c-6.8-6.8,60.3-94.3,65.4-95.2,56.9-5.9-46.7,114.7-65.4,95.2Z"/>
  <path class="st1" d="M260.8,768.9c-37.4-35.7-118.9-34-84.1,41.6,34.8,75.6,130,3.4,84.1-41.6Z"/>
  <path class="st1" d="M756.1,855.5c0,91.8,123.2,2.5,92.6-40.8-11.9-17-92.6-17-92.6,40.8Z"/>
  <path class="st1" d="M457,626.1c10.2,54.4,113.8,28,79.9-26.3-10.2-15.3-90.1-28-79.9,26.3Z"/>
  <path class="st1" d="M926.9,706.9c-5.1.8-72.2,88.4-65.4,95.2,18.7,19.5,122.3-101.1,65.4-95.2Z"/>
  <path class="st1" d="M156.3,790.1c-9.9-1.5-44.1-10.4-71.3-11.1,7.7,11.5,15.9,22.6,24.6,33.4,23.5-.1,45.2-5.9,46.7-22.3Z"/>
  <path class="st1" d="M729.8,861.5c-18.2-11.1-92.7,17.6-83.3,35.7,9.5,18,101.4-24.6,83.3-35.7Z"/>
  <path class="st1" d="M748.5,897.2s-89.9,35.8-78.2,47.6,51.6-.8,72.2-7.4c4.2-2.3,8.3-4.7,12.5-7.2,1.2-8.3,2.9-33-6.5-33Z"/>
  <path class="st1" d="M227.7,861.5c-13.2-14.8-28.8,7.9-35.5,32.5,8.3,6.5,16.9,12.8,25.7,18.8,11.5-18,17.2-42.9,9.9-51.3Z"/>
  <path class="st1" d="M658.4,802c-15.3,32.3,68,38.2,71.4,35.7,24.6-21.2-51.8-48.4-71.4-35.7Z"/>
  <path class="st1" d="M430.7,646.5c-1.7-19.5-61.2-70.5-83.3-47.6-22.1,22.9,62,59.5,83.3,47.6Z"/>
  <path class="st1" d="M824.9,778.2h0c11-11,4.2-104.5-23.8-71.4-2.5,2.5-13.6,85,23.8,71.4Z"/>
  <path class="st1" d="M646.5,598.1c-8.5-9.3-11-34-12.7-35.7h.9c-2.5-2.5-74.8,6.8-59.5,35.7h71.4Z"/>
  <path class="st1" d="M406.9,741.7c2.5,3.4,74.8-44.2,59.5-59.5-12.7-11.9-79.9,32.3-59.5,59.5Z"/>
  <path class="st1" d="M520.8,753.6c17,0,24.6-63.7,17.8-71.4-23.8-27.2-47.6,71.4-17.8,71.4Z"/>
  <path class="st1" d="M263.3,873.4c-1.7,7.6,27.2,91.8,47.6,71.4,5.1-5.1-14.4-80.7-47.6-71.4Z"/>
  <path class="st1" d="M140.1,709.4c-50.1-45.9-62.9,11-11.9,29.7,35.7,13.6,31.4-11.9,11.9-29.7Z"/>
  <path class="st1" d="M514.8,562.4c21.2,24.6,44.2-51,35.7-59.5-18.7-19.5-56.9,34.8-35.7,59.5Z"/>
  <path class="st1" d="M299.9,843.6c.8,12.7,53.5,35.7,71.4,29.7,2.5-21.2-73.9-64.6-71.4-29.7Z"/>
  <path class="st1" d="M371.2,765.5c-2.5-2.5-33.1-34-71.4,0-38.2,34,109.6,34,71.4,0Z"/>
  <path class="st1" d="M227.7,717.9c2.5-2.5,2.5-68.8,0-71.4-34-38.2-34,109.6,0,71.4Z"/>
  <path class="st1" d="M706,729.8c-12.7,23.8,33.1,74.8,47.6,59.5,11-11.9-30.6-53.5-47.6-59.5Z"/>
  <path class="st1" d="M574.3,634.6c-15.3,13.6,29.7,51,47.6,35.7,15.3-13.6-32.3-49.3-47.6-35.7Z"/>
  <path class="st1" d="M322.8,694.1c-17-15.3-62.9,21.2-47.6,35.7,7.6,7.6,68.8-17,47.6-35.7Z"/>
  <path class="st1" d="M442.6,550.5l-17.8-59.5c-34,17-2.5,79,17.8,59.5Z"/>
</svg>