<?xml version="1.0" encoding="UTF-8"?>
<svg id="Layer_1" xmlns="http://www.w3.org/2000/svg" version="1.1" viewBox="0 0 1000 1000">
  <!-- Generator: Adobe Illustrator 29.0.0, SVG Export Plug-In . SVG Version: 2.1.0 Build 186)  -->
  <defs>
    <style>
      .st0 {
        fill: none;
      }

      .st1 {
        fill: #010101;
      }
    </style>
  </defs>
  <path class="st1" d="M904.2,794.4c-5.5,7.6-11.3,15-17.3,22.3,6.8-6.8,12.8-14.6,17.3-22.3Z"/>
  <path class="st1" d="M51.1,722.9c.9,1.4,2.3,3.4,4.1,5.8-1.1-2.1-2.2-4.3-3.3-6.4-.3.2-.6.4-.8.7Z"/>
  <path class="st0" d="M692,617.6c-15.8,14.1-87.9-5-58-34.8s78.8,17.4,58,34.8ZM476.4,489.9l17.4,58c-16.6,16.6-58.9-36.5-17.4-58ZM365.4,688c10.8,33.2-59.7,38.1-69.6,17.4l69.6-17.4ZM271.7,630c2.5,1.7-9.9,56.4-11.6,58-34.8,32.3-34-97.8,11.6-58ZM178.8,699.6h-17.4c-49.7-19.9,19.9-112.8,17.4,0ZM245.1,892c-34.8,68.8-68-91.2-8.3-52.2,2.5,1.7,9.9,48.9,8.3,52.2ZM179.6,774.3c-23.2-71.3,75.4-61.4,91.2-38.1,36.5,53.1-76.3,83.7-91.2,38.1ZM315.6,825.7c10.8,5,24.9,13.3,26.5,25.7-73,18.2-101.1-60.5-26.5-25.7ZM359.5,804.1c-19.4-9.8-60.8-26.5-52.2-46.4s43.7-1.6,69.6,12.4,2,43.8-17.4,34ZM411.8,617.6c21.6-.8,51.4-3.3,58,23.2-21.6.8-51.4,3.3-58-23.2ZM447.4,705.4c0-53.1,26.5-29,29-29,73.8-16.6-29,82.1-29,29ZM540.3,757.7h0c-6.6-6.6,0-69.6,17.4-69.6,36.5,0,8.3,97.8-17.4,69.6ZM510.4,640.8c-34.8-69.6,60.5-67.2,74.6-44.8,31.5,50.6-45.6,102-74.6,44.8ZM607.4,568.6c-50.6,34-31.5-55.5,8.3-55.5,29,9.9-4.1,52.2-8.3,55.5ZM655.5,665.7c2.5,4.1,5.8,33.2-5,34-87.1-43.9-12.4-61.4,5-34ZM628.8,832.5c-22.8-50.3,79.6-25.1,71.7,3.7s-70-.6-71.7-3.7ZM718.6,894.3c-7,5.9-74,27.4-76.5,4.3l56.8-26.8c14.4,1.6,26,17.1,19.6,22.4ZM679.1,750c21.9-6.3,85.5,40.8,56.4,53.6h0c-3.9,1.4-79.9-27.9-56.4-53.6ZM786.1,873.6c-82.2,36.5-59.5-80.6,1.3-61.1,38.1,11.6,35.8,44.7-1.3,61.1ZM801.2,787.2c-37.9,16.2-11.6-64.2,11.4-57.2s-1.3,52.5-11.4,57.2Z"/>
  <path class="st1" d="M270.8,736.1c-15.8-23.2-114.4-33.2-91.2,38.1,14.9,45.6,127.7,14.9,91.2-38.1Z"/>
  <path class="st1" d="M510.4,640.8c29,57.2,106.1,5.8,74.6-44.8-14.1-22.4-109.4-24.9-74.6,44.8Z"/>
  <path class="st1" d="M787.5,812.5c-60.8-19.4-83.5,97.6-1.3,61.1,37.1-16.4,39.4-49.5,1.3-61.1Z"/>
  <path class="st1" d="M902.2,757.4c-5-.7-94.8,66.4-60.4,78.7,13.5,4.8,31-5.1,45.1-19.3,6-7.3,11.7-14.7,17.3-22.3,10-17.2,12.3-33.7-2-37Z"/>
  <path class="st1" d="M699,871.8l-56.8,26.8c2.4,23,69.4,1.6,76.5-4.3,6.3-5.4-5.3-20.8-19.6-22.4Z"/>
  <path class="st1" d="M90.9,766c6.6.8,77.1-9.9,53.1-31.5-3.3-3.3-76.7-23.3-92-12.3,1.1,2.2,2.2,4.3,3.3,6.4,9.7,12.9,30.1,36.7,35.7,37.4Z"/>
  <path class="st1" d="M178.8,804.9c-33.7.7-55.2,4.3-67.8,9.2,10,12.3,20.5,24.2,31.6,35.5,12.3-.2,24.8-3.6,34.5-11.6,1.7-.8-9.1-22.4,1.7-33.2Z"/>
  <path class="st1" d="M236.8,839.8c-59.7-39-26.5,121,8.3,52.2,1.7-3.3-5.8-50.6-8.3-52.2Z"/>
  <path class="st1" d="M557.7,688c-17.4,0-24,63-17.4,69.6h0c25.7,28.2,53.9-69.6,17.4-69.6Z"/>
  <path class="st1" d="M615.7,513.1c-39.8,0-58.9,89.5-8.3,55.5,4.1-3.3,37.3-45.6,8.3-55.5Z"/>
  <path class="st1" d="M758.2,908.4c-19.1-1.4-26.5,17.1-25.3,34.1,14.5-7.6,28.6-16,42.2-25-2.8-5-8.1-8.5-16.9-9.2Z"/>
  <path class="st1" d="M700.5,836.2c7.9-28.8-94.5-54-71.7-3.7,1.7,3.1,63.8,32.5,71.7,3.7Z"/>
  <path class="st1" d="M377,770.1c-26-14.1-61-32.3-69.6-12.4s32.8,36.6,52.2,46.4c19.4,9.8,43.4-19.9,17.4-34Z"/>
  <path class="st1" d="M692,617.6c20.7-17.4-28.2-64.7-58-34.8s42.3,48.9,58,34.8Z"/>
  <path class="st1" d="M735.6,803.6h0c29-12.8-34.6-60-56.4-53.6-23.5,25.8,52.5,55,56.4,53.6Z"/>
  <path class="st1" d="M315.6,825.7c-74.6-34.8-46.4,43.9,26.5,25.7-1.7-12.4-15.8-20.7-26.5-25.7Z"/>
  <path class="st1" d="M365.4,688l-69.6,17.4c9.9,20.7,80.4,15.8,69.6-17.4Z"/>
  <path class="st1" d="M161.4,699.6h17.4c2.5-112.8-67.2-19.9-17.4,0Z"/>
  <path class="st1" d="M260.1,688c1.7-1.7,14.1-56.4,11.6-58-45.6-39.8-46.4,90.4-11.6,58Z"/>
  <path class="st1" d="M493.9,547.9l-17.4-58c-41.5,21.6.8,74.6,17.4,58Z"/>
  <path class="st1" d="M476.4,676.4c-2.5,0-29-24-29,29s102.8-45.6,29-29Z"/>
  <path class="st1" d="M812.6,730c-23-7-49.3,73.4-11.4,57.2,10.1-4.7,34.4-50.2,11.4-57.2Z"/>
  <path class="st1" d="M655.5,665.7c-17.4-27.4-92-9.9-5,34,10.8-.8,7.5-29.8,5-34Z"/>
  <path class="st1" d="M469.8,640.8c-6.6-26.5-36.5-24-58-23.2,6.6,26.5,36.5,24,58,23.2Z"/>
</svg>