<?xml version="1.0" encoding="UTF-8"?>
<svg id="Layer_1" xmlns="http://www.w3.org/2000/svg" version="1.1" viewBox="0 0 1000 1000">
  <!-- Generator: Adobe Illustrator 29.0.0, SVG Export Plug-In . SVG Version: 2.1.0 Build 186)  -->
  <defs>
    <style>
      .st0 {
        fill: none;
      }

      .st1 {
        fill: #010101;
      }
    </style>
  </defs>
  <path class="st0" d="M780.5,681.4c23.2-.9,8.6,80.9,6,84.3-30.1,38.7-29.2-83.4-6-84.3ZM641.2,620.3c-29.5,14.6-72.2,0-72.2,0-8.6-43.9,49-24.1,72.2-36.1,0,0,29.5,21.6,0,36.1ZM471.8,462.9c11.2,12,4.3,105.8-24.1,72.2-28.4-33.5-14.6-86,24.1-72.2ZM399.5,572.1c-9.5,8.6-46.4-19.8-48.2-30.1-13.8-62.8,71.4,8.6,48.2,30.1ZM260.2,753.6c37.8,0,24.9,65.4,18.1,72.2-26.7,29.2-55.9-72.2-18.1-72.2ZM165.9,789.7c37.8,13.8,37,36.1,42.1,48.2-61.9,21.5-80-61.9-42.1-48.2ZM245.5,918.8h0c-1.7,0-27.5-24.9-27.5-26.7,1.7-11.2,0-32.5,5.1-39.4s17.2-32,68,2.4c50.7,34.4,12,86-45.6,63.6ZM315.2,638.4c18.9-43.9,89.5,14.6,72.2,30.1-2.6,2.6-79.1,1.7-72.2-30.1ZM315.2,837.9c2.6-20.6,47.3-48.2,60.2-36.1,22.4,20.6-38.7,40.4-60.2,36.1ZM411.5,911c-3.4,2.6-86.9-6.9-72.2-36.1,19.8-12.9,97.2,13.8,72.2,36.1ZM471.8,698.6c-20.6,57.6-116.1,11.2,0-18.1,0,6,1.7,12.9,0,18.1ZM435.6,644.4c-11.2-11.2,9.5-86,48.2-67.1,69.7,34.4-20.6,94.6-48.2,67.1ZM508.7,547.2c-24.9-18.9,45.6-81.7,72.2-60.2,4.3,3.4-47.3,79.1-72.2,60.2ZM568.9,717.5c-21.1,23.7-48.2-54.2-48.2-54.2,0-11.2,33.5-6.9,35.3-5.2v-.9c2.6,1.7,34,36.5,12.9,60.2ZM623.1,923.1c-32.7-6-.9-44.7,25.8-47.3,52.5-4.3,6.9,53.3-25.8,47.3ZM605.1,825.9c-29.2-26.7,72.2-55.9,72.2-18.1s-65.4,24.9-72.2,18.1ZM666.1,717.5c18.1-19.8,73.1,59.3,60.2,72.2-14.6,15.5-78.3-52.5-60.2-72.2ZM778,883.5c-79.1,24.1-88.6-67.9-18.9-80,72.2-12.9,63.6,67.1,18.9,80ZM844.9,803.5c-16.6-1.7-33.8-11-33.4-19.7,1.7-37,111.8-86.9,96.3-6h0s-43.6,27.8-63,25.7Z"/>
  <path class="st1" d="M759,803.5c-69.7,12-60.2,104.1,18.9,80,44.7-12.9,53.3-92.9-18.9-80Z"/>
  <path class="st1" d="M291.1,855.1c-50.7-34.4-62.8-9.3-68-2.4s-3.4,28.2-5.1,39.4c0,1.7,25.8,26.7,27.5,26.7h0c57.6,22.4,96.3-29.2,45.6-63.6Z"/>
  <path class="st1" d="M483.8,577.3c-38.7-18.9-59.3,55.9-48.2,67.1,27.5,27.5,117.8-32.7,48.2-67.1Z"/>
  <path class="st1" d="M907.8,777.7c15.5-80.9-94.6-31-96.3,6-.4,8.7,16.8,18,33.4,19.7,19.4,2,63-25.7,63-25.7h0Z"/>
  <path class="st1" d="M774.5,911c-30.8-22-77.3,21.7-76.9,48.4,25.5-11,49.9-24,73-38.9,3.2-5.3,4.8-9,3.9-9.5Z"/>
  <path class="st1" d="M387.5,668.5c17.2-15.5-53.3-74-72.2-30.1-6.9,31.8,69.7,32.7,72.2,30.1Z"/>
  <path class="st1" d="M329.1,970c13.5,4.9,27.3,9.3,41.4,13l-20-60c-44.4,2.3-38.6,26.8-21.4,47Z"/>
  <path class="st1" d="M726.3,789.7c12.9-12.9-42.1-92-60.2-72.2-18.1,19.8,45.6,87.7,60.2,72.2Z"/>
  <path class="st1" d="M278.2,825.9c6.9-6.9,19.8-72.2-18.1-72.2s-8.6,101.5,18.1,72.2Z"/>
  <path class="st1" d="M568.9,620.3s42.7,14.6,72.2,0c29.5-14.6,0-36.1,0-36.1-23.2,12-80.9-7.7-72.2,36.1Z"/>
  <path class="st1" d="M605.1,825.9c6.9,6.9,72.2,19.8,72.2-18.1s-101.5-8.6-72.2,18.1Z"/>
  <path class="st1" d="M648.9,875.8c-26.7,2.6-58.5,41.3-25.8,47.3,32.7,6,78.3-51.6,25.8-47.3Z"/>
  <path class="st1" d="M786.6,765.7c2.6-3.4,17.2-85.2-6-84.3-23.2.9-24.1,123,6,84.3Z"/>
  <path class="st1" d="M339.3,874.9c-14.6,29.2,68.8,38.7,72.2,36.1,24.9-22.4-52.5-49-72.2-36.1Z"/>
  <path class="st1" d="M471.8,462.9c-38.7-13.8-52.5,38.7-24.1,72.2,28.4,33.5,35.3-60.2,24.1-72.2Z"/>
  <path class="st1" d="M165.9,789.7c-37.8-13.8-19.8,69.7,42.1,48.2-5.2-12-4.3-34.4-42.1-48.2Z"/>
  <path class="st1" d="M581,487c-26.7-21.5-97.2,41.3-72.2,60.2,24.9,18.9,76.6-56.8,72.2-60.2Z"/>
  <path class="st1" d="M399.5,572.1c23.2-21.5-61.9-92.9-48.2-30.1,1.7,10.3,38.7,38.7,48.2,30.1Z"/>
  <path class="st1" d="M556,657.3v.9c-1.7-1.7-35.3-6-35.3,5.2,0,0,27.1,77.9,48.2,54.2,21.1-23.7-10.3-58.5-12.9-60.2Z"/>
  <path class="st1" d="M471.8,698.6c1.7-5.2,0-12,0-18.1-116.1,29.2-20.6,75.7,0,18.1Z"/>
  <path class="st1" d="M375.4,801.8c-12.9-12-57.6,15.5-60.2,36.1,21.5,4.3,82.6-15.5,60.2-36.1Z"/>
</svg>