<?xml version="1.0" encoding="UTF-8"?>
<svg id="Layer_1" xmlns="http://www.w3.org/2000/svg" version="1.1" viewBox="0 0 1000 1000">
  <!-- Generator: Adobe Illustrator 29.0.0, SVG Export Plug-In . SVG Version: 2.1.0 Build 186)  -->
  <defs>
    <style>
      .st0 {
        fill: none;
      }

      .st1 {
        fill: #010101;
      }
    </style>
  </defs>
  <path class="st0" d="M207.4,775.4l.8.3c-2.3,1.8-38.4-38-45.2-45.5-10.9-13.2-27.4-7.7-12.2-34.2,25.1,1.8,91.7,57.2,56.7,79.5ZM686.5,735.1l19.1,66.6-46.3-39.9,27.2-26.7ZM641,550.7c33.2,13.1-32,53.3-50.6,42.6-36.2-21.9,22-54.1,50.6-42.6ZM369.7,517.5c35.2-12.8,69.4,35,64.1,58-13.4,4-99.3-45.2-64.1-58ZM395.7,756.1c8.3,15.7-65.6,51.2-72.1,35.2-11-25.2,59.7-59.2,72.1-35.2ZM277.2,679.4c33.5-15.1,19.8,74.5-6,69.9-38.1-6.2-.2-66.9,6-69.9ZM229.6,783c30.4-16.1,85.5,35.4,72.9,67-18.6,46.7-112.3-47.2-72.9-67ZM333,938.5c-16.2,7.3-34-33.1-30-52.3,4.6-28.4,37.5-6.8,37.7-5,.7,2.8-4.9,56.6-7.7,57.3ZM341.1,845.3c-10.8-28.5,57.5-10.2,61-3,13.6,25.2-50.3,31.6-61,3ZM361.1,647.3c10.9-16.8,82.6-30.8,89.9-17.1,14.4,25.5-75.7,35.7-89.9,17.1ZM474.6,421.6c20.9,8.9,27.4,84.8,17.1,89.9-25.2,13.6-35.7-75.7-17.1-89.9ZM499.3,718.8c-22.2-7.6-.1-72,22.1-64.4,21.5,7.4.1,72-22.1,64.4ZM525.3,625.8c-66,17.6-77.5-76.3-27.3-75.3,44.1,1.4,65,65.2,27.3,75.3ZM538.3,515.4c-21.7-41.7,43.3-86.2,54.3-53.3,6.8,17.7-32.6,95-54.3,53.3ZM575.3,654.9c-2-36.7,56.9-1,58.9,3.1,15.5,42.2-56.9,33.6-58.9-3.1ZM661.2,931.2c-3.9,1.2-77.5-18.9-71.4-36.5,32.8-23,108.5,21,71.4,36.5ZM650.2,843.5c-18.4-1.2-51.7-4.1-52.7-6.1-18-47.3,63.2-19.4,86.2-6.4-6,34.8-15,13.7-33.4,12.5ZM724.7,905.9c-73.5-38.1-32.7-69.5,12.7-66.8,64.8,3.4,60.8,104.9-12.7,66.8ZM768.4,811.2c-27.3-37.7,19.1-95.4,38.2-58.9,1.5,3.1-15,76.2-38.2,58.9ZM867.7,821.4c3.3,5.4-9.5,30.2-23.9,34.6-72.5,21.4,1.7-77.4,23.9-34.6Z"/>
  <path class="st1" d="M737.4,839.1c-45.3-2.7-86.1,28.7-12.7,66.8,73.5,38.1,77.5-63.4,12.7-66.8Z"/>
  <path class="st1" d="M498,550.4c-50.2-1-38.8,92.9,27.3,75.3,37.8-10.2,16.8-73.9-27.3-75.3Z"/>
  <path class="st1" d="M229.6,783c-39.4,19.9,54.3,113.8,72.9,67,12.6-31.7-42.6-83.2-72.9-67Z"/>
  <path class="st1" d="M150.7,695.9c-15.1,26.5,1.3,21,12.2,34.2,6.9,7.5,42.9,47.3,45.2,45.5l-.8-.3c35.1-22.2-31.6-77.7-56.7-79.5Z"/>
  <path class="st1" d="M126.7,832.6c4.1,4.6,8.4,9.2,12.7,13.7l53.5,8.9c16.9-47-53.6-60.9-66.2-22.6Z"/>
  <path class="st1" d="M768.4,811.2c23.2,17.4,39.7-55.8,38.2-58.9-19.1-36.6-65.5,21.2-38.2,58.9Z"/>
  <path class="st1" d="M590.4,593.3c18.6,10.7,83.8-29.5,50.6-42.6-28.6-11.5-86.8,20.7-50.6,42.6Z"/>
  <path class="st1" d="M592.6,462.1c-11-32.9-76,11.6-54.3,53.3,21.7,41.7,61.1-35.6,54.3-53.3Z"/>
  <path class="st1" d="M491.7,511.4c10.3-5,3.8-81-17.1-89.9-18.6,14.2-8.1,103.5,17.1,89.9Z"/>
  <path class="st1" d="M395.7,756.1c-12.3-23.9-83.1,10-72.1,35.2,6.5,15.9,80.4-19.5,72.1-35.2Z"/>
  <path class="st1" d="M634.2,658c-2-4.1-60.9-39.8-58.9-3.1s74.4,45.3,58.9,3.1Z"/>
  <path class="st1" d="M597.4,837.4c1,2.1,34.3,4.9,52.7,6.1,18.4,1.2,27.5,22.3,33.4-12.5-22.9-13-104.2-40.9-86.2,6.4Z"/>
  <path class="st1" d="M271.2,749.3c25.8,4.6,39.5-85,6-69.9-6.2,3-44.1,63.7-6,69.9Z"/>
  <path class="st1" d="M361.1,647.3c14.2,18.6,104.2,8.4,89.9-17.1-7.3-13.7-78.9.3-89.9,17.1Z"/>
  <path class="st1" d="M712.9,937.8c-17.7-9.3-29.4,8.7-34.3,29.3,14.9-5.7,29.5-12.1,43.7-19.2-1.1-3.9-4-7.4-9.4-10.2Z"/>
  <path class="st1" d="M589.7,894.7c-6.1,17.6,67.6,37.8,71.4,36.5,37-15.6-38.7-59.6-71.4-36.5Z"/>
  <path class="st1" d="M433.7,575.5c5.3-23-28.8-70.7-64.1-58-35.2,12.8,50.7,62,64.1,58Z"/>
  <path class="st1" d="M521.4,654.4c-22.2-7.6-44.3,56.8-22.1,64.4,22.2,7.6,43.6-57,22.1-64.4Z"/>
  <path class="st1" d="M303,886.2c-4,19.2,13.8,59.6,30,52.3,2.8-.7,8.4-54.5,7.7-57.3-.2-1.8-33.1-23.4-37.7,5Z"/>
  <path class="st1" d="M867.7,821.4c-22.2-42.7-96.4,56-23.9,34.6,14.4-4.5,27.2-29.2,23.9-34.6Z"/>
  <polygon class="st1" points="686.5 735.1 659.4 761.8 705.7 801.7 686.5 735.1"/>
  <path class="st1" d="M204.5,903.4c8.4,6.1,16.9,12,25.7,17.7l16.3-47.4c-8-20-41.6,6.7-42,29.7Z"/>
  <path class="st1" d="M341.1,845.3c10.8,28.5,74.6,22.2,61-3-3.5-7.2-71.8-25.5-61,3Z"/>
</svg>