<?xml version="1.0" encoding="UTF-8"?>
<svg id="Layer_1" xmlns="http://www.w3.org/2000/svg" version="1.1" viewBox="0 0 1000 1000">
  <!-- Generator: Adobe Illustrator 29.0.0, SVG Export Plug-In . SVG Version: 2.1.0 Build 186)  -->
  <defs>
    <style>
      .st0 {
        fill: none;
      }

      .st1 {
        fill: #010101;
      }
    </style>
  </defs>
  <path class="st0" d="M899.7,739.7c17.5,21.6-43,34.1-44.4,31.1-13.4-29.2,26.9-52.7,44.4-31.1ZM134.7,798.7c-12.1-9.4-47.4-55.1-7.2-38.3,40.2,16.8,66.6,48.9,66.6,63.6s-42.7-12.2-59.4-25.3ZM817.5,686.4c13.3,19-34.3,63.4-46.6,43.7s25.1-74.3,46.6-43.7ZM517.6,464.2c8.5,9.8,17.8,72.6-27.7,47-45.5-25.6,8.4-68.9,27.7-47ZM377.1,452.4l52.9,67.6c-14.7,20.6-38,10.9-48.1-5.7l-.2.9c-10-16.6-8.9-44.2-4.7-62.9ZM329.7,574.6c51.8-41.8,59.2,21.5,60.7,23.6,28.4,43.9-112.5,18.2-60.7-23.6ZM211.8,723.4c23.4-17.2,46,54.4,26.7,69.5-27,22.1-37.2-62.1-26.7-69.5ZM297.3,851.7c-11.9,69.9-127.7-21.1-54.6-30.3,9.9-1.3,18-2.1,24.5-2.7,45.4-3.9,31.2,26.8,30.1,33ZM302.3,804.1c-17.9-30,32.7-80.4,48.8-56.2,7.4,10.6-30.9,86.2-48.8,56.2ZM326.6,887.1l85.8,28.1c-16.9,33.1-82.9,3-85.8-28.1ZM345.9,850.7c-21.8-28.8,67.4-30.7,69.5-26.7,19.8,29.4-62.8,36.2-69.5,26.7ZM388.5,682.2c-6.3-38.1,65.4-24.6,68.4-20.4,15.3,18.4-62.1,58.5-68.4,20.4ZM428.2,604c-20.6-46.2,84.4-79.6,92.5-15.2,7.5,62.4-86.5,28.3-92.5,15.2ZM509.6,735.9l-11.9-79.9c10.5,3.7,33.7,3.1,36.8,6.5h0c3.1,3.3,9,80.3-24.9,73.4ZM608.4,506.1c11.5,3,2.4,33.8-1.1,37.8-4.7,5.7-52.1,6.6-64.3,2.6l65.4-40.3ZM596.7,646.6c-29.5-6.1-30.6-31.3-22.6-55.8l44.8,40.3-22.2,15.5ZM719.7,799.7c27.3,34.4-58.2,20.3-79.9,11.9,4.7-26.9,73.8-19.4,79.9-11.9ZM727.9,890.1c-1.4,2.5-46.7,28.8-53.2,18.4-25.9-42.5,91.4-77.5,53.2-18.4ZM709.8,756.3c-54.3-33.6-29.8-83,33.7-18.1,1.5,28.1-12,31.2-33.7,18.1ZM816.1,841.7c-10.6,7.4-90.6-11.3-67.7-57.3,27-53.6,109.8,28.6,67.7,57.3Z"/>
  <path class="st1" d="M520.7,588.8c-8.1-64.4-113.1-31-92.5,15.2,6,13.1,100,47.2,92.5-15.2Z"/>
  <path class="st1" d="M748.4,784.4c-22.9,46,57.1,64.7,67.7,57.3,42.1-28.7-40.7-110.9-67.7-57.3Z"/>
  <path class="st1" d="M267.2,818.7c-6.5.6-14.5,1.4-24.5,2.7-73.1,9.3,42.7,100.2,54.6,30.3,1.1-6.2,15.3-36.9-30.1-33Z"/>
  <path class="st1" d="M381.9,514.4c10,16.6,33.4,26.2,48.1,5.7l-52.9-67.6c-4.2,18.7-5.4,46.3,4.7,62.9l.2-.9Z"/>
  <path class="st1" d="M534.6,662.5c-3.1-3.3-26.4-2.8-36.8-6.5l11.9,79.9c34,6.9,28.1-70.1,24.9-73.4h0Z"/>
  <path class="st1" d="M127.5,760.4c-40.2-16.8-4.9,28.9,7.2,38.3,16.7,13.1,59.4,40,59.4,25.3s-26.4-46.8-66.6-63.6Z"/>
  <path class="st1" d="M846.5,821.1c-19.3,10.2-7.6,19.6,12.5,26.8,10.5-10.8,20.5-22.1,30-33.8-12.7-2.6-27.3-1-42.5,7Z"/>
  <path class="st1" d="M390.3,598.3c-1.5-2.1-8.9-65.5-60.7-23.6-51.8,41.8,89.1,67.5,60.7,23.6Z"/>
  <path class="st1" d="M607.3,543.8c3.5-4,12.6-34.8,1.1-37.8l-65.4,40.3c12.3,4,59.6,3.1,64.3-2.6Z"/>
  <path class="st1" d="M388.5,682.2c6.3,38.1,83.7-2,68.4-20.4-3-4.2-74.7-17.8-68.4,20.4Z"/>
  <path class="st1" d="M709.8,756.3c21.8,13.1,35.3,9.9,33.7-18.1-63.6-64.9-88-15.5-33.7,18.1Z"/>
  <path class="st1" d="M674.7,908.5c6.5,10.4,51.9-15.9,53.2-18.4,38.2-59-79.1-24.1-53.2,18.4Z"/>
  <path class="st1" d="M412.4,915.1l-85.8-28.1c2.9,31.1,68.9,61.2,85.8,28.1Z"/>
  <path class="st1" d="M238.5,792.9c19.3-15.1-3.3-86.7-26.7-69.5-10.6,7.4-.4,91.6,26.7,69.5Z"/>
  <path class="st1" d="M351.1,747.9c-16.1-24.1-66.7,26.2-48.8,56.2s56.2-45.7,48.8-56.2Z"/>
  <path class="st1" d="M489.9,511.2c45.5,25.6,36.2-37.2,27.7-47-19.3-21.9-73.2,21.4-27.7,47Z"/>
  <path class="st1" d="M155.8,862.7c9.6,9.2,19.7,17.9,30,26.3h9.8c-2.8-25.4-21.1-31.1-39.8-26.3Z"/>
  <path class="st1" d="M817.5,686.4c-21.5-30.6-58.8,23.9-46.6,43.7s59.9-24.7,46.6-43.7Z"/>
  <path class="st1" d="M719.7,799.7c-6.1-7.6-75.1-15.1-79.9,11.9,21.7,8.4,107.2,22.5,79.9-11.9Z"/>
  <path class="st1" d="M794.5,890.7h0s-37.7-6.6-37.7-6.6l-.4,45.3c12.6-7.5,24.9-15.6,36.7-24.2,1.6-7.7,2.2-13.4,1.4-14.5Z"/>
  <path class="st1" d="M596.7,646.6l22.2-15.5-44.8-40.3c-8,24.5-6.9,49.7,22.6,55.8Z"/>
  <path class="st1" d="M345.9,850.7c6.7,9.5,89.3,2.7,69.5-26.7-2.1-4.1-91.3-2.2-69.5,26.7Z"/>
  <path class="st1" d="M257.1,913.8c-1.5-2.1-17.1-3-25.2-4.4-.4,4.3-.6,8.4-.9,12.2,9,5.8,18.3,11.3,27.7,16.5,1.8-9.7,1.7-18.9-1.7-24.3Z"/>
  <path class="st1" d="M899.7,739.7c-17.5-21.6-57.7,1.9-44.4,31.1,1.3,3,61.9-9.5,44.4-31.1Z"/>
</svg>