<?xml version="1.0" encoding="UTF-8"?>
<svg id="Layer_1" xmlns="http://www.w3.org/2000/svg" version="1.1" viewBox="0 0 1000 1000">
  <!-- Generator: Adobe Illustrator 29.0.0, SVG Export Plug-In . SVG Version: 2.1.0 Build 186)  -->
  <defs>
    <style>
      .st0 {
        fill: none;
      }

      .st1 {
        fill: #010101;
      }
    </style>
  </defs>
  <path class="st1" d="M222.6,916.1c-14.3-9.5-28-19.8-41.2-30.7,7.2,10.9,24.1,23,41.2,30.7Z"/>
  <path class="st0" d="M185.8,758.2l18.6,61.9c-20.4,21.2-54-44.2-18.6-61.9ZM628.2,732.5c23-1.8,54.9-3.5,61.9,24.8,0,0-26.1,12.4-61.9,12.4s0-37.2,0-37.2ZM378.7,471.5c2.7,2.7,15,71.7,12.4,74.3-39.8,42.5-50.4-123-12.4-74.3ZM366.3,676.8c0,35.4-80.5,23.9-86.7,18.6-32.7-28.3,86.7-54,86.7-18.6ZM297.3,559.1c46.9,26.5,42.5,23,44.2,24.8h0c5.3,7.1-13.3,22.1-29.2,23-40.7,0-61.9-74.3-15-47.8ZM267.2,844.9c-18.6-19.5,38.9-61.9,49.6-49.6,20.4,22.1-31,69-49.6,49.6ZM304.3,888.3c26.5-38.1,71.7-47.8,74.3,6.2l-74.3-6.2ZM391.1,744.9c-4.4-16.8,1.8-61.9,18.6-61.9,25.7,0,26.5,72.6-18.6,61.9ZM450.3,642.3c-40.7,38.9-110.6-12.4-54-60.2,56.6-47.8,83.2,32.7,54,60.2ZM459.2,471.5c47.8-.9,19.5,58.4,17.7,61.1-46.9,52.2-65.5-60.2-17.7-61.1ZM540.6,707.7c-23,18.6-81.4-40.7-61.9-61.9,19.5-21.2,34.5,23.9,42.5,32.7h-.9c3.5,3.5,43.4,10.6,20.4,29.2ZM515.8,576.8c77-48.7,56.6-10.6,61.9-6.2,43.4,34.5-138.9,54.9-61.9,6.2ZM603.4,857.3c-27.4-23.9,61.9-46.9,74.3-37.2,30.1,23.9-68.1,42.5-74.3,37.2ZM664.7,912.8h0s53.9-33,53.9-33c23,11.3-32.8,100.7-53.9,33ZM752.1,645.8c1.8,2.7,1.8,60.2,0,61.9-34.5,38.9-34.5-100.9,0-61.9ZM739.7,857.3c-23.9-26.5,24.8-123.9,61.9-86.7,23,23-38.1,113.3-61.9,86.7ZM852.1,658.2c2.7,1.8-10.6,60.2-12.4,61.9-32.7,36.3-42.5-101.8,12.4-61.9Z"/>
  <path class="st1" d="M396.4,582.1c-56.6,47.8,13.3,99.1,54,60.2,29.2-27.4,2.7-108-54-60.2Z"/>
  <path class="st1" d="M739.7,857.3c23.9,26.5,84.9-63.7,61.9-86.7-37.2-37.2-85.8,60.2-61.9,86.7Z"/>
  <path class="st1" d="M266.3,919.2h0c30.1-28.3-57.5-89.4-86.7-49.6-3.2,4.3-2.1,9.8,1.8,15.7,13.2,10.9,26.9,21.2,41.2,30.7,17.6,7.9,35.5,11,43.7,3.2Z"/>
  <path class="st1" d="M279.6,695.4c6.2,5.3,86.7,16.8,86.7-18.6s-119.5-9.7-86.7,18.6Z"/>
  <path class="st1" d="M459.2,471.5c-47.8.9-29.2,113.3,17.7,61.1,1.8-2.7,30.1-61.9-17.7-61.1Z"/>
  <path class="st1" d="M839.7,783c7.9,45.2,32.7,41.9,56.7,21.9,8.3-10.8,16.2-21.9,23.6-33.3l-80.2,11.5Z"/>
  <path class="st1" d="M520.2,678.5h.9c-8-8.8-23-54-42.5-32.7-19.5,21.2,38.9,80.5,61.9,61.9s-16.8-25.7-20.4-29.2Z"/>
  <path class="st1" d="M577.8,570.6c-5.3-4.4,15-42.5-61.9,6.2-77,48.7,105.3,28.3,61.9-6.2Z"/>
  <path class="st1" d="M312.3,606.9c15.9-.9,34.5-15.9,29.2-23h0c-1.8-1.8,2.7,1.8-44.2-24.8-46.9-26.5-25.7,47.8,15,47.8Z"/>
  <path class="st1" d="M304.3,888.3l74.3,6.2c-2.7-54-47.8-44.2-74.3-6.2Z"/>
  <path class="st1" d="M101.4,801.8c15.4,20.3,32.3,39.4,50.6,57.1,1.1-.4,2.1-1,2.9-1.6,16.8-14.4-24.5-67.4-53.4-55.5Z"/>
  <path class="st1" d="M316.7,795.4c-10.6-12.4-68.1,30.1-49.6,49.6,18.6,19.5,69.9-27.4,49.6-49.6Z"/>
  <path class="st1" d="M677.8,820.1c-12.4-9.7-101.8,13.3-74.3,37.2,6.2,5.3,104.4-13.3,74.3-37.2Z"/>
  <path class="st1" d="M391.1,545.8c2.7-2.7-9.7-71.7-12.4-74.3-38-48.7-27.4,116.8,12.4,74.3Z"/>
  <path class="st1" d="M718.6,879.8l-53.9,33h0c21.1,67.7,76.9-21.7,53.9-33Z"/>
  <path class="st1" d="M409.6,683c-16.8,0-23,45.1-18.6,61.9,45.1,10.6,44.2-61.9,18.6-61.9Z"/>
  <path class="st1" d="M852.1,658.2c-54.9-39.8-45.1,98.2-12.4,61.9,1.8-1.8,15-60.2,12.4-61.9Z"/>
  <path class="st1" d="M291.9,932.5c-6.7,6-2.2,16.4,6.6,25.2,12.3,5.4,24.9,10.4,37.7,14.8,1.9-.6,3.7-1.6,5.2-2.9,15.9-14.2-33.6-51.3-49.6-37.2Z"/>
  <path class="st1" d="M204.3,820.1l-18.6-61.9c-35.4,17.7-1.8,83.2,18.6,61.9Z"/>
  <path class="st1" d="M628.2,769.7c35.9,0,61.9-12.4,61.9-12.4-7.1-28.3-38.9-26.5-61.9-24.8,0,0-35.9,37.2,0,37.2Z"/>
  <path class="st1" d="M752.1,707.7c1.8-1.8,1.8-59.3,0-61.9-34.5-38.9-34.5,100.9,0,61.9Z"/>
</svg>