<?xml version="1.0" encoding="UTF-8"?>
<svg id="Layer_1" xmlns="http://www.w3.org/2000/svg" version="1.1" viewBox="0 0 1000 1000">
  <!-- Generator: Adobe Illustrator 29.0.0, SVG Export Plug-In . SVG Version: 2.1.0 Build 186)  -->
  <defs>
    <style>
      .st0 {
        fill: none;
      }

      .st1 {
        fill: #010101;
      }
    </style>
  </defs>
  <path class="st1" d="M172.1,877.5c-.8-.7-1.7-1.5-2.5-2.2.8.7,1.6,1.5,2.5,2.2Z"/>
  <path class="st0" d="M193.3,768.7c-17.3,12.5-52.9-40.1-25.3-63.6,17.8,5.5,34,57.4,25.3,63.6ZM321.1,491.3c-14.7,22.2,41.3,64.5,24.4,74.5-32.1,19.4-107.6-106-24.4-74.5ZM340.7,673l-83-1.7c11-41.5,94.2-50.9,83,1.7ZM304.1,751.1c11.2,14.6-48.3,61.8-51.1,21.4-1.9-24.9,43.3-31.2,51.1-21.4ZM324.6,956.3c-51.8-14.6-72.6-25.7-81.4-32.7-11.3-9-.2-18.8,8.3-20.7,26.5-6,61,14.4,83.8,20.7,1.7,20.7,1.4,36-10.7,32.6ZM331.2,866c-86.1,12.3-47.6-57.1,29.2-22.4,0,31.4-8.3,19.9-29.2,22.4ZM381.4,751c-26.7-29-11.4-75.8,28.8-66.7l-28.8,66.7ZM449.6,630.5c-44.6,59.8-118.3-35.5-67.2-56.9,24.6-10.4,100,12.1,67.2,56.9ZM413.7,517.5c-24.9-34.7,30.2-75.8,44.2-52.2,11.5,18-19.3,86.9-44.2,52.2ZM486.4,732.5l-13.7-61.7c51-.2,69.7,72.6,13.7,61.7ZM497.7,590.7c-19-29.4,50.3-58.1,65.5-36.9,24.9,34.7-61.6,44.3-65.5,36.9ZM643.9,866.2l-71.4.2c7-43,82.4-57.1,71.4-.2ZM634.2,946.2c-79.6,29.5,8.2-86.2,38.8-39.5,9.4,15.1-25.1,34.1-38.8,39.5ZM667.9,791.9c-28.1,15.8-82.5-30.5-35.8-35.6,28.7-3.8,63.9,19.8,35.8,35.6ZM722.6,676c30.3-23.9,42.4,78.3,6,72.4s-13.7-66.8-6-72.4ZM782.2,872.7c-131,78.8-70.2-152.5,14.8-59.6,22.3,24.9,14.3,42.3-14.8,59.6ZM814.4,774.3c-4.6-8.4,11.4-69.5,28.8-66.7,28.1,4.6-8,100.7-28.8,66.7Z"/>
  <path class="st1" d="M782.2,872.7c29.2-17.3,37.1-34.7,14.8-59.6-85.1-92.9-145.9,138.5-14.8,59.6Z"/>
  <path class="st1" d="M382.4,573.6c-51.1,21.4,22.6,116.7,67.2,56.9,32.8-44.8-42.5-67.3-67.2-56.9Z"/>
  <path class="st1" d="M242.6,826c-25.9-31.4-107.1,16.6-72.9,49.3.8.7,1.7,1.5,2.5,2.2,2.9,2.4,6.5,4.6,10.8,6.8,63.7,31.7,78.8-34.7,59.7-58.2Z"/>
  <path class="st1" d="M251.6,902.9c-8.5,1.9-19.6,11.7-8.3,20.7,8.8,7,29.6,18.1,81.4,32.7,12.1,3.4,12.5-12,10.7-32.6-22.8-6.3-57.3-26.7-83.8-20.7Z"/>
  <path class="st1" d="M139.4,807.5c19.1-18.1-50.4-86.4-71.6-71.2-2.5,1.8-4,4.2-4.6,7.1,14.3,25.7,30.8,49.9,49.3,72.5,9.9,2.4,22.6-4.6,27-8.4Z"/>
  <path class="st1" d="M351.8,560.5c9.9-8.5-14.3-25.4-28.7-42.9-7.2-8.9-28.1-31.7-38.7-24.6-10.6,7.1,44.1,87.9,67.4,67.5Z"/>
  <path class="st1" d="M855.1,816.6c6.3,8,16.1,9,27,5.9,15.7-18.6,30.1-38.4,43-59.2-30.6,11.3-79.7,41.1-70,53.2Z"/>
  <path class="st1" d="M634.2,946.2c13.6-5.4,48.2-24.4,38.8-39.5-30.6-46.6-118.4,69-38.8,39.5Z"/>
  <path class="st1" d="M729,927.7c-13.5-22.9-54.9,7.4-54.1,40.9,19.2-7.2,37.8-15.5,55.8-24.8.7-7.1.2-12.9-1.6-16.1Z"/>
  <path class="st1" d="M497.7,590.7c3.9,7.4,90.4-2.2,65.5-36.9-15.2-21.2-84.5,7.4-65.5,36.9Z"/>
  <path class="st1" d="M257.7,671.3c11.9,11.9,83,1.7,83,1.7,7.3-34.5-26-42.3-52.8-31.9s-42.1,18.3-30.2,30.2Z"/>
  <path class="st1" d="M572.5,866.4l71.4-.2c11-56.8-64.4-42.8-71.4.2Z"/>
  <path class="st1" d="M472.7,670.8l13.7,61.7c56,10.9,37.3-61.9-13.7-61.7Z"/>
  <path class="st1" d="M331.2,866c20.8-2.5,29.1,9,29.2-22.4-76.8-34.6-115.3,34.7-29.2,22.4Z"/>
  <path class="st1" d="M728.6,748.3c36.4,6,24.3-96.3-6-72.4-7.7,5.5-30.4,66.4,6,72.4Z"/>
  <path class="st1" d="M413.7,517.5c24.9,34.7,55.7-34.2,44.2-52.2-14-23.5-69.2,17.6-44.2,52.2Z"/>
  <path class="st1" d="M381.4,751l28.8-66.7c-40.1-9.1-55.4,37.7-28.8,66.7Z"/>
  <path class="st1" d="M632.1,756.3c-46.7,5.1,7.7,51.4,35.8,35.6,28.1-15.8-7.2-39.4-35.8-35.6Z"/>
  <path class="st1" d="M843.2,707.6c-17.4-2.8-33.3,58.3-28.8,66.7,20.8,34,56.9-62.1,28.8-66.7Z"/>
  <path class="st1" d="M168,705.1c-27.6,23.5,8,76.1,25.3,63.6,8.7-6.2-7.5-58.2-25.3-63.6Z"/>
  <path class="st1" d="M304.1,751.1c-7.8-9.8-53-3.6-51.1,21.4,2.7,40.4,62.3-6.8,51.1-21.4Z"/>
</svg>