<?xml version="1.0" encoding="UTF-8"?>
<svg id="Layer_1" xmlns="http://www.w3.org/2000/svg" version="1.1" viewBox="0 0 1000 1000">
  <!-- Generator: Adobe Illustrator 29.0.0, SVG Export Plug-In . SVG Version: 2.1.0 Build 186)  -->
  <defs>
    <style>
      .st0 {
        fill: #010101;
      }
    </style>
  </defs>
  <path class="st0" d="M353.3,442.1c-21.7-54.3-7.2-132-17.2-173.6-9.9-41.6-42.5-83.2-47-132.9-2.1-24.2,12.5-70.2,4.3-90.9-36.8,16.7-71.3,37.8-102.7,62.6-.7,60.3,25.1,145.5,19.7,210.1-2.5,29.6-9.6,54.1-18.4,76.5,55.8,43.7,121.1,75.8,192.3,92.7-10.2-9.4-21.5-20.7-31-44.4Z"/>
  <path class="st0" d="M800,286.5c-10.9-57-7.2-157.4-19-197.2-.4-1.3-.8-2.6-1.4-3.9-27.4-18.5-56.7-34.4-87.6-47.2-5.1,6.2-8.1,16.6-7.8,32.2,3.6,151.9,7.2,228.8-34.4,379.8-3.2,11.4-7.3,21.4-11.9,30.5,69.5-19.9,132.8-54.5,186.3-100.1-8.8-27.9-17.6-58.2-24.2-94.1Z"/>
  <path class="st0" d="M537.7,46c-40.3-35.5-64.2-18.1-95,28.9-67.8,104,9,202.6,0,313.8,12.7,47,104,57.9,117.6-9.9,8.1-43.4,19.9-195.3,19.9-227.9s-2.2-69.4-42.5-104.9Z"/>
</svg>