<?xml version="1.0" encoding="UTF-8"?>
<svg id="Layer_1" xmlns="http://www.w3.org/2000/svg" version="1.1" viewBox="0 0 1000 1000">
  <!-- Generator: Adobe Illustrator 29.0.0, SVG Export Plug-In . SVG Version: 2.1.0 Build 186)  -->
  <defs>
    <style>
      .st0 {
        fill: #231f20;
      }
    </style>
  </defs>
  <path class="st0" d="M301,220.1c-4.8-39.2,24-146.3,17.2-186-50,19.5-96.1,46.8-136.7,80.5-1.6,39.3,5.8,91.9-.4,129.4-6,38.2-25.7,63.4-41.4,102.7,63.8,66.4,145.9,115.1,238,138.3,4.9-99.3-64.2-165.2-76.7-264.8Z"/>
  <path class="st0" d="M829.2,298c-4.3-35,3.1-108.6,6-168.9-42.1-38.1-90.7-69.1-144-91.1,2.7,8,5.2,18.1,7.1,31.2,10.1,69.6,32,74.2,1.8,214.2-21.4,99.1-69.3,130.4-68.6,199.2,81.6-22.2,154.9-64.5,214.2-121.3-7.6-22.3-14.1-43.7-16.5-63.3Z"/>
  <path class="st0" d="M565,4.2c-21.3-2.8-43-4.2-65-4.2s-34.7.9-51.7,2.6c-29.4,43.3-40.1,120.8-36.6,168.4,2.7,40.3,43,168.4,84.2,174.9,41.2,6.4,74.2-32,80.6-61.3,6.4-29.3,19.2-173.9,16.5-203.2-.9-18.1-14.8-61.5-27.9-77.1Z"/>
</svg>