<?xml version="1.0" encoding="UTF-8"?>
<svg id="Layer_1" xmlns="http://www.w3.org/2000/svg" version="1.1" viewBox="0 0 1000 1000">
  <!-- Generator: Adobe Illustrator 29.0.0, SVG Export Plug-In . SVG Version: 2.1.0 Build 186)  -->
  <defs>
    <style>
      .st0 {
        fill: #010101;
      }
    </style>
  </defs>
  <path class="st0" d="M348.3,187.4c-6.8-43.4-43.5-90.6-55.1-142.8-48.8,22.2-93.3,51.9-132.2,87.8,13,61.3,42.9,132.8,40.8,199.5-1,26.4-9.5,49.2-20.1,71.7,65.9,54.5,146.1,92.4,234,107.3-8.9-54.1-67.1-94.5-76.9-153.3-10.5-62.8,18.1-110.3,9.5-170.2Z"/>
  <path class="st0" d="M757.3,80c.2-2.4,1.1-4.9,2.3-7.4-39-23.7-81.4-42.2-126.4-54.6,5.3,12.1,14.9,25.1,16.7,61.1,2.9,59.9,13.3,183.5,6.7,241.5-6.7,58-53.3,76.1-53.3,174s.2,8.5.5,12.6c90.1-19,171.3-62.3,236.4-122.8-31.5-99.6-92.3-192-82.9-304.4Z"/>
  <path class="st0" d="M499.6,0c-36.8,0-72.7,4-107.2,11.6-20.1,79.6,52.9,95.8,52.9,164h0c0,70.3-49.4,155.1-12.4,177.9h.9c13.3,8.6,5.7,29.5,78-4.8,72.3-34.2,19-147.4,14.3-201.6-2.7-29.6,27.6-120.2-26.5-147.1Z"/>
</svg>