<?xml version="1.0" encoding="UTF-8"?>
<svg id="Layer_1" xmlns="http://www.w3.org/2000/svg" version="1.1" viewBox="0 0 1000 1000">
  <!-- Generator: Adobe Illustrator 29.0.0, SVG Export Plug-In . SVG Version: 2.1.0 Build 186)  -->
  <path d="M478.3,388.8c-20.3-13.2-.9-70.5-3.5-89-5.3-37-45.9-79.3-44.1-123.4,1.1-29.5,22.2-76.6,48.7-103-26.5,26.4-47.6,73.5-48.8,103.1-1.7,44.1,38.8,86.4,44.1,123.4,2.6,18.5-16.8,75.8,3.5,89,28.9,18.2,58.8-1.1,78-32.9-19.2,31.6-49.1,50.8-77.9,32.8Z"/>
  <path d="M377.8,248.7c-3.5-32.6-35.3-59.1-35.3-100.5s61.1-101.1,50.5-136.7c-63.5,13.8-122.5,39.8-174.5,75.3-13.5,59.7,23.4,147.6,19.1,220.2-2.1,34.2-15.1,66.2-30.3,98.4,69.2,50,151.7,82.8,241.1,91.9-14.4-63.4-71.5-100.8-77.8-168.5-2.6-27.3,10.6-47.6,7.1-80.2Z"/>
  <path d="M796.8,97.6c-37.5-27.7-79-50.3-123.4-66.7-10.9,51-9.8,126.9-6.2,178.4,3.9,54.5,5.4,126.3-53.1,236-9.3,17.4-16.2,32.6-21,46,76.3-14.4,146.5-46.1,206.3-90.9-14.6-32.6-30.8-68.2-34.7-104.9-5.9-50.6,37.7-124.2,32-197.9Z"/>
  <path d="M520.7,53.8h-.1c-13.9-1.3-28.2,6.6-41.2,19.6,12.9-12.9,27.2-20.8,41.1-19.4,66.1,7.1,21.2,86.4,22.9,117.3,1.8,30.9,37.9,65.2,32.6,124.3h0c-1.9,21.1-9.2,42.7-19.9,60.4,10.7-17.8,18.1-39.4,20-60.6,5.3-59-30.9-93.4-32.6-124.3-1.8-30.9,43.2-110.2-22.9-117.3Z"/>
  <path d="M576,295.6c5.3-59.1-30.8-93.4-32.6-124.3-1.7-30.9,43.2-110.2-22.9-117.3-13.9-1.4-28.1,6.5-41.1,19.4-26.5,26.4-47.6,73.5-48.7,103-1.8,44.1,38.8,86.4,44.1,123.4,2.6,18.5-16.8,75.8,3.5,89,28.8,18.1,58.7-1.1,77.9-32.8,10.7-17.7,18-39.4,19.9-60.5h0Z"/>
</svg>