<?xml version="1.0" encoding="UTF-8"?>
<svg id="Layer_1" xmlns="http://www.w3.org/2000/svg" version="1.1" viewBox="0 0 1000 1000">
  <!-- Generator: Adobe Illustrator 29.0.0, SVG Export Plug-In . SVG Version: 2.1.0 Build 186)  -->
  <path d="M482.3,365c0,0,.2.2.2.2h0c0,0-.2-.1-.2-.2Z"/>
  <path d="M569.6,94.6c-2.6-18.2-8.4-31.8-16.2-41.2,7.8,9.5,13.6,23,16.1,41.1h0c6.3,43.5-13.6,75.2-13.6,113.2s40.7,126.7-11.8,153c-52.3,26.1-50.7,12.7-62.4,4.6h0c11.8,8.2,10,21.8,62.5-4.5h0c52.5-26.2,11.8-115,11.8-153s19.9-69.7,13.6-113.2Z"/>
  <path d="M420.2,407.8h0c-12.7-24.4-35.3-37.1-46.2-56.1-35.3-62.5-3.6-94.2-7.2-157.6-2.7-47.1-27.2-86-38-128.6-1.5-8.4-.5-23.2.2-35.5-28.5,10.4-55.8,23.3-81.7,38.5,3.9,28,17.6,59.3,18.1,74.9.9,28.1-4.5,115-13.6,164.8-6.9,37.7-27.3,31.8-61.1,84.5,70.5,55.5,156.4,92.4,250.1,103.4.1-30.2-5.7-59.8-20.5-88.3Z"/>
  <path d="M790.5,345.4c-24.7-77.6-7.7-181.8-14.7-262.5-31-20.5-64.3-37.6-99.6-50.9-1.6,50-16.3,101.4-17,137.8-.9,48,20.8,87.8,13.6,139.4-8.9,59.8-71.8,120.3-86.6,182.8,88.5-15.5,169-54.2,234.9-109.7-12.8-12.3-26.3-23-30.7-36.9Z"/>
  <path d="M442.8,107.3c5.8-60.2,76.8-94.9,110.6-53.9-33.7-41.2-104.8-6.5-110.7,53.8-3.6,38.9,20.8,62.5,24.4,88.7,3.6,25.9,8,161.7,15.2,169.1-7-8.6-11.5-143.2-15.1-169-3.6-26.2-28.1-49.8-24.4-88.7Z"/>
  <path d="M482.5,365.2h-.9s0,0,.1,0h.9s0,0-.1,0Z"/>
  <path d="M544.1,360.7c52.5-26.3,11.8-115,11.8-153s19.9-69.7,13.6-113.2h0c-2.5-18.2-8.3-31.7-16.1-41.1-33.8-41-104.8-6.3-110.6,53.9-3.7,38.9,20.8,62.5,24.4,88.7,3.5,25.8,8.1,160.4,15.1,169,0,0,.2.2.2.2h0s0,0,.1,0h-.9c11.6,8.1,10.1,21.5,62.4-4.6Z"/>
</svg>