<?xml version="1.0" encoding="UTF-8"?>
<svg id="Layer_1" xmlns="http://www.w3.org/2000/svg" version="1.1" viewBox="0 0 1000 1000">
  <!-- Generator: Adobe Illustrator 29.0.0, SVG Export Plug-In . SVG Version: 2.1.0 Build 186)  -->
  <path d="M296.8-10.6l.2.2s0,0-.2-.2Z"/>
  <path d="M296-11.4h0c0,.1.2.3.2.5.2.1.4.2.6.3l-.8-.8Z"/>
  <path d="M684.4-9.3c-.8-2.1-1.2-1,0,0h0Z"/>
  <path d="M394.5,385.2c-27.2-65.6-14.1-133.1-39.4-198.7-15-38.4-64.7-85.3-70.3-115.3-1.3-6.7-1.2-14.4-.5-22.4-32.7,15.7-63.4,34.8-91.7,56.9,14.7,55.8,37.2,138.4,34.1,178.3-2.8,34.8-21.7,71.3-40.8,105,77.5,62.7,174.1,102.6,279.7,109.8-1.6-9.4-4.3-19.7-8.3-31.1-13.1-36.6-50.6-54.4-62.8-82.5Z"/>
  <path d="M788,91.2c-30.9-21.8-64.3-40.2-99.8-54.6,1.7,55.7,8.5,109.9.6,165.8-12.2,79.7-115.3,222.2-112.5,291.6,0,0,0,.1,0,.2,100.5-15.4,191.1-60.7,262.6-126.6-10.3-47.2-25-93.9-37.5-153-8.4-39.3-7.2-83.9-13.4-123.4Z"/>
  <path d="M543.1,1.8c-14.2-1.2-28.6-1.8-43.1-1.8-47.9,0-94.2,6.7-138.1,19.3-.2,12.8,5.4,29.3,19.1,50.2h.1c73.8,112.9,65.9,152.6,80.9,195.7,9.4,27.2,18.7,169.7,77.8,78.7,19.7-30,40.3-287.8,25.3-315.9-2.7-5.3-11.9-16.2-22-26.2Z"/>
</svg>