<?xml version="1.0" encoding="UTF-8"?>
<svg id="Layer_1" xmlns="http://www.w3.org/2000/svg" version="1.1" viewBox="0 0 1000 1000">
  <!-- Generator: Adobe Illustrator 29.0.0, SVG Export Plug-In . SVG Version: 2.1.0 Build 186)  -->
  <path d="M372.3,213.8c-.9-46.6-29.9-92.4-28-145.5.5-15,6-31.4,11.7-47.3-37.4,11.2-73,26.7-106.2,46,.3,53.2,8.7,117.4-1.6,166.4-9.5,43.4-44.3,93-74.7,142.7,71.2,61.4,159.9,103.1,257.6,116.6-18.7-59.3-66.8-110.5-71.9-176.3-2.8-39.2,13.1-67.2,13.1-102.6h0Z"/>
  <path d="M739.8,120.6c0-42.9,7.6-34.5,11.9-52.6-30.4-17.8-62.8-32.4-96.9-43.5,1.4,23.8,7.5,52.4,6.6,70-1.9,32.7-14,49.4-14,91.4s29.9,82.1,20.5,139-77.4,113.8-98,164.2c-.5,1.2-1,2.4-1.4,3.6,94.6-12.9,180.7-52.3,250.7-110.5-25.5-57.3-68.1-95.9-78.3-136.7-14.8-59.2-1.1-82.1-1.1-125h0Z"/>
  <path d="M500,0c-20.8,0-40.1,1.2-59.7,3.5,0,.3-.2.6-.2,1-29.5,120.6,38.2,167.3,25.5,221.4h0c-12.7,53.9-10.3,137.1,54.1,121.3,64.4-15.9,21.5-103.5,21.5-149.3s47.7-71.6,20.3-194.2C541.4,1.2,520.8,0,500,0h0Z"/>
</svg>