<?xml version="1.0" encoding="UTF-8"?>
<svg id="Layer_1" xmlns="http://www.w3.org/2000/svg" version="1.1" viewBox="0 0 1000 1000">
  <!-- Generator: Adobe Illustrator 29.0.0, SVG Export Plug-In . SVG Version: 2.1.0 Build 186)  -->
  <path d="M318.4,47.6c-1.5-4.3-2.6-8.4-3.5-12.2-43.8,17.5-84.6,40.9-121.3,69.4-5.2,58.2,37.3,131.9,31.8,197-2.9,35-15.1,65.7-28.5,96.3,63.1,48.1,138,81.4,219.6,95.1-8.9-34.9-30.7-51.4-46.9-131-20.2-99.1-16.5-216-51.2-314.5Z"/>
  <path d="M776.9,83.7c-28.3-18.9-58.7-34.9-90.7-47.8-4.3,14.5-5.9,37.3-9.8,70.9-8.4,73.3,7.2,173.3-8.3,238.3-9.7,38.8-46.5,17.4-83,147.4,0,0,0,.1,0,.2,86-14.8,164.4-51.6,229.3-104.3-15.6-40.1-34.2-80.6-38.1-117.8-3.9-38,11-125,.6-186.9Z"/>
  <path d="M500,0c-27.8,0-55.6,2.3-82.3,6.7-7.3,83.5,33.1,195.7,47.9,250.8h0c6,22.8-9.5,28.9,4.3,71.7,13.8,42.8,82.7,43.9,87.2-9.5-5-34.4,24.1-197.9,24.5-313.1-26.6-4.4-53.8-6.6-81.6-6.6Z"/>
</svg>