<?xml version="1.0" encoding="UTF-8"?>
<svg id="Layer_1" xmlns="http://www.w3.org/2000/svg" version="1.1" viewBox="0 0 1000 1000">
  <!-- Generator: Adobe Illustrator 29.0.0, SVG Export Plug-In . SVG Version: 2.1.0 Build 186)  -->
  <defs>
    <style>
      .st0 {
        fill: none;
      }
    </style>
  </defs>
  <path d="M69.2,754c26.6,47.1,59.1,85.9,96.8,118.1-38-34.1-70.7-73.9-96.8-118.1Z"/>
  <path class="st0" d="M435.5,995.9c-104.4-24.2-196.5-61.5-269.5-123.8,73.5,66,166.6,110.6,269.5,123.8Z"/>
  <path d="M965.3,683.4c-10.2-8.3-26.3-16.2-50.1-25.1-311.3-116.1-571.1,1.7-880.7,20,10,27.4,21.6,52.5,34.7,75.6,26.1,44.2,58.8,84,96.8,118.1,73,62.3,165.2,99.6,269.5,123.8,21.1,2.7,42.6,4.1,64.5,4.1,211.4,0,392.1-131.2,465.3-316.6Z"/>
</svg>