<?xml version="1.0" encoding="UTF-8"?>
<svg id="Layer_1" xmlns="http://www.w3.org/2000/svg" version="1.1" viewBox="0 0 1000 1000">
  <!-- Generator: Adobe Illustrator 29.0.0, SVG Export Plug-In . SVG Version: 2.1.0 Build 186)  -->
  <defs>
    <style>
      .st0 {
        fill: none;
      }
    </style>
  </defs>
  <path class="st0" d="M226,718.6c-28.4-32,22.7-168.4,97.5-106.7,88.9,73.3-46.6,164.1-97.5,106.7ZM263.5,413.5c-92-53.4,23-227.4,101.6-90.9,40.2,69.8-46.8,122.7-101.6,90.9ZM680.6,290c10.6-8.1,24.5-10.8,37.4-7.1h0c18.9,5.5,31.5,23.3,30.3,43l-4.2,70.7c-1.2,20.1-16.5,36.8-36.5,39.2-93.8,11.6-101-89.3-27-145.8ZM709.7,731.1l-18.3-2.6c-25.9-3.7-42.2-30-34-54.9l10.3-31.3c6-18.1,23.4-29.9,42.4-28.8l7.2.4c21.9,1.3,39.2,19.2,39.7,41.2l.7,33.5c.5,26-22.4,46.3-48.1,42.6Z"/>
  <path d="M371.4,960l4.1-13.8c3.8-12.9,1.2-26.8-6.9-37.5-31.1-40.8-91.5-79.6-133.6-46.7-3.9,3-7.1,6.8-9.6,11-7.8,12.9-11.6,25.1-12.4,36.4,44,30.9,93.1,54.9,145.9,70.4,5.9-5.2,10.3-11.9,12.7-19.8Z"/>
  <path d="M707.6,435.8c20-2.5,35.3-19.1,36.5-39.2l4.2-70.7c1.2-19.7-11.4-37.5-30.3-43h0c-12.9-3.7-26.7-1.1-37.4,7.1-73.9,56.6-66.8,157.4,27,145.8Z"/>
  <path d="M263.5,413.5c54.7,31.8,141.7-21.1,101.6-90.9-78.6-136.5-193.6,37.5-101.6,90.9Z"/>
  <path d="M382,130c32.3-20.2,17.5-80-17.8-111.3-38,10.7-74.2,25.8-108,44.7,4.1,51.3,58.4,108.9,125.8,66.6Z"/>
  <path d="M638.6,107c5.6,10.2,15.4,17.5,26.7,20.3l34.1,8.4c28.7,7.1,55.5-16.8,51.9-46.1l-2.9-23.7c-27.2-15.6-55.9-28.6-86-39-24.9,19.2-40.4,49.9-23.7,80.1Z"/>
  <path d="M717.5,613.9l-7.2-.4c-19-1.1-36.4,10.7-42.4,28.8l-10.3,31.3c-8.2,24.9,8,51.1,34,54.9l18.3,2.6c25.7,3.7,48.7-16.6,48.1-42.6l-.7-33.5c-.5-22-17.7-39.9-39.7-41.2Z"/>
  <path d="M323.6,611.8c-74.8-61.6-125.9,74.8-97.5,106.7,50.9,57.4,186.4-33.4,97.5-106.7Z"/>
  <path d="M715,881.9l-36.2,2.1c-24.5,1.4-42.9,23.4-39.3,47.7,2.3,15.1,11,29.6,22.7,41.4,34.5-11.8,67.4-27.4,98-46.1-.3-3-.7-6-1.2-9.2-3.2-21.6-22.3-37.2-44.1-35.9Z"/>
</svg>