<?xml version="1.0" encoding="UTF-8"?>
<svg id="Layer_1" xmlns="http://www.w3.org/2000/svg" version="1.1" viewBox="0 0 1000 1000">
  <!-- Generator: Adobe Illustrator 29.0.0, SVG Export Plug-In . SVG Version: 2.1.0 Build 186)  -->
  <defs>
    <style>
      .st0 {
        fill: none;
      }
    </style>
  </defs>
  <path class="st0" d="M360.3,643.2c-26,62.3-93,70-133.6,16.3,0,0-24.9-35.1,10.3-70.3s56.1-23,103.8-3.8c47.8,19.2,19.5,57.9,19.5,57.9ZM264.1,412.3c-55.2-30.2-63.3-86.2-21.4-114.5s88.9-16.5,103.9-2.7c53.2,48.8,16.5,171.4-82.5,117.2ZM700.2,321.9c61,40.8.9,176.9-84.1,100-62.1-56.2,27.1-138.1,84.1-100ZM700.9,694.9c-117.9,44.2-128.2-99.8-53.1-121.5,69.3-20,116.8,97.6,53.1,121.5Z"/>
  <path d="M254,139.3c98.5,65.3,158.1-42.7,86.7-113.4-39.5,13.2-76.7,31.3-111.1,53.4-1.6,20.4,5.1,41.9,24.3,60Z"/>
  <path d="M346.6,295.1c-15-13.7-62-25.5-103.9,2.7s-33.7,84.3,21.4,114.5c99,54.2,135.8-68.4,82.5-117.2Z"/>
  <path d="M624.3,147.9c64.5,58.3,154-20.4,112.1-88.6-26.1-14-53.6-25.8-82.2-35.1-43.2,18.4-68.7,88.6-29.9,123.6Z"/>
  <path d="M647.9,573.4c-75.1,21.7-64.8,165.7,53.1,121.5,63.7-23.9,16.2-141.5-53.1-121.5Z"/>
  <path d="M616.2,421.9c85,76.9,145.1-59.2,84.1-100-57-38.1-146.2,43.8-84.1,100Z"/>
  <path d="M340.8,585.3c-47.8-19.2-68.6-31.4-103.8,3.8s-10.3,70.3-10.3,70.3c40.7,53.8,107.7,46,133.6-16.3,0,0,28.2-38.6-19.5-57.9Z"/>
  <path d="M315,964.7c17.8-1.5,33.2-7.9,39.8-19.4,35.6-61.6-80.5-150.1-119.9-66.5-7.7,16.2-8.8,30.2-5.4,41.9"/>
  <path d="M676.2,864.9c-49.3,14.7-60,83.1-30.8,113.6,34-10.3,66.4-24.1,96.9-41.1,4-40.4-17.1-87.2-66.1-72.6Z"/>
</svg>