<?xml version="1.0" encoding="UTF-8"?>
<svg id="Layer_1" xmlns="http://www.w3.org/2000/svg" version="1.1" viewBox="0 0 1000 1000">
  <!-- Generator: Adobe Illustrator 29.0.0, SVG Export Plug-In . SVG Version: 2.1.0 Build 186)  -->
  <defs>
    <style>
      .st0 {
        fill: none;
      }
    </style>
  </defs>
  <path class="st0" d="M354.7,695.9c-95.4,80.7-179.5-65.9-91.7-100.7,73.9-29.3,155.8,46.5,91.7,100.7ZM348.6,421.6c-63.5,37.1-119.2-52.7-71.2-107.5,65-74.2,147.7,62.9,71.2,107.5ZM747,706.4c-26.3,25.4-104.6,20.7-118.5-19.4-7.2-53.4,27.7-95.2,75.5-113.8,50.2-6.7,80.1,97.4,43.1,133.1ZM756.9,392.9c-10.9,29.5-51.2,50.7-90.3,30.5-39.1-20.2-37.3-72-22.7-97.7,15.5-27.3,70.7-52.9,104.1-38.6,33.4,14.3,19.6,76.8,8.8,105.8Z"/>
  <path d="M395.8,109.5c24.4-44.8.4-75.5-34-90.2-39.7,11.4-77.4,27.6-112.4,47.9-6,75.2,104.3,119.7,146.4,42.3Z"/>
  <path d="M704,573.3c-47.8,18.6-82.7,60.4-75.5,113.8,13.9,40.1,92.2,44.7,118.5,19.4,37-35.7,7.2-139.9-43.1-133.1Z"/>
  <path d="M263,595.2c-87.7,34.8-3.7,181.3,91.7,100.7,64.1-54.2-17.8-130-91.7-100.7Z"/>
  <path d="M748,287.1c-33.4-14.3-88.6,11.3-104.1,38.6-14.6,25.7-16.4,77.4,22.7,97.7,39.1,20.2,79.4-1,90.3-30.5,10.7-29,24.6-91.6-8.8-105.8Z"/>
  <path d="M363.8,943.3c13.6-42.1-10.2-63.3-10.2-63.3-41.2-29.7-89.4-34.1-122.4-1.1-10.5,10.5-13.5,22.9-11.3,35.4,35.2,23.9,73.7,43.4,114.6,57.7,12.9-5.1,24.5-13.8,29.3-28.6Z"/>
  <path d="M277.4,314c-48,54.8,7.7,144.6,71.2,107.5,76.4-44.7-6.2-181.7-71.2-107.5Z"/>
  <path d="M634.6,114.8c20.6,20.6,67.1,16.9,97.1,6.3,20.7-7.3,36.7-20.6,41.1-40.3-31.8-20.8-66.2-38-102.5-51.2-4,3-7.8,6.2-11.3,9.7-20.4,20.1-45,54.8-24.4,75.4Z"/>
  <path d="M724.5,879.6c-79.5-33.6-122.4,58.9-79.3,96.6.7.6,1.4,1.2,2.1,1.7,38.6-11.9,75.3-28.3,109.3-48.7,3-19.3-5.4-38.4-32-49.6Z"/>
</svg>