<?xml version="1.0" encoding="UTF-8"?>
<svg id="Layer_1" xmlns="http://www.w3.org/2000/svg" version="1.1" viewBox="0 0 1000 1000">
  <!-- Generator: Adobe Illustrator 29.0.0, SVG Export Plug-In . SVG Version: 2.1.0 Build 186)  -->
  <defs>
    <style>
      .st0 {
        fill: none;
      }
    </style>
  </defs>
  <path class="st0" d="M292.6,298c43-10.9,126.5,111.9,60,138.5-103.7,9.6-164-71-60-138.5ZM395.6,685c-45.8,53-159.2,30.9-138.2-58.7,36.2-154,224.3-40.9,138.2,58.7ZM623.2,686.6c-95.2-83.1,111.1-204.4,119.8-67.7,4.3,68.1-74.1,107.5-119.8,67.7ZM739.7,405.1c-55.6,60.4-172.7,10.1-120.9-78.7,40.7-69.7,181.5,12.9,120.9,78.7Z"/>
  <path d="M257.5,626.3c-21,89.5,92.3,111.7,138.2,58.7,86.1-99.5-102-212.6-138.2-58.7Z"/>
  <path d="M273.7,885c-11.4,16-15.9,34.9-14.8,53.1,39.4,21.7,82,38.3,126.9,48.8,81.6-66.6-63.5-170.2-112.2-101.9Z"/>
  <path d="M662.1,854.7c-52.4,18.7-64.1,90.7-12.7,122.6,39.7-12.4,77.3-29.7,112.1-51,.8-46.1-33.3-95.2-99.4-71.6Z"/>
  <path d="M623.2,686.6c45.6,39.8,124.1.5,119.8-67.7-8.7-136.7-215-15.4-119.8,67.7Z"/>
  <path d="M594,69c-14.8,84.3,123.7,85.1,145.3,47.8,11.5-19.9,9.3-39.6-.9-56.4-32.6-17.7-67.4-31.9-103.9-42.1-19.7,6.1-35.5,21.8-40.6,50.6Z"/>
  <path d="M618.8,326.4c-51.8,88.8,65.3,139.1,120.9,78.7,60.6-65.8-80.2-148.4-120.9-78.7Z"/>
  <path d="M352.6,436.4c66.6-26.5-17-149.3-60-138.5-104,67.5-43.7,148.1,60,138.5Z"/>
  <path d="M330,145.4c52.4-19.7,51-104.2,20.5-122.6-35.7,11.2-69.6,26.2-101.3,44.6-12.8,47.8,9.7,104.8,80.8,78Z"/>
</svg>