<?xml version="1.0" encoding="UTF-8"?>
<svg id="Layer_1" xmlns="http://www.w3.org/2000/svg" version="1.1" viewBox="0 0 1000 1000">
  <!-- Generator: Adobe Illustrator 29.0.0, SVG Export Plug-In . SVG Version: 2.1.0 Build 186)  -->
  <defs>
    <style>
      .st0 {
        fill: none;
      }
    </style>
  </defs>
  <path class="st0" d="M274.2,641.5c-59.8-30.3-36.7-157.8,60.5-116.8,86.6,36.5,26.1,160.7-60.5,116.8ZM347.5,368.1c-29.3,10.8-70.2,33.9-94.3,9.9-24-24-3.7-69.9,6.4-88,43.6-78.3,205.4,34.8,87.9,78.1ZM731.3,629.3s-21.6,19.4-61.3,19.4-56.7-50.1-56.7-70c.5-117.6,194.4-31.8,118,50.6ZM674.2,419.7c-59.3-11.3-77.3-135.8-22.1-155.6,29.9-10.7,93.8-10,116.4,55.7s-35,111.3-94.2,100Z"/>
  <path d="M652.1,264c-55.2,19.8-37.1,144.3,22.1,155.6s116.8-34.3,94.2-100-86.5-66.4-116.4-55.7Z"/>
  <path d="M659.2,154.4c62.9-2.7,83.5-52.6,75.4-96-35.5-18.9-73.6-33.7-113.6-43.6-42.4,43.8-25.3,142.3,38.2,139.6Z"/>
  <path d="M635.8,838.9c-47,18.5-59,117.9-9.3,144.9,32.6-8.5,63.9-20.2,93.5-34.8,27.1-55.4-.9-142.9-84.2-110.1Z"/>
  <path d="M260.3,139.9c53.3,46.8,122.3,2.7,118.3-65.8-1.5-26.7-11.5-43.3-25.5-52.2-41.5,12.7-80.8,30.8-116.9,53.2-5.7,20.3-.3,43.3,24.1,64.7Z"/>
  <path d="M276.3,826.6c-39.1,15.8-46.3,69.9-26.9,106.1,21.8,12.6,44.6,23.7,68.3,33,4.7-.9,9.6-2.2,14.7-4,84.3-30.1,29.1-169.6-56.1-135.1Z"/>
  <path d="M613.2,578.6c0,19.8,16.9,70,56.7,70s61.3-19.4,61.3-19.4c76.4-82.5-117.5-168.2-118-50.6Z"/>
  <path d="M334.6,524.8c-97.2-41-120.3,86.4-60.5,116.8,86.6,43.9,147-80.2,60.5-116.8Z"/>
  <path d="M259.6,290c-10.1,18.1-30.4,63.9-6.4,88,24,24,64.9.9,94.3-9.9,117.5-43.2-44.3-156.4-87.9-78.1Z"/>
</svg>