<?xml version="1.0" encoding="UTF-8"?>
<svg id="Layer_1" xmlns="http://www.w3.org/2000/svg" version="1.1" viewBox="0 0 1000 1000">
  <!-- Generator: Adobe Illustrator 29.0.0, SVG Export Plug-In . SVG Version: 2.1.0 Build 186)  -->
  <defs>
    <style>
      .st0 {
        fill: none;
      }
    </style>
  </defs>
  <path class="st0" d="M247.4,295.4c36.1-13.6,70.1-13.7,94.7,10.9s20.6,93.3-4.3,118.2c-24.9,24.9-67.2,28.3-101.7-6.2-34.5-34.5-24.8-109.3,11.3-122.9ZM316,691.5c-123.7,10-128.1-148.6-1.1-125.4,12.5,2.3,64.8,1.2,64.8,55.3s-50.4,69.1-63.7,70.1ZM738.5,685.6c-12.8,12.8-23.4,15.3-35.9,18.9-46.9,13.8-101,2.6-106.4-53.9-8.2-86.3,113.8-93.8,142.2-28.1,7.4,17.1,13.1,50.2.2,63ZM649.8,407.2c-77.8-60.6,17-175.2,93.2-107.6,46.8,41.6-25.2,160.6-93.2,107.6Z"/>
  <path d="M337.8,424.5c24.9-24.9,28.9-93.6,4.3-118.2s-58.6-24.4-94.7-10.9-45.8,88.4-11.3,122.9c34.5,34.5,76.8,31.1,101.7,6.2Z"/>
  <path d="M286.8,814.4c-40.6,8.9-61.9,65.4-52.9,109,28.8,18.1,59.5,33.4,91.8,45.4,65.8-31.8,48.7-173.6-38.8-154.3Z"/>
  <path d="M700.8,148c46.4,2.7,71.6-28.9,76.8-63.9-37.4-25-78.3-45.1-121.9-59.3-35.9,42.7-32.9,118.8,45.1,123.3Z"/>
  <path d="M243.1,142.4c63.1,59.5,205.2-57,86.4-112.6-37.5,13.6-72.8,31.5-105.5,53.2-2.9,21.6,2.8,44.2,19.1,59.5Z"/>
  <path d="M589.3,923.3c-2.7,28.6,11.8,50,32.2,61.8,37.6-9.4,73.5-23,107.1-40.3,40.4-90.9-127.9-143.7-139.3-21.5Z"/>
  <path d="M596.1,650.7c5.4,56.5,59.5,67.6,106.4,53.9,12.5-3.7,23.1-6.1,35.9-18.9s7.2-45.9-.2-63c-28.4-65.7-150.4-58.2-142.2,28.1Z"/>
  <path d="M314.9,566c-127-23.2-122.6,135.4,1.1,125.4,13.3-1.1,63.7-16,63.7-70.1s-52.3-53-64.8-55.3Z"/>
  <path d="M742.9,299.6c-76.1-67.6-171,47-93.2,107.6,68,53,139.9-66,93.2-107.6Z"/>
</svg>