<?xml version="1.0" encoding="UTF-8"?>
<svg id="Layer_1" xmlns="http://www.w3.org/2000/svg" version="1.1" viewBox="0 0 1000 1000">
  <!-- Generator: Adobe Illustrator 29.0.0, SVG Export Plug-In . SVG Version: 2.1.0 Build 186)  -->
  <defs>
    <style>
      .st0 {
        fill: none;
      }
    </style>
  </defs>
  <path class="st0" d="M279,285.2c12.1-3.4,32.7-2.6,43.9,8.6s19.2,27.2,25.2,43.3c14.7,39.5,3.1,78.7-49.6,99.2-127.1,49.4-92.9-130.7-19.5-151.1ZM267.4,704.8c-8.5-5.1-42.3-18.8-47.1-77.7s67.2-64.6,82.2-62.3c154.6,23.7,34.2,181.5-35.1,140ZM628.7,291.3c77.7-45.9,172.1,133.5,29.6,133.9-98.6.3-107.3-88-29.6-133.9ZM626.8,689.1c-56.7-35,4-166.4,76.9-128.5,73.9,38.4,32.8,196.2-76.9,128.5Z"/>
  <path d="M612.1,74.3c-27.4,69.3,74.7,122.5,122.4,69.8,22.3-24.6,25.6-52.3,17.8-75.9-31.9-18.7-66-33.9-101.9-45.2-14.6,9.2-28.1,25.6-38.2,51.3Z"/>
  <path d="M298.4,436.3c52.7-20.5,64.3-59.7,49.6-99.2-6-16.1-14-32.2-25.2-43.3s-31.8-11.9-43.9-8.6c-73.4,20.5-107.7,200.5,19.5,151.1Z"/>
  <path d="M302.5,564.8c-15-2.3-87,3.3-82.2,62.3s38.6,72.6,47.1,77.7c69.2,41.5,189.7-116.3,35.1-140Z"/>
  <path d="M628.7,291.3c-77.7,45.9-69,134.2,29.6,133.9,142.5-.4,48.1-179.8-29.6-133.9Z"/>
  <path d="M263.9,163.2c74.7,19.2,123-75.3,75-128-2.2-2.4-4.4-4.5-6.7-6.3-41.8,14.9-81,35.2-116.8,60-9.7,30.4.2,61.9,48.6,74.3Z"/>
  <path d="M703.8,560.6c-72.9-37.9-133.6,93.6-76.9,128.5,109.7,67.7,150.9-90.1,76.9-128.5Z"/>
  <path d="M331.7,855.4c-51.2-30.6-104.1,6.1-120.4,52.9,40.9,29,86.3,51.9,135,67.6,36.2-31.7,49.4-82.3-14.5-120.5Z"/>
  <path d="M632.9,982.1c38.7-10.7,75.6-25.9,110-45-.1-5.2-.5-10.8-1.1-16.8-11.1-109.7-161.8-32.8-108.9,61.8Z"/>
</svg>