<?xml version="1.0" encoding="UTF-8"?>
<svg id="Layer_1" xmlns="http://www.w3.org/2000/svg" version="1.1" viewBox="0 0 1000 1000">
  <!-- Generator: Adobe Illustrator 29.0.0, SVG Export Plug-In . SVG Version: 2.1.0 Build 186)  -->
  <defs>
    <style>
      .st0 {
        fill: none;
      }
    </style>
  </defs>
  <path class="st0" d="M265.7,732.4c-23.6-15.8-47.9-157.6,55-133.2,131.3,48.5.5,170.4-55,133.2ZM393.4,442.5c-68.6,84.1-192.4-22.7-129.2-95.2l43-18.8c56.8,18.8,120.5,44.1,86.2,114ZM611.8,326c55.6-60.1,172.7,70,81.9,125-92.1,55.8-139.3-62.8-81.9-125ZM556.4,708.5s-19.9-81.2,54.5-108.3c74.4-27.1,109.4,1.2,117.2,57.2,9.4,99.4-142.8,164.3-171.8,51.1Z"/>
  <path d="M610.9,600.2c-74.4,27.1-54.5,108.3-54.5,108.3,28.9,113.2,181.2,48.2,171.8-51.1-7.9-56-42.8-84.3-117.2-57.2Z"/>
  <path d="M349.4,175.3c47.7-17.7,93.6-79.4,48-123.6-11.9-11.5-40-20.4-67-22.1-22.4,8.1-44.2,17.7-65,28.8-22.8,54.2,16.5,142,84,116.9Z"/>
  <path d="M597.9,134.2c36.3,51.5,137.2-11.9,149-69.1-37.4-21.3-77.9-37.9-120.5-49-27.1,29-48.5,89.7-28.4,118.1Z"/>
  <path d="M307.2,328.5l-43,18.8c-63.1,72.6,60.7,179.3,129.2,95.2,34.3-70-29.4-95.2-86.2-114Z"/>
  <path d="M706.2,875.5c-72.7-74.3-167.3,73.8-106.3,114.5,45.2-9.2,88.1-24.4,127.9-44.8,6.1-22.1,0-47.5-21.6-69.6Z"/>
  <path d="M693.6,451c90.8-55-26.3-185.1-81.9-125-57.5,62.1-10.3,180.8,81.9,125Z"/>
  <path d="M393.8,888.3c-44.7-41.6-84.3-30.4-127,12.3s-17,24.2-15.8,33.1c41.5,23.9,86.7,42,134.6,53.2,62.3-64.9,8.2-98.5,8.2-98.5Z"/>
  <path d="M320.7,599.2c-102.9-24.4-78.6,117.4-55,133.2,55.5,37.2,186.3-84.7,55-133.2Z"/>
</svg>