<?xml version="1.0" encoding="UTF-8"?>
<svg id="Layer_1" xmlns="http://www.w3.org/2000/svg" version="1.1" viewBox="0 0 1000 1000">
  <!-- Generator: Adobe Illustrator 29.0.0, SVG Export Plug-In . SVG Version: 2.1.0 Build 186)  -->
  <path d="M409.4,840.5c128.7-277.1,107.1-343.4,330.9-588,13.1-14.4,89.4-60.8,127.1-91.6C791,78.1,686.8,21.2,569.7,4.8c-160.6,55.9-231.2,589.7-272.7,723.3-19.3,62.1-58.9,119-73.2,174.3-1.1,4.3-2.9,8.2-4.1,11.7,30.5,20.7,63.4,38.1,98.2,51.7,42-9.6,63.7-65.5,91.5-125.3Z"/>
  <path d="M867.1,839.5c1.1-48.3-2.1-114.5,4.9-144.2,31.4-133.7,107.5-246.1,94.8-374.9-11.8-30.8-26.6-60-44-87.5l-129.1,123.5c-58.2,74.7-125,177-131.2,274-3.5,54.5,15.7,103.2,14.1,144.2-2.2,53.5-44.3,141.9-51.7,200.6-.5,3.9-1.4,7-2.4,9.8,95.5-24,180-75.4,244.8-145.5Z"/>
  <path d="M84.2,732.4c78.7-62.5,126.8-321.4,177.6-430.2,46.1-98.7,123.1-180.9,155-286.2-4.2-3.1-9.7-5.1-16-6.1-122.2,24.6-228.3,93.7-300.5,189.7,19.8,165.6-69.7,319.3-68.4,476.4,9.6,25.6,21.3,50.2,34.8,73.5,5.8-4.7,10.5-11.4,17.6-17.1Z"/>
  <path d="M583.2,668.2c-34.3,102.3-84,228.1-166.9,297.3l-29.8,21.5c36.5,8.5,74.4,12.9,113.5,12.9s31-.7,46.2-2.1c6.3-109.1,98.2-227.8,37-329.7Z"/>
</svg>