<?xml version="1.0" encoding="UTF-8"?>
<svg id="Layer_1" xmlns="http://www.w3.org/2000/svg" version="1.1" viewBox="0 0 1000 1000">
  <!-- Generator: Adobe Illustrator 29.0.0, SVG Export Plug-In . SVG Version: 2.1.0 Build 186)  -->
  <path d="M809.9,534.5c9.7-13.6,34.6-18.1,41.6-27.8l111.8-195.2c-28.6-70.3-72.8-132.6-128.2-182.6-106.7,90.6-224.5,227.6-288.2,346.3-52.3,97.6-68.5,223.1-124.5,312.5-27.3,43.5-123,111.2-133.4,165.8,64.1,29.9,135.7,46.6,211.1,46.6s110.5-9.3,161-26.5c-76.6-162.6,60.5-314.8,148.9-439Z"/>
  <path d="M398,10.4c-132.4,27.4-245.6,107.2-317,216.7,1.3,44.3,13.1,126,8.9,165.6-8.9,83.7-46.8,159.8-74.8,229.2,13.8,55,36.7,106.4,67,152.5,83.8-138.7,181.4-560,246.2-674.1,17.3-30.5,61.6-53.3,69.8-90Z"/>
  <path d="M337,577.4c-21.9,63.1-76.2,112.9-73.6,183.8,168.1-141.4,174.1-390.4,321.2-560.5,52.9-61.2,94.5-66.1,153.6-103.7,7.6-4.8,22-9.9,34.5-16.1C696.9,31.5,607,2.1,510.3.1c-24.7,47.1-74.7,158.4-83.1,183.7-39.4,119.2-48.2,272.5-90.2,393.6Z"/>
  <path d="M999.9,511.1c-86.7,106.6-236.1,289.7-250,417.9-.2,1.5-.3,3-.4,4.5,146.8-84.6,246.5-241.7,250.5-422.4Z"/>
</svg>