<?xml version="1.0" encoding="UTF-8"?>
<svg id="Layer_1" xmlns="http://www.w3.org/2000/svg" version="1.1" viewBox="0 0 1000 1000">
  <!-- Generator: Adobe Illustrator 29.0.0, SVG Export Plug-In . SVG Version: 2.1.0 Build 186)  -->
  <path d="M541,1.5c-3.9-.2-7.8-.4-11.6-.6,3.8.2,7.7.5,11.5.8,0,0,0-.1.1-.2Z"/>
  <path d="M500.2,846.7c14.7-99.5,196.8-478.2,263.8-555.3,55.6-64,145.2-76.4,73.2-160.5-44.5-40.6-96.3-73.3-153.2-95.9-36,2.5-71.3,27.8-112.9,78.4-206.6,251.2-132,532.7-269.4,800.1-3.5,6.8-15.8,19.2-24,34.5,63.2,31.4,134,49.9,208.9,51.8,3.3-.3,6.5-.5,9.7-.6.8-50.9-3.7-101.8,3.8-152.6Z"/>
  <path d="M988.6,590.5c2.8-8.8,5.2-17.8,7.4-27,2.6-20.8,4-42,4-63.5,0-98-28.2-189.4-76.9-266.6-25.4,60.6-49.7,169-53.6,178.3-43.6,103-126.6,206.2-157.2,319.4-20.9,77.1-16.5,160.2-37,237.3,54.9-20.6,105.3-50.5,149.1-87.9,2.5-25.8-.3-57.9,10.8-86,26.9-68.7,128.3-124.4,153.5-204Z"/>
  <path d="M206.4,835.9c49.5-153.7,56.7-330.7,118.8-491.8C377.7,207.9,454.3,115.2,540.8,1.7c-3.8-.3-7.7-.6-11.5-.8-11.3-.5-22.1-.8-32.6-.8-53,.3-104.1,8.9-152,24.6-178.2,76.4-86.5,317.2-137.9,528.7-19.2,78.9-68.1,166.1-116,234.1,22.2,31.5,47.8,60.3,76.5,85.9,16.1-.3,30.5-10.5,39.1-37.3Z"/>
  <path d="M183.8,112.6C114.2,169.5,60.2,244.8,29.3,331.1c-11.8,37.2-20.4,75.5-26.3,114.3-1.9,17.9-3,36.2-3,54.6,0,78.7,18.2,153.2,50.6,219.5,54-112.8,50.4-321.8,76.9-439.1,13.6-60.4,58.2-106.1,56.4-167.8Z"/>
</svg>