<?xml version="1.0" encoding="UTF-8"?>
<svg id="Layer_1" xmlns="http://www.w3.org/2000/svg" version="1.1" viewBox="0 0 1000 1000">
  <!-- Generator: Adobe Illustrator 29.0.0, SVG Export Plug-In . SVG Version: 2.1.0 Build 186)  -->
  <path d="M801.8,101.3C724.4,42.7,629.5,6,526.2.7c-6.4,4.2-12.4,9.1-17.8,14.8-48.3,51.2-105.2,287.8-113.4,363-22.1,202.5,37.3,401.8,27.7,603.9,1.6,5.3,4.5,9.6,8.6,13,22.5,3.1,45.4,4.7,68.7,4.7s54.6-2.2,81-6.5c5.6-49.5,21.7-206.5,27.7-434.4,6.7-256.4,167.6-431.5,193.1-457.7Z"/>
  <path d="M253.6,674.6c24.2-199.2-26-348.7,80.3-538.7,27.5-49.2,70.6-82.9,93.5-130.6-123.2,17.9-231.8,80.7-308.7,171.3-10.3,36.5,10,68.5.4,133.7-7.8,52.7-40.3,96.1-46.8,158.3-9.5,90.9,23.3,136.8,24.9,204.2.9,36.7-18.4,71.1-18.1,97.2,27.1,42.1,60.3,79.9,98.4,112.1,47.9-19,71.1-166.4,76.1-207.5Z"/>
  <path d="M855.8,851.3c11-75.2,14.5-222.9,27.6-284.8,22.4-106.1,76.6-193.4,69.9-277.9-25.4-54.4-60.4-103.5-102.7-145.1-21.6,40.9-121,236.5-124.8,380.9-4,153.6-14,403.6-15,429.2,54.4-25.3,103.4-60.1,145.1-102.2Z"/>
</svg>