<?xml version="1.0" encoding="UTF-8"?>
<svg id="Layer_1" xmlns="http://www.w3.org/2000/svg" version="1.1" viewBox="0 0 1000 1000">
  <!-- Generator: Adobe Illustrator 29.0.0, SVG Export Plug-In . SVG Version: 2.1.0 Build 186)  -->
  <path d="M658.9,636.8c-5.6-55.7-36.7-115.3-41.5-174.3-11.2-139.5,68.9-274.7,119.9-402.6C669.9,23.4,593.1,2,511.4.1c-23.1,21.8-41.7,65-60.9,140.5-78.3,308,53.6,449.7,91.7,728.2,3.9,28.3-1.3,84.6,1.6,129.3,36.3-3.2,71.5-10.2,105.1-20.7-2.6-17.3-5.2-35.2-5.2-51.9.2-95.1,24.1-200.9,15.2-288.8Z"/>
  <path d="M285.2,420.4c-.4-83.3-29.8-131.3.8-228.4,22.9-72.5,90.8-118.3,119.1-183-129.6,24.9-241.4,99.9-314.5,204-7,26.7-9.3,56.9-6,91.1,4.5,46.3,31.6,92.8,38.1,134.9,18.7,121.5,45,275.7,4.2,393.7,26.7,29.9,56.9,56.6,90,79.4,77.4-143.5,69.2-332.2,68.4-491.7Z"/>
  <path d="M854.7,852.4c58.7-87.8,47.3-215.4,67.1-312.9,11.3-55.6,57.8-126.1,60.2-161.9.2-3.4.2-7,0-10.7-27.7-100.6-86-188.5-164.4-253-7,16.1-12.1,30-14,35.1-99.4,270.9,9.4,474,8.6,741.5,14.8-11.9,29-24.6,42.4-38.1Z"/>
</svg>