<?xml version="1.0" encoding="UTF-8"?>
<svg id="Layer_1" xmlns="http://www.w3.org/2000/svg" version="1.1" viewBox="0 0 1000 1000">
  <!-- Generator: Adobe Illustrator 29.0.0, SVG Export Plug-In . SVG Version: 2.1.0 Build 186)  -->
  <path d="M587.2,339.6c10.9-64.3,99-251.4,85.7-305.7-.3-1.2-.7-2.4-1.1-3.6C621.2,11.8,566.9,1.2,510.2.1c-40.8,69.3-88.9,253.8-94.2,305.6-18.1,177.5,55.4,293.1,61.9,457,3,76-22.1,156.5-19.2,235.6,13.6,1.1,27.3,1.7,41.2,1.7,91.5,0,177.2-24.6,251-67.5.3-.7.6-1.3.9-2-111.5-153.3-197.1-399.6-164.6-591Z"/>
  <path d="M280.3,291.9c10.2-90.5,55.3-187.6,86.4-273.9C215.5,59.7,93.1,170.6,35.6,314.4c9.9,54.5,45.5,96.1,59.5,144.2,33.2,113.8,51.6,260.1,41.4,384.7,44.7,47.3,98.6,85.9,158.8,113,23.3-212.9-38.1-459.6-15-664.4Z"/>
  <path d="M951,671.1c-3.4-27.3-57.3-37.7-62.9-122.1-7.8-118.3,43.4-246.6,4.5-358.4-32.4-41-71-76.8-114.5-106-25.3,33.1-8.1,154.1-11.9,190.3-19.4,187.6-80.9,434.3,95.9,569.8,36.2-38,66.5-81.8,89.3-129.8,1.5-13.6,1.4-28.1-.6-43.8Z"/>
</svg>