<?xml version="1.0" encoding="UTF-8"?>
<svg id="Layer_1" xmlns="http://www.w3.org/2000/svg" version="1.1" viewBox="0 0 1000 1000">
  <!-- Generator: Adobe Illustrator 29.0.0, SVG Export Plug-In . SVG Version: 2.1.0 Build 186)  -->
  <path d="M580.5,763.1c-3.3-184.5-103.4-486.5-19.7-658.3,17.5-35.9,56.9-54,72.8-86.8C591,6.3,546.2,0,500,0s-18,.2-26.9.7c-37.2,11.6-66,39.4-94.9,104.4-55.2,124.1-73.5,324.2-56.7,458.7,8.9,71.7,60.4,153.4,71.3,218.1,7.5,44.2-7.9,159.9,10.8,208.8,31.2,6.1,63.4,9.3,96.4,9.3s57.7-2.5,85.5-7.3c-46.8-79.7-3.7-154.2-5-229.6Z"/>
  <path d="M333,28.6c-97.8,34.6-181.6,98.8-240.6,181.8-45.3,142.3-47.2,439.5,16.1,600.6,54.9,69,127.6,123.1,211.2,155.5-94-296.3-154.9-658.7,13.3-937.9Z"/>
  <path d="M933.7,749c-12.3-24.7-30.7-52.5-41.9-85.2-62.4-182.5-64-359.6-75.9-548.8l-17.5-16.2c-34.1-25.4-71.5-46.5-111.5-62.7-74.3,151.7-69.2,374.8,8.3,519.6,48.6,90.7,155.4,184.2,153.4,302.7,33.2-32.3,61.9-69.1,85.1-109.5Z"/>
  <path d="M749.5,775.7c-7.7-16.8-74.5-128.2-83.2-137.6-7-7.5-29.5-14.4-41.2-19.7-7.9,9.6,45.1,185.9,46,221.5,1.2,44.4-20.9,101-23.8,138,47.5-14.6,92-36.2,132.4-63.4.7-47.7-10.3-95.2-30.2-138.8Z"/>
</svg>