<?xml version="1.0" encoding="UTF-8"?>
<svg id="Layer_1" xmlns="http://www.w3.org/2000/svg" version="1.1" viewBox="0 0 1000 1000">
  <!-- Generator: Adobe Illustrator 29.0.0, SVG Export Plug-In . SVG Version: 2.1.0 Build 186)  -->
  <path d="M538.7,728.4c-5.7-83.6-42.7-180.5-45-262.4-2.5-87.3,23.7-190.7,13.6-290.1-3-29.4-25.9-134-56.5-173.9-66.4,6.5-129,26-185.2,55.9,84.4,122.6,56.4,282.8,58.1,425.9.4,36.3-17,69.5-16.6,106.2,0,2,0,4,.1,6,0,.4,0,.8,0,1.1,0,1.6,0,3.3.2,4.9,0,.1,0,.2,0,.4,5,122.4,60.8,258.8,63.2,380.3,41.3,11,84.6,16.9,129.4,16.9s15.6-.2,23.3-.5c4.1-73.9,16.5-151.9,16.7-227.7,0-14.4-.3-28.7-1.3-42.9Z"/>
  <path d="M775.2,870.5c7.1-49.9,17.5-117.7,31.7-164.9,39-129.5,146.1-281,144.8-420.9-25.2-53-59.5-100.9-100.9-141.6-12.9,45.8-25.5,121.3-33,142.9-36.6,104.8-117.8,197.8-149,312.1-33.6,123.4-25.3,256.1-36.8,383.7,50.2-13.7,97.2-35,139.8-62.6,0-13.5.7-29.6,3.4-48.8Z"/>
  <path d="M153.4,729.6c-64.8-198.2,1.1-416.9,30.4-617.4C71.6,203.9,0,343.3,0,499.5s85.8,321.8,216.7,412c7.1-69.5-42.7-119.1-63.3-182Z"/>
  <path d="M574,453c-6.6,53.4,18.4,103.9,18.4,103.9,20.5-102.3,170.8-356.7,177.9-478C700.5,33.9,618.8,5.8,530.9.5c94.9,120.9,49.5,400.5,43.1,452.5Z"/>
</svg>