<?xml version="1.0" encoding="UTF-8"?>
<svg id="Layer_1" xmlns="http://www.w3.org/2000/svg" version="1.1" viewBox="0 0 1000 1000">
  <!-- Generator: Adobe Illustrator 29.0.0, SVG Export Plug-In . SVG Version: 2.1.0 Build 186)  -->
  <path d="M335.2,60.6h0c21.5,28.6,76.9,30,94.5,36.4,21,7.7-5.1,68.7,57.3,68.7s45.9-40,52.3-74.1c6.4-34.1,121.1,19.9,121.1-39.2s-.7-21-1.9-26.8c-10.2-3.4-20.6-6.5-31.1-9.3-1.2-.2-2.5-.5-3.8-1-.2,0-.4-.1-.6-.2-27.6-7-56.2-11.7-85.4-13.9-.1,0-.2,0-.3,0-12.8-.7-25.7-1-37.9-.9-11.8,0-23,.3-33.3.7-41.2,2.8-81.1,10.5-119,22.7-16.9,8.8-25.2,20.8-11.9,36.8Z"/>
  <path d="M583.6,436.7c25.6-36.8,33.3-74.1,26.7-105.1l-27.9,7.1s0,0,0,0h0c8.3,47.4-28.7,109.9-75.2,128.7-24.3,9.8-51.2,7.7-75.5-14.7-27.2-25.1-23.9-70.6-3.5-107.9,0-.1.1-.3.2-.4.2-.4.4-.8.6-1.2.2-.3.3-.6.5-.9.2-.3.4-.6.5-.9.2-.4.4-.7.6-1.1.2-.3.3-.5.5-.8.3-.4.5-.9.8-1.3.1-.2.2-.4.4-.6.3-.5.6-1,1-1.5,0-.1.2-.2.2-.4,24.4-37.9,66.6-64,110.8-44.7h.1l27.2-16.5c-24.5-16-59-22-100.5-12.5-68.7,15.7-125.5,158-50,214.3,23.5,17.6,45.8,25.1,66.5,24.8-20.7.3-42.9-7.2-66.4-24.8-75.5-56.3-18.7-198.6,50-214.3-68.7,15.7-125.5,158-50,214.3,23.5,17.5,45.7,25.1,66.4,24.8,37-.6,69.3-26.2,96.1-64.6Z"/>
  <path d="M524.3,359.9c-.4-.4-.9-.8-1.3-1.1-9.7-8-19.2-11.2-27.9-11.1-41.2.5-63.1,77.3,1.4,80.8.6,0,1.2,0,1.9,0,38.5.5,48.5-49.2,25.9-68.7Z"/>
  <path d="M544.2,291.2c22.7,10,34.5,27.4,38.1,47.4l27.9-7.1s0,0,0,0h0c-5.1-23.7-18.6-43.8-38.8-57h-.1c0,0,0,0,0,0l-27.2,16.5Z"/>
</svg>