<?xml version="1.0" encoding="UTF-8"?>
<svg id="Layer_1" xmlns="http://www.w3.org/2000/svg" version="1.1" viewBox="0 0 1000 1000">
  <!-- Generator: Adobe Illustrator 29.0.0, SVG Export Plug-In . SVG Version: 2.1.0 Build 186)  -->
  <defs>
    <style>
      .st0 {
        fill: none;
      }
    </style>
  </defs>
  <g>
    <path d="M537.6,1.4c29.3,2.2,57.9,6.9,85.6,13.9-23.2-8.2-54.4-12.3-85.6-13.9Z"/>
    <path class="st0" d="M583.6,436.7c-41.8,59.9-97.1,88.7-162.6,39.8-75.5-56.3-18.7-198.6,50-214.3"/>
    <path class="st0" d="M537.6,1.4c-12.4-.9-25-1.4-37.6-1.4s-23.7.4-35.4,1.2c21.1-.9,47.1-1.2,73.1.2Z"/>
    <path class="st0" d="M544.1,291.2c-89.3-39.2-170.8,107.8-112.6,161.4M496.5,428.5c-78.6-4.3-28.9-117.4,27.8-68.6,22.9,19.8,12.2,70.8-27.8,68.6Z"/>
    <path d="M335.2,60.7c21.5,28.5,76.9,29.9,94.5,36.3,21,7.7-5.1,68.7,57.3,68.7s45.9-40,52.3-74.1c6.4-34.1,121.1,19.9,121.1-39.2s-14.8-29.1-37.1-37.1c-27.7-7-56.3-11.7-85.6-13.9-26-1.4-51.9-1.1-73.1-.2-40.6,2.8-79.8,10.5-117.1,22.4-17.2,8.8-25.8,20.9-12.3,37Z"/>
    <path d="M582.2,338.8c12.7,71.9-79.8,179.3-150.7,113.9-58.2-53.7,23.2-200.6,112.6-161.4l27.3-16.6c-24.5-16-59-22-100.5-12.5-68.7,15.7-125.5,158-50,214.3,65.5,48.9,120.8,20.1,162.6-39.8,25.6-36.8,33.3-74.1,26.7-105.1l-28,7.1Z"/>
    <path d="M524.3,359.9c-56.7-48.8-106.5,64.3-27.8,68.6,40,2.2,50.8-48.8,27.8-68.6Z"/>
  </g>
  <path class="st0" d="M618.4,220.9"/>
  <path d="M544.1,291.2c22.8,10,34.6,27.4,38.2,47.5l28-7.1c-5.1-23.7-18.6-43.8-38.8-57l-27.3,16.6Z"/>
</svg>