<?xml version="1.0" encoding="UTF-8"?>
<svg id="Layer_1" xmlns="http://www.w3.org/2000/svg" version="1.1" viewBox="0 0 1000 1000">
  <!-- Generator: Adobe Illustrator 29.0.0, SVG Export Plug-In . SVG Version: 2.1.0 Build 186)  -->
  <defs>
    <style>
      .st0 {
        fill: none;
      }
    </style>
  </defs>
  <g>
    <path d="M570.7,10.8c26.7,3.8,52.6,9.6,77.8,17.4-13-11.1-45.9-15.5-77.8-17.4Z"/>
    <path class="st0" d="M550.1,460.9c-95.9,87.7-216-31.5-160-140.9,9.1-17.7,63.3-65.5,82.2-70.4"/>
    <path class="st0" d="M570.7,10.8c-23.1-3.3-46.7-5-70.7-5s-14.9.2-22.3.5c7.5,1.2,14.7,2.2,21.7,2.6,10.4.6,40.4,0,71.3,1.9Z"/>
    <path class="st0" d="M491.2,278.1c-74.1,15.5-116,113.6-55.3,165.3M520.1,407c-26.7,26.1-76.3.4-67.9-33.3,18.6-74.3,109.6-7.4,67.9,33.3Z"/>
    <path d="M371.9,65c41.2-9,56.6.8,65.8,10.9,15.3,16.8,5.9,47,25.2,67.5,12.3,13,54.8,29.8,70.4,12.5,9.2-19,20.1-65.2,37.5-75.5,17.5-10.4,65.7-1.4,81.4-32.8,4-8,2.1-14.3-3.7-19.2-25.1-7.8-51.1-13.7-77.8-17.4-30.9-1.8-60.9-1.3-71.3-1.9-6.9-.4-14.2-1.4-21.7-2.6-45.8,2-89.9,10.2-131.7,23.7-1.6,18.6,1.4,40.3,25.8,35Z"/>
    <path d="M609,343.3c4.4-65.2-37.4-119.3-136.7-93.7-18.9,4.9-73.1,52.7-82.2,70.4-55.9,109.4,64.1,228.6,160,140.9l-3.6-32.7c-27.6,33.9-68.9,50.5-110.6,15.1-60.8-51.7-18.9-149.8,55.3-165.3,61.9-13,87.1,17.4,88.5,57l29.2,8.2Z"/>
    <path d="M452.2,373.6c-8.4,33.7,41.1,59.4,67.9,33.3,41.7-40.7-49.3-107.7-67.9-33.3Z"/>
  </g>
  <path d="M550.1,460.9c35.6-32.6,56.1-77.3,58.9-117.7l-29.2-8.2c1.1,30.7-12,67.1-33.2,93.2l3.6,32.7Z"/>
</svg>