<?xml version="1.0" encoding="UTF-8"?>
<svg id="Layer_1" xmlns="http://www.w3.org/2000/svg" version="1.1" viewBox="0 0 1000 1000">
  <!-- Generator: Adobe Illustrator 29.0.0, SVG Export Plug-In . SVG Version: 2.1.0 Build 186)  -->
  <g>
    <path d="M554.8,426.2c-20.9,35.4-62.2,50.8-122.5,8-61.2-43.5-30.7-160.3,43.2-172.5,52.2-8.6,82.4,26.9,91.9,70.1l31.6.2c-13.3-62-61-114.9-133.4-98.7-149.8,33.6-110.3,291.3,53.1,253.4,34-7.9,57.1-29,70.3-56l-34.2-4.6Z"/>
    <path d="M338,48.9c18.1,15.5,77,14,77,14,28.3,24-9.6,105.8,85.9,97.2,47.5-4.2,32.2-80.8,71.3-106.8,13.1-8.7,37.5-4.5,61.7-4.5s26.9-14.1,11.5-27.3C603.4,8.7,558.9,1.3,512.9.2c-4.8,0-9.7-.1-14.7-.2-58.1.2-113.9,10.3-165.8,28.8-2.3,6.2-2.1,13.5,5.6,20.1Z"/>
    <path d="M486.9,321.1c-39.5,0-37.7,41.5-36.3,65.8,5.4,22.7,44.9,34.2,63.3,23.6,4.5-2.6,20-24.9,20-48.4s-7.5-41-47.1-41Z"/>
  </g>
  <path d="M589,430.8c14.4-29.2,17.2-65.3,10-98.7l-31.6-.2c7.1,32.1,2.7,68.5-12.6,94.4l34.2,4.6Z"/>
</svg>