<?xml version="1.0" encoding="UTF-8"?>
<svg id="Layer_1" xmlns="http://www.w3.org/2000/svg" version="1.1" viewBox="0 0 1000 1000">
  <!-- Generator: Adobe Illustrator 29.0.0, SVG Export Plug-In . SVG Version: 2.1.0 Build 186)  -->
  <g>
    <path d="M344.4,45.9c-1.6,24.1,51.2,5.3,63.7,10.2,52,20.5,4.5,100.8,91.2,100.9,73.2,0,42.7-49,68.7-80.5,9.6-11.6,30.6-14.6,46.2-23.3,8.9-4.9,13.6-14.9,11.8-24.7-.6-3.4-2-8.3-3.9-13.5-39.1-9.8-80-15-122.2-15s-105.7,8.5-154.3,24.2c-2.1,10.5-1.2,19.8-1.3,21.7Z"/>
    <path d="M593.6,410c38-79.8,7.3-186.9-125.9-162.2-130.2,24.1-138.4,246.3,7.5,242.7,25.2-.6,47.3-8.1,66-20l-13.7-27.5c-38.1,26.4-87.7,29.6-112.8-5.3-18.2-25.3-17-98.1,2.4-123.4,28.6-37.5,135.9-66.1,156.2-1,8.7,27.8,6.7,53.6-2.1,75.6l22.4,21.1Z"/>
    <path d="M466.8,334.4c-33.6,11.2-18.2,93.5,26.6,85.1,52.9-10,44.7-109-26.6-85.1Z"/>
  </g>
  <path d="M541.3,470.5c23.1-14.8,40.9-36.4,52.4-60.5l-22.4-21.1c-9,22.5-25,41.2-43.7,54.2l13.7,27.5Z"/>
</svg>