<?xml version="1.0" encoding="UTF-8"?>
<svg id="Layer_1" xmlns="http://www.w3.org/2000/svg" version="1.1" viewBox="0 0 1000 1000">
  <!-- Generator: Adobe Illustrator 29.0.0, SVG Export Plug-In . SVG Version: 2.1.0 Build 186)  -->
  <g>
    <path d="M603.3,352.2c-3.1-68.4-50.7-129.8-152.9-106.3-93,21.4-128.4,208.4-16.9,246.2,84.4,28.7,140.9-18.9,161.4-80.2l-35.2-6.6c-15.7,39.6-56.2,60.3-110.8,51-125.6-21.3-20.2-254.3,93.1-158.9,7.9,6.7,20.8,32.4,22.6,43.2l38.8,11.4Z"/>
    <path d="M347.7,29.4c-13,13.5-2.9,36.1,15.9,35.9l34.6-.4c9.1,0,17.2,5.5,20.3,14,0,0,18.2,73.9,77.6,73.9s45.7-65.9,67.3-83c18-14.3,72.6,19.6,72.6-37.1s-2.9-11.6-8.1-16.2C587.1,5.7,544.2,0,500,0s-93.7,6.7-137.3,19.1c-5.9,3-10.8,6.2-14.3,9.6-.2.2-.4.4-.6.6Z"/>
    <path d="M457.7,417.5c38.7,31.6,99-36,64.3-69.6-49.2-47.5-108.3,33.6-64.3,69.6Z"/>
  </g>
  <path d="M594.8,412.1c6.4-19.2,9.3-39.8,8.4-59.8l-38.8-11.4c4.2,24.7,2.2,46.6-4.9,64.6l35.2,6.6Z"/>
</svg>