<?xml version="1.0" encoding="UTF-8"?>
<svg id="Layer_1" xmlns="http://www.w3.org/2000/svg" version="1.1" viewBox="0 0 1000 1000">
  <!-- Generator: Adobe Illustrator 29.0.0, SVG Export Plug-In . SVG Version: 2.1.0 Build 186)  -->
  <g>
    <path d="M592.4,285.1c-11.3-10.4-83.5-48.7-99.2-50.9-145.8-20.1-185.6,203.7-71.7,255.4,66.1,30,123.6-2.1,158-50.4l-41.2,12.6c-28.5,24.6-98.4,27.3-124.2,1.7-42.9-42.6-27.2-193.9,57.9-188.8,19.6,1.2,81,28.4,94.1,41.7l26.3-21.4Z"/>
    <path d="M334.6,55.7c10.3,32.8,21.1,28.3,37.2,29,7.3.3,18.7-1.4,28.8-3.4,11.1-2.2,21.6,5.5,23.3,16.6,10.8,71.8,99.9,85.8,126.5,13.1,5-13.5,17.4-22.9,31.8-23.4,23.4-.8,55.8-3.8,66.9-14,8.1-7.4,16-31.7,2.7-50.3-42-13.4-86.4-21.4-132.3-23.1-10.2.2-20.7.3-31.6.4-7.6,0-14.8.2-21.8.3-45.5,3-89.4,12.2-130.7,26.6-5.3,7.9-4.2,17.3-.9,28Z"/>
    <path d="M456.7,331.6c-30.1,10.1-22.5,91.3,25.4,84.3,72.1-10.5,52.6-110.6-25.4-84.3Z"/>
  </g>
  <path d="M579.6,439.3c37.1-51.9,47.4-122.5,12.9-154.2l-26.3,21.4c31.5,31.7,1.4,120.3-27.8,145.5l41.2-12.6Z"/>
</svg>