<?xml version="1.0" encoding="UTF-8"?>
<svg id="Layer_1" xmlns="http://www.w3.org/2000/svg" version="1.1" viewBox="0 0 1000 1000">
  <!-- Generator: Adobe Illustrator 29.0.0, SVG Export Plug-In . SVG Version: 2.1.0 Build 186)  -->
  <g>
    <path d="M620.9,347.3c25.6-115.5-78.9-200.7-209.9-126.8-71.8,40.5-87.8,186.8-23.3,245.7,53.5,48.8,153.5,18.4,193.9-36.5l-23.9-24.6c-46.8,58.6-126.1,88.4-171.8.1-19.4-37.6-7.1-117.5,20.7-145.6,26-26.2,111.2-38.7,145.7-20.7,41.4,21.7,49.5,62.2,38.4,102.8l30,5.6Z"/>
    <path d="M360.1,24.6c-4.6,7-1.8,29,9.2,34.7,66.8-3.4,59.1,21,91.8,49,81.3,69.8,76.3-13.5,109.5-29.3,22-10.5,81.3,2.9,81.1-40.2,0-9.4-3.1-14.4-7.8-17.8-28.1-8.4-57.3-14.5-87.2-17.9-44.5-2.2-99.9-1.3-140.8,3.9-14.7,2.5-29.2,5.6-43.4,9.4-6.1,2.4-10.4,5.1-12.4,8.2Z"/>
    <path d="M435,331.3c-34,114.2,155.2,62.5,91.5-13.7-26.3-31.4-79.1-28-91.5,13.7Z"/>
  </g>
  <path d="M581.7,429.6c20.7-28,33.3-56,39.2-82.4l-30-5.6c-6.1,22.1-17.8,44.3-33.1,63.4l23.9,24.6Z"/>
</svg>