<?xml version="1.0" encoding="UTF-8"?>
<svg id="Layer_1" xmlns="http://www.w3.org/2000/svg" version="1.1" viewBox="0 0 1000 1000">
  <!-- Generator: Adobe Illustrator 29.0.0, SVG Export Plug-In . SVG Version: 2.1.0 Build 186)  -->
  <g>
    <path d="M356.9,77.4c31.7,6.9,71.4,1.1,86.3,11.2,16.8,11.5,2.9,53.8,61.7,61.3,88.9,11.3,61.3-55.2,71.7-65.8,5.5-5.6,138.8,18.5,95-53.9C618,10.7,560.2,0,500,0s-107.5,8.8-156.9,25.1c-1.8,2.7-3.5,5.5-5.2,8.4-10.3,17.3-.7,39.6,18.9,43.9Z"/>
    <path d="M585,432.6c40.6-60.7,56.3-146.4,10.2-191.1-51-49.3-152.7-32.5-199.5,16.2-84.3,87.5-37.3,258.3,97.5,242.6l-23.8-28.6c-92.6-10.6-114.7-131.3-58.3-194.2,35-39.1,138.8-54.2,172.8-2.2,26.3,40.2,11.7,104.2-22.1,148.2l23.2,9Z"/>
    <path d="M437.8,398.9c37.9,31.5,147.8-38.5,101.6-88.1-52.1-47-140,56.2-101.6,88.1Z"/>
  </g>
  <path d="M493.2,500.3c34.2-4,67.5-31.3,91.8-67.7l-23.2-9c-23.8,31-57.1,52.2-92.3,48.2l23.8,28.6Z"/>
</svg>