<?xml version="1.0" encoding="UTF-8"?>
<svg id="Layer_1" xmlns="http://www.w3.org/2000/svg" version="1.1" viewBox="0 0 1000 1000">
  <!-- Generator: Adobe Illustrator 29.0.0, SVG Export Plug-In . SVG Version: 2.1.0 Build 186)  -->
  <path d="M396.9,707.9c-47.7-63.3-281.7-61.1-358.4-43.2-3.4.8-6.7,1.6-9.8,2.5,6.6,18.7,14.3,36.8,23,54.4,94.4-9.9,195.5-34.8,288.1,13.4,38,30.2,24.5,184.1,28.8,247.6,13.9,3.8,28,6.9,42.3,9.5l25.8,1.4c-26.4-83.2,13.5-214.8-39.8-285.6Z"/>
  <path d="M310.8,887.4c-15.8-102.3-119.8-152.8-228.9-113.2,55,83.7,134.5,149.9,228.3,188.5,3.5-27.8,3.5-56.6.6-75.3Z"/>
  <path d="M700.5,758.3c35.4-35.4,175.1-48,255.2-52.4,7.6-16.9,14.4-34.2,20.1-52-257.4,4-415.8,0-336.7,326.5,16-4.6,31.6-10,46.9-16.1-9.2-52.6-23.9-167.6,14.5-205.9Z"/>
  <path d="M738.5,939.6c83.1-45.2,151.9-113.2,198.1-195.6-125.6-.7-247.8,64.6-198.1,195.6Z"/>
</svg>