<?xml version="1.0" encoding="UTF-8"?>
<svg id="Layer_1" xmlns="http://www.w3.org/2000/svg" version="1.1" viewBox="0 0 1000 1000">
  <!-- Generator: Adobe Illustrator 29.0.0, SVG Export Plug-In . SVG Version: 2.1.0 Build 186)  -->
  <path d="M434.4,878.3c-17.7-81.3-68.1-179.3-103.8-198.4-66.9-35.8-193.4,12.1-280.8,37.8,7.1,14.6,14.8,28.8,23.2,42.5,65.8-19.7,170.8-75.2,239.9-36,51.2,29.1,89.5,197,76.7,263.5,16.5,3.7,33.3,6.6,50.4,8.7,2.1-40.2-.2-93.2-5.7-118.2Z"/>
  <path d="M766.9,667.5c-61.9-9.1-187.2,3.5-211,71.7-11.1,31.6-8.9,85.5-8.2,137.4.4,30.3,7.1,87.2,5.8,120.7,14.3-1.5,28.5-3.6,42.4-6.4-1.1-27.4-2.6-72-2.6-114.4,0-67.7,12.6-158.4,103.5-168.6,62.2-6.9,168.8,33,233.7,46.8,7.2-12.1,13.9-24.6,20-37.3-57.4-25.8-166.6-47.3-183.6-49.8Z"/>
  <path d="M632.5,982.2c109.2-29.9,203.4-95.9,269.1-184.4-195.6-62.9-286.3-35.8-269.1,184.4Z"/>
  <path d="M102.5,803.4c57.3,74.9,135.3,133.2,225.5,166.2-2.1-40.3-9.6-127-36.8-176-23.8-42.8-124.5-24.3-188.7,9.8Z"/>
</svg>