<?xml version="1.0" encoding="UTF-8"?>
<svg id="Layer_1" xmlns="http://www.w3.org/2000/svg" version="1.1" viewBox="0 0 1000 1000">
  <!-- Generator: Adobe Illustrator 29.0.0, SVG Export Plug-In . SVG Version: 2.1.0 Build 186)  -->
  <path d="M470.9,841.4c-8.9-221.6-198-248-434.9-154.8,6.4,15.8,13.5,31.3,21.4,46.2,208.8-43.4,333.2-91.3,349.8,108.5,2.6,31.5,9.9,98.4,9.2,151.7,17.8,3,35.9,5,54.3,6.1,6.1-52.7,1.6-122.9.2-157.8Z"/>
  <path d="M947.2,659.7c-71.7-10.6-240.2-35.3-301.9-24-91.5,16.8-93.7,111.1-81.1,200.4,5.2,36.9,13,113,18,157.1,19.1-3.2,37.9-7.4,56.2-12.7-1.8-48.6-10.8-114-17.9-149.2-10.2-50.6-16.3-98.7,9-124.9,41.1-42.5,235.7,10,319.5,13.7,8.7-17.8,16.4-36.1,23.1-55-7.3-2.2-15.6-4.1-24.8-5.4Z"/>
  <path d="M826,763.3c-36.3-2.5-115.8-3.7-141.5,21.9-20.8,20.8,4.9,132.2,15.2,173.3,82-35.8,152.5-92.9,204.6-164.4-14.9-16.6-40.9-28.3-78.3-30.9Z"/>
  <path d="M320.2,787.7c-24.5-24.5-150.1-7.4-209.6,26,59.1,73.3,138.4,129.5,229.5,160.2,2.7-45,6.6-159.7-19.9-186.2Z"/>
</svg>