<?xml version="1.0" encoding="UTF-8"?>
<svg id="Layer_1" xmlns="http://www.w3.org/2000/svg" version="1.1" viewBox="0 0 1000 1000">
  <!-- Generator: Adobe Illustrator 29.0.0, SVG Export Plug-In . SVG Version: 2.1.0 Build 186)  -->
  <path d="M485.3,785.7c-22-112.2-133-143-234.1-130.5-9.5,1.2-79.5,15.7-136.2,34.8-18.1,6.1-42.9,15.4-66.2,25.5,6.2,13,13,25.8,20.3,38.1,24.4-5.9,49.1-12.5,66.2-16.6,106-25.3,267.9-69.3,299.5,64.1,9.1,38.2,3,125.2,2.7,194.9,15.8,2,31.9,3.2,48.2,3.7,6.7-83.2,3.6-193.4-.4-214.1Z"/>
  <path d="M356.8,801.4c-21.2-33.4-173.8-23.5-253.3,3.3,67.4,87.5,163.1,152.1,273.4,180,1.6-45.9,2.4-147.9-20.1-183.4Z"/>
  <path d="M732,668.7c-43.8,4.7-143.4.3-143.4,59.2s-7.4,125.9-7.4,125.9l-5.3,140.4c19-2.9,37.6-6.8,55.8-11.8-3.6-51.5-5.2-117.6-4.8-142.3,1.8-112.1,49.3-122.1,134.5-119.1,33.1,1.2,119.3,4.3,185,4.3,10.6-21,19.8-42.9,27.5-65.5-65.1-.9-184.9,2.8-241.9,8.9Z"/>
  <path d="M743,785.5c-64.2,24.5-54.3,101-41.7,172.3,89.4-39.4,165-104.1,217.8-185.2-66.1-5.3-157.2,5.6-176.2,12.8Z"/>
</svg>