<?xml version="1.0" encoding="UTF-8"?>
<svg id="Layer_1" xmlns="http://www.w3.org/2000/svg" version="1.1" viewBox="0 0 1000 1000">
  <!-- Generator: Adobe Illustrator 29.0.0, SVG Export Plug-In . SVG Version: 2.1.0 Build 186)  -->
  <path d="M348.7,978.6c.1-.6.2-1.2.3-1.8-5.8-1.8-11.6-3.8-17.3-5.8l17,7.7Z"/>
  <path d="M318.7,643c-93.6-5.9-186.1,45.5-276.2,59.2,7.3,16.6,15.6,32.7,24.6,48.3,41.7-3.7,110.3-40.8,139.8-46.7,39.7-8,112.9-21.6,146-2.4,56,32.4,67.9,228.8,74.5,291,0,.9.2,1.7.2,2.5,10.7,1.6,21.6,2.8,32.5,3.6,16.7-116.7-9.2-347.1-141.6-355.5Z"/>
  <path d="M725.4,704.9s141.7,12.5,227.6,7.1c6.5-13.9,12.4-28.2,17.7-42.9-72.9-13.6-209.3-12-238.6-13.3-77.5-3.3-135.7,33.6-141.6,123.5-1.3,20.6,3.2,96.9,17.2,150.4,2.4,9,6.9,30.4,12.8,55.6,12.3-3,24.3-6.5,36.2-10.4-4.7-20.9-8.8-38.8-10.1-48.7-10.5-84.3-35.5-229.6,78.7-221.3Z"/>
  <path d="M695,815.9c-11.5,57.1,10.6,118.5,17.9,136.6,81.4-38.4,150.8-98.1,201-171.9-66.7-32.5-208.1-18.5-218.9,35.3Z"/>
  <path d="M298.9,791.7c-14.8-9.1-126.6,19.9-157.8,56.4,34.3,35.4,73.9,65.7,117.3,89.8l73.3,33.1c5.7,2,11.5,4,17.3,5.8,13-68.2-4.3-132.8-50.2-185.1Z"/>
</svg>