<?xml version="1.0" encoding="UTF-8"?>
<svg id="Layer_1" xmlns="http://www.w3.org/2000/svg" version="1.1" viewBox="0 0 1000 1000">
  <!-- Generator: Adobe Illustrator 29.0.0, SVG Export Plug-In . SVG Version: 2.1.0 Build 186)  -->
  <path d="M383.5,638.8c-47.6-6.8-267.5,59.8-320.9,103.7,7.8,14.1,16.3,27.8,25.5,41,2.6-.3,5.2-.8,7.9-1.6,82.1-24.1,321.3-192.7,346.6-31.5,1.6,10.2-3.2,164.2,3.7,246.7,12,1.3,24.1,2.1,36.3,2.6,1-107.4,40.9-341-99-360.9Z"/>
  <path d="M665.4,696.3c68.1-16.4,198.4,18.5,276.8,37.1,6-11.4,11.6-23.1,16.8-35-69.7-16.9-247.5-46.1-261.3-46.9-46.9-2.8-89.7,42.2-97.2,84.9-11.7,66.9,7.3,179.3.9,253.2,14.2-2.9,28.1-6.4,41.9-10.5,8.5-74-3.4-265.2,22.1-282.8Z"/>
  <path d="M363.1,764.2c-31.4-31.4-170.6,29.4-230.8,74.6,62.7,68,144,118.6,235.9,143.7,9.5-57.8,26.4-186.8-5-218.2Z"/>
  <path d="M908.8,788c-58.7-21.4-132.5-33.1-168.6-24.1-37.4,9.3-54.5,124.5-31.9,190.8,80.7-37,149.8-94.9,200.5-166.7Z"/>
</svg>