<?xml version="1.0" encoding="UTF-8"?>
<svg id="Layer_1" xmlns="http://www.w3.org/2000/svg" version="1.1" viewBox="0 0 1000 1000">
  <!-- Generator: Adobe Illustrator 29.0.0, SVG Export Plug-In . SVG Version: 2.1.0 Build 186)  -->
  <path d="M905.7,751.9c-203.4-33.1-243.5,11.4-189.3,199,85-40.9,156.6-105,206.6-184.2-2.8-3.8-8.3-8.2-17.3-14.8Z"/>
  <path d="M399.2,684.6c-42.6-71.1-273.1-16.5-366.8-7.1,5.4,14.2,11.4,28.1,18,41.6,91.7-6.8,271.6-55.8,309.2-8.4,31.3,85.5,4.8,178.3-10.9,265.9,15.1,4.8,30.6,8.9,46.3,12.3,25.1-50.2,25.6-268.5,4.1-304.4Z"/>
  <path d="M958.4,651.5c-68.1-11-266.6,40.7-344.7,29-24.6,14.9-15.5,239.5-.3,306.5,13.5-3.1,26.7-6.8,39.7-11,3.9-67.7-41.2-191.2-13.8-256.5l316-12.7c7.5-16.4,14.1-33.3,19.7-50.6-4.5-2.1-10-3.7-16.7-4.8Z"/>
  <path d="M291.1,772.6c-37.7-20.6-143.8,4.2-197.4,18.8,53.1,73.9,125.9,132.7,210.6,168.8,10.6-65.7,21.2-168.8-13.3-187.6Z"/>
</svg>