<?xml version="1.0" encoding="UTF-8"?>
<svg id="Layer_1" xmlns="http://www.w3.org/2000/svg" version="1.1" viewBox="0 0 1000 1000">
  <!-- Generator: Adobe Illustrator 29.0.0, SVG Export Plug-In . SVG Version: 2.1.0 Build 186)  -->
  <path d="M352.5,968.6c3.7-196.5-55.8-232.8-237.4-167.1-2.4,3.5-3.8,7.8-4.2,12.5,60.1,74.4,141.2,131.3,234.2,161.6,2.8-1.9,5.3-4.2,7.4-6.9Z"/>
  <path d="M717.3,646.3c-19.1,0-97.2,33.4-114.5,53.7l.6,289.2c15.6-3.3,30.9-7.3,45.9-12l-.5-220.6c0-17.4,10.9-33,27.3-38.7,47.2-16.3,122.8-25,164.4-26.7,20.2-.9,73.6,10.4,116.5,12.1,8.3-18.6,15.5-37.8,21.5-57.5l-261.1.5Z"/>
  <path d="M720.1,777.5c-13.7,4.3-22.6,17.4-21.4,31.7l11.8,142.6c.6.4,1.2.7,1.9.9,86.6-40.7,159.6-105.5,210.4-185.8-69.2-5.2-135.9-10.5-202.8,10.6Z"/>
  <path d="M449.6,855.3c-3.3-33.1-44.8-177.4-67-194.4-54.5-41.7-258.9,19.5-345.1,29.3,8.4,20.3,18,40,28.9,58.9,82.8-33.7,211.8-59.8,289.7-54,9.8,42.3,38.1,90.2,44.6,131.3,4.3,27.4-2.4,122.7,10.1,165.7,10.1,1.8,20.4,3.3,30.8,4.6,8.6-37.2-5.1-124.7,8-141.3Z"/>
</svg>