<?xml version="1.0" encoding="UTF-8"?>
<svg id="Layer_1" xmlns="http://www.w3.org/2000/svg" version="1.1" viewBox="0 0 1000 1000">
  <!-- Generator: Adobe Illustrator 29.0.0, SVG Export Plug-In . SVG Version: 2.1.0 Build 186)  -->
  <defs>
    <style>
      .st0 {
        fill: none;
      }
    </style>
  </defs>
  <g id="_x38_">
    <path d="M763.3,315.1c4.3,16.1,8.3,32.3,8.3,61s-36.8,22-37,0,7.5-37-18.4-37-38.3,77.1-43.7,128.8c-11,103.6-6.9,223-117.7,241-261.4,42.5-154.5-321.1-214.6-364.5-49.6-35.8-66.6,29.2-90.8,29.3s-21-5.8-21-16,8.8-24.3,15.1-33.2c43.7-62.3,140.2-21.7,154.7,60.7,17.2,98.3-21.4,303.6,145.2,288.4,101.2-9.2,71.8-126.2,81.7-190.9,9.9-64.9,23.3-194,101.4-186.2,9.1.9,32.5,2.5,36.9,18.5Z"/>
    <path d="M556.1,471.5c64.5,32.5,71.6,144.1-15.9,161.9-127.6,26-138.7-149.2-43.5-168.6l11.8,36.2c-40.3,10-51.8,94.4-2.2,98.4,62.3,5,67.1-69.6,34.8-92.9l15-34.9Z"/>
    <path d="M483,291.2c81.4-27.4,118.3,111.4,23.7,97.5-50.9-7.5-61.1-84.9-23.7-97.5Z"/>
    <path d="M536.9,524.5c10.8,10.8,7.7,38.8,0,49.3s-31.1,5.8-36.9,0c-5.9-5.9-4.6-24.9,0-39.7s26.1-20.4,36.9-9.6Z"/>
  </g>
  <circle class="st0" cx="500" cy="500" r="501.3"/>
  <path d="M541.1,506.5c-8.5-6.1-19.5-8.7-32.7-5.4l-11.8-36.2c23.1-4.7,43.1-1.5,59.4,6.7l-15,34.9Z"/>
</svg>