<?xml version="1.0" encoding="UTF-8"?>
<svg id="Layer_1" xmlns="http://www.w3.org/2000/svg" version="1.1" viewBox="0 0 1000 1000">
  <!-- Generator: Adobe Illustrator 29.0.0, SVG Export Plug-In . SVG Version: 2.1.0 Build 186)  -->
  <defs>
    <style>
      .st0 {
        fill: none;
      }
    </style>
  </defs>
  <g id="_x37_">
    <path d="M790.6,109.6c18,17.6,25.3,65.1-3.6,77.8s-14.7-46-40.8-54c-23-7.1-40.8,10.4-53.5,27.3-58.8,78.2-31.8,321.3-162.2,339-75,10.1-122.1-7.3-153.3-40.6-36-38.6-50.7-98.4-62.2-161.6-5.1-27.9,1.2-140.1-36.5-163.7s-48.8,22.1-42.8,45.4-19.1,36.9-30.7,5-12.5-48.8-10.7-56.3c7.6-32.8,67-79.1,126.2-15.4,86.4,92.8-12.7,365,182.4,347.2,113.1-10.3,97.1-232.5,155.5-319.6,28.5-42.5,91.7-70,132.2-30.4h0Z"/>
    <path d="M473.9,272.5c-83.2,6.5-42.3,120.7,27.3,98.8,14.1-4.4,51.3-31.6,39.8-70.8l9.2-34.4c39.2,39.2,44.3,105.7-40.2,132.3-93.8,29.6-154.8-72.2-105.3-126.1,23.5-25.7,49.7-36.2,74.4-36.4l-5.2,36.6h0Z"/>
    <path d="M533.2,95.8c20.5,8.7,24.7,39.3,15,68.6s-34.8,34.8-34.8,34.8c-17.8,5.6-36.9.2-52.5-10.9s-33.6-31.1-33.6-61.4,35.2-41,42.3-42.5c21.4-4.5,48.3,4.9,63.7,11.4h0Z"/>
    <path d="M483.3,355.1c-36.3-7.2-10.7-91.5,20.7-51.1,7.5,9.7-6.9,53.9-20.7,51.1Z"/>
  </g>
  <circle class="st0" cx="500" cy="500" r="501.3"/>
  <path d="M479.1,235.9c27.4-.3,52.9,12,71.1,30.2l-9.2,34.4c-11.4-39.2-51.5-29.2-67.2-28l5.2-36.6h.1Z"/>
</svg>