<?xml version="1.0" encoding="UTF-8"?>
<svg id="Layer_1" xmlns="http://www.w3.org/2000/svg" version="1.1" viewBox="0 0 1000 1000">
  <!-- Generator: Adobe Illustrator 29.0.0, SVG Export Plug-In . SVG Version: 2.1.0 Build 186)  -->
  <g>
    <path d="M669.6,78c-87.6,80.2-13.2,349.2-94.4,377-230.7,43-163.3-153.7-193-286.9-9.6-43-80.6-104.4-125.2-93.7-14.9,3.6-58.7,49.1-58.8,66.2-.5,71.7,56.3-30.5,103.4-16.9,61.9,17.9,41.1,154.4,46.1,202.9,13.4,130.5,94.5,194.6,226.8,165,133.1-29.8,49-255.5,103.3-352.1,13.5-24,45.6-46.4,71.8-43.1,26.2,3.3,8.6,37,20,62.9,11.4,25.9,35.8-26.3,31.6-44.9-1.8-7.9-5.8-16-11.6-23.5-17-12-34.7-23-53.1-32.9-21.6-4.1-45.5.5-67,20.1Z"/>
    <path d="M559.6,402.1c134.1-106.6-158.2-236.5-123.6-46.5,2.6,14.4,7.5,31.5,20.8,44.8s33.3,21.5,52.9,20.9l.8-26.3c-16.3-.4-32.8-8.2-42.7-24.3-7-11.4-8.2-19.5-8.2-46.8s46-42.1,77.7-24c31.7,18.1,25.5,56.3,18.2,70.3l4,31.9Z"/>
    <path d="M474.7,187.4c110.1,52.6,99.6-128.7,5.7-100.9-44.8,13.2-56.7,76.5-5.7,100.9Z"/>
    <path d="M526.7,357.7c6.3-19.2-9.3-34.1-18.6-34.1-9.2,0-25.7,15.3-18.6,34.1,7.1,18.8,30.8,19.2,37.1,0Z"/>
  </g>
  <path d="M509.8,421.3c16.9-.5,33.6-6.3,49.8-19.2l-4-31.9c-8.6,16.6-26.7,25.3-45,24.8l-.8,26.3Z"/>
</svg>