<?xml version="1.0" encoding="UTF-8"?>
<svg id="Layer_1" xmlns="http://www.w3.org/2000/svg" version="1.1" viewBox="0 0 1000 1000">
  <!-- Generator: Adobe Illustrator 29.0.0, SVG Export Plug-In . SVG Version: 2.1.0 Build 186)  -->
  <g id="_x35_">
    <path d="M571.3,429.8c44.8-42.6,55.5-212.5,91.6-308.6,7.4-19.6,11.1-38,24.8-46s22.8-6.5,34.2-6c32.2,1.2,64.1,16.6,74.5,48.3,13,39.9,0,53.5-13.7,53.5s-27.1-50-27.1-50c-5.9-14.3-37-17-43.7-12.5-22.3,15-43.1,337.7-140.7,377.3-120.6,49-186.8-50.8-215.3-152.7-18.3-65.4-4.9-151.3-39.3-196.1-12.4-16.1-19.3-29.5-39.3-29.5s-26.3,18.3-29.6,25.1c-22.7,45.8-41.6,32.2-32.3-3.2,3.1-11.9,2.2-33.5,15.1-46.5,46.1-46.3,113.1,5.8,136.9,51.4,39.2,75-4.1,307.9,138.1,312.2,18.1.6,52.6-4.5,65.7-16.9Z"/>
    <path d="M553.5,330.6c17.9-21.6-5.3-67.8-38.5-67.8s-52.9,31.1-56.3,49,12.4,37.9,28.2,53.7l7.7,33c-21.4-2.6-42.6-18.8-59.5-55.8-3.7-8.1-7.5-17-7.5-27.4s2-21.3,6.8-30.4c14.5-27.4,42.1-45.2,74.6-49.4,105.1-13.7,97.8,73.5,56.1,125.8l-11.7-30.8Z"/>
    <path d="M465.1,180.3c-64-65,35.5-141.9,85.5-79.2,50.3,63-42,123.4-85.5,79.2Z"/>
    <path d="M522.9,291.9c10.4,4.7,15.7,15.3,0,37.3s-34.3,19.1-37.3,0,26.9-42,37.3-37.3Z"/>
  </g>
  <path d="M487,365.5c15.8,15.8,48.7-13.3,66.5-34.9l11.7,30.8c-18.9,23.7-44.8,40.3-70.5,37.2l-7.7-33Z"/>
</svg>