<?xml version="1.0" encoding="UTF-8"?>
<svg id="Layer_1" xmlns="http://www.w3.org/2000/svg" version="1.1" viewBox="0 0 1000 1000">
  <!-- Generator: Adobe Illustrator 29.0.0, SVG Export Plug-In . SVG Version: 2.1.0 Build 186)  -->
  <g id="_x34_">
    <path d="M366.4,111.1c76.1,81.8-46.4,402.5,171,317.1,101.4-39.8,66.7-161.7,81.9-238.1,19.6-98.3,126.3-186,157.3-39.9,0,0-.7,44.7-24.7,12.7s-24-51.4-60.8-42.8c-65.1,114.5-.5,295.1-145.5,353.2-255.3,102.4-144.1-259.2-211.5-335.9-52.5-59.7-101.3,42.5-123.8,19-11-98.1,103.2-102.4,156.2-45.4Z"/>
    <path d="M549.1,306.6c3.4-13.2,3.9-26-1.8-33.6-13.1-17.7-62.2-23.5-77.1-.4s-17.1,50.1-.1,79.6c17,29.5,43.4,13.4,57.3-1.5l21.3,19.3c-46.2,42.6-122.9,39.2-122.7-59.6.1-83.3,60.1-96.6,118.8-70.9,10.9,4.8,22.4,8.4,32.1,18.1,9.6,9.6,7.4,38.4,4.1,55.2l-31.8-6.2Z"/>
    <path d="M471.9,153.5c-58.8-57.9,61.7-135,80.9-37.1,12.1,61.8-50.5,67.1-80.9,37.1Z"/>
    <path d="M506,283.5c34.4,4.1,3.6,84-23.7,48.9-6.5-8.4,10.6-50.4,23.7-48.9Z"/>
  </g>
  <path d="M527.3,350.7c7.5-8,17.2-26.5,21.8-44.1l31.8,6.2c-4.5,23-16.6,42.7-32.3,57.2l-21.3-19.3Z"/>
</svg>