<?xml version="1.0" encoding="UTF-8"?>
<svg id="Layer_1" xmlns="http://www.w3.org/2000/svg" version="1.1" viewBox="0 0 1000 1000">
  <!-- Generator: Adobe Illustrator 29.0.0, SVG Export Plug-In . SVG Version: 2.1.0 Build 186)  -->
  <g>
    <path d="M697.2,74.6c-124.1,33.3,21.6,321.1-120,365.2-95.8,29.8-204.3-17.4-216.2-121.3-8-69.8,54.4-277.9-97.3-246.5-18.3,3.8-54.2,21.3-50.2,44.4,8,46.1,74.2-34.6,101.3,6.4,19.1,74.3-4.6,161.7,6.9,235,22.3,141.2,306.6,201.7,356.1,61.8,31-87.6-2.9-168.7,9.2-244.4,2.8-17.5-1-51.6,17.1-51.6s33.5,60.5,33.5,60.5c40.9,33.2,32.9-129-40.5-109.4Z"/>
    <path d="M531.8,372c-36.6,34.2-113.4-47.5-59.4-77.1,9.7-5.3,37.9-17,55.7-9.3,17.8,7.7,21.2,31.1,21.1,33.5l45.9,14.6c.7-21-6.3-42.3-22.2-59.2-100.3-106.7-262.2,87.8-104.8,138.4,45.5,14.6,81.6,2.1,103.6-21.7l-39.8-19.1Z"/>
    <path d="M507.7,358.6c19.5,2.2,25.7-23.1,23.9-32.2-1.8-9.1-12.6-20.1-27.1-21.8-14.5-1.7-28.1,7.7-28,20.4s11.8,31.3,31.3,33.6Z"/>
    <path d="M513.1,174.9c60.8-17.3,29.8-108.4-34.7-90-60.8,17.3-29.8,108.4,34.7,90Z"/>
  </g>
  <path d="M571.7,391.1c14.5-15.8,22.8-36.4,23.5-57.4l-45.9-14.6c-1.1,27.4-7.9,44-17.4,52.9l39.8,19.1Z"/>
</svg>