<?xml version="1.0" encoding="UTF-8"?>
<svg id="Layer_1" xmlns="http://www.w3.org/2000/svg" version="1.1" viewBox="0 0 1000 1000">
  <!-- Generator: Adobe Illustrator 29.0.0, SVG Export Plug-In . SVG Version: 2.1.0 Build 186)  -->
  <g id="_x31_">
    <path d="M431.4,425c37.5,29.8,106,21.1,141.8-8.6,54.5-45.2,41.3-219.5,114.4-289.7,37.1-35.6,77-31.1,98-10.2s28.1,34.4,28.1,75.3-35,31.9-35,8.2-5.7-61.6-29-61.6-51.8,40.4-64.6,67.6c-41.3,87.7-12.9,212.6-122.5,262.9-151.5,69.5-221.3-86.1-257.4-220.8-5.4-20.2-20.4-128.5-51-128.5s-31.2,34.9-32.4,46.2c-1.6,15.3-2.9,30.9-12.1,30.9-16,0-21.9-20.5-21.9-20.5-9.5-45,30.4-100,79.3-86.5,84,23.1,75.5,264.9,164.4,335.4Z"/>
    <path d="M539.1,328.5c3.1-27.4-18.1-58.2-52.1-49.9-42.4,10.4-54.4,93.5,9.6,87.5l9.7,40.3c-66,6.5-132.5-70.7-71.8-141.3,69.4-80.8,188.2,36.6,128.3,109.6l-23.7-46.2Z"/>
    <path d="M473.8,89.7c106.5-35.4,100.4,93.8,24,87.1-42.4-2.4-66.5-73-24-87.1Z"/>
    <path d="M507.2,304.2c17.3,5.8,14.1,18,0,32-14.1,14.1-26.9,13.1-32,0s14.8-37.8,32-32Z"/>
  </g>
  <path d="M562.8,374.7c-16.4,20-36.4,29.7-56.5,31.7l-9.7-40.3c27.4-2.6,40.4-19.3,42.5-37.6l23.7,46.2Z"/>
</svg>