<?xml version="1.0" encoding="UTF-8"?>
<svg id="Layer_1" xmlns="http://www.w3.org/2000/svg" version="1.1" viewBox="0 0 1000 1000">
  <!-- Generator: Adobe Illustrator 29.0.0, SVG Export Plug-In . SVG Version: 2.1.0 Build 186)  -->
  <defs>
    <style>
      .st0 {
        fill: none;
      }

      .st1 {
        fill: #010101;
      }
    </style>
  </defs>
  <path class="st0" d="M544.2,360.8c-52.5,26.3-50.7,12.7-62.5,4.5h.9c-7.2-4.5-11.8-143.1-15.4-169.3s-28.1-49.8-24.4-88.7c7.2-74.2,113.2-109.6,126.8-12.7,6.3,43.5-13.6,75.2-13.6,113.2s40.7,126.8-11.8,153h0Z"/>
  <path class="st1" d="M420.1,407.8c-12.7-24.4-35.3-37.1-46.2-56.1-35.3-62.5-3.6-94.2-7.2-157.6-2.7-47.1-27.2-86-38-128.6-1.5-8.4-.5-23.2.2-35.5-28.5,10.4-55.8,23.3-81.7,38.5,3.9,28,17.6,59.3,18.1,74.9.9,28.1-4.5,115-13.6,164.8s-41.7,23.5-97.8,156.6c-56.1,133.1,59.8,163,92.4,269.8,8.1,27.2,12.7,2.7,19,121.3,2,36.7-2.5,63.5-4.2,83.3,36.3,19.8,75.4,35.2,116.5,45.6-128.2-175.7,136.3-396.7,42.6-577h0Z"/>
  <path class="st1" d="M791.4,746.5c15.4-124,109.6-209.2,50.7-337.7-12.7-26.3-44.4-40.7-51.6-63.4-24.7-77.6-7.7-181.8-14.7-262.5-31-20.5-64.3-37.6-99.6-50.9-1.6,50-16.3,101.4-17,137.8-.9,48,20.8,87.8,13.6,139.4-10,67-87.8,134.9-89.6,205.5-1.8,69.7,45.3,73.3,68.8,111.4,55.6,89,70,233.1,40,335.8,35-14.6,68-33,98.5-54.8,5.7-46.4-5.9-107.6.9-160.6h0Z"/>
  <path class="st1" d="M525.8,694c-99.5-9.3-66.9,226.3-41.3,305.8,5.1.2,10.3.2,15.5.2,25.3,0,50.2-1.9,74.4-5.5,30.5-76.6,50.3-291.2-48.6-300.5h0Z"/>
  <path class="st1" d="M569.5,94.5c-13.6-96.9-119.5-61.6-126.8,12.7-3.6,38.9,20.8,62.5,24.4,88.7s8.1,164.8,15.4,169.3h-.9c11.8,8.1,10,21.7,62.5-4.5,52.5-26.3,11.8-115,11.8-153s19.9-69.7,13.6-113.2h0Z"/>
</svg>