<?xml version="1.0" encoding="UTF-8"?>
<svg id="Layer_1" xmlns="http://www.w3.org/2000/svg" version="1.1" viewBox="0 0 1000 1000">
  <!-- Generator: Adobe Illustrator 29.0.0, SVG Export Plug-In . SVG Version: 2.1.0 Build 186)  -->
  <defs>
    <style>
      .st0 {
        fill: #010101;
      }
    </style>
  </defs>
  <path class="st0" d="M296.8-10.6l.2.2c0,0,0-.1-.2-.2Z"/>
  <path class="st0" d="M296-11.3c0,0,.2.2.2.4.2.1.4.2.6.3l-.8-.8Z"/>
  <path class="st0" d="M684.4-9.3c-.8-2.1-1.2-1,0,0h0Z"/>
  <path class="st0" d="M370.1,662.7c44.1-74.1,125.6-86.3,87.2-195-13.1-36.6-50.6-54.4-62.8-82.5-27.2-65.6-14.1-133.1-39.4-198.7-15-38.4-64.7-85.3-70.3-115.3-1.3-6.7-1.2-14.4-.5-22.4-32.7,15.7-63.4,34.8-91.7,56.9,14.7,55.8,37.2,138.4,34.1,178.3-5.6,69.4-75,145.3-83.4,193.1-15.9,92.8,77.8,191.2,86.2,285,4.4,48.7-14.9,100.8-20.2,144.7,31.5,22.6,65.7,41.5,102.1,56.4-16.3-104.1,6.2-211.8,58.7-300.5Z"/>
  <path class="st0" d="M762,802.4c2.8-80.6,73.1-163.1,85.3-257.8,16.9-135.9-19.7-205.3-45.9-330-8.4-39.3-7.2-83.9-13.4-123.4-30.9-21.8-64.3-40.2-99.8-54.6,1.7,55.7,8.5,109.9.6,165.8-12.2,79.7-115.3,222.2-112.5,291.6,2.8,69.4,84.4,64.7,101.2,174.4,16,104.2-47.5,201.7-16.9,305.2,42.5-14.4,82.5-34.4,119-59.1-7.4-41.9-18.3-92.7-17.8-112.1Z"/>
  <path class="st0" d="M381.1,69.5c73.8,112.9,65.9,152.6,80.9,195.7,9.4,27.2,18.7,169.7,77.8,78.7,19.7-30,40.3-287.8,25.3-315.9-2.7-5.3-11.9-16.2-22-26.2C528.9.6,514.5,0,500,0,452.1,0,405.8,6.7,361.9,19.3c-.2,12.8,5.4,29.3,19.1,50.2Z"/>
  <path class="st0" d="M541.7,898c6.6-44.1,52.5-202.5-2.8-221.2-20.6-7.5-64.7.9-80.6,15l.9.9c-31.1,27.5-38.3,144.8-22.9,230,3,16.5,2.1,44.3,1.9,73.5,20.3,2.5,40.9,3.8,61.9,3.8s26.7-.5,39.8-1.6c2.2-40.1-1.2-80.2,1.9-100.4Z"/>
</svg>