<?xml version="1.0" encoding="UTF-8"?>
<svg id="Layer_1" xmlns="http://www.w3.org/2000/svg" version="1.1" viewBox="0 0 1000 1000">
  <!-- Generator: Adobe Illustrator 29.0.0, SVG Export Plug-In . SVG Version: 2.1.0 Build 186)  -->
  <defs>
    <style>
      .st0 {
        fill: #010101;
      }
    </style>
  </defs>
  <path class="st0" d="M341.9,777c17.6-79.5,94.7-140.6,96.6-235.8,1.9-82.1-72.8-141.8-79.3-224.8-2.8-39.2,13.1-67.2,13.1-102.6-.9-46.6-29.9-92.4-28-145.5.5-15,6-31.4,11.7-47.3-37.4,11.2-73,26.7-106.2,46,.3,53.2,8.7,117.4-1.6,166.4-17.7,81.2-124.1,183.8-124.1,268.7s92.4,140.9,102.6,197.8c5.6,33.6,17.7,199.6,14,223-.2,1.4-.5,2.8-.9,4.3,36.5,22.3,76.2,40.1,118.1,52.5-7.4-53-29.2-142.8-16-202.5Z"/>
  <path class="st0" d="M741.7,780.1c7.5-89.6,97-193.1,97-306.9s-83-168.4-97.8-227.6c-14.8-59.2-1.1-82.1-1.1-125s7.6-34.5,11.9-52.6c-30.4-17.8-62.8-32.4-96.9-43.5,1.4,23.8,7.5,52.4,6.6,70-1.9,32.7-14,49.4-14,91.4s29.9,82.1,20.5,139-77.4,113.8-98,164.2c-64.4,159.5,88.6,185.6,100.8,318.1,2.8,32-14.7,122.7-21.4,170.1,40.4-12.6,78.6-30.3,113.9-52.1-7.4-33.7-26.9-81-21.6-145.1Z"/>
  <path class="st0" d="M465.6,225.9c-12.7,54-10.3,137.2,54.1,121.4,64.4-15.9,21.5-103.5,21.5-149.3s47.7-71.6,20.3-194.2c-20.1-2.5-40.7-3.7-61.5-3.7s-40.1,1.2-59.7,3.5c0,.3-.2.6-.2,1-29.5,120.6,38.2,167.3,25.5,221.4Z"/>
  <path class="st0" d="M566.6,749.5h0c-30.4-31.8-109.8,6.2-122.5,49.2-7.7,26.2,8.4,44.6,2.2,84.9-2.8,17.8-13.1,68.2-14.5,111.8,22.3,3,45.1,4.6,68.2,4.6s19.4-.3,29-.8c29.6-79.3,62.5-224.3,37.6-249.6Z"/>
</svg>