<?xml version="1.0" encoding="UTF-8"?>
<svg id="Layer_1" xmlns="http://www.w3.org/2000/svg" version="1.1" viewBox="0 0 1000 1000">
  <!-- Generator: Adobe Illustrator 29.0.0, SVG Export Plug-In . SVG Version: 2.1.0 Build 186)  -->
  <defs>
    <style>
      .st0 {
        fill: #010101;
      }
    </style>
  </defs>
  <path class="st0" d="M330.8,749.5c8.2-60.6,93.3-106.4,89.7-226.1-1.8-60.8-30.7-62.1-50.9-161.3-20.2-99.1-16.5-216-51.2-314.5-1.5-4.3-2.6-8.4-3.5-12.2-43.8,17.5-84.6,40.9-121.3,69.4-5.2,58.2,37.3,131.9,31.8,197-7.8,93.3-81.4,156.5-68.6,267.3,7.2,57.2,62.5,119.8,71.6,169.8,6.6,35.9-9.1,118.6-11.9,173.2,49.3,33.9,104.9,59.3,164.8,73.8-1.8-46.1-57.8-183.4-50.6-236.4Z"/>
  <path class="st0" d="M753.7,782.5c12-124.9,97.1-177.1,82.1-318.7-7.2-62.7-53.2-132.3-59.5-193.2-3.9-38,11-125,.6-186.9-28.3-18.9-58.7-34.9-90.7-47.8-4.3,14.5-5.9,37.3-9.8,70.9-8.4,73.3,7.2,173.3-8.3,238.3-9.7,38.8-46.5,17.4-83,147.4s81.2,140.9,89.8,228.1c5.7,56.2-37.3,198.9-26.4,257.1,43.4-13.5,84.2-32.7,121.6-56.7-7.7-48.9-19-114-16.4-138.3Z"/>
  <path class="st0" d="M465.6,257.5c6,22.8-9.5,28.9,4.3,71.7,13.8,42.8,82.7,43.9,87.2-9.5-5-34.4,24.1-197.9,24.5-313.1-26.6-4.4-53.8-6.6-81.6-6.6s-55.6,2.3-82.3,6.7c-7.3,83.5,33.1,195.7,47.9,250.8Z"/>
  <path class="st0" d="M551.1,699.8c-11.6-6.9-69.3-32.3-105.1,50.6s21.8,111.9,35.3,171.9c4.3,18.9,7.4,47.7,11.3,77.6,2.5,0,4.9,0,7.4,0,25.5,0,50.6-1.9,75.1-5.6-4.8-51.7-14.8-106.6-14.8-137.9,0-39.7,32.3-132-9.3-156.6Z"/>
</svg>