<?xml version="1.0" encoding="UTF-8"?>
<svg id="Layer_1" xmlns="http://www.w3.org/2000/svg" version="1.1" viewBox="0 0 1000 1000">
  <!-- Generator: Adobe Illustrator 29.0.0, SVG Export Plug-In . SVG Version: 2.1.0 Build 186)  -->
  <defs>
    <style>
      .st0 {
        fill: none;
      }

      .st1 {
        fill: #010101;
      }
    </style>
  </defs>
  <path class="st0" d="M576.1,295.5c-5.3,59.1-52.9,121.7-97.9,93.4h0c-20.3-13.2-.9-70.5-3.5-89-5.3-37-45.8-79.3-44.1-123.4,1.8-44.1,47.6-126.9,89.9-122.5,66.1,7.1,21.2,86.4,22.9,117.3,1.8,30.9,37.9,65.2,32.6,124.3Z"/>
  <path class="st1" d="M368.1,722.1c6.2-59.9,59.9-103.1,70.5-130.5,50.3-132.2-59.1-167.5-67.9-262.7-2.6-27.3,10.6-47.6,7.1-80.2-3.5-32.6-35.3-59.1-35.3-100.5s61.1-101.1,50.5-136.7c-63.5,13.8-122.5,39.8-174.5,75.3-13.5,59.7,23.4,147.6,19.1,220.2-5.3,88.2-83.8,162.2-83.8,262.7s85.5,108.4,99.6,186.9h.9c8.4,49.7.8,168.5,0,179.1,37.2,21,77.3,37.4,119.7,48.4,16.3-51.2-11.5-208.8-6-261.9Z"/>
  <path class="st1" d="M788.6,817.4c-20.3-133.1,48.5-252.1,36.1-345.6-6.2-47.6-52.9-110.2-59.9-176.3-5.9-50.6,37.7-124.2,32-197.9-37.5-27.7-79-50.3-123.4-66.7-10.9,51-9.8,126.9-6.2,178.4,3.9,54.5,5.4,126.3-53.1,236-81.7,153.3,24.7,133.1,46.7,238.9,11.5,53.8-3.5,126.9,3.5,170.1,5.1,31.1,28.4,65.8,41.1,101.6,36.2-16.3,70.1-36.9,101.1-60.9-5.2-11.5-11.3-34.4-17.9-77.7Z"/>
  <path class="st1" d="M520.6,53.9c-42.3-4.4-88.2,78.5-89.9,122.5-1.8,44.1,38.8,86.4,44.1,123.4,2.6,18.5-16.8,75.8,3.5,89h0c45,28.2,92.6-34.4,97.9-93.4s-30.9-93.4-32.6-124.3c-1.8-30.9,43.2-110.2-22.9-117.3Z"/>
  <path class="st1" d="M562.9,805.9c-1.8-37,17.6-115.5-2.6-139.3l-.9.9c-21.2-23.8-51.1-57.3-89,9.7-37.9,67,7.1,165.7,16.8,242.4,1.8,19.4-3.5,74.9,1.8,79.3.2.2.5.5.8.9,3.4,0,6.9.1,10.3.1,32.2,0,63.6-3,94.1-8.8,1.1-64.9-29.9-157.5-31.2-185.3Z"/>
</svg>