<?xml version="1.0" encoding="UTF-8"?>
<svg id="Layer_1" xmlns="http://www.w3.org/2000/svg" version="1.1" viewBox="0 0 1000 1000">
  <!-- Generator: Adobe Illustrator 29.0.0, SVG Export Plug-In . SVG Version: 2.1.0 Build 186)  -->
  <defs>
    <style>
      .st0 {
        fill: #010101;
      }
    </style>
  </defs>
  <path class="st0" d="M349.3,710.4c4.8-51.3,70.4-121.7,67.5-188.3-1.9-59.9-67.5-101.7-78-164.5-10.5-62.8,18.1-110.3,9.5-170.2-6.8-43.4-43.5-90.6-55.1-142.8-48.8,22.2-93.3,51.9-132.2,87.8,13,61.3,42.9,132.8,40.8,199.5-2.9,79.9-75.1,127.4-66.6,229.2,6.7,72.3,32.3,49.4,78,136.9,36.5,70,38.9,158.2,44.3,239.4,29.9,16.6,61.7,30.2,94.9,40.5-1.8-8.9-3.3-18.6-3.3-28.8,0-61.8-4.8-191.1,0-238.7Z"/>
  <path class="st0" d="M804.8,722.8c11.4-84.6,58-102.7,53.3-242.5-4.8-139.8-113.2-252.9-100.8-400.3.2-2.4,1.1-4.9,2.3-7.4-39-23.7-81.4-42.2-126.4-54.6,5.3,12.1,14.9,25.1,16.7,61.1,2.9,59.9,13.3,183.5,6.7,241.5-6.7,58-53.3,76.1-53.3,174s78.9,144.5,90.3,217.8c5.2,30.6-17.6,184,8.2,245.3,36.8-16.2,71.2-36.8,102.7-60.9,6.2-55.7-6-128.4.4-173.9Z"/>
  <path class="st0" d="M577.1,825c1-56.1,41.8-130.3-18.1-167.4-39-24.7-27.6-53.3-87.5,20.9-59.9,74.2-5.7,125.5,0,174,3.8,32.1-12.9,99.7-11.9,145.8,13.3,1.1,26.7,1.6,40.3,1.6,27.6,0,54.7-2.2,81.1-6.6,5.6-56.3-4.1-140.1-4.1-168.4Z"/>
  <path class="st0" d="M445.3,175.6c0,70.2-49.4,155-12.4,177.8h.9c13.3,8.6,5.7,29.5,78-4.8,72.3-34.2,19-147.4,14.3-201.6-2.7-29.6,27.6-120.2-26.5-147.1-36.8,0-72.7,4-107.2,11.6-20.1,79.6,52.9,95.8,52.9,164Z"/>
</svg>