<?xml version="1.0" encoding="UTF-8"?>
<svg id="Layer_1" xmlns="http://www.w3.org/2000/svg" version="1.1" viewBox="0 0 1000 1000">
  <!-- Generator: Adobe Illustrator 29.0.0, SVG Export Plug-In . SVG Version: 2.1.0 Build 186)  -->
  <defs>
    <style>
      .st0 {
        fill: #010101;
      }
    </style>
  </defs>
  <path class="st0" d="M356,724.3c4.5-61.5,68.7-107.6,57-189-7.2-49.7-38-38.9-59.7-93.2-21.7-54.3-7.2-132-17.2-173.6-9.9-41.6-42.5-83.2-47-132.9-2.1-24.2,12.5-70.2,4.3-90.9-36.8,16.7-71.3,37.8-102.7,62.6-.7,60.3,25.1,145.5,19.7,210.1-9.9,118.5-95,155.6-60.6,302.1,25.3,107.6,63.3,91.3,33.5,230.6-2.6,11.8-8,19.5-14.2,24.8,46.9,41.5,101.7,74.3,161.8,95.9,5.4-24.9,1.7-69.8,17-121.6,5.4-18.1,3.6-63.3,8.1-124.8h0Z"/>
  <path class="st0" d="M781,797.5c11.8-54.3,48.8-104.9,62.4-154.7,43.4-159.2-17.2-214.3-43.4-356.3-10.9-57-7.2-157.4-19-197.2-.4-1.3-.8-2.6-1.4-3.9-27.4-18.5-56.7-34.4-87.6-47.2-5.1,6.2-8.1,16.6-7.8,32.2,3.6,151.9,7.2,228.8-34.4,379.8-14.5,52.5-50.6,73.3-46.1,132.9s59.7,104.9,79.6,163.7c13.7,41,14.6,166.2,19.9,210.1,27.7-12.3,54.1-27.1,78.8-44.1-1.8-25.7-9.9-74.4-1.1-115.4h0Z"/>
  <path class="st0" d="M537.7,46c-40.3-35.5-64.2-18.1-95,28.9-67.8,104,9,202.6,0,313.8,12.7,47,104,57.9,117.6-9.9,8.1-43.4,19.9-195.3,19.9-227.9s-2.2-69.4-42.5-104.9Z"/>
  <path class="st0" d="M568.5,902.4c4.5-52.5,32.6-102.2,18.1-148.3s-67.8-76-112.1-63.3c-40.7,11.6-44,244.7-22.6,306.9,15.9,1.5,31.9,2.3,48.2,2.3,26.3,0,52.1-2,77.2-5.9-3.7-18.6-12-54.2-8.8-91.6h0Z"/>
</svg>