<?xml version="1.0" encoding="UTF-8"?>
<svg id="Layer_1" xmlns="http://www.w3.org/2000/svg" version="1.1" viewBox="0 0 1000 1000">
  <!-- Generator: Adobe Illustrator 29.0.0, SVG Export Plug-In . SVG Version: 2.1.0 Build 186)  -->
  <defs>
    <style>
      .st0 {
        fill: #010101;
      }
    </style>
  </defs>
  <path class="st0" d="M312.9,941.5c-3.7-88.8,0-180.3,0-270.1s54-118.1,61.3-157.5c22-116.3-59.5-184.9-73.2-293.9-4.8-39.2,24-146.3,17.2-186-50,19.5-96.1,46.8-136.7,80.5-1.6,39.3,5.8,91.9-.4,129.4-10.1,64.1-58.6,91.5-62.3,209.6-3.7,118.1,62.3,249.9,87.9,363.4,8.7,37.9,4.6,69.8,10.8,95.5,33.5,23,69.9,42,108.6,56.3-1.6-8.9-13.1-22.3-13.1-25.5v-1.8Z"/>
  <path class="st0" d="M805.4,801.5c9.2-98.9,76-206,76-298.4s-44.9-145.6-52.2-205.1c-4.3-35,3.1-108.6,6-168.9-42.1-38.1-90.7-69.1-144-91.1,2.7,8,5.2,18.1,7.1,31.2,10.1,69.6,32,74.2,1.8,214.2-30.2,140.1-113.5,144.6-37.5,311.3,35.7,78.7,73.2,104.4,88.8,206.9,2.9,21.4-6,96.6,11.2,124.1,15.6-9.6,30.6-20.1,45-31.3-2.1-19.9-6.2-49.1-2.2-92.8Z"/>
  <path class="st0" d="M411.7,171.1c2.7,40.3,43,168.4,84.2,174.9,41.2,6.4,74.2-32,80.6-61.3,6.4-29.3,19.2-173.9,16.5-203.2-.9-18.1-14.8-61.5-27.9-77.1-21.3-2.8-43-4.2-65-4.2s-34.7.9-51.7,2.6c-29.4,43.3-40.1,120.8-36.6,168.4Z"/>
  <path class="st0" d="M566.5,654.7c-20.1-40.3-89.7-52.2-120.8-4.6-59.5,90.6,0,138.2,21.1,219.7,7,27.1.2,97.2,18.3,129.9,5,.1,9.9.2,14.9.2,19.1,0,38-1.1,56.6-3.2,26.2-31.3,42.9-87.6,42.9-116.9s-12.8-184.9-33-225.2Z"/>
</svg>