<?xml version="1.0" encoding="UTF-8"?>
<svg id="Layer_1" xmlns="http://www.w3.org/2000/svg" version="1.1" viewBox="0 0 1000 1000">
  <!-- Generator: Adobe Illustrator 29.0.0, SVG Export Plug-In . SVG Version: 2.1.0 Build 186)  -->
  <path d="M620.4,108c-12.5,57.7,57.6,87.2,65.4,116.8,7.3,27.8-16.4,55-6.2,78.7,17.4,40,80.2,12.6,120.3,13.8,73.4,2.1,135.3,46.8,154-69.7,1.8-11-1-23.7-7-37.4-57.1-76.8-135.8-136.6-227.1-170.6-39.5,3.1-90.7,27.9-99.4,68.3Z"/>
  <path d="M737.3,735.1l77-73.1c21.6,10.2,28.1,44.3,42.1,55,10.3,7.9,44.4,17.2,56,11.9,150.8-128.1-199.6-342.9-262.2-200.8-14.6,33.1,16.9,224.3,87.2,207Z"/>
  <path d="M927,831.6c-36.2-44-224.7,15.6-238.9,91.9-3.7,19.9-2.1,42.3-.8,64.6,94.6-27.9,177.6-83.1,239.7-156.4Z"/>
  <path d="M324.6,708.9c-112.3,121.6,32.8,187.8,147,132.4,60.7-93.5-63.8-149.2-147-132.4Z"/>
  <path d="M375.9,169c37.4,17.3,59.9,94.9,122.4,46.1,37.2-29.1-18.2-150.6-12.1-203.2-96.5,11.4-184.6,50.3-256.2,108.7,37.3,44.7,102.2,28.1,146,48.4Z"/>
  <path d="M346.7,525.2c15.6,9.6,51.7-.5,72.4,2.4,16.9-50.6-19.7-92.5-25.6-128.8-4.8-29.6,30.8-62.1-10.6-96.5l-42.9-11.9c-37.1,28.2-78.4,54.8-68,106.7,1.5,7.3,68.5,124.1,74.8,128Z"/>
  <path d="M147.2,546.6c-16.7-19.7-76-40.4-101.2-58.4-.3,6.7-.4,13.4-.4,20.2,0,103.6,31.5,199.9,85.5,279.8,24.6-22.8,50.8-200.6,16.1-241.6Z"/>
</svg>