<?xml version="1.0" encoding="UTF-8"?>
<svg id="Layer_1" xmlns="http://www.w3.org/2000/svg" version="1.1" viewBox="0 0 1000 1000">
  <!-- Generator: Adobe Illustrator 29.0.0, SVG Export Plug-In . SVG Version: 2.1.0 Build 186)  -->
  <path d="M740.8,169.8c-10.5,22-8.8,66.5-13.5,71.3-8.5,8.7-121.6,2.4-135.8,58.7-15,59.3,78.3,81.5,106.5,105.9,49.8,43.2,104.1,155.5,178.8,68.6-22.7-127.6,15.2-77.8,60.8-123.4,27.3-27.3,33.8-63.2,28-99.2-33.5-58-78.4-108.7-131.6-149-37.3,0-72.9,24-93.3,67Z"/>
  <path d="M243.4,691.2c6.6-15.3-25.3-34.2-24.4-67.8,1.3-50.3,69.5-116.5,6.4-162.7-39.2-28.7-124.4-27.6-169-63.5-5.1-.1-9.5.4-13.3,1.4-7,33.3-10.6,67.7-10.6,103,0,91.8,24.8,177.9,68,251.8,53.7,5.2,125.8-22.3,143-62.4Z"/>
  <path d="M304.6,366.5c26.3-9.7,78.1-22.4,89.7-49.7,47-110.5-34.9-118.5-35.9-127.8-1.3-12,107.4-124.9,76-176.7-.6-.3-1.1-.5-1.6-.8-83.1,16.8-158.8,54.2-221.4,106.7-21.5,72.3,53.9,153.9,93.2,248.2Z"/>
  <path d="M857.2,881.9c19-16.3,36.8-33.9,53.2-52.9,2-29.3-2.2-57.8-12.7-90-74.5,9-335.5,26.1-305,141.4,1.4,5.4,41.6,86.4,54.5,108,26.1-6.1,51.3-14.3,75.6-24.3,21.5-33.6,35.6-80.9,37.3-102.9l96.9,20.7Z"/>
  <path d="M431,507.5c-73.1,18.8-73.8,175.2-33.9,183.6,26.9,4.2,35.6-30.5,54.4-38.8,18.2-8,110,11.3,123-46.3,4-17.9-123.1-103.8-143.6-98.5Z"/>
  <path d="M261.5,863.9c-26.4,5.4-42,12.9-49.3,21.8,56.7,47.4,124.1,82.4,198,100.9,24.6-70.1-85.7-135.5-148.7-122.7Z"/>
</svg>