<?xml version="1.0" encoding="UTF-8"?>
<svg id="Layer_1" xmlns="http://www.w3.org/2000/svg" version="1.1" viewBox="0 0 1000 1000">
  <!-- Generator: Adobe Illustrator 29.0.0, SVG Export Plug-In . SVG Version: 2.1.0 Build 186)  -->
  <path d="M899.8,240.4c-9.5,1-117.5,43.5-129.6,51.7-67.2,45.9-48.2,135.4-103.1,194.1,27.1,56.3,81,29.5,123.7,42.1,29.5,8.7,35.8,52,92.4,42.8,78.7-12.9,31-110,38.2-120,17.1-5.4,43.4-6.4,56.1-19,7.6-7.6,12.5-18.5,15.1-31.3-9.8-53.2-28-103.5-53.2-149.4-11.8-8.2-25-12.4-39.4-11Z"/>
  <path d="M605.5,698.6l-15.7-81.7c-92.1-39.5-188.5-5-235.7,82.7-53.1,98.6,30.7,68,84.2,90.2,25,10.4,28.9,55.9,74.4,62.8,24.5,3.7,192.5-44.1,206.4-72.5,50.2-102.8-83.3-61.2-113.6-81.4Z"/>
  <path d="M110.7,473.9c-21.2,64-36.8,164.9,61.8,135.4,96.8-29,44.7-148.2,44.1-210.6-.3-32.3,31.3-97.7,13.4-125.9-24.5-38.8-141.3-10.2-198.1,44.8-10.9,29.3-19.1,59.8-24.4,91.4,3.2,6.8,7.6,13.6,13.4,20.5l89.8,44.3Z"/>
  <path d="M415.3,282.2c19.9,21.1,77.9,21,97.9,0,5.1-5.4,46-127.9,48.1-139.9,26.8-156.6-214.7-134.6-194.3,14.8,1,7.1,43.7,120.2,48.3,125.1Z"/>
  <path d="M418.5,511.9c17.6-.8,39.7,16.9,58.5,12,6.6-1.7,67.3-77.9,68.2-83.2,9.6-53.1-162.3-72.9-197.6-62.5-57.4,16.9-55,148.7-16.5,161.1,39.6,12.8,60.3-26.3,87.3-27.4Z"/>
  <path d="M694.9,130c33.2,4,142.9,70.3,158.4,65.8,17.6-5.2,25.5-16.1,26.4-30.1-49.1-57-110.7-102.8-180.7-133-7.1,7.3-12.7,16.1-15.1,24.1l10.9,73.2Z"/>
  <path d="M312.2,894.6c-46.8-48.6-105.9-124.1-180.5-65.5,6.3,6.9,12.8,13.6,19.4,20.1,9.8,8.1,20.1,17.6,30.6,27.6,48,39.8,103.5,70.8,164.1,90.6,7.2-3.3,14.3-8.3,21.1-15.4,6.3-29.7-39.8-42-54.7-57.4Z"/>
</svg>