<?xml version="1.0" encoding="UTF-8"?>
<svg id="Layer_1" xmlns="http://www.w3.org/2000/svg" version="1.1" viewBox="0 0 1000 1000">
  <!-- Generator: Adobe Illustrator 29.0.0, SVG Export Plug-In . SVG Version: 2.1.0 Build 186)  -->
  <path d="M784.3,490.9c31.6,56.8,134.6,45.1,174,5.6,10.8-10.9,18.4-24.2,23.1-39.2-9.7-114-57.6-217.2-130.9-296.5-199,49.4-14.1,201.8-66.2,330Z"/>
  <path d="M663.4,628.8c-39.5-17.4-69.7-115.9-100.5-126.1-29.5-6-67-2-90.5,17.5-45.4,37.4-76.9,196.1-9.1,218.3,50.2,16.5,92.7-31.4,146.8-29.1,48.9,2,96.6,53.2,132.1,44.1l68.9-68.4c-1-108.4-106.3-38.1-147.6-56.2Z"/>
  <path d="M209.1,457.9c-19,5.6-30.8,34-51,39.9-54.4,16.1-145.4-25.4-139.1,84.2,4,69.1,59.1,63.1,88.6,92,54.7,53.5,91.1,161.2,180,57.2l-59.9-88.9c29.1-49.2,111.6-222.7-18.5-184.4Z"/>
  <path d="M584.4,362.3c27.6-27.5,12.7-98.8,21.6-135.7,8.9-37.4,85.7-101.4,12-137.8-109.1-53.9-255.7,128.3-191.3,251.3,24.9,47.6,123.8,55.9,157.8,22.2Z"/>
  <path d="M553.7,872.4c-33-4.4-64.7-46.7-107.5-42.5-51.4,5-104.6,125.1-72,158.3,31.9,7.1,65,11.1,98.9,11.8,13.8-.2,28.3-.5,42.8-.9,79.4-5.1,153.8-28.8,218.8-66.7,2.8-6.3,4.4-12.9,4.5-19.5.8-99.5-133.4-33.4-185.5-40.4Z"/>
  <path d="M73.5,363.4c37.2,12.8,110.5-1,135.4-31.8,34.3-42.4,12.9-116.1,20.1-167.3,2.4-17,52.9-86.9,19.8-106-87.2,46.3-159,117.7-205.9,204.5-13.8,47.1-8.6,87.2,30.6,100.6Z"/>
</svg>