<?xml version="1.0" encoding="UTF-8"?>
<svg id="Layer_1" xmlns="http://www.w3.org/2000/svg" version="1.1" viewBox="0 0 1000 1000">
  <!-- Generator: Adobe Illustrator 29.0.0, SVG Export Plug-In . SVG Version: 2.1.0 Build 186)  -->
  <path d="M697,359c-33.6,73,36.7,90.3,33.9,120.3-7,76.1-103.7,88.9,68.6,154.8-25.8,165.9,144.8,73.1,78.6-57.7l113.9-2.1c1.7-4.1,3.3-8.2,4.8-12.3,2.1-18.4,3.1-37.1,3.1-56,0-70.7-14.7-138-41.2-199-2.6-4.6-5.2-9.2-7.9-13.8-77.1-18.6-215.3-18-253.9,65.8Z"/>
  <path d="M443.8,234.5c-49.1-34.6-255.7-6.2-227.2,95.6,9.1,32.8,49.7,51.1,59.2,72.4,11.2,25.2,9.7,105.3,23.3,114.4,74.8,50.4,208.2-237.8,144.7-282.5Z"/>
  <path d="M606.1,238.8c70.3,68.2,250.5-61.8,134.5-170.6-.6-.6-1.3-1.2-1.9-1.8-46.8-25.5-98.1-43.7-152.4-53.1-16.4,2.5-31.3,9-42.8,20.7,13.9,53.3,23,166.3,62.7,204.7Z"/>
  <path d="M236,833.6c50.5-51.9-13.4-79.2-22.3-107.9-14.9-48.1,20.6-145.2-32.1-171.9-79.9-10.8-152.7,53.8-139.1,138.8,1.8,11.2,3.9,20.8,6.4,29.2,6.4,13.4,13.4,26.5,21,39.2,24.2,22.9,56.7,6.4,80.6,20.8,9.1,5.5,24.6,114.4,85.6,51.8Z"/>
  <path d="M849.2,837.5c-40.4,10.7-76.2-25.9-108.2-27.3-127.1-5.7-150.1,136.2-103,176.4,81.9-23.5,155.1-67.3,213.9-125.6,3.7-9.3,3.2-17.4-2.8-23.5Z"/>
  <path d="M533.7,717.6c-11.9-7.2-14-45.1-42.7-52.6-69.9-18.4-133.2,114.3-90.1,171.2l199.5-44.2-4-57.3c-12.9-17.5-46.9-7.5-62.6-17Z"/>
</svg>