<?xml version="1.0" encoding="UTF-8"?>
<svg id="Layer_1" xmlns="http://www.w3.org/2000/svg" version="1.1" viewBox="0 0 1000 1000">
  <!-- Generator: Adobe Illustrator 29.0.0, SVG Export Plug-In . SVG Version: 2.1.0 Build 186)  -->
  <path d="M902.6,698.6c84.7-41.3-12-294.6-75-308.3-60.5,2.5-69.5,33-47.4,85-15.6,15.1-151.1-72.1-137.7,52.4,1.6,15.3,39.2,122.7,47.7,137.4,40.4,70.5,79.6,27.8,130.1,26.2,27.8-.9,54.5,20.9,82.4,7.3Z"/>
  <path d="M606.9,34c-145,43.3,103.1,314.6,179,256.6l84.6-117.1c-1.1-4.8-2.6-9.5-4.5-14.2-53.3-57.2-119.8-101.9-194.7-129.3-23-2.9-45-1.9-64.4,3.9Z"/>
  <path d="M393.8,540c-9.9-13.8-70.2-13.4-90.4-40.1-26.7-35.4,2.7-87.3-37.1-116.4-108.9,40.8-25.9,200.7-36.2,289.2,58.5,13.5,201.2,88.2,199-21.1-.1-5.9-32-106.9-35.4-111.7Z"/>
  <path d="M668.4,901.5c-22.7-6.7-38.7-37.7-61.4-47.2-74.2-31.1-176.6,84.9-168,142,20,2.4,40.3,3.7,61,3.7,100.6,0,194.2-29.7,272.7-80.8-27.7-26.5-69.9-7.6-104.3-17.7Z"/>
  <path d="M284.8,753.9l-126.3,74.3c-4.6,7.8-3.8,22.3-.5,36.6,48.7,45.7,106.5,81.7,170.5,105.1,93.7-40.2,38.7-184.8-43.7-215.9Z"/>
  <path d="M108,212.1c54.5,94.7,256.2-86.8,213.3-179.2-86.3,33.1-161.2,89.4-216.8,161.3-.6,6.5.5,12.5,3.6,17.9Z"/>
  <path d="M519.9,253c-45.5-20.5-200.8-9.8-143.4,54.9,31,34.9,124.8,101.6,172.3,74,20.4-11.8,3.7-117.1-28.9-128.9Z"/>
</svg>