<?xml version="1.0" encoding="UTF-8"?>
<svg id="Layer_1" xmlns="http://www.w3.org/2000/svg" version="1.1" viewBox="0 0 1000 1000">
  <!-- Generator: Adobe Illustrator 29.0.0, SVG Export Plug-In . SVG Version: 2.1.0 Build 186)  -->
  <path d="M326.2,413.2c-10.8-2.5-10-23.8-13.6-25.8-103.5-58.5-123.7,169.9-94,235.8,33.6,74.5,163.9,64.1,230.8,58.5,25.5-34.4-3.3-74,4.6-107,9.9-41.2,72.1-72,35-146.8-31.6-63.8-116-4-162.9-14.7Z"/>
  <path d="M594.8,240.7c-2.8,38.1-48.4,66.8-9.1,120.8,80.1,110.2,119.8-32,140.7-49.6,12-10,35.8-3,54.5-27.8,33.7-44.6,40.4-122.7,22.4-181.6-36.6-28-77.1-51-120.7-68.1-6.5,2.9-13.2,6.5-20.1,11-107.6,68.6-61.3,106.8-67.8,195.3Z"/>
  <path d="M804.6,443c-28.7,59.1,28.2,99.7,24.3,158-3.2,47-70,96.1-7.6,141.6,45.6,33.2,112.4-.7,130.8-48.4,12.8-32.9-7.1-53.8-1.9-75.2,3.3-13.5,26.2-34.9,46.5-60.8,2.2-19.1,3.4-38.5,3.4-58.2s-2-51.5-5.8-76.5c-46.9-31.1-162.3-36.7-189.6,19.5Z"/>
  <path d="M466.3,998.9c10.3.7,20.6,1.1,31.1,1.1,11.2,0,22.4-.3,33.6-.9,0,0,0,0,.1,0,.6,0,1.2,0,1.8-.1,78.4-5.1,151.9-28.2,216.3-65.3-25.9-264.9-317.7-186.4-282.8,65.3Z"/>
  <path d="M525.3.6c-8.4-.4-16.8-.6-25.3-.6C388.9,0,286.2,36.3,203.2,97.6c18.3,8.2,40.9,18.7,45.8,19.7,117.3,24.5,253.3,23.8,276.3-116.7Z"/>
  <path d="M115.9,423.6c37.9-47.7,6.5-80.8,8.8-121.6,1.8-33.2,62.3-72.6-24.8-98.6-1,.2-2,.4-3,.8C40.9,280.3,6,372.9.7,473.3c18.9,17.5,100.8-31.5,115.2-49.7Z"/>
  <path d="M105.7,796.5c-.8,3.2-1.4,6-1.9,8.6,47.4,61.4,108.8,111.6,179.3,145.6,10-1.9,20.3-6.2,30.8-13.5,45.1-71.5-138.3-227.1-208.3-140.7Z"/>
</svg>