<?xml version="1.0" encoding="UTF-8"?>
<svg id="Layer_1" xmlns="http://www.w3.org/2000/svg" version="1.1" viewBox="0 0 1000 1000">
  <!-- Generator: Adobe Illustrator 29.0.0, SVG Export Plug-In . SVG Version: 2.1.0 Build 186)  -->
  <path d="M644,187.3c5.4,26.6-4.3,57.9,3.7,86.1,3.4,12,96.2,118.7,109.3,115.4,64.3-61.8,88-206.2,41.3-290.1-34.8-25.9-73-47.4-113.9-63.6-.7,0-1.5,0-2.2,0-100.4,3.9-46.6,110-38.1,152.2Z"/>
  <path d="M514.3,412.9c-3-18.1-17.8-31.8-36-33.8l-14.7-1.6c-12-1.3-24.1,2.8-32.8,11.1l-24.5,23.4c-13.1,12.5-32.8,15.1-48.5,6.3-85-47.7-165.8-38.7-156.9,77.9.8,10.5,5.6,20.4,13.6,27.3,31.7,27.6,81.1,7.3,120,18.3,29.4,8.3,63.6,62.9,111.7,61.3,18.5-.6,34.3-13.7,38.4-31.8,10.3-45.7,36.9-115.1,29.7-158.3Z"/>
  <path d="M447.6,54.5c-13.3-30.3-35.6-40.4-61.8-41.4-75.8,17.7-145,52.7-203.2,100.6,108.6,107.3,260.6,146.3,265-59.1Z"/>
  <path d="M216.6,704.6l-164.2,7.6c-1,2-1.7,4-2.4,6.1,45,92.5,117.6,169,207.1,218.8,91.9-106.1-16.1-136.3-40.6-232.6Z"/>
  <path d="M594.9,750.9c-119.6-42-98.2,83.4-93.7,161.1,128.5-2.5,241.9,103.7,208.5-103.6-83,38.5-76.5-44-114.8-57.5Z"/>
  <path d="M914.8,650.4c-2.4-39.1,46.9-101.2-23.2-112.4-64-10.3-106.6,66.8-120.3,121.9,7.1,33.8,115.1,119.9,153.1,104.7,5.9-9.4,11.4-18.9,16.6-28.7,0-29.1-25.2-67.8-26.2-85.4Z"/>
</svg>