<?xml version="1.0" encoding="UTF-8"?>
<svg id="Layer_1" xmlns="http://www.w3.org/2000/svg" version="1.1" viewBox="0 0 1000 1000">
  <!-- Generator: Adobe Illustrator 29.0.0, SVG Export Plug-In . SVG Version: 2.1.0 Build 186)  -->
  <defs>
    <style>
      .st0 {
        fill: none;
      }

      .st1 {
        fill: #010101;
      }

      .st2 {
        fill: #231f20;
      }
    </style>
  </defs>
  <g>
    <g>
      <path class="st0" d="M447.6,338.6s14.8,38,55,40.1c40.3,2.1,51.7-3,48-37.6M502.6,325c21.8,4.8,12.4,37.9,1.7,41.5s-22.9-2.5-26.5-13c-3.6-10.6,7.5-32.2,24.8-28.4h0Z"/>
      <path class="st0" d="M467.4,67.7c-8.6,6.1-24,48.9-16.3,58.9,14,18.2,69.8,25.9,88.1,7.6M506.8,86.2c9.8,2.6,16.3,21.8,10.4,28.6-10,11.5-29.6,18.3-38.6-4.6-9.5-24.1,18.4-26.7,28.2-24.1h0Z"/>
      <path class="st0" d="M443.9,166.1c-56.5-29.5-17.7-131.7,20.7-143.5M518.8,232.6c-18.6,11.6-38.6-4.6-38.6-4.6-9.5-24.1,18.4-26.7,28.2-24.1,9.8,2.6,18.1,23.9,10.4,28.6h0ZM482.2,408.8c-87-14.1-84.5-126.2-19.4-145.5"/>
      <path class="st1" d="M489.6,476.5c264.6,25.3,203.6-263.7,193.2-442.4-12.8-5-26-9.6-39.3-13.6-.2,24.3,17.1,73.4,19.1,97.6,5.4,64.4,7.9,238.4-31,288.9-34.6,44.9-192.4,31.2-240.6,9.9-74.4-33-57.8-211.2-56.1-282.8.3-13.4,6.6-75,9.4-109.7-13.8,4.5-27.3,9.6-40.5,15.3v327.2c0,67.6,132.2,104.5,185.9,109.6h0Z"/>
      <path class="st1" d="M574.8,109.8c6.5-53.2-28.5-112.3-110.2-87.2-38.4,11.8-77.2,114-20.7,143.5,61.7,32.2,102.8,11.4,121-23.6l-25.7-8.3c-18.3,18.4-74.1,10.6-88.1-7.6-7.7-10,7.6-52.8,16.3-58.9,32.9-23.3,85.3,3.2,85.5,37.2l21.9,4.9h0Z"/>
      <path class="st1" d="M538.7,315.7c6.4,6.2,10.8,14.5,12,25.4,3.7,34.6-7.7,39.6-48,37.6-40.3-2.1-55-40.1-55-40.1-13.6-25.4,32.1-43.6,67.1-35.3l10.6-33.4c-18.6-9.6-40.2-13.2-62.5-6.6-65.1,19.4-67.6,131.4,19.4,145.5,122.8,19.9,119.1-70.1,70.1-119l-13.6,25.9h0Z"/>
      <path class="st1" d="M504.3,366.4c10.7-3.5,20.1-36.7-1.7-41.5-17.3-3.8-28.4,17.8-24.8,28.4s15.7,16.6,26.5,13h0Z"/>
      <path class="st1" d="M517.2,114.8c5.9-6.8-.6-26-10.4-28.6-9.8-2.6-37.7,0-28.2,24.1,9,22.8,28.6,16.1,38.6,4.6h0Z"/>
      <path class="st1" d="M480.3,228s19.9,16.2,38.6,4.6c7.6-4.8-.6-26-10.4-28.6-9.8-2.6-37.7,0-28.2,24.1h0Z"/>
    </g>
    <path class="st1" d="M514.7,303.3c9.1,2.2,17.6,6.2,24,12.4l13.6-25.9c-7.9-7.9-17-14.8-27-19.9l-10.6,33.4Z"/>
    <path class="st1" d="M564.9,142.5c5.2-10,8.5-21.2,9.9-32.7l-21.9-4.9c0,7.1-2.2,14.6-7.4,22s-3.8,4.9-6.2,7.4l25.7,8.3h0Z"/>
  </g>
  <path class="st2" d="M857.7,230.5c-19.2-23.1-66.1-18.5-81.2,12.6-15,31.1,24.7,60.7,52.5,51s55.6-31.1,28.6-63.6Z"/>
  <path class="st2" d="M161.2,227.2c-43.4,8.7-54.3,63.2-21,81.6s69.1-10,69.1-45.8-17.3-42-48.1-35.8Z"/>
</svg>