<?xml version="1.0" encoding="UTF-8"?>
<svg id="Layer_1" xmlns="http://www.w3.org/2000/svg" version="1.1" viewBox="0 0 1000 1000">
  <!-- Generator: Adobe Illustrator 29.0.0, SVG Export Plug-In . SVG Version: 2.1.0 Build 186)  -->
  <defs>
    <style>
      .st0 {
        fill: none;
      }

      .st1 {
        fill: #010101;
      }
    </style>
  </defs>
  <g>
    <path class="st0" d="M496.2,292.6c-29,7.1-20.9,80.7,34.9,52.8M525.2,329.6c-6.5,9.5-17,9.1-23.8,2.7-6.7-6.4-3.4-28.1,10.6-24.8,14,3.3,19.7,12.6,13.2,22.1h0Z"/>
    <path class="st0" d="M497.9,380.6c-80.8-3.6-66.7-109.7,6.6-113.7M545.5,193.7c28,46.6-53.4,65.4-71.8,40-41-56.7,49.9-76.5,71.8-40ZM446.9,68.8c7.3-12.4,21.5-26.9,46.6-33.3,25-6.3,46.2-.4,54.1,4.2,14.8,8.6,24.5,19,23,47.1"/>
    <path class="st0" d="M543.3,64.6c-15.3-21.2-80,3-73.9,30.5,6,27.5,25.8,39.8,52.9,30.9M524.2,79.1c7.7,7.5.3,27.2-9.6,29.7-9.9,2.6-20.6-7.1-20.9-18.8-.3-11.7,22.6-18.6,30.5-10.9Z"/>
    <path class="st1" d="M379.3,393.2c28.6,59.4,190.7,70.4,242.5,29,41.8-33.4,46.5-136.9,45.3-188.7l-4.7-206.1c-11.2-3.9-22.7-7.4-34.3-10.5,2.5,22.9,4.7,48.9,6.2,58.5,6.4,39.7,6.1,173.7,3.1,216.8-1.4,20.9-8,73.8-17.4,89.8-26.2,44.6-187.6,38.4-211.9-9-25.1-49-4.4-295.6-.8-364.7-14,2.6-27.8,5.8-41.4,9.5l.5,39.5c6.4,93.6-27.5,252,12.8,335.8h.1Z"/>
    <path class="st1" d="M514.5,108.8c9.9-2.6,17.3-22.3,9.6-29.7-8-7.7-30.8-.8-30.5,10.9.3,11.7,11,21.4,20.9,18.8Z"/>
    <path class="st1" d="M565.5,116.5c2.7-8.3,4.5-18.1,5.2-29.6,1.5-28.2-8.2-38.5-23-47.1-7.9-4.6-29.1-10.5-54.1-4.2-25,6.3-39.3,20.8-46.6,33.3-31.7,53.9,75.6,122,112.1,61.8l-22.4-15.3c-4.3,5.2-9.4,9.1-14.4,10.7-27.1,8.9-46.9-3.4-52.9-30.9s58.6-51.7,73.9-30.5c15.3,21.2,6.6,27.5.2,40.2l22,11.7h0Z"/>
    <path class="st1" d="M535.2,343.2c-1.3.8-2.6,1.5-4.1,2.2-55.8,27.8-63.9-45.7-34.9-52.8,23.5-5.8,73,23.7,44.5,46.8l16.6,18.9c30.5-34.2,15.4-95.4-52.8-91.6-73.2,4.1-87.3,110.2-6.6,113.7,21.1.9,38-4.7,50.2-13.8l-13-23.5h.1Z"/>
    <path class="st1" d="M545.5,193.7c-21.9-36.5-112.8-16.7-71.8,40,18.4,25.4,99.8,6.6,71.8-40Z"/>
    <path class="st1" d="M512,307.5c-14-3.3-17.3,18.3-10.6,24.8,6.7,6.4,17.2,6.8,23.8-2.7s.9-18.8-13.2-22.1h0Z"/>
  </g>
  <path class="st1" d="M543.5,104.8c-1.9,3.8-4.2,7.4-6.8,10.4l22.4,15.3c2.5-4.1,4.6-8.8,6.4-14.1l-22-11.7h0Z"/>
  <path class="st1" d="M540.7,339.5c-1.6,1.3-3.4,2.5-5.5,3.8l13,23.5c3.4-2.5,6.4-5.3,9.1-8.4l-16.6-18.9Z"/>
  <path class="st1" d="M198.2,237.5c33.1-6.3,75.4,42.1,29.7,70.2-45.6,28.2-71.8,11.2-84.1-20.7s22.4-43.4,54.4-49.5Z"/>
  <path class="st1" d="M766.5,238.7c-19.2,14.6-48,52.4-3,79.5s94.2-19.8,87-49.7-59.3-48.6-83.9-29.8Z"/>
</svg>