<?xml version="1.0" encoding="UTF-8"?>
<svg id="Layer_1" xmlns="http://www.w3.org/2000/svg" version="1.1" viewBox="0 0 1000 1000">
  <!-- Generator: Adobe Illustrator 29.0.0, SVG Export Plug-In . SVG Version: 2.1.0 Build 186)  -->
  <defs>
    <style>
      .st0 {
        fill: none;
      }

      .st1 {
        fill: #010101;
      }
    </style>
  </defs>
  <g>
    <path class="st0" d="M544,356.6c0-20.7-36.3-27.1-47.9-29.1-34.4-6.2-33.5,24.4-24.4,44.7,5.5,12.2,18.6,22.4,37.1,22.4M487.8,353.3c10.7-10.7,31.4-12.2,36.2,3.9s-7.8,17-20.9,17-20-9.6-15.3-20.9h0Z"/>
    <path class="st0" d="M543.7,125c21.7-19.2,16.6-70.9-33.4-71.4M519,73.2c21.5,5.6,22.7,24.3-.3,30.2-3.9,1-21.7-1.6-21.7-17.9s18-13.3,22-12.2h0Z"/>
    <path class="st0" d="M490.7,22.7c79-14.5,127.2,107.4,50.9,130.7M495.9,257.9c-35.9-23,7.9-96.7,53.5-59.6,35.3,28.7-23.1,79.1-53.5,59.6h0ZM519,414.6c-111.3,24.5-97-116.7-31.2-116.8"/>
    <path class="st1" d="M347.9,388.9c5.2,21.5,11.9,49.1,44.8,59.3,32.9,10.2,140.9,22.7,207.6,17.3s65.1-49.4,71-89c10.9-73.6,23.1-250.8,15.7-341.1-8.4-3.4-16.9-6.5-25.5-9.4.9,39.4,5.4,242.7-.2,284.5-6.2,46.4-14.5,101.6-16.7,106.4-25.3,54.1-227.1,27.9-243.7,11.3s-30.7-30.1-30.7-50.5V17.1c-7.7,2.1-15.4,4.4-22.9,6.8-1.2,101.9-3.6,348,.5,365h.1Z"/>
    <path class="st1" d="M564.9,386.9c20.5-35.9-25.1-89.3-77.1-89.2-65.9.1-80.2,141.3,31.2,116.8,17-3.7,29.2-9.8,37.4-17.2l-20.6-16.8c-6.6,8.5-16.4,13.9-26.9,13.9-18.6,0-31.6-10.2-37.1-22.4-9.2-20.3-10.1-50.9,24.4-44.7,11.6,2.1,47.9,8.4,47.9,29.1s-1.3,11.2-3.5,16.1l24.4,14.3h-.1Z"/>
    <path class="st1" d="M469.3,145.5c17,12.4,41.3,17.4,72.3,7.9,76.3-23.3,28.1-145.2-50.9-130.7-53.1,9.7-63,71.5-36,108.2l23.5-23.1c-16.9-23.6-16.3-54.7,32.1-54.2,50,.5,55.1,52.2,33.4,71.4-17.5,15.5-40.1,8.3-56-6.4l-18.4,26.9h0Z"/>
    <path class="st1" d="M495.9,257.9c30.4,19.5,88.8-30.9,53.5-59.6-45.6-37.1-89.4,36.5-53.5,59.6h0Z"/>
    <path class="st1" d="M518.7,103.4c23-5.8,21.8-24.6.3-30.2-4-1.1-22-4.1-22,12.2s17.8,19,21.7,17.9h0Z"/>
    <path class="st1" d="M503.1,374.2c13.1,0,25.7-.9,20.9-17s-25.5-14.6-36.2-3.9c-4.8,11.3,2.2,20.9,15.3,20.9Z"/>
  </g>
  <path class="st1" d="M487.7,118.6c-3.5-3.3-6.8-6.9-9.5-10.7l-23.5,23.1c4,5.5,8.9,10.5,14.6,14.6l18.4-26.9h0Z"/>
  <path class="st1" d="M556.3,397.4c3.6-3.3,6.4-6.8,8.6-10.5l-24.4-14.3c-1.3,2.9-2.9,5.5-4.8,8l20.6,16.8h0Z"/>
  <path class="st1" d="M789.8,253.1c-29,21.9-42.3,50,7,73.6s75.6-48.2,59.4-64.4-41.8-27.8-66.4-9.1Z"/>
  <path class="st1" d="M219.9,251.2c-23.6-11.6-77.5-17.9-81.2,33.9s74.1,42,91,28.6,14.7-50.5-9.8-62.5Z"/>
</svg>