<?xml version="1.0" encoding="UTF-8"?>
<svg id="Layer_1" xmlns="http://www.w3.org/2000/svg" version="1.1" viewBox="0 0 1000 1000">
  <!-- Generator: Adobe Illustrator 29.0.0, SVG Export Plug-In . SVG Version: 2.1.0 Build 186)  -->
  <path d="M913.9,693.5c-32.9-33.7-130.8-50.5-177.5-43-25.6,4.1-46.7,24.7-69,26.2-35.8,2.5-78.2-33.1-147-27.1-43.8,3.8-88.8,36.8-110.1,38-21.6,1.2-41.2-28.8-67.6-35.1-54.9-13.1-191.8,8.8-248.2,64.6-4,3.9-16.3,13.4-31.7,25.3,6,10.9,12.5,21.5,19.3,31.9,16.2-12.3,29.1-22.4,34.6-25.2,80.5-40.3,175.5-94.5,248.6-25.4-63.4,112.5-.7,41,41.7,14.3,56.4-35.5,141.2-68.2,201.2-27.4,27.2,19.3-26.9,88.4-10.5,97,16.4,8.5,42.5-57.7,66.1-77.8,28.5-24.3,59.7-41.8,112.5-40.7,67.4,1.3,113.4,32.2,138.7,90.2,7.3-10.9,14.3-22.1,20.8-33.6-3.2-21-12.3-42.7-21.6-52.2h-.3Z"/>
  <path d="M294.1,835.8c.1-26.3-10.1-53.1-30-69.8-62.5-52.3-122.2,18.5-125.4,79.6,25,26.1,52.8,49.6,83,69.8,4.5-.5,9.2-1.1,14.1-2.1,12.9-2.4,23.6-7.8,32.1-15.2l-40.2-16.1c-10.5,1.3-36.9,6-48.3-6.3h0c-11.4-12.3-11.1-27.5-8.8-41.2,3.8-22.7,15.4-41.9,38.3-46.4,22.9-4.5,51.6,19.6,53.3,27.8l31.9,19.9Z"/>
  <path d="M772.1,774.5c-99.1,15.6-87.4,131-13.3,153.3,17.4-10.5,34.1-22.1,50-34.7-98.1,27.6-81.5-119.6-3.9-80.6,20.7,10.4,31.7,33.8,31.8,56.8,10.2-9.3,20-19,29.4-29.1-6.1-39.3-38.9-74.6-94.1-65.9v.2Z"/>
  <path d="M507.7,919.9c9.9-.3,19.6-2.4,28.7-6.3,19.6-8.5,44.5-26.8,44.5-54.9s-18.7-45.8-29.8-64.5c-18.6-31.1-44.3-50-95.4-34.3h-.1c-22.1,6.8-34.6,31.8-44.3,51.1-11.7,42.4,12.6,78.8,46.6,96.9l8.3-42.7h0c-5.1-4.6-42.3-23.2-21.3-49.8s51.4-12.4,63.6-7.1c59.3,26,48.1,86.9,5.3,82.5l-6.1,29.1Z"/>
  <path d="M578.5,993.9c8.6-1.4,17.1-2.9,25.6-4.7-8.4-4.7-18.2-3.1-25.6,4.7Z"/>
  <path d="M617.9,905.6c-23.2,5.9-41.4,22.3-23.8,39.9s37,10.4,43.6,5.4c20-15,3.4-51.2-19.9-45.4h.1Z"/>
  <path d="M328.8,948.1c-7-2-17.8-.8-30.1,9.7,14.9,6.6,30.3,12.5,45.9,17.6,8.7-9.3,3.5-21.9-15.8-27.2h0Z"/>
  <path d="M365.5,892.1c-12.5,12.5-7.2,33,0,40.2s30,10.3,40.3,0,11.2-29.1,0-40.2-27.7-12.5-40.3,0Z"/>
  <path d="M432.8,986.3c-1.9,1.8-2.2,5-1.5,9,14.9,2.1,30.1,3.4,45.4,4.1-8.1-15.4-27.4-28.5-43.9-13.2h0Z"/>
  <path d="M262.2,815.9c4.7,22.5-5,62.3-34.5,66.1l40.2,16.1c17.5-15.1,26.1-38.5,26.2-62.4"/>
  <path d="M457.9,907.9c15.5,8.2,32.9,12.6,49.9,12l6.1-29.1c-13.2-1.3-29.5-8.9-47.6-25.6l-8.3,42.7Z"/>
</svg>