<?xml version="1.0" encoding="UTF-8"?>
<svg id="Layer_1" xmlns="http://www.w3.org/2000/svg" version="1.1" viewBox="0 0 1000 1000">
  <!-- Generator: Adobe Illustrator 29.0.0, SVG Export Plug-In . SVG Version: 2.1.0 Build 186)  -->
  <path d="M754.3,632.3c-25.7,5.4-59.4,31.1-76.2,32-17.4,1-57.5-31-94.8-33.2-45.4-2.7-163.5,34.8-172.2,33.3-14.7-2.6-31-26.5-49.2-32.1-45.7-14.1-226.6,9-290.9,54.5-4.5,3.2-14.9,10.6-26.5,19.3,6,13.2,12.5,26.1,19.6,38.7,9.3-3.8,17.9-7.5,24.1-10.1,31.1-12.8,70.9-40,85.3-44.9,31.3-10.6,178.6-44.3,187.7-2.3,1.9,27.3-78.7,70.2-20.2,74.7,69.2-37.9,149-100.7,228-89.1,21.4,3.1,63.8,12.9,63.8,27.8s-32.3,62.6-32.3,62.6c-6.3,27.1,14.7,38.9,33.6,20,18.9-18.9,37.9-69.2,75.4-87.7,61.2-30.2,221.3-61,237.2,29.3,8.2-16.2,15.6-33,22-50.2-43.4-50.4-151-56-214.2-42.7h-.2Z"/>
  <path d="M830.9,842.6h0c-20.5,15.7-77.3-5.3-77.3-44.5s51.2-75.3,86.9-50.7c15.4,10.6,18.1,28,15.1,45.1l23.8,33c22.7-58.1-4.9-135.2-97.1-114.9h0c-106,23.4-74.4,183.6,22.8,173.9,6.8-.7,13.2-2.1,19.2-4.1"/>
  <path d="M156.9,863.7c7.2,6.8,14.6,13.3,22.1,19.7,21,3.5,44.9.6,70.2-11.7,55.8-74.1,7.9-159.7-85.6-140.8-46.9,9.5-66,37.1-65.7,66.4,10.6,14.2,21.9,27.9,33.8,40.9l13.6-26.7c-6.7-20.6-1.5-42.1,25.4-50.5,97.6-30.2,86,93.1,32.7,97-10.3.8-20.5-2.8-29.7-8.9l-17,14.6Z"/>
  <path d="M456.5,887.9c56,35.7,124.8-24,104.3-102.8-5-19.3-19.2-45.5-41.2-57.6h0c-22.1-12-107.6,17.7-114.3,61.9l31.1,16.9c-6.5-20,33.2-58.2,70.8-44.1,37.6,14,29.2,108.5-17.1,101.2h0c-11.6-1.8-20.3-5-27-9.1l-6.6,33.6Z"/>
  <path d="M626.2,952.5c-20.1,5.4-22.2,20.4-15.8,35.3,20.3-4.6,40.1-10.4,59.3-17.3-3.7-14.8-19.2-24.5-43.5-18Z"/>
  <path d="M626.2,911.5c28.6,6.3,43.6-44.3,33.7-54.2-26.2-26.2-83.9,43.2-33.7,54.2Z"/>
  <path d="M330.5,970.5c19.6,7.1,39.8,12.9,60.4,17.5,9.8-26.8-62.5-57.6-60.4-17.5Z"/>
  <path d="M510.5,952.4c-14.1-14.1-32.3-8.3-40.6,0s-11.9,32.8,0,44.8c.7.7,1.5,1.4,2.2,2.1,9.2.5,18.6.8,27.9.8s8.4,0,12.5-.2c3.3-12.1,8.4-37-2.1-47.5h.1Z"/>
  <path d="M333.9,870.9c-11.9,11.9-16.8,16.9,0,33.8s37.7,19.3,45.6,11.4c7.9-7.9,8.1-32.1-5-45.2-13.1-13.1-28.7-11.9-40.6,0Z"/>
  <path d="M131.7,838.2c8.1,8.8,16.5,17.3,25.1,25.5l17-14.6c-13.1-8.8-23.7-23-28.5-37.6l-13.6,26.7Z"/>
  <path d="M405.3,789.4c-6.7,44.2,43.2,93.4,51.2,98.5l6.6-33.6c-20.1-12.4-21.8-33-26.7-48l-31.1-16.9Z"/>
  <path d="M824.5,880.4c19.7-16.8,38.1-35.2,55-54.9l-23.8-33c-3.9,22.6-17.7,44.7-24.8,50.1l-6.4,37.8Z"/>
</svg>