<?xml version="1.0" encoding="UTF-8"?>
<svg id="Layer_1" xmlns="http://www.w3.org/2000/svg" version="1.1" viewBox="0 0 1000 1000">
  <!-- Generator: Adobe Illustrator 29.0.0, SVG Export Plug-In . SVG Version: 2.1.0 Build 186)  -->
  <path d="M170.4,875.9c56.2-3.2,98.2-78.7,42.7-134.5h0c-31.4-31.5-103.8,5.1-117.4,52.7l39.6,5.6c8.8-27.3,36.7-52.1,62.7-32.5,24.3,18.3-.7,89.3-40.3,81l12.7,27.7Z"/>
  <path d="M645.2,851.7c93.5,0,93.3-168.1-9.6-145.8-57.9,12.5-74,77.9-45.5,116.9l18.2-25c-5.5-17.6-9-52,18.4-56.9s58.9-3,58.9,29.8-2.4,57.8-32.6,57.8h0c0,0-7.8,23.2-7.8,23.2Z"/>
  <path d="M390,871.4c104,12.4,87.7-166.2.2-138.2h-.1c-41.1,13.1-56,59.4-46.7,99,2.5,10.7,2.5,19.5,13,29.9l10.3-39.7c-7.4-22.1-1.7-33.7,11.5-45.8s33.4-22.7,49.5.3,7.6,34.2-6,55.4h.1l-31.8,39.1Z"/>
  <path d="M846.9,743.2c-75,15.6-55.1,107.7,5.5,111.4,5.6-5.5,11-11.2,16.3-16.9-16.1,3-28.3-5.6-39.7-27.7-15.3-29.4,20.8-42.2,41.5-41.5,12.5.4,24.7,17.9,27.1,34.8,5.8-7.6,11.4-15.4,16.7-23.3-2-25.9-20-46.5-67.4-36.7h0Z"/>
  <path d="M291.8,920c8.3,26.9,54.5,14.9,60.2,5.8,38.7-61.6-86.7-92.1-60.2-5.8Z"/>
  <path d="M452.6,939.6c-9.4-18.5-40.8-3.8-56.6,12-9.7,9.7-4.8,26.2.4,37.6,13.6,2.9,27.3,5.2,41.3,6.9,3.2-1.7,6.3-3.9,9.1-6.7,16.4-16.4,15.3-31.4,5.9-49.9h0Z"/>
  <path d="M613.2,930c-32.5,8.7-17.7,60.8,24.6,49.4,32.5-8.7,17.7-60.8-24.6-49.4Z"/>
  <path d="M500.3,852.3c-14.1,14.1-6.3,39.7,0,49.6,6.3,10,29.5,13.1,37.2,0,7.6-13.1,14.6-35,0-49.6s-23-14.1-37.2,0Z"/>
  <path d="M713.5,878.1c-10.5,8.3-14.1,56.7,18.4,49.5,38.4-8.4,4.2-67.4-18.4-49.5Z"/>
  <path d="M894.7,645.3c-18.7-11.4-42.3-16.7-60.3-14-90.5,13.3-69.1-1.6-139.3-2.4-42.1-.5-95.3,33.6-126.7,34.4-33.2.9-67.9-31.7-133.7-21-32,5.2-64.7,37-88.1,36.3-23.5-.7-32.5-28.7-51.8-34.6-38.5-11.9-197.4,15.3-253,56.7,5.5,12.5,11.5,24.8,18,36.8,61.1-30.1,195.6-96.6,242-25.8,3.5,19-47,84.1-13.7,89.7s41.4-72.9,84.9-95.4,110.2-49.5,166.7-14.5c4.6,6.3-77.6,101.6-31,99,13.8-.8,57.9-71.2,76.3-85,47.1-35.4,106.2-56.2,148.2-44.3s23.9,69.3,5.5,104.6,23.4,41.1,38.3-7.3c15-48.4,15.2-79.5,58.7-88.1,29.1-5.8,83.6,23.9,116.4,44.1,5-10.5,9.7-21.3,13.9-32.2-29.4-16.2-61.1-30.6-71.1-36.7l-.2-.3Z"/>
  <path d="M157.7,848.2c-24.8-5.2-29.2-27.6-22.4-48.5l-39.6-5.6c21.8,30,46.9,57.4,74.7,81.8l-12.7-27.7Z"/>
  <path d="M356.4,862.1c10.4,10.4,23.5,8.1,33.6,9.3l31.8-39.1c-13.6,21.2-47.7,12.1-55.1-9.9l-10.3,39.7Z"/>
  <path d="M590.1,822.9c11.3,15.4,29.6,26.7,55.1,28.9l7.8-23.3c-30.2,0-39.2-13-44.7-30.6l-18.2,25Z"/>
</svg>