<?xml version="1.0" encoding="UTF-8"?>
<svg id="Layer_1" xmlns="http://www.w3.org/2000/svg" version="1.1" viewBox="0 0 1000 1000">
  <!-- Generator: Adobe Illustrator 29.0.0, SVG Export Plug-In . SVG Version: 2.1.0 Build 186)  -->
  <path d="M905.9,634.2c-57.2,0-61.3,11.3-85.3,7.8-18.4-2.7-32.5-23.9-52.9-28.6-87.6-20.3-124,27.7-176.3,27.1-32.2-.4-63.6-36.8-128.6-29.3-34.7,4-56.7,32-71.4,33.5-15.8,1.6-38.3-25.2-58.2-32-74.5-25.4-201.3,4.7-278.2,53.4-3.2,2-11.6,6.6-22.2,12.3,4.6,12.1,9.7,24.1,15.3,35.7,21.6-9.6,43.4-19.7,49.3-22.4,20.6-9.6,41.6-22.2,59.1-26.7,29.7-7.6,184.9-42.6,189.9,0l-58.1,90c-4.5,19.8-1.4,23.3,18.8,20.9,57.5-6.7,126.7-193.9,232.5-108.7,11.6,4.3-3.5,33-14.3,57.9-10.5,24.2-17.1,80.6,8.7,71.5,19.5-6.9,41.4-65.3,66.7-88.8,44.9-41.7,100.5-86.8,172.2-54.6,6.8,24.2-8.7,46.3-18.9,66.7s-14,81.7,9,73.6c23-8.1,18.1-69.7,74.2-93.7,21.7-12.1,46.1-18.1,76-16.1,6.4.4,25.9,14.1,41.7,24.2,5.3-11.6,10.2-23.3,14.6-35.4-8.5-14.1-16.3-38.3-63.6-38.3h0Z"/>
  <path d="M140,846.9c21.1,5.2,44.2,1.9,61-13.4h-.1c81.8-74.4-57.5-171.1-106.3-82-5.4,9.9-8.2,19.3-9,28.3l26.2,13.8c-1.6-11.3,3.4-22.5,11.8-30.9,13.4-13.4,35.6-20.7,53.7-10.7,18.1,10,25.9,35.8,7.1,54.7-12.8,12.8-29.3,19.1-43.8,16.5l-.6,23.7Z"/>
  <path d="M680.3,807.5c-4,20.9-19.1,35.5-42.8,12.5-10.3-10-6.4-57,6.3-60.9,20.6-6.3,32.2,6.9,36.1,23.6l28.1-17c-6.5-20.7-26.4-29-38.5-31-89.8-14.7-95.2,127.8-2.3,113.1,7.7-1.2,30.9-23,30.9-23l-17.8-17.3Z"/>
  <path d="M838.2,830c3.9,6.9,12.8,12.1,23.9,14.9,3.1-3.2,6.1-6.5,9.1-9.8-2.9-2.6-5.6-6.3-8-11.4-11-24.2,2.7-41.2,13.5-52s31.8-12.3,44.5-2.1c4.5-7,8.8-14.1,12.9-21.3-32.7-42.6-124.7,30.6-96,81.9v-.2Z"/>
  <path d="M414.1,850.6c9.8,1.2,20.8.6,33.2-2.3,39.5-9.5,31.5-63,25-89.2-2.2-8.7-13.8-33.6-36-37.4h.1c-22.2-3.6-36.1,6.5-55.6,23.4,0,0-33.9,34.8-24.3,59.8l30.6-5.3c-3.4-13.3,3.9-27.9,13.7-37.7,16.6-16.6,41.5-18.1,52.1,3s-2.4,72.6-40.3,58.4h0l1.5,27.3Z"/>
  <path d="M534.4,951.1c-17.2,7.1-30.9,26.5-33,48.9,31.4,0,62.2-3.1,92-8.7,0-3-.9-6.3-2.9-9.9-18.3-34-40.5-36.7-56.2-30.2h.1Z"/>
  <path d="M418.8,928c-27.6-8.4-40.1,38.6-38.4,57.6,14.8,3.6,29.8,6.6,45.1,8.9,24.4-15.7,38.1-52.9-6.6-66.5h-.1Z"/>
  <path d="M245.4,849.2c-57.1,12.7,1.5,87,29.6,68,17-11.5,23.1-79.8-29.6-68Z"/>
  <path d="M523.6,840.1c-37.8,21.6-7.6,67.8,29.8,67.8s34.8-31.3,34.8-42-26.7-47.4-64.6-25.8Z"/>
  <path d="M666.9,932.3c16.1,62,76.2-17.3,53.8-42.2-11.6-12.8-68.7-15.1-53.8,42.2Z"/>
  <path d="M140.6,823.2c-6.7-1.2-13-4.3-18.3-9.6h0c-6.3-6.4-9.5-13.2-10.5-20l-26.2-13.8c16.2,23.9,34.4,46.4,54.4,67.1l.6-23.7Z"/>
  <path d="M356.5,804.9c7.3,19.1,25.8,41.8,57.6,45.7l-1.5-27.3c-15.6-5.8-23.1-14.4-25.5-23.7l-30.6,5.3Z"/>
  <path d="M679.9,782.7c1.9,8,1.9,16.8.4,24.8l17.8,17.3c10.2-17.7,16.3-38.4,9.9-59.1l-28.1,17Z"/>
</svg>