<?xml version="1.0" encoding="UTF-8"?>
<svg id="Layer_1" xmlns="http://www.w3.org/2000/svg" version="1.1" viewBox="0 0 1000 1000">
  <!-- Generator: Adobe Illustrator 29.0.0, SVG Export Plug-In . SVG Version: 2.1.0 Build 186)  -->
  <path d="M846,657.6c-36.8,2.7-73.3,23.4-94.7,25.2-15.8,1.3-46.7-19.9-79.2-21.7-42.5-2.3-81.8,20.8-93.5,20.2-11.6-.6-35.9-30.6-81.5-32-55.5-1.7-100.4,32-130.3,33.8-18.4,1.1-64.6-44.6-113.1-43.5-16.4.4-83.7,21.1-123.2,45.9-14,8.8-49.1,28.9-73.4,47,3.5,6.7,7.2,13.3,11,19.8,25.1-10,55.7-23.1,63.2-26.2,50.7-21.6,163.5-84.9,196.9-23.1,2.9,13.6-66.6,84.5-17.4,75.6,33.6-6.1,51-52,84.5-66.9,42-18.7,111.4-39.5,130.2-26.9,18.8,12.6,12.8,36.6,7.4,47.8-9,18.7-25.5,34.8-33.4,45.2-32.4,42.6-4.7,29,27.4,9.4l57-68.9c28.2-22.8,63.3-26.1,99.8-18.1,9.5,2.1,21.9,1.2,29.3,15.6,7.5,14.4-38.6,62.3-21.7,69.8s34.8-35.1,44.7-46.1c34.2-38.1,68.1-58,124.9-50,38.9,5.5,64,29.3,80.6,45.5,3.6-6.8,7.1-13.6,10.4-20.6-25.2-28.5-75.4-59-105.9-56.7h0Z"/>
  <path d="M584.5,807.3c-11.1-40.9,36.4-42.8,46.4-29,13.4,18.5-7.6,44-26,45.8l1.3,23.4c11.7,1.9,24.2-1.5,35.9-12.4,39.9-37.3,6.6-86.4-37.8-87.3h0c-6.3,0-23.2,4.8-34.3,15.7-11.1,11-10.2,21.5-10,25.7.5,14.8,6.7,29.3,16,40.2l8.4-22Z"/>
  <path d="M204.4,858.4c77-8.2,66.6-139.8-18.9-123.3-69.7,13.5-66.1,100.9-12,120l3.4-29.3c-23-14.8,11.4-80.3,37.6-59.5,9.2,7.3,16.4,50.1-7.4,58.6l-2.7,33.5Z"/>
  <path d="M441,837.2c14.3-9.7,23.3-25.1,19.2-43.9-23.2-105.7-160.3-24.9-94.5,40.8l20.4-16.5c-14-14-12.9-31.2,0-38.8s25.6-15.3,36.9-4c11.4,11.4,19.2,29.1,9.5,38.8h.1l8.4,23.6Z"/>
  <path d="M853.7,746.6c-40.2,6.1-66.6,42.7-60.9,73.3,2.3,12.4,13,28.3,24.1,31.8,6,1.9,19.5,3.6,33.5,5,8.2-8.1,16.2-16.5,23.9-25.1-17.2,1.7-37.7,2.1-44.4-4.6-12.2-12.2-12.6-37.4,26.3-52.2,25.6-9.8,34.3,12.8,42.2,27.6,6.5-8.5,12.7-17.3,18.7-26.2-2-4.2-4.7-8.4-8.3-12-13.9-13.9-41.5-19.6-54.9-17.6h-.2Z"/>
  <path d="M678,888c10.8,46.1,99.8,5.8,69.1-39.5-13.5-19.9-78.3.4-69.1,39.5Z"/>
  <path d="M564.5,947.7c-16.5,31.3,47.6,46.4,61.3,32.8,13.7-13.7,11.2-20.9-1.4-45.1-12.6-24.1-56.9,6.6-59.9,12.3h0Z"/>
  <path d="M427.4,929.7c-21.6,4.6-23.7,47.3-8.2,63.8,8.8,1.4,17.7,2.6,26.7,3.6,34-15.1,14.2-74.4-18.5-67.4h0Z"/>
  <path d="M508.5,836.6c-28.7-7.2-36,51.3-28.8,58.1,31,29.5,90.8-42.6,28.8-58.1Z"/>
  <path d="M299.3,917.9c43.3,11,48.4-51,40.6-58-24.3-21.8-79.7,48.1-40.6,58Z"/>
  <path d="M207.1,824.9c-14.6,5.2-24.3,4.7-30.2.9l-3.4,29.3c9,3.2,19.3,4.5,30.9,3.3l2.7-33.5Z"/>
  <path d="M365.7,834.1c19.5,19.5,53.6,17.8,75.3,3.1l-8.4-23.6c-9.6,9.6-32.5,18-46.5,4l-20.4,16.5Z"/>
  <path d="M604.9,824.1c-8.7.8-16.8-3.7-20.4-16.8l-8.4,22c8.1,9.5,18.7,16.3,30.1,18.1l-1.3-23.4Z"/>
</svg>