<?xml version="1.0" encoding="UTF-8"?>
<svg id="Layer_1" xmlns="http://www.w3.org/2000/svg" version="1.1" viewBox="0 0 1000 1000">
  <!-- Generator: Adobe Illustrator 29.0.0, SVG Export Plug-In . SVG Version: 2.1.0 Build 186)  -->
  <path d="M932.9,662.8c-12.2-13.7-25.7-25.6-32.2-27.8-43.6-15.3-81,8.9-119.8,5.6-32.1-2.7-52.5-27.7-84.1-29.4-51.8-2.9-89.7,39-114.2,42.2-9.7,1.3-64.1-27.2-106.9-27.3-45.1,0-100.7,32.3-121.2,29.6-40.8-5.3-47.5-43.3-131.6-36.3-24.6,2-95.2,28-137.9,55.6-12.2,7.9-29.3,19.9-41,30.7,4.7,10.3,9.7,20.4,15,30.4,30.1-9.9,75.1-43.9,85.9-48.3,56.4-23,124.8-49.3,175.6,0,11.1,40.6-42.5,65.3-48.1,71.3-8.7,9.4-5,28.2,17.4,25.3,32.5-4.2,64.6-76.9,92.9-93,17.6-10,94.3-32.6,117.8-27.4s50.5,17.7,38.2,30-33.6,32.4-37.2,50c-3.7,17.7,19.7,8,27.5,5.1,21.6-8,35.2-45.2,61.5-61.3,46.6-28.5,108.4-56.8,140.4-24.8s-40.6,84.4-16.7,108.3,42.2-126.3,160.7-100.6c8.8,1.9,17.9,10,27.1,18.6,7.7,7.2,24.9,24.1,43.1,39.1,5.6-11,10.9-22.2,15.7-33.6-11.4-13.4-22.2-25.6-27.8-31.9h0Z"/>
  <path d="M901.5,798.1c3.4-16.3,1-32.1-14.4-45.1-142.6-56.3-189.3,112.7-44.1,110.8l3.9-41.4c-23.2,4.8-51.2.3-54.7-17.6-6.5-33.5,63.2-51.3,83.5-16s3.4,9.6,2.2,13.7l23.6-4.4Z"/>
  <path d="M145.9,786.5c-6.8-5.3-11.5-12.6-11.5-21.4,0-24.9,49.7-36.8,61.4-15.5,11.8,21.3,6.8,32.6-8.3,43.1h0l-10.2,30.9c10.5-.5,20.3-2.6,27.9-6.6,25.6-13.5,26.3-36.3,26.3-36.3,8.9-49.1-24.5-72.6-65-70.5h0c-9.9.5-51.2,8.4-61.6,31.9-10.3,23.5-1.5,53.9,6,61.8l34.9-17.4Z"/>
  <path d="M643,844.2c38.9-20.1,48.4-83,9.3-98.2h-.2c-18.4-5.2-37.7-6.5-56.3-1.7-20.7,5.3-52.1,36.2-46.7,60.4,0,0,14.9,42,40.8,42l18.6-29h0c-8.3-.5-30.8-5.5-24.1-28.5,6.6-23,52.8-15.9,60.4-8.1,9.4,9.5,4,21.5-7.7,29.1l5.9,34Z"/>
  <path d="M398.2,846.2c16.8,1.3,34.2-3.3,47.9-15.9,56.9-52.3-15.7-158.2-84.6-85.7-30.3,31.8-26.2,61.9-8,81l23.6-26c-7.9-36.6,39-53.1,50.4-40.4,18.3,20.3-7.4,52.1-28.6,56.3l-.7,30.6Z"/>
  <path d="M439.2,934.2c-9.4-17.4-33.2-14-42.5-10.1-29.2,12.2-31.4,40.8-21.6,60.2,15.3,3.9,30.8,7.1,46.6,9.6,1.7-1.8,3.4-3.8,5.1-6.1,2.5-3.4,21.7-36.2,12.3-53.6h.1Z"/>
  <path d="M578.4,946.9c-9.7-1.6-22.3-3-36.5,11.2s-.6,30.1,5.3,39.7c21.9-2.1,43.4-5.5,64.4-10.3,5-16.5-2.8-35.7-33.2-40.6h0Z"/>
  <path d="M491.4,860.2c-26.7,7-16.8,52.8-8.2,58.8,58.9,40.6,94-81.3,8.2-58.8Z"/>
  <path d="M709.2,867.9c-17.7-3.3-28.3-4.9-41.2,8s16.9,65.6,40,62.5c23.2-3.1,30.7-17.1,30.7-30.8s-11.8-36.4-29.6-39.7h0Z"/>
  <path d="M239.5,869.5c0,25.2,17.7,40.1,41.5,32.1,23.7-8,38.2-42.4,20.7-59.8s-62.2,2.5-62.2,27.7h0Z"/>
  <path d="M187.5,792.7c-9.8,6.7-29.2,3.6-41.6-6.2l-34.9,17.4c12.5,12.9,41.3,20.9,66.3,19.7l10.2-30.9Z"/>
  <path d="M353.5,825.6c11.1,11.7,27.6,19.2,44.7,20.6l.7-30.6c-9.9,2-18.8-2-21.8-15.9l-23.6,26Z"/>
  <path d="M589.9,846.7c25.9,0,40.1,4.2,53.1-2.5l-5.9-34c-7.7,5-18.1,8.2-28.6,7.5l-18.6,29Z"/>
  <path d="M843,863.8c21.4-20.1,40.9-42.1,58.5-65.7l-23.6,4.4c-2.9,9.8-15.9,16.8-31,20l-3.9,41.4Z"/>
</svg>