<?xml version="1.0" encoding="UTF-8"?>
<svg id="Layer_1" xmlns="http://www.w3.org/2000/svg" version="1.1" viewBox="0 0 1000 1000">
  <!-- Generator: Adobe Illustrator 29.0.0, SVG Export Plug-In . SVG Version: 2.1.0 Build 186)  -->
  <path d="M826.1,605.8c-65.9-6.8-96,24.7-130.3,25.3-27.3.5-51.1-23.8-88.1-22-37.9,1.8-110.9,46.4-120.9,45.6-14-1.2-37.7-47.5-90.6-48.8-62.9-1.5-121.8,48.3-145.9,50.3-15.7,1.3-36.8-23.7-90.9-23.7s-97.3,15.5-129.7,37.4c4.7,12.9,9.9,25.6,15.5,38,18.7-11.8,41.1-25.1,62.4-34,40.1-16.7,76.6-2.2,99.1-2.6,24,23.3-59.8,100.4-6.4,91.4,45.4-11.9,45-60.1,88.2-81.3,42.1-20.8,179.3-63.6,150.3,19.9-1.9,5.6-67.3,75.9-17,74,14.9-.6,57.3-70.5,72.7-83.5,40.5-34.3,132.4-51,155.9-27.5s9.6,79.9,6.3,101.5,32.8,38,32.8,7,63.7-146.6,154.5-125.4c23.9,5.6,43.6,22.6,52.6,45.5l27.9,71.3c11.9-19,22.5-38.9,31.8-59.5-8.6-41.8-43.9-90-130.2-98.9Z"/>
  <path d="M772.6,779.9c-6.3-13.7-3.1-32.2,15.2-37.1,51.6-13.9,48.7,43.9,12.7,51.9l1.4,39.3c62,4.3,69.3-70.8,51.1-117.6-59.5-72.8-157.1,32.3-121.8,89.4h0s41.5-25.9,41.5-25.9Z"/>
  <path d="M549.2,808.8c-26.9-8.9-29-80.7,11.6-68.9,26.4,7.7,30.8,29.2,24.4,46.4l32,20.7c19.3-37,10-89.9-46.1-104.2-79.3-20.2-123.9,112.9-33.1,138.7l11.2-32.6Z"/>
  <path d="M299.7,811c-20.1-17.7-32-51.1,2.9-58.3,31.2-6.4,52,48.5,32.4,65.1l-1.7,28.2c13.8-1.2,27.6-5.9,38.9-17.2,26.3-26.3,10.7-100.2-33.4-113.2h0c-119.8.1-124.2,101.4-55.1,123.2l16-27.8Z"/>
  <path d="M442.9,996.8c18.7,2.1,37.8,3.2,57.1,3.2s12.1,0,18.1-.3c-1.2-5.1-2.9-10.2-5.3-15.3-20.9-43.8-62.9-16.8-69.9,12.4h0Z"/>
  <path d="M322.2,936.8s16.4-29.2,1.8-43.8-42.6-22.7-65.3,0c-11.6,11.6-4.3,36.2,10.5,50.7,7.5,3.9,15,7.6,22.7,11.1,9.9.5,20.5-4.4,30.2-18h0Z"/>
  <path d="M625.2,984.2c26.3-6.8,51.7-15.6,76.1-26.4-45.2-19.9-77,4.7-76.1,26.4Z"/>
  <path d="M643.5,840.9c-32.9,9.2-21.6,72.5,12.7,65,38.9-8.5,43.1-80.6-12.7-65Z"/>
  <path d="M389.3,873.5c-18,69.4,94.3,52.1,50.8-5.2-8.1-10.6-45.3-16-50.8,5.2Z"/>
  <path d="M90,713.4c-15.4,4.8-26.9,9.5-35.5,13.8,4.3,8.4,8.8,16.7,13.6,24.8,20.5-15.8,60.6-9.6,57,19.9-2.3,18.7-10.2,29.7-19.9,34.8,5.7,7.3,11.6,14.5,17.7,21.5,81.8-28.1,19.1-131.1-32.8-114.8h0Z"/>
  <path d="M731.1,805.8c2,3.2,61.4,27.6,70.8,28.2l-1.4-39.3c-13.1,3-23.1-4.6-27.9-14.8l-41.5,25.9Z"/>
  <path d="M585.2,786.3c-5.9,15.6-20.6,27.6-36,22.5l-11.2,32.6c36.7,10.4,65.3-7.9,79.2-34.5l-32-20.7Z"/>
  <path d="M283.7,838.8c12.7,4,31.2,8.8,49.6,7.2l1.7-28.2c-9.6,8.2-23.8,3.3-35.3-6.8l-16,27.8Z"/>
</svg>