<?xml version="1.0" encoding="UTF-8"?>
<svg id="Layer_1" xmlns="http://www.w3.org/2000/svg" version="1.1" viewBox="0 0 1000 1000">
  <!-- Generator: Adobe Illustrator 29.0.0, SVG Export Plug-In . SVG Version: 2.1.0 Build 186)  -->
  <g>
    <path d="M302.4,802.7c-13.3-9.3-7.9-34.8-7.9-34.8,0-5.8,22.2-15.2,32.7-15.2s21.4,10.7,18.1,26.7l4,27.8c33-31.5,17.6-78.1-15.4-78.1s-49.9,20.9-60.5,31.6-4,62.9,32.7,69l-3.7-27Z"/>
    <path d="M876.1,654c-76.9-60.3-104.5.1-160.1-1-22.7-.5-52.1-23.2-92.2-26.2-63.8-4.8-107.9,27.8-133.7,26.9-17.2-.6-36.5-23.6-66.1-27.2-58.8-7.2-93.3,25.2-134.3,26.9-67.8,2.8-180.3-29.4-258.9,19.8,6.1,16.6,13.1,32.7,20.8,48.4,45.1-20,101.2-49.7,152.4-40.7,60.4,10.7-13.1,74.9-13.1,93s28.1,4.4,54.2-21.7,44.8-45.1,44.8-45.1c32.9-32.4,142-62.8,153.6-19.2,10.2,38.1-53.5,61.8-46.4,99.5,69.6,4.5,78.4-69.2,105.5-94,28.5-26.1,159.4-43,167.1-5.6,6.1,29.7-81.7,90.2-33.1,99.4,41.1,7.8,69.3-124.5,185.2-106.5,81.8,12.8,38.9,94,81.4,114.9,11.7-16,22.5-32.7,32.3-50-.5-32.9-17.3-58.5-59.5-91.6Z"/>
    <path d="M569.3,822.6c19.8-32.1,34.2-70.3-13.3-88.1-47.5-17.8-95.7,48.8-55.9,96.4l15.6-20c-15.9-15.9-7.1-47.4,7.2-55,14.4-7.6,47.7,3.2,41.2,32.4-2,8.8-5.6,15.8-10.2,20.8l15.4,13.5Z"/>
    <path d="M805.2,816c6.3-9,10-20.5,9.6-34.6-1.6-46.2-72.7-51.1-96.6-5.6-25,47.7,12.4,69.8,47.8,63.8l-24.7-21c-24.1-14.1-11.5-42.2,11.5-50.6,23-8.4,44.2,1.9,41.9,19.6l10.6,28.4Z"/>
    <path d="M252.8,881.4c-18.9,5.5-28.3,19.1-30.3,34.6,28.9,19.3,59.9,35.7,92.6,48.7,28.9-32.9-12.1-98-62.3-83.3Z"/>
    <path d="M551.4,948.1c-8.8,12.5-5.8,32.5,3.9,48.9,28.9-3.2,57.2-8.8,84.4-16.8-2.1-36.6-63.7-67.2-88.3-32.1Z"/>
    <path d="M504.2,972.9c-52.4-29.5-81-15.5-82.4,21,25.5,4,51.6,6.1,78.2,6.1s4.1,0,6.1,0c3-9.9,3.5-20.4-1.9-27.1Z"/>
    <path d="M466.8,857c-29.8-27.5-78-25.2-73.8,26.7,6.5,79.7,121.9,17.6,73.8-26.7Z"/>
    <path d="M637.9,841.5c-44.8,13.9-9.1,82.9,23.5,77.7,45.3-7.2,51.2-101-23.5-77.7Z"/>
    <path d="M159.8,786.3c-8.6-41.9-13.3-50.9-43-53-18.9-1.3-39,2.6-50.8,15.1,4.7,8.1,9.6,16.1,14.7,24,.2-.8.4-1.5.7-2.3,6.4-14.9,31.5-13.7,31.5-13.7,5.6-1.2,20.4,17.7,22.5,28,2.1,10.3-6.2,23.1-22.5,23.1-2.8,0-5.6-.7-8.5-1.8,5.8,7.6,11.9,14.9,18.2,22.1,23.8-1.4,41.9-19.6,37.4-41.5Z"/>
  </g>
  <path d="M794.6,787.6c-2.2,17.8-29.4,45.1-53.4,31l24.7,21c15.2-2.6,30-10.4,39.3-23.6l-10.6-28.4Z"/>
  <path d="M500.1,830.9c19,12.4,56,11.5,69.2-8.2l-15.4-13.5c-10.9,11.9-27,12.9-38.2,1.7l-15.6,20Z"/>
  <path d="M345.3,779.3c-3.4,16-29.6,32.6-42.9,23.3l3.7,27c19.3-5.1,33.4-13.1,43.2-22.5l-4-27.8Z"/>
</svg>