<?xml version="1.0" encoding="UTF-8"?>
<svg id="Layer_1" xmlns="http://www.w3.org/2000/svg" version="1.1" viewBox="0 0 1000 1000">
  <!-- Generator: Adobe Illustrator 29.0.0, SVG Export Plug-In . SVG Version: 2.1.0 Build 186)  -->
  <defs>
    <style>
      .st0 {
        fill: #010101;
      }
    </style>
  </defs>
  <path class="st0" d="M540.2,265.7c12.8,12.8,14.4.7,29.5-23.3,26.9-42.8,61.8-108.3,90-143.6,4.7-5.7,26.2-29.4,46.7-54.4-21.8-9.9-44.4-18.3-67.8-25-15,27.1-22.8,60.4-30.3,83.5-18.1,53.3-72.2,101.3-68.2,162.8Z"/>
  <path class="st0" d="M679.6,262.1c.7,1.8,19.5,14.2,29.1,15.1s96.6-137.1,101.3-148.8c1.5-3.9,3.7-9.8,5.8-16.2-10.4-8.5-21.1-16.5-32.1-24.1-11.3,17.9-20.5,44.4-28.4,55-15.1,20.3-87.8,101.3-75.6,119.1Z"/>
  <path class="st0" d="M861.4,259.6c-12.8,15-46.9,50.2-57.6,73.9-4.9,10.8,2.5,18.8,12.4,23.9,11.9,6.2,29-14.4,47.7-40.4,11-15.3,45-43.9,66.2-72.2-7.4-12.5-15.4-24.6-23.8-36.4-18.7,18.3-38.2,43.1-45,51.1Z"/>
  <path class="st0" d="M319.2,49c-1.3,40-118.6,148.3-94.5,182.3,23.4,33.1,173.1-186.6,165.4-219.1-18.2,4.1-36,9.2-53.4,15.2-8.2,7.2-15.1,15.2-17.5,21.6Z"/>
  <path class="st0" d="M442.1,197c16.6-19.3,117.1-176.7,113.9-193.9-16.9-1.9-34-2.9-51.4-3.1-17.1,20.6-101.4,170.4-101.4,201.3s21.8,15.5,38.9-4.3Z"/>
  <path class="st0" d="M66,348.9c-.6.6-1,1-1,1,.3-.2.6-.5,1-1Z"/>
  <path class="st0" d="M28.9,346.3c1.6,2,12.2,28.4,37,3.6,21.6-21.6,4.7-5.5.1-1.1-.4.5-.8.8-1,1,0,0,.4-.4,1-1,11.1-12.4,76.6-124.1,81.5-135.7,5.1-12.1,57-83,27.1-92.1-.2,0-.3,0-.5-.1-25.1,21.6-47.9,45.6-68.3,71.6-42.2,62.1-84.9,143.6-76.9,153.8Z"/>
</svg>