<?xml version="1.0" encoding="UTF-8"?>
<svg id="Layer_1" xmlns="http://www.w3.org/2000/svg" version="1.1" viewBox="0 0 1000 1000">
  <!-- Generator: Adobe Illustrator 29.0.0, SVG Export Plug-In . SVG Version: 2.1.0 Build 186)  -->
  <defs>
    <style>
      .st0 {
        fill: #010101;
      }
    </style>
  </defs>
  <path class="st0" d="M316.3,47.3c-1.3,40-118.6,148.3-94.5,182.3,22.9,32.4,166.9-177.5,165.7-216.9-20,4.6-39.5,10.4-58.4,17.3-6.1,6-10.8,12.1-12.7,17.2Z"/>
  <path class="st0" d="M824.5,344.7c15.5,4.8,66.7-53.5,103.2-103.7-9.5-15.6-19.7-30.6-30.8-45-28.5,41.6-61.9,93.8-70.9,106.9-7.8,11.8-26.1,34.2-1.5,41.8Z"/>
  <path class="st0" d="M429.2,195.3c16.5-19.1,115.4-174,113.9-193.5C528.9.6,514.5,0,500,0s-6.5,0-9.7.1c-19.9,26.2-100,169.4-100,199.5s21.8,15.5,38.9-4.3Z"/>
  <path class="st0" d="M695,207.5c-4.3,20.5,1.2,66.2,33.2,34.2s78.7-100.8,92.9-125.1c-12.2-10.2-24.8-19.8-37.9-28.9-42.2,38.7-85.2,106.2-88.1,119.7Z"/>
  <path class="st0" d="M634,26.2c3.5,37.8-103.4,156.3-93.1,168.5h-.9c32.5,39.5,132.1-131.7,138.3-152.8.9-2.9,1.7-5.7,2.3-8.3-15.1-5.9-30.5-11-46.3-15.4-.5,2.5-.6,5.1-.3,7.9Z"/>
  <path class="st0" d="M73.1,337.2c-.6.6-1,1-1,1,.3-.2.6-.5,1-1Z"/>
  <path class="st0" d="M36,334.6c1.6,2,12.2,28.4,37,3.6s4.7-5.5.1-1.1c-.4.5-.8.8-1,1,0,0,.4-.4,1-1,11.1-12.4,76.6-124.1,81.5-135.7,4.9-11.5,51.9-75.9,31.1-90.2-31.3,25.3-59.4,54.3-83.8,86.4-38.2,59.1-73.2,127.8-65.9,137.1Z"/>
</svg>