<?xml version="1.0" encoding="UTF-8"?>
<svg id="Layer_1" xmlns="http://www.w3.org/2000/svg" version="1.1" viewBox="0 0 1000 1000">
  <!-- Generator: Adobe Illustrator 29.0.0, SVG Export Plug-In . SVG Version: 2.1.0 Build 186)  -->
  <defs>
    <style>
      .st0 {
        fill: none;
      }

      .st1 {
        fill: #010101;
      }
    </style>
  </defs>
  <path class="st0" d="M77.8,232c23.2-32.4,61.5-75,82.7-99.1-31.6,29.3-59.5,62.6-82.7,99.1Z"/>
  <path class="st1" d="M269.3,200.1c32.3-32.3,102-147.6,114.8-186.6-19.1,4.5-37.8,10.2-56.1,16.8l-88.1,144.6c-2.5,16.4,19.3,35.2,29.4,25.1h0Z"/>
  <path class="st1" d="M627.5,28.9c-7.8,10.2-66.7,106.9-73.2,125.3s-4.3,20,10.2,32.4c15.7-19.5,86.7-100.5,116.3-152.9-14.4-5.6-29-10.5-44-14.8-4.3,4.2-7.6,7.7-9.2,9.9h0Z"/>
  <path class="st1" d="M387.3,178v-.7c26.6,31.4,48.2-39.4,66.8-64.8,14.1-19.3,74.2-77.6,76.9-111.5-10.3-.7-20.6-1-31-1s-12.5.1-18.7.3c-8.6,17-14.5,39.1-21.5,50.4-13,21.4-84.8,112-72.6,127.2h.1Z"/>
  <path class="st1" d="M790.9,291.8c-4.9,10.8,2.5,18.8,12.4,23.9,11.9,6.2,29-14.4,47.7-40.4,9.7-13.5,37.4-37.5,58.4-62.4-8.5-12-17.4-23.7-26.9-34.9-14.9,16.1-28.6,33.4-34.1,39.9-12.8,15-46.9,50.2-57.6,73.9h0Z"/>
  <path class="st1" d="M59.6,263.1c5.7-10.6,11.8-20.9,18.2-31-8.9,12.4-15.5,23.2-18.2,31Z"/>
  <path class="st1" d="M59.3,273.2c1.9,1.9-9.3,46.6,37.2-1.4s94.1-135.8,138.7-189.4c-2.3-.9-4.6-1.6-6.7-2.3-24.1,15.6-46.8,33.3-67.9,52.8-21.2,24.1-59.5,66.7-82.7,99.1-6.4,10.1-12.5,20.5-18.2,31-1.5,4.5-1.8,8-.3,10.1h-.1Z"/>
  <path class="st1" d="M691.4,228.5c8.8,3.1,21.4-10.7,52.3-48.8,21.1-26,50.2-45.6,66.8-71.7-11.6-9.2-23.5-17.9-35.9-26-19,20.7-49.1,56.9-76.9,96.4-21.3,30.2-17.7,46.1-6.3,50.1h0Z"/>
</svg>