<?xml version="1.0" encoding="UTF-8"?>
<svg id="Layer_1" xmlns="http://www.w3.org/2000/svg" version="1.1" viewBox="0 0 1000 1000">
  <!-- Generator: Adobe Illustrator 29.0.0, SVG Export Plug-In . SVG Version: 2.1.0 Build 186)  -->
  <defs>
    <style>
      .st0 {
        fill: #010101;
      }
    </style>
  </defs>
  <path class="st0" d="M363.8,188c-25.6,46.3,26.9,28,49.3,4.9,22.4-23.1,97.3-161.4,104.7-165.9,3.5-2.1,9.4-15.4,11.9-26.1-9.8-.6-19.7-.9-29.7-.9s-13.9.1-20.8.4c-6.4,13.2-11.6,33.8-24.4,53.4-26.8,41-65.5,87.8-91.1,134.1Z"/>
  <path class="st0" d="M201.2,285.6l.9-.9c36.5-18.6,140.2-187.4,150.3-262.5-14.9,4.6-29.5,9.9-43.7,15.8-7.6,20.9-15.9,45-26.3,66.3-28.2,57.6-72.9,117.9-81.1,181.4Z"/>
  <path class="st0" d="M553.6,202.5c1.9-1.6,22.1-29.2,31-39.7v-.9c23.7-27.5,73.8-78.4,101-126.3-17.8-7.1-36-13.2-54.7-18.3-15.6,22.4-39.2,56.5-46.5,68.6-10.5,17.3-125.5,182.2-30.8,116.5Z"/>
  <path class="st0" d="M54.3,336c11.1,11.1,22.1-3,40.2-26.6,18.1-23.5,65.9-96.3,83.8-144.3,9.6-25.7,6.9-41.1-2.9-45.5-16.1,13.7-31.3,28.5-45.5,44.1-23.8,56.5-86.7,161.2-75.6,172.3Z"/>
  <path class="st0" d="M666.7,250.4c.7,1.8,19.5,14.2,29.1,15.1,9.5.9,96.6-137.1,101.3-148.8,1.4-3.6,3.4-9,5.4-14.9-10.7-8.1-21.8-15.9-33.1-23.1-10.7,17.8-19.5,42.6-27,52.7-15.1,20.3-87.8,101.3-75.6,119.1Z"/>
  <path class="st0" d="M825.8,327.4c17.6,4.8,61.9-50.4,90.1-105.1-8.7-13-18-25.5-27.8-37.6-25.3,33.7-49.1,72.3-62.6,101.6-4.7,11.8-29.5,32.9.3,41.1Z"/>
</svg>