<?xml version="1.0" encoding="UTF-8"?>
<svg id="Layer_1" xmlns="http://www.w3.org/2000/svg" version="1.1" viewBox="0 0 1000 1000">
  <!-- Generator: Adobe Illustrator 29.0.0, SVG Export Plug-In . SVG Version: 2.1.0 Build 186)  -->
  <defs>
    <style>
      .st0 {
        fill: #010101;
      }
    </style>
  </defs>
  <path class="st0" d="M50.1,330.3c11.9,16.5,22.3-2,40.5-23.1,18.2-21.1,125-187.6,113.5-199.8-2.3-2.4-4.7-4.1-7.1-5.3-24.4,18.7-47.1,39.5-67.7,62.3-21.8,32.4-90.4,150.3-79.2,165.8Z"/>
  <path class="st0" d="M233.9,277.9c14.9-7.4,54.9-84,73.2-110.9,34.4-50.6,79.4-120.7,88-155.9-21.1,4.5-41.7,10.3-61.7,17.4-39,69.7-105.8,227.5-142.3,263.9,3.4,3.6,24.4-5.3,42.9-14.5Z"/>
  <path class="st0" d="M380,252c8.5.3,66.4-91.4,100-155,8.6-16.3,29.9-59.4,48-96.2-9.3-.5-18.7-.8-28.1-.8s-11.4.1-17,.3c-31.7,69-96.9,165.5-109.9,203.5-5.7,14.7-12.4,47.1,7,48.2Z"/>
  <path class="st0" d="M517.3,254c12.8,12.8,14.4.7,29.5-23.3,26.9-42.8,61.8-108.3,90-143.6,4.6-5.6,25.3-28.5,45.5-52.8-22.3-8.7-45.4-15.9-69.2-21.4-13.3,26.1-20.5,56.8-27.6,78.4-18.1,53.3-72.2,101.3-68.2,162.8Z"/>
  <path class="st0" d="M668.6,255.4c2.3,2.8,17,16.1,36.9-3.9,15.6-15.7,70.7-107.8,86.6-157.3-8.7-6.3-17.6-12.3-26.7-18-3.2,3.9-6.7,8.1-10.3,12.4-17.3,20.3-97.7,153-86.4,166.9Z"/>
  <path class="st0" d="M779.6,321.1c10.8,16.7,87.1-51.9,124.2-115.9-11-15.1-22.9-29.5-35.5-43.2-45.1,58.6-85.4,164.5-88.8,159.1Z"/>
</svg>