<?xml version="1.0" encoding="UTF-8"?>
<svg id="Layer_1" xmlns="http://www.w3.org/2000/svg" version="1.1" viewBox="0 0 1000 1000">
  <!-- Generator: Adobe Illustrator 29.0.0, SVG Export Plug-In . SVG Version: 2.1.0 Build 186)  -->
  <defs>
    <style>
      .st0 {
        fill: #010101;
      }
    </style>
  </defs>
  <path class="st0" d="M285.4,60.7c-7.2,9.3-107.4,185.5-100.9,194.3l-1,.8c1.6,2,14.9,15.9,52.1-3.5,37.1-19.4,57.2-101.1,79.9-141.7,9.6-16.4,25.8-51.7,47-85.2,1.8-2.8,2.9-5.2,3.6-7.2-20.1,5.6-39.7,12.4-58.7,20.3-7.8,6.6-15.3,14.1-21.9,22.2Z"/>
  <path class="st0" d="M417.5,74.4c-10.8,19-63.7,104.2-33.5,141.4,30.2,37.2,129.8-162.7,109.7-211.7-7-1.7-13.2-2.8-18.7-3.5-9.2.5-18.4,1.2-27.5,2.1-23,9.8-14.4,43.2-30,71.7Z"/>
  <path class="st0" d="M59.8,348.2c11-1.7,109.4-116.3,100.5-188.9-1.2-10-3.6-16.3-6.7-19.8-51.6,49.6-92.6,110.2-119.2,178-4.7,19-1.5,34.6,25.5,30.7Z"/>
  <path class="st0" d="M658.8,6.2c0,.3,0,.6,0,.9,0,0,0,0,0,0v-.9Z"/>
  <path class="st0" d="M581.4,89.1c-14,25.1-67.6,95.6-35.4,111.2,32.2,15.6,34.5-9.1,63.9-73.6,26.2-57.5,39.8-56.7,46.6-101.7-13.9-4.6-28.1-8.6-42.6-12-23.8,17.3-22.6,58.3-32.6,76Z"/>
  <path class="st0" d="M698.6,250.6c26.8-26.8,38.6-46.8,40.7-50.2,6.3-9.2,39.5-62.4,55.4-104.3-10.3-7.5-20.9-14.6-31.7-21.4-36.7,46.7-84,118.8-98,155.3-7.3,20.2,6.9,47.4,33.7,20.6Z"/>
  <path class="st0" d="M783.6,324.2c27.8,31.4,84.5-54.7,118.4-121.5-10.7-14.4-22.2-28.3-34.3-41.5-40.2,41.4-117.8,125-84.1,163Z"/>
</svg>