<?xml version="1.0" encoding="UTF-8"?>
<svg id="Layer_1" xmlns="http://www.w3.org/2000/svg" version="1.1" viewBox="0 0 1000 1000">
  <!-- Generator: Adobe Illustrator 29.0.0, SVG Export Plug-In . SVG Version: 2.1.0 Build 186)  -->
  <defs>
    <style>
      .st0 {
        fill: #010101;
      }
    </style>
  </defs>
  <path class="st0" d="M183.2,272.7c3.5,5,49.3-23.5,59-33.8,18-19.2,89.1-143,136.2-224-20.6,5.1-40.7,11.6-60.1,19.2-61.4,99.5-139.3,232.6-135.1,238.6Z"/>
  <path class="st0" d="M542.4,211.9c.8,1.6,33.6-.1,35.1-1.1h0c19.4-13.2,40.9-69.9,55.3-92.1,3.5-5.5,37.4-42,62.4-79.1-17.7-7.5-35.9-14-54.6-19.5-36.8,52.3-75.1,120.2-82,135.4-5.8,13-21.2,46.8-16.2,56.4Z"/>
  <path class="st0" d="M680.1,228.7c30.6,56,86.9-47.3,107.9-76.7,2.3-3.2,16.6-20,31.1-37-15.7-13-32.2-25.1-49.4-36.2-34,59.2-70.7,133.4-89.6,149.8Z"/>
  <path class="st0" d="M88.9,341.3c-5.1-26.8,90.8-177,136.6-259.3-81.7,53.7-146.7,130.8-185.5,221.7-2.1,26.2,20.1,44.7,48.9,37.6Z"/>
  <path class="st0" d="M352.4,216.6c-10.5,24.1,19.8,26,33.7,18.1h.1c7.7-4.4,103.3-164,143.1-233.8-9.7-.6-19.5-.9-29.3-.9s-19.3.3-28.8.8c-34.4,69.7-84.2,184.1-118.8,215.8Z"/>
  <path class="st0" d="M798.7,333h0c21.7,23.3,90.2-59,112.9-117-8.5-12.3-17.6-24.2-27.1-35.7-23,24.7-54.4,70.2-59.9,80.1-6.1,10.9-29.4,68.8-25.8,72.6Z"/>
</svg>