<?xml version="1.0" encoding="UTF-8"?>
<svg id="Layer_1" xmlns="http://www.w3.org/2000/svg" version="1.1" viewBox="0 0 1000 1000">
  <!-- Generator: Adobe Illustrator 29.0.0, SVG Export Plug-In . SVG Version: 2.1.0 Build 186)  -->
  <defs>
    <style>
      .st0 {
        fill: #010101;
      }
    </style>
  </defs>
  <path class="st0" d="M197,261c28.9,32.8,156-208.3,135-229.7-.6-.6-1.4-1.1-2.3-1.6-19.1,6.9-37.7,15-55.7,24.1-1,1.7-1.6,3.4-2,5.1,4,42.5-98.3,175.6-75,202Z"/>
  <path class="st0" d="M846.2,321.6c13.8,2.3,47.1-41.7,76.3-89.1-10.6-16.6-22.1-32.6-34.5-47.9-20.2,40.1-39.8,80.6-45.9,92.7-6.9,13.8-26.3,39.1,4.1,44.3Z"/>
  <path class="st0" d="M413.4,197.6C425.8,178.4,486.8,52.8,504.1,0c-1.4,0-2.7,0-4.1,0-19,0-37.8,1.1-56.3,3.1-22.3,53.7-66.3,179.1-70.9,203.8,16.3-1.7,28.9,8.9,40.6-9.3Z"/>
  <path class="st0" d="M702,211.7c-2.1,22.4,26.7,40.7,38.9,31.7h0c5.5-4.1,61.9-93.5,80.3-126.5-15.7-13.2-32.3-25.5-49.6-36.7-4,14.1-5.7,30.3-11.6,40.2-12.8,21.4-56.6,75.2-58.1,91.3Z"/>
  <path class="st0" d="M616.8,22.2c8.1,39.6-80.6,156-68.4,167.7h.1c33.2,31.9,99.3-107.4,119.5-161-16.3-5.8-33-10.8-50-14.9-1.2,3-1.7,5.8-1.2,8.2Z"/>
  <path class="st0" d="M37.8,346.3c1.4,1.3,35.6,1.8,39.2-1.1h0c6.7-5.2,64.4-138.2,68.8-154.6,3.2-12.3,19-35.8,1-44.5-38.1,38-70.1,82.2-94.4,130.9-13.3,34.4-20.7,63.4-14.6,69.4Z"/>
</svg>