<?xml version="1.0" encoding="UTF-8"?>
<svg id="Layer_1" xmlns="http://www.w3.org/2000/svg" version="1.1" viewBox="0 0 1000 1000">
  <!-- Generator: Adobe Illustrator 29.0.0, SVG Export Plug-In . SVG Version: 2.1.0 Build 186)  -->
  <defs>
    <style>
      .st0 {
        fill: none;
      }
    </style>
  </defs>
  <path class="st0" d="M465.4,7.8c49.4-9.9,110.9-1.9,114,22.7,6.4,51.1-73.2,63.2-111.2,41.6-25.5-14.5-32.4-58.3-2.8-64.3Z"/>
  <path class="st0" d="M195.2,230c-9.7-9.7,66.1-80.6,79.7-66.9s-70.1,76.6-79.7,66.9ZM310.3,314.2c-16-7,24.4-87.1,39.3-87.3,28.6-.5-23.3,94.3-39.3,87.3ZM439.6,341.2c-13.8,0,1.8-93,13.2-87.4,11.4,5.6.6,87.4-13.2,87.4ZM599,339.6c-19.4,3.6-52.8-91.5-36.4-92.8,16.4-1.3,55.8,89.2,36.4,92.8ZM732.5,290.6c-16.1,9.9-81.4-73.3-70.8-79.9s86.9,70,70.8,79.9ZM811.2,194.6c-10.1,10.1-84.3-29.9-78.5-48.1,5.8-18.2,88.6,38,78.5,48.1Z"/>
  <path d="M385.6,171.5c85.5,56,203.7,52.6,268-33.1,23.6-31.4,46.8-66.2,54.8-93-16.5-7.6-33.4-14.3-50.8-20-7.2,10.5-15.8,23.8-27.6,41.4-24,36-45.9,48.1-52.7,52.2-57.4,34.7-132.1,13.5-177.8-31.5-17.1-16.8-24.8-52.2-28.5-70.6-24.6,6.6-48.5,15-71.5,25,0,11.8,4.1,27,13.6,47.5,22.3,48.1,38.8,60.1,72.4,82.1Z"/>
  <path d="M468.2,72c38,21.6,117.6,9.5,111.2-41.6-3.1-24.5-64.6-32.6-114-22.7-29.6,6-22.7,49.8,2.8,64.3Z"/>
  <path d="M562.6,246.8c-16.4,1.3,17,96.4,36.4,92.8,19.4-3.6-20-94.1-36.4-92.8Z"/>
  <path d="M195.2,230c9.7,9.7,93.4-53.3,79.7-66.9s-89.4,57.3-79.7,66.9Z"/>
  <path d="M349.7,226.9c-14.9.3-55.4,80.4-39.3,87.3,16,7,68-87.8,39.3-87.3Z"/>
  <path d="M661.8,210.7c-10.7,6.5,54.6,89.8,70.8,79.9,16.1-9.9-60.1-86.4-70.8-79.9Z"/>
  <path d="M732.7,146.5c-5.8,18.2,68.4,58.2,78.5,48.1s-72.7-66.4-78.5-48.1Z"/>
  <path d="M452.8,253.9c-11.4-5.6-27,87.4-13.2,87.4s24.6-81.8,13.2-87.4Z"/>
</svg>