<?xml version="1.0" encoding="UTF-8"?>
<svg id="Layer_1" xmlns="http://www.w3.org/2000/svg" version="1.1" viewBox="0 0 1000 1000">
  <!-- Generator: Adobe Illustrator 29.0.0, SVG Export Plug-In . SVG Version: 2.1.0 Build 186)  -->
  <defs>
    <style>
      .st0 {
        fill: none;
      }
    </style>
  </defs>
  <path class="st0" d="M207.4,230.8c-6.7,4.2-25.1-2.1-16.1-16.8,0,0,76.4-71.3,85.9-58,9.6,13.3-67.9,73.6-69.8,74.8ZM289.8,329.7c-8.4-8.4,41.7-100,56.6-85.1s-48.2,93.5-56.6,85.1ZM417.3,372.8c-9-10.2,10.2-90.5,24.8-90.5s-15.8,100.7-24.8,90.5ZM585.7,374.5c-19.1,2.6-31.8-103.9-15.8-94.2,16,9.7,34.9,91.7,15.8,94.2ZM727.3,329.1c-13.8,0-92.8-94.5-70.7-94.5s51.5,48.4,57.1,56.2c9.2,12.9,27.4,38.3,13.6,38.3ZM831.6,257.8c-21.8,11.6-121.6-93.9-103-95.6,18.6-1.6,124.8,83.9,103,95.6Z"/>
  <path class="st0" d="M451,41.1c2.2-41.4,111.8-34.1,122.7-13.3,32,60.7-127.8,106.5-122.7,13.3Z"/>
  <path d="M365.7,144.4c49.7,48.2,197,72.5,269.1,8.6,47.3-41.9,74.3-77,79.4-104.9-16.9-8-34.3-15.1-52.2-21.2-9.8,18.4-22,43.8-42.1,68.6-47.9,58.9-152.2,63.6-206.1,19.6-25.2-20.5-54.2-59.2-79.8-86.8-19.4,6.8-38.3,14.8-56.5,23.9,15.7,27.3,52.9,58.1,88.2,92.3Z"/>
  <path d="M573.7,27.8c-10.9-20.7-120.5-28-122.7,13.3-5,93.2,154.7,47.3,122.7-13.3Z"/>
  <path d="M728.7,162.3c-18.6,1.6,81.1,107.2,103,95.6s-84.4-97.2-103-95.6Z"/>
  <path d="M656.6,234.6c-22.1,0,56.9,94.5,70.7,94.5s-4.4-25.4-13.6-38.3c-5.5-7.7-35-56.2-57.1-56.2Z"/>
  <path d="M569.9,280.3c-16-9.7-3.3,96.8,15.8,94.2s.2-84.5-15.8-94.2Z"/>
  <path d="M442.1,282.3c-14.5,0-33.8,80.3-24.8,90.5s39.3-90.5,24.8-90.5Z"/>
  <path d="M191.2,214c-8.9,14.6,9.4,20.9,16.1,16.8,1.9-1.2,79.4-61.5,69.8-74.8-9.6-13.3-85.9,58-85.9,58Z"/>
  <path d="M289.8,329.7c8.4,8.4,71.5-70.2,56.6-85.1s-65,76.7-56.6,85.1Z"/>
</svg>