<?xml version="1.0" encoding="UTF-8"?>
<svg id="Layer_1" xmlns="http://www.w3.org/2000/svg" version="1.1" viewBox="0 0 1000 1000">
  <!-- Generator: Adobe Illustrator 29.0.0, SVG Export Plug-In . SVG Version: 2.1.0 Build 186)  -->
  <defs>
    <style>
      .st0 {
        fill: none;
      }
    </style>
  </defs>
  <path class="st0" d="M443.1,15.6c28.1-15.6,112.4-11.2,131.6,0s10.8,60.4-66.8,60.4-92.9-44.8-64.8-60.4Z"/>
  <path class="st0" d="M229.8,206.1c-13.4-4,55.7-78.5,62.2-66.6,6.5,11.9-48.8,70.5-62.2,66.6ZM305.8,290c-18.5-1.3,34.6-87.6,42.2-78.8s-23.7,80.2-42.2,78.8ZM405.2,338.1c-14.1-14.1,19.4-107.6,27.1-99.8,7.8,7.8-13,113.9-27.1,99.8ZM559.4,334.9c-16.9-2.3-31.3-81-15.8-84.6,15.5-3.6,32.7,86.9,15.8,84.6ZM695.5,310.4c-15.9-11.6-57.2-61.3-55.7-83.9,1.5-22.5,35.2,16.5,47.8,37.7,8.5,14.3,23.8,57.8,7.9,46.2ZM706,171.1c-1.1-15,17.8-12.9,31.7-4.6,7.9,4.8,67.5,45.8,67.8,50,2.9,39-99-39.6-99.5-45.4Z"/>
  <path d="M522.6,176.9c118.8,0,179-86.6,168.2-139.2-17.5-7.2-35.5-13.5-54-18.8-12.5,17.4-16.8,65.5-54.3,85.3-49.8,26.3-125.8,18.4-161.9.2-34.9-17.7-50-65-57-85.6-21.6,6.1-42.7,13.7-63,22.5,29.9,86.1,79.2,135.5,222.1,135.5Z"/>
  <path d="M507.9,76c77.7,0,86.1-49.2,66.8-60.4s-103.5-15.6-131.6,0-12.9,60.4,64.8,60.4Z"/>
  <path d="M639.9,226.5c-1.5,22.5,39.7,72.2,55.7,83.9,15.9,11.6.7-31.9-7.9-46.2-12.6-21.2-46.3-60.2-47.8-37.7Z"/>
  <path d="M737.6,166.4c-13.8-8.3-32.8-10.4-31.7,4.6.4,5.8,102.3,84.4,99.5,45.4-.3-4.2-59.9-45.3-67.8-50Z"/>
  <path d="M229.8,206.1c13.4,4,68.7-54.6,62.2-66.6-6.5-11.9-75.6,62.6-62.2,66.6Z"/>
  <path d="M405.2,338.1c14.1,14.1,34.9-92.1,27.1-99.8-7.8-7.8-41.2,85.7-27.1,99.8Z"/>
  <path d="M305.8,290c18.5,1.3,49.8-70.1,42.2-78.8s-60.7,77.5-42.2,78.8Z"/>
  <path d="M543.6,250.3c-15.5,3.6-1.1,82.3,15.8,84.6s-.2-88.1-15.8-84.6Z"/>
</svg>