<?xml version="1.0" encoding="UTF-8"?>
<svg id="Layer_1" xmlns="http://www.w3.org/2000/svg" version="1.1" viewBox="0 0 1000 1000">
  <!-- Generator: Adobe Illustrator 29.0.0, SVG Export Plug-In . SVG Version: 2.1.0 Build 186)  -->
  <defs>
    <style>
      .st0 {
        fill: none;
      }
    </style>
  </defs>
  <path d="M481.9.3c5-.2,10-.3,15-.3-5,0-10,0-15,.3Z"/>
  <path class="st0" d="M149,272.5c-9.8-12.3,78.3-119.2,91.5-117.7,13.1,1.4-81.6,130-91.5,117.7ZM314.5,299c-39.6,37.3-18.4-44.9-4.4-64.8,54.5-77.6,9.1,60.4,4.4,64.8ZM434.1,334.9c-13.1,7.5-12.2-96.9,6.8-99.4,19-2.5,6.4,91.8-6.8,99.4ZM597.5,324.2c-16,17.5-53.9-87.5-43.9-97.5,10-10,59.9,80,43.9,97.5ZM734.8,285.1c-11.5,11.5-105.5-88.2-87.8-97.7,17.6-9.5,99.3,86.2,87.8,97.7ZM807.9,200.4c-11.1,6.7-96.4-45.8-82.5-66.9,13.9-21.1,93.7,60.2,82.5,66.9Z"/>
  <path d="M414.1,58.2c23.4,44.9,181,21.1,163.9-32C572.9,10.4,535.4.5,497,0c-5,0-10,.1-15,.3-46.3,2.5-87.8,19.6-67.9,57.8Z"/>
  <path d="M240.5,154.7c-13.1-1.4-101.3,105.5-91.5,117.7,9.8,12.3,104.6-116.3,91.5-117.7Z"/>
  <path d="M646.9,187.4c-17.6,9.5,76.4,109.2,87.8,97.7s-70.2-107.2-87.8-97.7Z"/>
  <path d="M725.4,133.5c-13.9,21.1,71.4,73.7,82.5,66.9,11.1-6.7-68.6-88.1-82.5-66.9Z"/>
  <path d="M553.6,226.7c-10,10,27.9,115.1,43.9,97.5,16-17.5-33.9-107.5-43.9-97.5Z"/>
  <path d="M310,234.1c-14,19.9-35.1,102.1,4.4,64.8,4.7-4.4,50.1-142.4-4.4-64.8Z"/>
  <path d="M440.9,235.5c-19,2.5-19.9,106.9-6.8,99.4,13.1-7.5,25.7-101.8,6.8-99.4Z"/>
  <path d="M466.7,176.7c105,7.8,163.9-28.4,196.5-60.7,11.2-11.1,41-50.3,49.8-68.4-21.4-10.1-43.5-18.7-66.4-25.7,3.2,24.8-19.6,47.8-53.3,77.7-48.2,42.6-155.2,24.8-207.3-3.2-25.8-13.9-45.9-42-64.3-63.6-20.6,7.9-40.6,17.1-59.8,27.5,56.2,78.2,139.1,111.5,204.9,116.4Z"/>
</svg>