<?xml version="1.0" encoding="UTF-8"?>
<svg id="Layer_1" xmlns="http://www.w3.org/2000/svg" version="1.1" viewBox="0 0 1000 1000">
  <!-- Generator: Adobe Illustrator 29.0.0, SVG Export Plug-In . SVG Version: 2.1.0 Build 186)  -->
  <defs>
    <style>
      .st0 {
        fill: none;
      }
    </style>
  </defs>
  <path class="st0" d="M455.6,6.6c25.4-1.8,212.5.3,109.9,67.3-35.8,23.3-118.4,35.5-151.5,5.6-49.3-44.6,16.2-71.1,41.6-72.9Z"/>
  <path class="st0" d="M183.8,280.5c-12.5,8.9-44-2.1-27.7-25.6,0,0,74.9-97.8,86.1-85.3s-53.3,107.3-58.4,110.9ZM306.1,338.5c-29.3,3.9-22.2-13.9-16.2-35.2,2.6-9.4,45.3-87.3,54.5-76.9,9.2,10.5-38.3,112-38.3,112ZM418.1,359.6c-3.9-4.3,11.6-102.3,25.9-113.9,26.4,12.5-2.4,139.9-25.9,113.9ZM590.5,350.7c-19.4,4.2-34.9-102.8-24.1-108.7,10.8-5.9,43.5,104.6,24.1,108.7ZM724.1,303.4c-4.5-2.9-76.8-74-57.5-91.4s123.9,134.2,57.5,91.4ZM825.4,232.7c-2.2,17.9-98.3-67.5-84.2-78.5,14.1-11,86.4,60.6,84.2,78.5Z"/>
  <path d="M525.8,192.5c138.1-12.7,212.3-78.9,213.7-131.5-15.3-8.4-31-15.9-47.2-22.7-11.7,14.4-25.8,33.8-43.5,51.8-48.7,49.5-200.2,59.4-262.1,35.8-58.5-22.3-76.9-57.9-105.1-75.8-14.6,7.1-28.9,14.9-42.7,23.4.9,1.8,1.8,3.6,2.8,5.5,33.7,61.8,131.4,127.6,284,113.6Z"/>
  <path d="M414,79.4c33.1,29.9,115.7,17.7,151.5-5.6C668.1,6.9,481,4.8,455.6,6.6s-90.8,28.3-41.6,72.9Z"/>
  <path d="M666.6,212c-19.3,17.5,53,88.5,57.5,91.4,66.4,42.7-38.2-108.9-57.5-91.4Z"/>
  <path d="M741.1,154.3c-14.1,11,82,96.4,84.2,78.5,2.2-17.9-70.1-89.4-84.2-78.5Z"/>
  <path d="M566.5,241.9c-10.8,5.9,4.6,112.9,24.1,108.7,19.4-4.2-13.3-114.7-24.1-108.7Z"/>
  <path d="M156,254.9c-16.3,23.5,15.2,34.5,27.7,25.6,5.1-3.6,69.6-98.4,58.4-110.9s-86.1,85.3-86.1,85.3Z"/>
  <path d="M444,245.7c-14.3,11.7-29.8,109.6-25.9,113.9,23.5,26,52.3-101.4,25.9-113.9Z"/>
  <path d="M289.8,303.3c-6,21.3-13.1,39.1,16.2,35.2,0,0,47.5-101.6,38.3-112-9.2-10.5-51.9,67.5-54.5,76.9Z"/>
</svg>