<?xml version="1.0" encoding="UTF-8"?>
<svg id="Layer_1" xmlns="http://www.w3.org/2000/svg" version="1.1" viewBox="0 0 1000 1000">
  <!-- Generator: Adobe Illustrator 29.0.0, SVG Export Plug-In . SVG Version: 2.1.0 Build 186)  -->
  <defs>
    <style>
      .st0 {
        fill: none;
      }
    </style>
  </defs>
  <path class="st0" d="M194.2,247.4c-13.3-15,50.5-99.8,63.9-85.3,5.8,6.3-48,103.1-63.9,85.3ZM337.3,334.9c-19.3-6.8,20.2-123.6,42.5-117.4,22.3,6.2-23.1,124.1-42.5,117.4ZM502.7,348.5c-24.1,2.3-26.1-122.2-6.9-121.4,19.1.9,31.1,119,6.9,121.4ZM684.1,330.1c-17.3-.8-92.2-103-72.3-119.7,6.7-5.6,78.6,87.7,82.2,94.1,8.8,15.5,2.6,26.1-9.9,25.5ZM810.7,232.4c-16,16-122.4-58.7-106.6-74.6,15.9-15.9,122.6,58.6,106.6,74.6Z"/>
  <path d="M390.1,27.8c-1.9,30.2,63.7,45.8,80.9,47.8,37.9,4.3,70.9,6.2,102.5-3.1,31.6-9.3,44.6-25.8,39.4-43.5-3.1-10.5-15.7-17.9-33.5-22.7-25.9-4.2-52.5-6.3-79.7-6.3s-15.9.2-23.7.6c-45.6,3.7-85.1,14.1-85.9,27.3Z"/>
  <path d="M611.8,210.4c-20,16.7,55,118.9,72.3,119.7,12.5.6,18.7-10,9.9-25.5-3.6-6.4-75.5-99.8-82.2-94.1Z"/>
  <path d="M704.1,157.8c-15.9,15.9,90.5,90.6,106.6,74.6s-90.7-90.5-106.6-74.6Z"/>
  <path d="M495.7,227.1c-19.1-.9-17.2,123.7,6.9,121.4,24.1-2.3,12.2-120.5-6.9-121.4Z"/>
  <path d="M379.8,217.5c-22.3-6.2-61.8,110.6-42.5,117.4s64.7-111.1,42.5-117.4Z"/>
  <path d="M194.2,247.4c15.9,17.8,69.7-79,63.9-85.3-13.4-14.5-77.2,70.3-63.9,85.3Z"/>
  <path d="M390,158.8c60.6,22.3,122.9,26.7,199.4,7.6,65-16.2,112.4-85.9,122.5-119.3-13.5-6.3-27.3-12.1-41.4-17.2-6.9,10.3-19.7,27.6-46,53.9-44.2,44.2-230.3,62.1-292.1-55.2-25.9,9.2-50.9,20.5-74.7,33.7,25.6,32.6,90.7,81.1,132.3,96.4Z"/>
</svg>