<?xml version="1.0" encoding="UTF-8"?>
<svg id="Layer_1" xmlns="http://www.w3.org/2000/svg" version="1.1" viewBox="0 0 1000 1000">
  <!-- Generator: Adobe Illustrator 29.0.0, SVG Export Plug-In . SVG Version: 2.1.0 Build 186)  -->
  <path d="M421.8,179.6c67.1,28.1,161.1,22.6,221.2-15,13.1-8.2,80-66.7,99.2-102-13.7-7.6-27.9-14.6-42.4-21-8.2,15.3-24.9,40.8-54.8,64.6-47,37.3-134.8,50.6-198.8,28.7-48.9-16.7-109.5-70.1-123.8-102.4-20,7.6-39.4,16.5-58.1,26.5,32.7,40.7,112.6,101.9,157.5,120.6Z"/>
  <path d="M410.8,30.9c0,38.9,51.2,51.1,118.8,51.1s95.3-20.7,91.7-54c-.9-7.8-8.6-13.6-20.2-17.8-32.6-6.7-66.4-10.2-101-10.2s-49.5,1.8-73.5,5.4c-8.9,4.5-15.7,12.2-15.7,25.5Z"/>
  <path d="M193.2,257.9c8.9,10,94.4-64.8,78-81.1-16.3-16.3-89.1,68.7-78,81.1Z"/>
  <path d="M498.9,263.1c-25.6,3.4-13,112.2,5.4,110.5s23.7-114.4-5.4-110.5Z"/>
  <path d="M717.5,180.7c-12.9,13,94.3,119,90.3,75.5-.5-5.9-80.5-85.4-90.3-75.5Z"/>
  <path d="M632.2,244.7c-15.5,9.1,9.1,90,36.2,97.1s-20.7-106.2-36.2-97.1Z"/>
  <path d="M351.4,337.7s31.5-69.6,20.1-90.7c-11.3-21.1-61.6,103.9-20.1,90.7Z"/>
</svg>