<?xml version="1.0" encoding="UTF-8"?>
<svg id="Layer_1" xmlns="http://www.w3.org/2000/svg" version="1.1" viewBox="0 0 1000 1000">
  <!-- Generator: Adobe Illustrator 29.0.0, SVG Export Plug-In . SVG Version: 2.1.0 Build 186)  -->
  <defs>
    <style>
      .st0 {
        fill: none;
      }
    </style>
  </defs>
  <path class="st0" d="M224.1,289.4c-44.1,3.3,23.7-96,31.4-101.4,74.8-52.1-22.1,100.7-31.4,101.4ZM352,347.7c-33.5-17.9,24.2-111.3,40.4-92.8,3.4,3.9-8.6,98.1-40.4,92.8ZM509,395.2c-26.3-5.1-22.9-114.9-.6-118.5,22.3-3.6,26.9,123.6.6,118.5ZM700.1,366.5c-31.7,22.4-78.4-104.4-65.8-114.8,14.2-11.7,79,105.4,65.8,114.8ZM804.6,266.3c-20.6,2.4-92.2-73.5-75.2-92.9,7.8-8.8,120.6,87.7,75.2,92.9Z"/>
  <path d="M421.7,22.6c-33.1,65,146.8,78.4,166.4,26.9,10.6-27.8-6.5-40.4-29.5-46.1-19.2-2.2-38.8-3.4-58.6-3.4s-32.8.8-49,2.4c-13.1,3.2-23.7,9.1-29.4,20.2Z"/>
  <path d="M647.3,178.4c27.8-19.6,72.4-86,85.1-121.2-18.8-9.9-38.4-18.6-58.5-26.1-3.9,9.2-8.7,19.6-14.4,31.6-63.6,132.9-265.9,114.8-324.8.2-6.3-12.2-10.2-22.2-12.2-30.4-17.1,6.5-33.8,13.9-49.9,22.2,4.3,11.2,9.3,23.6,15.2,37.4,43.9,103.5,243.9,168.1,359.5,86.4Z"/>
  <path d="M634.4,251.7c-12.6,10.4,34.1,137.2,65.8,114.8,13.3-9.4-51.6-126.5-65.8-114.8Z"/>
  <path d="M729.4,173.4c-17,19.3,54.6,95.2,75.2,92.9,45.4-5.2-67.5-101.7-75.2-92.9Z"/>
  <path d="M255.5,187.9c-7.7,5.4-75.5,104.7-31.4,101.4,9.3-.7,106.2-153.5,31.4-101.4Z"/>
  <path d="M508.4,276.8c-22.3,3.6-25.7,113.3.6,118.5s21.7-122-.6-118.5Z"/>
  <path d="M352,347.7c31.8,5.3,43.8-88.9,40.4-92.8-16.2-18.4-73.9,74.9-40.4,92.8Z"/>
</svg>