<?xml version="1.0" encoding="UTF-8"?>
<svg id="Layer_1" xmlns="http://www.w3.org/2000/svg" version="1.1" viewBox="0 0 1000 1000">
  <!-- Generator: Adobe Illustrator 29.0.0, SVG Export Plug-In . SVG Version: 2.1.0 Build 186)  -->
  <defs>
    <style>
      .st0 {
        fill: none;
      }
    </style>
  </defs>
  <path class="st0" d="M33.9,469.3c-13.3-21.7,19.8-87,36-105.5,12.7-14.5,59.3-39.8,76.6-32.1,4.1,1.8,44.8,48.2,46.1,51.9,4.4,12-13.7,54.7-21.2,65.6-16.8,24.4-122.5,44.5-137.6,19.9ZM186.6,767c-1.7-.5-23.8-9.5-29.8-12-17.5-7.4-31-21.2-49.7-26.1-9.7-15.3,38.6-75.9,53.3-88.2,43-36,85.3-53.7,142.8-37.8,38.1,10.5,32.3,68.5,44.6,101.3-33.7,68.6-91.2,81.6-161.2,62.8ZM474.4,443.5c-.7,2-17.9,36.8-19.1,38.6-11.7,16.8-74.4,13-86.4,3.9-57.8-44.2-4.6-149.3,51.5-170.8,4,.4,31,33.6,34.5,39.5,3.1,5.1,22.7,57.8,22.9,61,.4,5.6-5.5,11.2-6.5,17.1-.7,4.1,3.7,8.8,3,10.7ZM779.8,811.4c-5.6,23.2-35.3,103.7-64.6,92.3-41.5-16.1-57.2-56.8-75.1-91-1.8-3.4-12.2-3.9-13.2-9.7-.3-1.9-1.4-36-1.2-39.1.7-11.7,9.9-58.3,17.6-63.8l85.3-12.7c50.4,30.4,65,66.7,51.2,124ZM777.4,529.2c-2.2,5.9-10.2,6.5-11.1,8.5-5.9,13.6-22.9,72.3-43,70.5-22.2-2.1-66.8-52.9-79.3-72.5-38.9-61.1-52-147.2-29.8-220,4-13,21.3-26.5,21.1-43.5,40.4,12.2,70.1,31.1,98,62,5.2,5.7,5.7,17.7,10.3,20.9,3.4,2.4,11.8,0,14,2.1,2.9,2.9,24.8,70,26.6,77.5,6.3,25.8,2.3,69.5-6.9,94.4Z"/>
  <path d="M212.7,210.5c27.9,13.7,92.6,16.4,114.3-8.1,3.1-3.5,38.8-79.9,38.7-84.6-.5-17.4-25.1-31.6-36.5-41.8-5.5-5-7.7-15-14.1-19.6-5.8-4.1-14.5-7.6-24.7-10.5-51.1,23.6-97.6,55.7-137.6,94.3,0,0,0,0,0,0,14.7,23.2,33.6,57.3,59.9,70.2Z"/>
  <path d="M757.7,357.3c-2.2-2.2-10.6.2-14-2.1-4.6-3.2-5.1-15.2-10.3-20.9-27.9-30.9-57.6-49.8-98-62,.2,16.9-17.2,30.4-21.1,43.5-22.2,72.9-9.1,159,29.8,220,12.5,19.5,57,70.4,79.3,72.5,20.1,1.9,37.1-56.9,43-70.5.9-2.1,8.9-2.7,11.1-8.5,9.2-24.9,13.2-68.6,6.9-94.4-1.8-7.5-23.8-74.6-26.6-77.5Z"/>
  <path d="M490.9,881.9c-4.1-2.4-6.3-11.4-11.4-14.1-2.1-1.1-40.6-13.4-44.7-14.2-6.4-1.4-9.9,8.6-17.3,9.2-50.4,4.4-47.1-1.9-90.7,23.3-9.6,5.6-32.5,13.3-38.3,19.4-12.2,12.7,2.7,36.1,22.3,57.7,58.3,23.8,122.2,37,189.1,37s11,0,16.5-.3c12.5-23.3,10.4-53.3,21.2-84.2-12.3-21-30.6-23.9-46.8-33.6Z"/>
  <path d="M593.4,112.4c17.2.5,38.5-8.9,57.7-7,10.3-27.1,33.3-45.4,43.2-66.2C634.5,13.9,568.9,0,500,0s-14,.2-20.9.4c20.7,54.8,62.6,110.5,114.3,111.9Z"/>
  <path d="M303.3,602.9c-57.5-15.9-99.8,1.9-142.8,37.8-14.7,12.3-63,72.9-53.3,88.2,18.7,4.9,32.2,18.7,49.7,26.1,6,2.5,28.1,11.5,29.8,12,70,18.8,127.5,5.8,161.2-62.8-12.3-32.9-6.4-90.8-44.6-101.3Z"/>
  <path d="M922.4,349.2c-6.3,53.3,4.8,118.3.3,173,17.1,7.8,24,42.8,41.8,43.2,11.7.3,23.2-8.6,33.5-19.5,1.4-15.1,2.1-30.3,2.1-45.8,0-65.1-12.4-127.3-35.1-184.3-21.7-2.4-38.9,2.8-42.5,33.5Z"/>
  <path d="M728.6,687.5l-85.3,12.7c-7.8,5.5-16.9,52.2-17.6,63.8-.2,3.1.9,37.1,1.2,39.1,1,5.8,11.4,6.3,13.2,9.7,17.9,34.2,33.6,74.9,75.1,91,29.3,11.4,59-69.2,64.6-92.3,13.8-57.3-.8-93.5-51.2-124Z"/>
  <path d="M171.5,449.4c7.6-11,25.7-53.6,21.2-65.6-1.4-3.7-42-50.1-46.1-51.9-17.3-7.8-64,17.6-76.6,32.1-16.2,18.5-49.3,83.8-36,105.5,15,24.5,120.7,4.5,137.6-19.9Z"/>
  <path d="M477.9,415.7c-.2-3.3-19.9-55.9-22.9-61-3.5-5.9-30.5-39.1-34.5-39.5-56.1,21.5-109.3,126.6-51.5,170.8,12,9.2,74.7,13,86.4-3.9,1.2-1.8,18.4-36.6,19.1-38.6.6-1.9-3.7-6.6-3-10.7,1-5.9,6.9-11.4,6.5-17.1Z"/>
</svg>