<?xml version="1.0" encoding="UTF-8"?>
<svg id="Layer_1" xmlns="http://www.w3.org/2000/svg" version="1.1" viewBox="0 0 1000 1000">
  <!-- Generator: Adobe Illustrator 29.0.0, SVG Export Plug-In . SVG Version: 2.1.0 Build 186)  -->
  <defs>
    <style>
      .st0 {
        fill: none;
      }
    </style>
  </defs>
  <path d="M495.8,0h-.4c.1,0,.3,0,.4,0,0,0,0,0,0,0Z"/>
  <path d="M121.2,830.5c1.8,1.3,4,2.5,6.6,3.4-4.3-4.8-8.5-9.6-12.6-14.6,2.8,6.1,5,10.4,6,11.2Z"/>
  <path class="st0" d="M438.1,3.8L495.4,0c-19.4.2-38.5,1.5-57.3,3.8Z"/>
  <path class="st0" d="M321.4,255.3c-2.5,12.9-26.9,69.9-33.9,81.1-11.5,18.5-89.9,56.3-110.7,43.6-5.7-3.5-55.3-65.2-56-73.1-.7-7.8,7.2-42.3,10.7-50.7,26.8-66,129.3-77.9,190.8-69.3,4.6,3,.9,59.5-.8,68.4ZM527.6,930.8c-.5,4.3-17,53.5-19.7,54.7-41.7,6-80.6,18.7-107.4-20.4-22.8-33.3-18-61.8-4.9-98.7,3.5-10,35.4-65.3,41.3-66.6,33.5-7.3,70.6,63.1,82.7,88.4.8,1.7,7.6,1.7,8,2.6.8,2.3-4.2,11.1-4,18.2.2,7,4.9,13.5,3.9,21.9ZM546.8,735.1c-120.4,58.5-143.9-60.3-98.2-148.4-.7-2.4-37.9-19.3-44.9-22.1-5.1-2.1-12.9,3.3-15.7,1.4-2.7-1.9-3.6-11.9-9.3-16.4-5.7-4.4-14.9-3.7-18.5-6.6-7.1-5.8-4-21.4-7.5-27.9-6.5-12-24.6-22-22.1-46.3.9-8.5,55.2-68.3,64.8-70.1,23.8-4.6,74.1,3.5,92.3,19.9,5.6,5.1,4.4,13.2,7.8,17.3,4.3,5.2,10.9,5.5,16.1,14.7,10.3,18.2,45.1,122.7,29.2,133.9l-47.2,10.5c48.6,25.5,83,86.7,53.2,140.3ZM584.5,333.4c-16.9-30.3-11.5-67.8-26.6-98.5,2.8-38.9,23.8-71.9,44.5-103.8,8.2-4.8,102.1,9.8,109.8,17,7.4,6.9,21.1,47.1,29.4,52.4,16.5-3.2,31.8-.8,48-.7,3.6,0,7.7-6.1,14.1-5.5,5.4.6,33.8,8.8,39.3,11.2,4,1.7,48.9,36.4,50.6,39.1,9.7,15.9-11.7,97.4-23,106.9-18,15.1-68.9,23.7-92.2,19.5-22.8-4.2-59.7-32.6-70.8-49.8l-8-.4c-18.1,28.8-38.1,44.4-67.4,61.9-5.4,0-44.2-43.1-47.6-49.2ZM873.8,667.1c-4.7,7.5-45.6,26.3-56.6,27.7-59,7.5-115.2-45.1-142.8-92.2-.1-10.4,34.6-34.6,44.8-39.6,11.4-5.6,64.3-21.5,76-21.9,21.9-.7,73.3,17.1,87.1,33.5,8.7,10.3-1.6,81.5-8.4,92.5Z"/>
  <path d="M453.8,60.8c31.4-10,46.2-26.1,42-60.7-.1,0-.3,0-.4,0l-57.3,3.8c-31.7,3.9-62.4,10.8-91.9,20.3,32.8,25.3,58.5,52.3,107.7,36.6Z"/>
  <path d="M699.6,320.7l8,.4c11.1,17.2,48.1,45.6,70.8,49.8,23.3,4.2,74.2-4.3,92.2-19.5,11.2-9.5,32.7-91,23-106.9-1.7-2.7-46.6-37.4-50.6-39.1-5.5-2.4-33.8-10.6-39.3-11.2-6.4-.7-10.5,5.5-14.1,5.5-16.2-.1-31.5-2.6-48,.7-8.3-5.2-22-45.4-29.4-52.4-7.7-7.2-101.6-21.8-109.8-17-20.7,32-41.8,65-44.5,103.8,15.1,30.8,9.7,68.3,26.6,98.5,3.4,6.1,42.2,49.2,47.6,49.2,29.3-17.5,49.4-33.1,67.4-61.9Z"/>
  <path d="M493.6,594.8l47.2-10.5c15.9-11.1-18.9-115.7-29.2-133.9-5.2-9.2-11.8-9.5-16.1-14.7-3.3-4.1-2.2-12.2-7.8-17.3-18.1-16.4-68.5-24.4-92.3-19.9-9.6,1.8-63.9,61.6-64.8,70.1-2.4,24.3,15.6,34.3,22.1,46.3,3.5,6.6.4,22.1,7.5,27.9,3.6,2.9,12.8,2.2,18.5,6.6,5.7,4.5,6.5,14.5,9.3,16.4,2.8,1.9,10.6-3.5,15.7-1.4,7,2.8,44.2,19.7,44.9,22.1-45.8,88.1-22.2,206.9,98.2,148.4,29.8-53.7-4.6-114.8-53.2-140.3Z"/>
  <path d="M322.2,186.9c-61.5-8.6-164,3.3-190.8,69.3-3.4,8.4-11.4,43-10.7,50.7.7,7.9,50.3,69.6,56,73.1,20.8,12.7,99.2-25.2,110.7-43.6,7-11.3,31.4-68.2,33.9-81.1,1.7-8.9,5.4-65.4.8-68.4Z"/>
  <path d="M795.2,541.1c-11.7.4-64.6,16.3-76,21.9-10.2,5-44.9,29.2-44.8,39.6,27.6,47.1,83.8,99.7,142.8,92.2,11-1.4,51.9-20.2,56.6-27.7,6.9-11,17.1-82.2,8.4-92.5-13.8-16.4-65.2-34.2-87.1-33.5Z"/>
  <path d="M218.1,822.4c7.1-4.5,40-38.3,45.8-46.7,6.8-9.8,27.8-48.9,21-58.3-14.9-20.8-112.6-30.1-139.1-20.5-19.7,7.1-51.8,43.4-52.9,62.7-.2,4.3,13.6,40.6,22.1,59.6,4.1,4.9,8.3,9.8,12.6,14.6,22.6,7.9,73.1-.4,90.3-11.4Z"/>
  <path d="M527.7,890.7c-.3-.9-7.1-.8-8-2.6-12.1-25.3-49.2-95.7-82.7-88.4-5.9,1.3-37.8,56.6-41.3,66.6-13.1,36.9-17.9,65.4,4.9,98.7,26.8,39.2,65.7,26.4,107.4,20.4,2.7-1.1,19.2-50.3,19.7-54.7,1-8.4-3.7-14.9-3.9-21.9-.2-7,4.8-15.9,4-18.2Z"/>
</svg>