<?xml version="1.0" encoding="UTF-8"?>
<svg id="Layer_1" xmlns="http://www.w3.org/2000/svg" version="1.1" viewBox="0 0 1000 1000">
  <!-- Generator: Adobe Illustrator 29.0.0, SVG Export Plug-In . SVG Version: 2.1.0 Build 186)  -->
  <defs>
    <style>
      .st0 {
        fill: none;
      }
    </style>
  </defs>
  <path d="M643.9,17.5c-4.5-2.6-10-2.2-15-.7,6.4,1.7,12.7,3.5,19,5.4-2-2.7-3.4-4.5-3.9-4.8Z"/>
  <path class="st0" d="M191,249.3c-8.1-38.9,2.9-112.9,34.1-139.5,5.9-5.1,40.9-24,48.6-24.9,15.6-2,58.9,30.7,65.5,44.2,23.2,47.2-12.1,93.4-53.4,114.4-7.4,3.8-18.2,3.2-27.2,6.5-15.9,5.8-61.1,30.6-67.6-.6ZM501.6,768.4c-4.6,8.1-14.5,8.7-17.8,12.9-13,16.8-16.8,40.6-47.8,36.8-6.3-.8-74.3-27.1-77.3-30-16.9-16.4-22-78.4-15.7-99.8.6-2.1,21.5-33.7,24.4-37.3,6.2-7.6,53-49.8,60.5-54.5,1.9-1.2,38.9-17.8,41.1-18.1,12.7-1.3,34.7,49.1,38.3,61,8.2,26.4,4.7,49.3,4.8,75,0,3.8,7.3,8.6,7.4,12,0,2.3-16.4,39.3-17.9,42ZM534.9,518.3c-1.5.8-1.4,6.5-6.5,8.4-28.6,10.7-96.6,3.4-93.9-38.9-21.3,39.7-59,44.8-92.4,65-4.5,2.7-5,11.6-6.6,12.7-1.8,1.3-12.2-5.6-18.7-4.9-32.5,3.2-49.2,2.8-81.8-8-6-2-16.9-8.8-19.4-14.3-4.9-10.6-11-85.6-7.4-97.3.7-2.3,29.8-30.5,33.9-33.3,63.3-43.4,132.1-8,187.2,29.2l8.2-2.4c33.5-63.5,132.4-36.1,173.4,6.1-16.6,38.3-39.9,58.5-75.9,77.5ZM780.6,366.4c-1.4-12.6,2.5-59.2,4.7-71.6,2.3-12.9,16.6-26.7,17.3-42.2,57.4-1.5,75,30.8,108.2,65.3,2.4,2.4,11.5.3,13.5,2.6,8.8,10.3,16.8,88.5,9.8,100.1-44.2,22.9-79.5,49.3-123.6,11.3-19-16.4-27.1-41.3-29.8-65.5Z"/>
  <path d="M988.8,605.6c-25.2,11.4-39.1,54.8-50,76,.1,5.4,17,13.9,3.6,22.5l-56-5.8c-27.7,25.1-43.2,55.4-54.1,90l17.6,69c68.6-67.3,118-154.1,138.9-251.5Z"/>
  <path d="M256.5,825c-7-5.8-8.6-16.9-17.4-22.1-2.3-1.4-39.6-18-41.9-17.9-3.4,0-8.2,7.9-15.5,7.8-9.3,0-21.2-6.6-32.1-4.2l-8.4-78.6c-33-23.1-69-25.9-101.9-15.4,44.2,104.4,122.8,190.7,221.7,244.6,12.2-15.4,20.3-36.3,26.2-60.7,9.5-39.9-10.9-37-30.7-53.6Z"/>
  <path d="M437.4,434.7l-8.2,2.4c-55.1-37.2-123.9-72.6-187.2-29.2-4,2.8-33.2,31-33.9,33.3-3.6,11.6,2.5,86.7,7.4,97.3,2.5,5.5,13.4,12.3,19.4,14.3,32.7,10.8,49.3,11.2,81.8,8,6.5-.6,17,6.2,18.7,4.9,1.5-1.1,2.1-10,6.6-12.7,33.5-20.2,71.2-25.3,92.4-65-2.7,42.2,65.3,49.5,93.9,38.9,5.2-1.9,5.1-7.6,6.5-8.4,36-19,59.3-39.2,75.9-77.5-41.1-42.2-140-69.6-173.4-6.1Z"/>
  <path d="M507.4,639.4c-3.7-11.9-25.6-62.4-38.3-61-2.2.2-39.2,16.9-41.1,18.1-7.5,4.8-54.3,46.9-60.5,54.5-3,3.6-23.8,35.2-24.4,37.3-6.2,21.4-1.2,83.4,15.7,99.8,3,2.9,70.9,29.2,77.3,30,31.1,3.8,34.8-19.9,47.8-36.8,3.3-4.3,13.2-4.8,17.8-12.9,1.5-2.7,18-39.7,17.9-42,0-3.3-7.4-8.2-7.4-12,0-25.7,3.4-48.6-4.8-75Z"/>
  <path d="M554.8,97.5c-15.5,32.1-18.8,61.1-4,94.4,20.9,46.9,62.9,38.9,107.3,42.5,49.6-44.8,48.7-106.4,20.8-165-2.4-5.1-22.3-35.3-31-47.2-6.3-1.9-12.6-3.8-19-5.4-2.2.7-4.4,1.5-6.3,2.5-15.4,7.6-59.7,61.5-67.8,78.2Z"/>
  <path d="M934,420.6c7-11.6-1-89.8-9.8-100.1-2-2.3-11.2-.2-13.5-2.6-33.2-34.5-50.8-66.8-108.2-65.3-.6,15.5-14.9,29.3-17.3,42.2-2.2,12.4-6.1,59-4.7,71.6,2.7,24.2,10.8,49.1,29.8,65.5,44.2,38,79.4,11.7,123.6-11.3Z"/>
  <path d="M667.3,940.5c-3.8,2.2-31.6,29.8-45.4,44.5,46.4-11.6,90.2-29.7,130.4-53.3-24.7-4-72.6,1.5-85.1,8.8Z"/>
  <path d="M258.7,249.9c9-3.3,19.8-2.7,27.2-6.5,41.3-21,76.6-67.2,53.4-114.4-6.6-13.5-49.9-46.2-65.5-44.2-7.7,1-42.7,19.9-48.6,24.9-31.2,26.7-42.3,100.6-34.1,139.5,6.5,31.2,51.8,6.4,67.6.6Z"/>
</svg>