<?xml version="1.0" encoding="UTF-8"?>
<svg id="Layer_1" xmlns="http://www.w3.org/2000/svg" version="1.1" viewBox="0 0 1000 1000">
  <!-- Generator: Adobe Illustrator 29.0.0, SVG Export Plug-In . SVG Version: 2.1.0 Build 186)  -->
  <defs>
    <style>
      .st0 {
        fill: none;
      }
    </style>
  </defs>
  <path d="M497.9,0c.1,0,.3,0,.4,0-.1,0-.3,0-.4,0Z"/>
  <path class="st0" d="M101.6,379.8c-.9-4.2-11-3.7-10.9-6.1.6-10.4,18.2-76,24.9-81.8,53.7-13.3,92.5-34,134.1,11.9,41.1,45.2,31.8,89,12.4,143.3-.3.9-6.4,1.4-8.5,6.4-9.6,22.1-10.2,51.8-38,67.9-20.4,6.1-25.6-12.8-38.2-21.8-27.6-19.7-36.4-25.1-55.6-56.6-18.4-30.2-13.7-32.9-20.2-63.2ZM345.3,819.1c-49.7,37.7-119.6,16.5-159.8-24.4-3.3-3.3-31.1-36.2-33.4-39.5-4.2-5.9-22.4-40.4-22.3-45.2.4-26.7,87.7-49.2,110.3-51.2,13.7-1.2,36.9,14.3,35.9-7.5,35.7,11.3,38.6,17.4,63.4,37.2,10.4,8.4,39.9,15.5,40.8,38.3.4,9.5-27.6,86.7-34.8,92.2ZM704.9,645.5c-6.4,7.6-50.3,16.8-61.9,17.1-97.2,2.8-82.4-151.6-26.7-196.1,43.6,11.7,63.2,40.5,84,77.5,2.1,3.7,10.1,4.9,11.6,7.6,8.9,15.6,4,80.7-7,93.8Z"/>
  <path d="M623.4,861.7c0,26.5,81.1,52.1,92.6,64.8,3.4,3.8,6.7,11.3,9.9,19.6,33.7-17.1,65.2-37.9,94-61.9l-8.1-76c-67.6-47.2-147.3-9.7-188.4,53.4Z"/>
  <path d="M999.9,492.3c-8,7.8-15.7,15.6-16,16.8-3.2,10.5,1.3,72,5.8,92.1,6.7-32.7,10.3-66.6,10.3-101.3s0-5.1,0-7.7Z"/>
  <path d="M177.4,499.7c12.5,8.9,17.7,27.9,38.2,21.8,27.8-16.1,28.4-45.8,38-67.9,2.2-5,8.2-5.5,8.5-6.4,19.5-54.2,28.7-98-12.4-143.3-41.7-45.9-80.4-25.1-134.1-11.9-6.6,5.8-24.2,71.4-24.9,81.8-.1,2.4,10,1.8,10.9,6.1,6.4,30.3,1.8,33,20.2,63.2,19.2,31.5,28,37,55.6,56.6Z"/>
  <path d="M339.3,688.7c-24.8-19.9-27.7-25.9-63.4-37.2,1,21.8-22.1,6.3-35.9,7.5-22.6,1.9-109.8,24.5-110.3,51.2,0,4.8,18.1,39.3,22.3,45.2,2.3,3.3,30.2,36.2,33.4,39.5,40.3,40.9,110.1,62.1,159.8,24.4,7.2-5.5,35.2-82.7,34.8-92.2-.9-22.7-30.4-29.9-40.8-38.3Z"/>
  <path d="M456.5,18.1c-7.5,4.8-54.3,46.9-60.5,54.5-3,3.6-23.8,35.2-24.4,37.3-6.2,21.4-1.2,83.4,15.7,99.8,3,2.9,70.9,29.2,77.3,30,31.1,3.8,34.8-19.9,47.8-36.8,3.3-4.3,13.2-4.8,17.8-12.9,1.5-2.7,18-39.7,17.9-42,0-3.3-7.4-8.2-7.4-12,0-25.7,3.4-48.6-4.8-75C532.3,49.4,511.1.6,498.3,0c-.1,0-.3,0-.4,0-.1,0-.2,0-.3,0-2.2.2-39.2,16.9-41.1,18.1Z"/>
  <path d="M493.1,958.7c-7.9-1.7-13.6-7.7-23.6-8.8-16.4-1.9-57,.6-71.7,5.9-9.1,3.2-21.3,13.6-32.4,25.9,42.8,12,88,18.3,134.6,18.3s45.5-1.6,67.6-4.5c1.2-28.9-55-32.5-74.6-36.8Z"/>
  <path d="M725.7,111.1c-2.7,11.5-6.3,63-4.9,75.8,4.2,39,38.3,85.9,80.1,88.3,6.8.4,66.9-24.1,72-28.5,14.7-12.7,13.3-46.9,9.8-68.3-36.6-43.5-80.5-80.7-129.9-109.7-3.6-.4-7.2-.6-10.8-.6-1.6,15.2-13.2,29.8-16.4,43.1Z"/>
  <path d="M700.2,544.1c-20.8-37-40.3-65.9-84-77.5-55.7,44.5-70.5,198.9,26.7,196.1,11.6-.3,55.5-9.6,61.9-17.1,11-13.1,15.8-78.2,7-93.8-1.5-2.7-9.5-3.9-11.6-7.6Z"/>
</svg>