<?xml version="1.0" encoding="UTF-8"?>
<svg id="Layer_1" xmlns="http://www.w3.org/2000/svg" version="1.1" viewBox="0 0 1000 1000">
  <!-- Generator: Adobe Illustrator 29.0.0, SVG Export Plug-In . SVG Version: 2.1.0 Build 186)  -->
  <path d="M585,92.5c7.9,8.7,14.9,37,23,50,24.1,38.7,64.9,84,112.7,89.4,65.1,7.2,92.2-30.4,106.2-89.1,1.9-7.9,2.6-14.1,2.4-19.1-30.6-26.8-64.6-49.9-101.1-68.7-2,1.2-4.2,2.1-6.7,2.1-9.3,0-21.2-6.6-32.1-4.2l-1.8-16.5C633.7,14.6,575.3,1.9,514.2.2c-8.1,8.4-15.4,17.6-21.8,27.4,0,26.5,81.1,52.1,92.6,64.8Z"/>
  <path d="M701.8,615.3c-21.5-4.5-82.8,41.2-93.9,61-4,7.2-17.4,55.1-19,65-4.7,27.9-.1,52.3-1.5,79.9-60.2,13.5-92.1,89-94.8,146.5,54.2,10.5,143.1,11.4,169.6-46.5,22.1-48.3-1.5-55.1-23.6-93.7,48.4-12.5,123.1-38.8,133.4-94,2.7-14.5,4.2-50.5-1.5-63.1-2.2-4.9-62.5-53.8-68.6-55.1Z"/>
  <path d="M388.3,240.4c17-17.8,46.7-53.3,48.3-78.5,1.9-29.3-54.9-32.9-74.5-37.3-7.9-1.7-13.6-7.7-23.6-8.8-16.4-1.9-57,.6-71.7,5.9-20.1,7.2-55.8,49.2-59.4,70.2-3.2,18.2,22.9,89.7,41.4,96.9,6.3,2.5,58.7,4.4,64.5,3.1,2.8-.6,42.2-13.9,43.9-15.6,2.2-2.2-.3-10.8,2.1-14,1.1-1.5,19.4-11.7,29.1-21.9Z"/>
  <path d="M235.9,865.5c45.9-19.9,45.4-67,40.5-110.9-55.9-56.3-145.5-38.5-199.1,12.6,23.2,36.7,51.1,70.2,82.9,99.6,24.1,9.1,48.8,10.4,75.8-1.3Z"/>
  <path d="M517.6,468.5c-6.6-13.5-49.9-46.2-65.5-44.2-7.7,1-42.7,19.9-48.6,24.9-31.2,26.7-42.3,100.6-34.1,139.5,6.5,31.2,51.8,6.4,67.6.6,9-3.3,19.8-2.7,27.2-6.5,41.3-21,76.6-67.2,53.4-114.4Z"/>
</svg>