<?xml version="1.0" encoding="UTF-8"?>
<svg id="Layer_1" xmlns="http://www.w3.org/2000/svg" version="1.1" viewBox="0 0 1000 1000">
  <!-- Generator: Adobe Illustrator 29.0.0, SVG Export Plug-In . SVG Version: 2.1.0 Build 186)  -->
  <path d="M489.2,0c0,0-.2,0-.2,0,1,0,1.9,0,2.9,0-.9,0-1.8,0-2.6,0Z"/>
  <path d="M699.4,497.1c22.1-48.3-1.5-55.1-23.6-93.7,48.4-12.5,123.1-38.8,133.4-94,2.7-14.5,4.2-50.5-1.5-63.1-2.2-4.9-62.5-53.8-68.6-55.1-21.5-4.5-82.8,41.2-93.9,61-4,7.2-17.4,55.1-19,65-4.7,27.9-.1,52.3-1.5,79.9-60.2,13.5-92.1,89-94.8,146.5,54.2,10.5,143.1,11.4,169.6-46.5Z"/>
  <path d="M490.6,928.1c20.8,12.7,99.2-25.2,110.7-43.6,7-11.3,31.4-68.2,33.9-81.1,1.7-8.9,5.4-65.4.8-68.4-61.5-8.6-164,3.3-190.8,69.3-3.4,8.4-11.4,43-10.7,50.7.7,7.9,50.3,69.6,56,73.1Z"/>
  <path d="M101.9,730.2c4-25.5-20.8-91.5-37.9-110.9-6.4-7.3-44.8-38.5-52.7-36.1-1,.3-2.3,1.3-3.9,2.8,12.1,69.5,38.5,134.1,76.1,190.6,6-16.1,16.8-35.7,18.5-46.5Z"/>
  <path d="M151.8,411c4.3,3.3,5.9,10.6,14.7,16,34.3,21.1,68.1,31.1,106.7,14.3,45.9-19.9,45.4-67,40.5-110.9-60.3-60.7-159.7-35.3-211,25.1,4.8,27.6,29.8,40.7,49.1,55.5Z"/>
  <path d="M406.5,164.6c6.5,31.2,51.8,6.4,67.6.6,9-3.3,19.8-2.7,27.2-6.5,41.3-21,76.6-67.2,53.4-114.4-6.3-12.8-45.5-42.8-62.9-44.3-1,0-1.9,0-2.9,0-8.1,1.3-42.5,19.9-48.4,24.9-31.2,26.7-42.3,100.6-34.1,139.5Z"/>
  <path d="M785,656.7c1.1,3.2,6.4,2.8,7.4,4.7,11.6,22.3,43.5,69.6,68.4,75.8,23.9,6,49.6-72.1,51.5-92.5,2.7-28.8-18.4-79.2-47.9-84.8-7-1.3-61.1,9.8-67.1,15-9.8,8.3-16.7,69.3-12.3,81.9Z"/>
</svg>