<?xml version="1.0" encoding="UTF-8"?>
<svg id="Layer_1" xmlns="http://www.w3.org/2000/svg" version="1.1" viewBox="0 0 1000 1000">
  <!-- Generator: Adobe Illustrator 29.0.0, SVG Export Plug-In . SVG Version: 2.1.0 Build 186)  -->
  <path d="M519.7,339.2c3.1-3.5,38.8-79.9,38.7-84.6-.5-17.4-25.1-31.6-36.5-41.8-5.5-5-7.7-15-14.1-19.6-23.8-17-96.9-23.6-125.6-19.7-10.3,1.4-16.8,6.9-25.5,10.9.3-22.5,10.1-31.4.4-53.8-1.7-4-31.7-43-34.1-44.4-17.9-11-75,12.2-87.9,27.2-5.9,6.9-30.3,56.1-32.7,65.5-2,7.8-4.9,54.1-2.9,56.1,39.8,3.1,79.2,0,117.8-11.3-1.6,28.4,18.1,37.2,28.3,53.3,14.7,23.2,33.6,57.3,59.9,70.2,27.9,13.7,92.6,16.4,114.3-8.1Z"/>
  <path d="M950.4,494.1c-2.2-2.2-10.6.2-14-2.1-4.6-3.2-5.1-15.2-10.3-20.9-27.9-30.9-57.6-49.8-98-62,.2,16.9-17.2,30.4-21.1,43.5-22.2,72.9-9.1,159,29.8,220,12.5,19.5,57,70.4,79.3,72.5,20.1,1.9,37.1-56.9,43-70.5.9-2.1,8.9-2.7,11.1-8.5,9.2-24.9,13.2-68.6,6.9-94.4-1.8-7.5-23.8-74.6-26.6-77.5Z"/>
  <path d="M616.9,966.8c36-37.1,51.1-66.3,34.2-119.7-16.6-52.3-61.8-45-105.6-66.6-22.3,9.7-27.5,27.5-39,42.4-2.9,3.7-12.1,4.9-15.4,9.6-1.4,1.9-18.2,38.7-19.5,42.6-2.1,6.1,7.3,10.9,7.1,18.3-1.7,50.6-7.5,46.5,12.1,92.8,1.5,3.5,3,8.5,4.6,13.9,1.5,0,3.1,0,4.7,0,30.6,0,60.6-2.8,89.8-8,12.5-10.7,22.6-20.6,27.1-25.2Z"/>
  <path d="M340.1,630.4c-57.5-15.9-99.8,1.9-142.8,37.8-14.7,12.3-63,72.9-53.3,88.2,18.7,4.9,32.2,18.7,49.7,26.1,6,2.5,28.1,11.5,29.8,12,70,18.8,127.5,5.8,161.2-62.8-12.3-32.9-6.4-90.8-44.6-101.3Z"/>
  <path d="M756.5,837c-7.8,5.5-16.9,52.2-17.6,63.8-.2,2.8.7,31.7,1.1,37.9,46.9-25.7,89.2-58.7,125.4-97.5-6.8-5.9-14.6-11.5-23.6-17l-85.3,12.7Z"/>
  <path d="M825,232.5c4-25.5-20.8-91.5-37.9-110.9-6.4-7.3-44.8-38.5-52.7-36.1-8.8,2.7-47.8,60.5-52.4,71.4-15.2,36.2-18.4,72.2,1.5,107.6,28.4,50.5,70.5,33.6,119.4,27.3,2.6-16.7,20-45.4,22.2-59.3Z"/>
  <path d="M248.3,460.7c7.4-23.4,11.5-96.5-9.4-111-23.6-16.4-112.4,44.4-118,73.5-2.5,13.1-2,59.4,6.9,68.6,2.7,2.8,58.6,29,63.1,29,19,.1,51.5-41.8,57.3-60.1Z"/>
  <path d="M613.1,674.3c-.9-1.8-7.3-2.2-9.6-5.6-3.4-5-2.9-13-7.1-16.8-2.4-2.2-53-26.6-58.8-28.2-6.6-1.8-49.1-7.1-52.3-4.7-25.6,54.3,8.7,167,81,159,15-1.7,62.9-42.3,59.7-62.5-.3-2.1-12-39.1-12.9-41.1Z"/>
  <path d="M14.2,616.7v2c7.6,31.4,18.2,61.5,31.5,90.3,12.8-10,24.1-23.1,35.8-33.3-5.6-6.7-59.9-67.5-67.2-58.9Z"/>
</svg>