<?xml version="1.0" encoding="UTF-8"?>
<svg id="Layer_1" xmlns="http://www.w3.org/2000/svg" version="1.1" viewBox="0 0 1000 1000">
  <!-- Generator: Adobe Illustrator 29.0.0, SVG Export Plug-In . SVG Version: 2.1.0 Build 186)  -->
  <path d="M10.1,340.5c-.1,2.2,3.5,12.8,8.1,25.2,7.6-27.2,17.3-53.4,29.2-78.5-17.6,14-36.5,38.6-37.3,53.3Z"/>
  <path d="M524.4,225.5l47.2-10.5c15.9-11.1-18.9-115.7-29.2-133.9-5.2-9.2-11.8-9.5-16.1-14.7-3.3-4.1-2.2-12.2-7.8-17.3-18.1-16.4-68.5-24.4-92.3-19.9-9.6,1.8-63.9,61.6-64.8,70.1-2.4,24.3,15.6,34.3,22.1,46.3,3.5,6.6.4,22.1,7.5,27.9,3.6,2.9,12.8,2.2,18.5,6.6,5.7,4.5,6.5,14.5,9.3,16.4,2.8,1.9,10.6-3.5,15.7-1.4,7,2.8,44.2,19.7,44.9,22.1-45.8,88.1-22.2,206.9,98.2,148.4,29.8-53.7-4.6-114.8-53.2-140.3Z"/>
  <path d="M817,753.9c16.8-5.7,39.8-14.3,53.7-25,2.6-2,30.1-32.4,30.1-34.7-32.8-46.5-102.7-92.6-159.5-63.8-48.4,24.5-26.2,48.5-38.7,70.8-1.2,2.2-25.9,23.3-32.2,32.3-26.8,38.1-33.1,87.3-6.1,128,2.7,4.1,75.3,30.2,83.3,31,9.4.9,26.7-10.8,33.2-17.7,21.5-22.4,29.3-50.6,41.2-79.7l-10.9-5.2,5.8-36.2Z"/>
  <path d="M502.5,661.4c-4.6-6.4-17.8-4.6-25.4-9.7-6.6-4.4-8-14.4-9.9-15.6-4-2.4-83.3-12.6-91.4-12.1-15.7,1-66.2,11.3-72,24.1,3.1,63.7,56.1,170.8,128.1,172.8,17.2.5,38.5-8.9,57.7-7,17.4-45.6,70.7-66.3,36.9-116.1-7.6-11.2-17.7-27.5-24.1-36.4Z"/>
  <path d="M734.3,275.6c11-1.4,51.9-20.2,56.6-27.7,6.9-11,17.1-82.2,8.4-92.5-13.8-16.4-65.2-34.2-87.1-33.5-11.7.4-64.6,16.3-76,21.9-10.2,5-44.9,29.2-44.8,39.6,27.6,47.1,83.8,99.7,142.8,92.2Z"/>
  <path d="M354.2,900.8c-9.8-15.5-69.3-45.6-88-49.8-13-2.9-62.1-6.4-66.5,6.8-.9,13.4-.9,27.7.3,42.1,49.4,37.2,106,65.4,167.3,82.2,3.3-2.2,6.8-4.1,10.5-5.4,3.9-6.7-17.9-67.1-23.5-75.9Z"/>
  <path d="M38.3,411.3c17.1,13.2,77.7,4.2,96.9-8.1,7.1-4.5,40-38.3,45.8-46.7,6.8-9.8,27.8-48.9,21-58.3-14.9-20.8-112.6-30.1-139.1-20.5-4.7,1.7-10.1,5.1-15.6,9.4-11.8,25.1-21.6,51.3-29.2,78.5,7.4,19.6,17.5,43.6,20.1,45.6Z"/>
  <path d="M425,438.9c2.7-1.1,19.2-50.3,19.7-54.7,1-8.4-3.7-14.9-3.9-21.9-.2-7,4.8-15.9,4-18.2-.3-.9-7.1-.8-8-2.6-12.1-25.3-49.2-95.7-82.7-88.4-5.9,1.3-37.8,56.6-41.3,66.6-13.1,36.9-17.9,65.4,4.9,98.7,26.8,39.2,65.7,26.4,107.4,20.4Z"/>
</svg>