<?xml version="1.0" encoding="UTF-8"?>
<svg id="Layer_1" xmlns="http://www.w3.org/2000/svg" version="1.1" viewBox="0 0 1000 1000">
  <!-- Generator: Adobe Illustrator 29.0.0, SVG Export Plug-In . SVG Version: 2.1.0 Build 186)  -->
  <path d="M946.8,699.6c-105.2-48.7-617-65.4-739.8-44.5-23,3.9-101,41.1-151.9,73.3,7.9,15.4,16.6,30.2,26,44.6,53.2-35.8,106-68.6,176.5-59.5-8.5,70-53.8,109.6-102.4,148.5,12.2,11.7,25.1,22.7,38.4,33.1,74.9-49.3,111-167.2,129.1-178.8,10.1-6.4,123.4-21.9,137.5-11.8,69.7,49.7-84.4,237.6-181,244.2,20.6,10.1,41.9,18.9,63.9,26.2,69.6-29.7,114.1-77.4,150.1-142.4,12.2-22.1,37.1-110.7,46.4-116.4,29.3-18,126.1-14.4,119.1,47.7-6,52.6-68.1,150.6-99.7,196.6-9.1,13.3-25.1,26.2-39,39.2,28.2-1.1,55.8-4.6,82.6-10.2,60-74.1,99.1-170.4,122.5-258.7,21.2,1.7,138.4-20.4,122.2,21.1l-104.2,185.1c43.7-24.4,83.4-55.1,117.8-91,20.5-45.7,33.7-85.1,33.3-101.6,15.5-2.4,28.8-.8,39.8,4,8.2-14.2,15.6-28.9,22.4-44-3.3-1.8-6.5-3.4-9.7-4.8Z"/>
</svg>