<?xml version="1.0" encoding="UTF-8"?>
<svg id="Layer_1" xmlns="http://www.w3.org/2000/svg" version="1.1" viewBox="0 0 1000 1000">
  <!-- Generator: Adobe Illustrator 29.0.0, SVG Export Plug-In . SVG Version: 2.1.0 Build 186)  -->
  <path d="M729,660.2c-201.1-34-469-21.5-657.6,59-6.1,2.6-11.8,5.3-17,8,6.4,12.4,13.2,24.6,20.5,36.4,51.5-8.2,99.3-32.1,150.7-39.9,4.1-.6,7.3,3.3,5.9,7.2-7.2,19.5-12.8,39.9-22.3,58.5-3.1,6-34,47.5-48.2,78.3,9.6,8.8,19.5,17.3,29.8,25.4,47.1-27.2,69.8-107.5,83.4-163.9,3.2-13.1,14-22.8,27.3-24.7l149.4-21c-21.7,114.4-62,210.2-162.8,269.6,13.6,6.4,27.6,12.2,41.9,17.3,85.1-39.8,155.4-163.6,164.8-254,1.2-11.4,10.8-20,22.3-20l99.1-.4c14.7,0,27.5,9.8,31.4,23.9,2.2,8.2,1.1,17-3.1,24.4l-145.5,255.7c.4,0,.7,0,1.1,0,20.7,0,41.2-1.3,61.3-3.7,46.4-55.9,113.4-188.7,132.5-265.3,4.6-18.5,22.4-30.4,41.3-27.9,30.7,4.1,65.6,14.9,65.3,41-.7,66.4-69.2,154-117,221.2,31.1-12.3,60.7-27.6,88.3-45.5,31.4-50.9,53.7-113.9,67.9-160.7,3.5-11.5,16-17.5,27.2-13l55.3,22.1c10.1-15.8,19.2-32.2,27.5-49.1-45.7-19.4-185.3-52.9-220.5-58.9Z"/>
</svg>