<?xml version="1.0" encoding="UTF-8"?>
<svg id="Layer_1" xmlns="http://www.w3.org/2000/svg" version="1.1" viewBox="0 0 1000 1000">
  <!-- Generator: Adobe Illustrator 29.0.0, SVG Export Plug-In . SVG Version: 2.1.0 Build 186)  -->
  <path d="M800.2,663.9c-175.9-30-581.1-19.8-734.7,83.8,7.2,12.6,14.9,24.9,23.2,36.8l201.3-59.1c4.1,71.2-40.3,126.6-79.8,182.2,15.3,10.9,31.3,21,47.9,30.2,57.9-58.1,86.7-206.4,110.4-220.6l142-7.7c1.6,37.8,2.4,73.5-7.5,110.7-17.8,66.7-85,124.1-111.7,168,19.9,4.4,40.2,7.6,60.9,9.6,65-64.2,127.1-223.6,121.9-287.5l186.7,9.4c-22.4,108.7-90.1,195.1-166.9,271.5,30.5-5.8,60.1-14.4,88.3-25.5,66.8-68.6,123.7-144.9,125.9-246.2,35.4-5.6,80.7,25.1,118.4,41.2,10-16.3,19.1-33.3,27.2-50.8-50.3-18.2-100.2-36.8-153.7-45.9Z"/>
</svg>