<?xml version="1.0" encoding="UTF-8"?>
<svg id="Layer_1" xmlns="http://www.w3.org/2000/svg" version="1.1" viewBox="0 0 1000 1000">
  <!-- Generator: Adobe Illustrator 29.0.0, SVG Export Plug-In . SVG Version: 2.1.0 Build 186)  -->
  <path d="M888.2,710.9c-194.4-73-642.1-89.7-817.3,29.8-2.4,1.6-4.6,3.1-6.8,4.5,9.2,16.3,19.2,32,30.1,47.1,64.4-25.4,162.3-82.7,192.4-77,62.5,11.7-54.4,170.9-104.5,170.8,15,12.4,30.8,23.9,47.2,34.5,20.8-10.8,43.2-34.3,56.6-50.2,36.4-43.3,48.5-89.4,67.9-137.6,6.2-15.4,20.8-25.7,37.4-26.6l102.1-5.1c18.2,18.4-42.7,150.3-59.3,175.2-20.8,31.2-82.3,75.8-104,94.1,19.9,7.2,40.5,13.2,61.5,17.9,73.7-62,154.8-217.2,145-286.6l146.7,1.4c49.2,14.3-36.1,165.9-56.1,195.6-23.6,35-73.8,70.6-84.2,86.4-3.6,5.5-5.5,9.9-6.1,13.8,26-1.9,51.4-5.7,76.2-11.4,18.3-16,34.7-33.9,48.7-54.2,78.9-114.8,36.7-266.8,226.3-179.4,5.7,2.6,17.9,10.4,31.7,18.8,7.9-12.2,15.4-24.8,22.2-37.7-18.7-9-45.6-20.9-53.4-23.9Z"/>
</svg>