<?xml version="1.0" encoding="UTF-8"?>
<svg id="Layer_1" xmlns="http://www.w3.org/2000/svg" version="1.1" viewBox="0 0 1000 1000">
  <!-- Generator: Adobe Illustrator 29.0.0, SVG Export Plug-In . SVG Version: 2.1.0 Build 186)  -->
  <path d="M674.9,661c-180.6-28.2-402.1-10.3-567.7,75.1-3.5,1.8-18.1,10.9-35.6,21.9,6.9,11.5,14.3,22.7,22.1,33.6,15-6.3,28-12.1,35.3-14.7,26.5-9.6,57.2-29.4,74.8-35.9,31.9-11.7,65.2-22.3,99-27.1,16.9,18.6-38.5,99.5-53,117.5-3.6,4.4-41,35.9-60.1,60.7,10.7,8.5,21.8,16.6,33.2,24.2,51-25.2,110.2-121.5,132.9-184.8,6.6-18.4,23.9-30.7,43.5-31l126.3-1.5c31.8,28.1-140.5,231.1-210.1,265.9,16.7,6.7,33.9,12.4,51.5,17.3,23.1-13.2,46.3-34.1,61.7-46.1,70.6-55.2,133.2-149.6,158.2-235.1l113.4,11.2c10.2,1,17.3,10.6,15.3,20.6-21.6,107.7-110.3,230.6-215.5,267.4,34,0,67.3-3.4,99.4-9.9,38.8-32.8,77.1-74.8,89.6-90.8,33.1-42.3,67.2-163.6,96.9-163.6s90.7,53.2,113.7,65c11.3-15,21.7-30.6,31.3-46.8-31.9-28.5-216.7-86.7-256-92.8Z"/>
</svg>