<?xml version="1.0" encoding="UTF-8"?>
<svg id="Layer_1" xmlns="http://www.w3.org/2000/svg" version="1.1" viewBox="0 0 1000 1000">
  <!-- Generator: Adobe Illustrator 29.0.0, SVG Export Plug-In . SVG Version: 2.1.0 Build 186)  -->
  <path d="M847.9,693.7c-210.1-64.9-476.3-78.8-672.9,18.6-20.3,10.1-67.4,26.3-104.9,43.1,8.2,13.8,17.1,27.2,26.6,40.1,28.8-10.7,60.9-26.2,89.7-38.7,62.5-27,138.4-32.4,138.4-32.4,3,35.2-14.9,67.7-33,96.3-16.8,26.6-60.2,56.6-82.9,85.8,15.1,10.8,30.8,20.8,47,29.9,67.6-56.6,107.8-141.3,132-225.2l150.1-17.3c36,34.8-141.9,242.7-167.5,289.1,18.1,4.8,36.7,8.7,55.6,11.5,63.7-71.1,163.5-251.4,175-298.6,161.4,0,157.4,32.2,73.7,142.2-26.3,34.6-101.7,112.6-125.2,159.4,28.9-2.8,57.1-8.2,84.3-15.7,69.7-73.4,149.1-196.9,159.1-246.5l118,49.5c11.6-16.7,22.2-34.1,31.7-52.1-35.9-15.8-76.9-33.5-94.8-39Z"/>
</svg>