<?xml version="1.0" encoding="UTF-8"?>
<svg id="Layer_1" xmlns="http://www.w3.org/2000/svg" version="1.1" viewBox="0 0 1000 1000">
  <!-- Generator: Adobe Illustrator 29.0.0, SVG Export Plug-In . SVG Version: 2.1.0 Build 186)  -->
  <path d="M872.6,705.6c-192.3-79-475.6-74.8-667.7,6.3-19.8,8.3-84.8,30.8-126.4,57.2,5.6,8.7,11.4,17.2,17.5,25.6l214.3-71.8c5.2,31.7-89.3,121.7-128.8,162.5,9.6,7.9,19.5,15.5,29.6,22.7,33.8-23.3,75.2-66,84.4-76.7,21.6-25.2,65.2-109.3,73.4-115.5,20.7-15.6,164.5-31.7,174.2-22-.4,116-117.6,217.1-205.7,279,17,5.8,34.4,10.8,52.1,14.8,45.1-29.6,109.2-104.8,132.2-133.7,63-78.9,65.1-207.3,194.4-144.2,49.3,72-166.6,249.2-182.9,287.5-.2.6-.5,1.1-.7,1.7,23.1-1.5,45.8-4.5,68-9,68.8-54.6,167.9-207.7,175.2-267.1,6.8-5,72.2,29.4,137.5,58.9,9.7-14.2,18.7-28.9,26.9-44.1-31.5-15.8-59.4-28.9-67.4-32.1Z"/>
</svg>