<?xml version="1.0" encoding="UTF-8"?>
<svg id="Layer_1" xmlns="http://www.w3.org/2000/svg" version="1.1" viewBox="0 0 1000 1000">
  <!-- Generator: Adobe Illustrator 29.0.0, SVG Export Plug-In . SVG Version: 2.1.0 Build 186)  -->
  <path d="M505.8,1000c-.8,0-1.6,0-2.3,0,.8,0,1.5,0,2.3,0Z"/>
  <path d="M503.4,1000c-4.6-.2-8.7-1.7-12-4.7-1.1,1.6-2.3,3.1-3.4,4.5,4,0,8,.2,12,.2s2.3,0,3.4,0Z"/>
  <path d="M816.4,747.9c-78.6-54.5-99.5-31.2-113.1,8.7,25.5-29.9,59.5-43.9,113.1-8.7Z"/>
  <path d="M654.5,652.6c-208.9-15.9-401.8,14.9-586.2,99.8,9.6,16.4,20.1,32.1,31.4,47.2,70.6-32.7,147.6-89.3,186.2-60.7-16.2,65.7-57.8,107-106.6,144.7,16.3,13.6,33.5,26.2,51.4,37.7,58.1-39.3,102.3-139.9,110.5-195.6l115.7-21.1c2.9,105.9-85,188.3-166.5,249.4,18.3,8.4,37.1,15.8,56.5,22,41.2-25.8,83.7-77.5,100.5-101.6,24.5-35.2,64.7-159.4,88.9-167.7,28.3,3.3,134.4-25.2,124.2,21.2l-169.2,267.2c3.4,3,7.5,4.5,12,4.7.8,0,1.6,0,2.3,0,12.5-.1,24.9-.7,37.1-1.8,15.3-16.3,31.1-36.3,45.7-56.6,29.7-41.1,54.8-83.1,62.1-96,15.8-27.8,31.2-64,52.5-89,13.6-39.9,34.5-63.2,113.1-8.7,8.8,50.4-107.2,154.2-128.5,196.1-3.8,7.4-5,14.7-4.5,21.3,34.4-13.6,67-30.9,97.2-51.4,42-59.9,86-134.9,96.3-158.1l40.7,19.3c10.6-16.1,20.4-32.9,29.1-50.3-85.5-49.3-222.4-66.8-292.2-72.1Z"/>
</svg>