<?xml version="1.0" encoding="UTF-8"?>
<svg id="Layer_1" xmlns="http://www.w3.org/2000/svg" version="1.1" viewBox="0 0 1000 1000">
  <!-- Generator: Adobe Illustrator 29.0.0, SVG Export Plug-In . SVG Version: 2.1.0 Build 186)  -->
  <path d="M224.7,345.3c31.6-41.2,97.7-168.3,2.5-154-49.6,7.4-74.3,83.9-157.4,53.8-15.4,25.9-28.5,53.4-39.1,82,8.1,50.6,116.5,15.1,194,18.2Z"/>
  <path d="M609.5,133.6c-107.2,4.8-78.1,220.7,31.6,219.8,75.8-36.1,2.1-65.3,6.5-109.2,2.7-26.8,82.3-116-38.1-110.6Z"/>
  <path d="M844.2,547.1c-52.9,16.2-97,135.1,5.9,114.1,28.2-5.7,29.1-33.9,33.1-36,43.3-21.9,75.9,20,90.2,36.1,10.7-31.4,18.4-64.3,22.7-98.2-40.6-21-124.2-24.5-151.9-16.1Z"/>
  <path d="M507.3,576.9c-8.8-5.3-70.7-4.7-74.3-1.2,2.2,62-12.6,84.6-61.2,116.9l15,66.9c85.7,30.4,172.4-151.6,120.5-182.6Z"/>
  <path d="M314.7,590.6c20.4-56.6,95.6-18.9,148.4-46.7,17.1-128.9-233-68.7-216.1,23l67.7,23.7Z"/>
  <path d="M601.4,929.2c7.7-8.5-7.2-60.8-18.7-72.9-41.3-43.6-180.5,78.1-143.2,135.8,1.2,1.8,2.4,3.4,3.6,4.7,12.2,1.4,24.6,2.3,37,2.8,38.7-19.2,88.4-82.3,121.2-70.4Z"/>
  <path d="M810.1,235.3c24.9-30.4,36.2-68,33-99-23.8-22.5-49.8-42.6-77.7-60.1-9.2,1.1-19.2,3.3-30,7-80.8,27.1,18.3,143.7,74.7,152.2Z"/>
  <path d="M833.4,297.2c-62.7-31.9-202.9,79.2-136.7,121.4,58.4,37.3,143.4-63,136.7-121.4Z"/>
  <path d="M786.4,767.7c-.2,31.4,45.6,60.3,83.2,69.1,19.7-21.6,37.6-45,53.3-69.9l1.3-4.4c-54.5-28-106.2-78.7-137.8,5.2Z"/>
  <path d="M747.4,924.2c-32.7-43.1-62.2-91.9-113.3-31-3.1,34.6,9.7,62.8,29.1,79.5,33-11.4,64.4-26.1,93.9-43.8-4-1-7.7-2.2-9.6-4.8Z"/>
  <path d="M154.5,822c-2,12-.7,27.1,3,42.3,30.9,29,65.4,54.2,102.9,74.7,31.8-32.8,1.2-142.4-105.8-116.9Z"/>
  <path d="M339.3,744.6l14.7-82.7-83.9-55.8c-66.3,39.3,23.9,168.8,69.2,138.4Z"/>
  <path d="M260.4,156.3c10.3-33.2-1.9-59.7-24.8-80.8-31.9,19.9-61.3,43.3-87.9,69.6l31.4,42.8,81.2-31.6Z"/>
</svg>