<?xml version="1.0" encoding="UTF-8"?>
<svg id="Layer_1" xmlns="http://www.w3.org/2000/svg" version="1.1" viewBox="0 0 1000 1000">
  <!-- Generator: Adobe Illustrator 29.0.0, SVG Export Plug-In . SVG Version: 2.1.0 Build 186)  -->
  <path d="M307.7,729.8c-6.3,4.4-48.8-37.4-91.9-25.5-19.2,5.3-114.2,76.4-100.9,109.9,57.7,67.8,68.9-23.8,99.8-34.8,109.6-39,79,85.1,132.5,72.5,31.3-7.4,62.7-115.3,36-148.2-68-25.4-67.2,20.3-75.4,26.1Z"/>
  <path d="M660.2,597c-34.8,2.6-68.6,1.5-88.8-30.4l8.3-89.6c-48.8-8.7-92.6,20.1-105.8,68.3-1.3,14.1,50,107.9,60.1,119.8,42.1,49.9,174.7,3.8,126.2-68.1Z"/>
  <path d="M627,863.5c-2.8,34,34.9,54.2,12.9,93.4,104.8,12,22.5-95.8,74.5-141.3,4.3-3.8,99-23.9,42.1-80.3-66.6-66-124.8,72.4-129.4,128.3Z"/>
  <path d="M806.7,426.5c-35.7,101.9,136.9,57.4,191.3,28.9-2.6-29.4-7.8-58-15.2-85.8-34,1.5-61.3,40.2-83.8,44.6-31.3,6.1-75.9-34.6-92.3,12.3Z"/>
  <path d="M790,364.7c68.6,34.1,69.8-29.6,94.3-48.2,19.8-15.1,59.3-7.4,69.7-26.4-5.7-12.3-11.9-24.4-18.6-36.2-82.7-38.6-246.8,60.4-145.4,110.8Z"/>
  <path d="M347.1,310.4c37.5-3.1,130.6,42.4,110.6-33.5-18.7-70.8-250-41.7-192.8,65,32.7-1.8,46.2-28.5,82.1-31.5Z"/>
  <path d="M54,588.7c24.5-71.3,21.6-174.6.6-246.7-18.9,1.3-44.8,58.8-44.8,67.5v189.6c1.9,9.7,4.2,19.2,6.7,28.7,27,1.7,29.6-16,37.5-39Z"/>
  <path d="M422.7,357.1c-42.6,8.9-142,211.1-5.5,129.7,71.2-42.5,47.6-138.5,5.5-129.7Z"/>
  <path d="M564.8,153.9l-30-127c-122.9-2.4-85.1,217.4,30,127Z"/>
  <path d="M594.8,161.8c72.2,47.9,122.1-66.6,114.4-116.1-14.3-6.6-28.9-12.5-43.8-17.7-39.2,22.5-78.5,104-70.6,133.8Z"/>
  <path d="M830,779.8c-67.4,3.3-74.6,100-25.5,116.8,31.8-24.5,60.6-52.6,85.7-83.9-19.9-17.6-47.7-33.5-60.2-32.9Z"/>
  <path d="M309.8,491.9l-31.8-117.9c-30.2-13.9-91.4,12.6-86,47.5,28.7,54.4,50.2,82.8,117.8,70.3Z"/>
  <path d="M308.6,853.3h-132.2c0,0,.3,28.1.3,28.1,17.2,14.6,35.4,28,54.4,40.2l44.6,9.6c34.5-13.2,40.4-44.1,32.9-78Z"/>
  <path d="M707.1,596.9c60.1-38.1-2.3-149.9-59.5-134.9-62.3,16.4,34.3,140.4,59.5,134.9Z"/>
</svg>