<?xml version="1.0" encoding="UTF-8"?>
<svg id="Layer_1" xmlns="http://www.w3.org/2000/svg" version="1.1" viewBox="0 0 1000 1000">
  <!-- Generator: Adobe Illustrator 29.0.0, SVG Export Plug-In . SVG Version: 2.1.0 Build 186)  -->
  <path d="M475.7,750.3c-36.1-22-152.2-13.4-183.8,20.7-73,79-20.5,165.7,40.4,182.6,36.5,10.1,35.5-4.8,52.8-61.6,0,0-79.5-59.4-46.2-70.3,33.3-10.8,105.3-38.2,122.1,19.2s-3.2,92.9-3.2,92.9l66,6.2c38.3-37.4-18.8-172-48.1-189.7Z"/>
  <path d="M729.9,198.8l-56.5-2-25.1,116.4c-41.8,10.7-79.2-71.3-63.9-97.1l47.1-27.5c-38.1-51-107.6-22.7-116.3,34.2-1.4,9.5,27.8,182.4,35,188.7,68.9,60.1,242.1-113.3,179.7-212.7Z"/>
  <path d="M907.3,567.7c-105.4-114-234.5,34.3-200.3,149.3,29.6,99.6,154.9,137.2,132.5,2l-62.1-29.1-1.8-63c53.3,2.9,94.4-24,131.7-59.3Z"/>
  <path d="M192.7,301.1c-143.9-12.7-167.7,103.6-164,222.9,124.3,58.3,80.5-80.1,105-115.4,18.5-26.8,160.5-8.1,59.1-107.4Z"/>
  <path d="M301.3,425.9c-49.5-72.1-69.1,38.5-81.2,51-32,33-82.6,34.6-110,74.2,23,47.1,125.8,73.4,161.5,37.8,27.7-27.6,52.9-129.2,29.7-163Z"/>
  <path d="M429.9,136.4c31.4-53.1,20-101-50-91.9-12.6,109.8-110.9,104.6-83.8-.4h-1.8c-23.7,10.7-46.5,23.3-68.1,37.4,3.2,113,133.5,173.4,203.7,54.9Z"/>
  <path d="M971.7,653.1s-27.8-63.2-56.1-34.8c-28.3,28.3-15.5,53.1-18.6,74.4-6.7,46-26.8,85.5,5.2,104.4,28.3-38.3,51.3-80.7,67.8-126.3l1.6-17.6Z"/>
</svg>