<?xml version="1.0" encoding="UTF-8"?>
<svg id="Layer_1" xmlns="http://www.w3.org/2000/svg" version="1.1" viewBox="0 0 1000 1000">
  <!-- Generator: Adobe Illustrator 29.0.0, SVG Export Plug-In . SVG Version: 2.1.0 Build 186)  -->
  <path d="M459.4,351.2c-5,47.6-2.2,81.4,29.4,117.8l-103.1,29.6c-6.4-68.8-1.4-116.1,29.3-176.8-127.8-22-103,103-103,191.5,47.4-20,61.9,27.4,69,29.2,19.9,4.9,94.1,4.4,112.9-1.8,43.7-14.2,12.6-56.8,16.8-78.9,10.4-54.3,68.9-115.6-51.4-110.7Z"/>
  <path d="M628.4,779.4l-7.3-147.7-59.5,6.2c-33,36.2-4.1,81.2-.7,120.7,1.6,19-12.4,40.6-9.5,55.5,16,85,246.8,50.6,202.9-64.6-78.8-32.5-77.5,66.3-125.9,30Z"/>
  <path d="M923.7,351.3c-52.4-15.3-48.3,66.2-95.5,58.8-34.4-68.6,2.9-98.7,14.5-162.1-47-5.3-106.6,43.9-111.7,87.8-3.2,27.6,30.6,32.7,35.9,55.1,5.8,24.7-30.9,62.8,11.6,76.2,31.8,10,157.4-25.7,166.4-50.8,7.1-19.8-.3-58.9-21.3-65Z"/>
  <path d="M606.6,78.1c-38.8,20.8-9.9,76-58.7,66.5,53.8-215.9-134.9-104.9-45.7,49.5,35.4,61.1,136.7-42.1,171.9-64.4,10.3-51.4-19.2-77.5-67.5-51.6Z"/>
  <path d="M134.9,823.2c56.6,24.3,59.6-69.5,83.5-74.7,46.7-10.2,55.6,26,79.3,37.2,68,32.4,83.8-24.1,54.9-77-102-46.2-254.8-31.2-217.6,114.5Z"/>
  <path d="M229.6,313.8c130.1-109.2-25.4-192.3-50.5-169-5.5,32.9,37.1,42.6,28,78.1-6.7,26-61.3,46.4-56.6,74.9,39.1,50.4,41.2,47.9,79.1,16Z"/>
  <path d="M356,838l-101,16.8-.6,69.9c43.7,47.6,116.7-73.3,101.6-86.6Z"/>
  <path d="M639.2,653.7c22.3,41.1,80.2,56,114.9,14.4,5.3-29.1-71.4-76-86.7-64.8l-28.2,50.5Z"/>
  <path d="M945.9,336.4c11-9.8-28.4-88.1-58.8-73.6-18,40.3,29.9,99.4,58.8,73.6Z"/>
  <path d="M112.7,218.8c-19.5,9.9-51.3,59.3-36.8,73.4,8.7,8.5,53.5-3.3,58.8-22.2l-22-51.2Z"/>
</svg>