<?xml version="1.0" encoding="UTF-8"?>
<svg id="Layer_1" xmlns="http://www.w3.org/2000/svg" version="1.1" viewBox="0 0 1000 1000">
  <!-- Generator: Adobe Illustrator 29.0.0, SVG Export Plug-In . SVG Version: 2.1.0 Build 186)  -->
  <path d="M703.5,432c53.9-55.9-21.5-140.9-7.7-154.2,6.6-6.4,169.8,58.3,115.4-61.5-38-83.8-140.6-35.6-178.2,22.2-33.2,51,12.5,55.1,9.7,86.6-4.2,47.1-53.4,150.9,60.8,106.8Z"/>
  <path d="M920.8,770.1c1.3-5.7,1.1-10.7-.6-14.6-41.5-92.8-127.5,32.3-116.7,92.8l-107.7-15.5,16.9,91c17.8,9.2,44.5,2.2,73-13.4,53.7-37.4,99.7-85.1,135.1-140.3Z"/>
  <path d="M727.7,777.5c7.8-17.8,7.4-52,17.8-65,18.4-23,75.6,19.1,75.1-57-.4-60.7-43.6-65.5-95-46.8-1.4,53.2-56.1,61.8-68.9,84.9-33.9,61.1,47.8,119.4,71,83.9Z"/>
  <path d="M445.1,806.1c-36.5-34.5-104.5-19.1-134.7,19.1-18.8,39.2,78.8,27.6,93.9,47.9l-1.5,98.3c106.7,31.2,88.7-121.4,42.3-165.3Z"/>
  <path d="M794.6,324.1l9.2,46.1h-61.9c0,0,14.5,86.1,14.5,86.1,19.8,14.3,73.7,4,89.4-13.4,4.1-4.6,50.7-105.7,50.6-111.8-.9-56.5-72.5-38.6-101.8-7Z"/>
  <path d="M422.1,460c-13.6-9.9-9-43.5-22.9-55.5-18.9-16.4-84.7-12.5-104.3,4l-8.8,70.8,154.9,45.2c66.9-77.2-1.2-51.7-18.9-64.6Z"/>
  <path d="M447.4,556.9c-64.5-2.3-191.1-11.9-145,75.7,42.6,81,193.7,12.5,145-75.7Z"/>
  <path d="M455.8,106.7c37.9-6.9,17.3-69.1-6.7-84-36.1-22.4-114.3,15.8-147.2,38.4l8.5,62.5c56.7.9,87.3-48.2,145.3-16.9Z"/>
  <path d="M115.2,180.7c-44.6,53.6-78.1,116.8-97.2,185.9,54.1-27.8,146.2-133.6,97.2-185.9Z"/>
  <path d="M415,143.4l-89.1,49.4c35.1,91,207-.9,153.9-53.6-4.5-4.5-50.6-.5-64.9,4.3Z"/>
  <path d="M202.6,462.8c-31.5,76.2-13.6,131.5,76.8,123.2,10.5-53.1-14.5-117.6-76.8-123.2Z"/>
  <path d="M285.2,864.7c-32.5-4.9-48.9,32.6-43.3,63.7,19.1,11.6,39.1,21.9,59.8,30.8,26.6-24,35.8-86.6-16.6-94.5Z"/>
</svg>