<?xml version="1.0" encoding="UTF-8"?>
<svg id="Layer_1" xmlns="http://www.w3.org/2000/svg" version="1.1" viewBox="0 0 1000 1000">
  <!-- Generator: Adobe Illustrator 29.0.0, SVG Export Plug-In . SVG Version: 2.1.0 Build 186)  -->
  <path d="M289.3,953.6c5.2,2.4,10.5,4.8,15.9,7l91.4,28.7c5.6,1.2,11.2,2.2,16.8,3.2v-60.9c65-9,97.8,6.9,108.6,67.9,20.5-.9,40.7-3,60.6-6.3l1.5-.4c2.8-183.4-224.7-187.7-294.8-39.2Z"/>
  <path d="M670.1,560.2c-17.6-2.1-132.1,14.5-140.2,25.9-22.9,32.4-9.4,120.7,32.3,141.8,29.8-55.2,62.7-68.8,124.2-76.3l24.8,61c128.7-1.5,44.7-142.3-41.1-152.3Z"/>
  <path d="M263.1,664.3l-128.4-33.2c-17.8-182.1-138.8-151.7-82.3,12.6l63.4,5.9c-41,133.3,228.7,74.1,147.4,14.7Z"/>
  <path d="M209.5,157c-3.1-17.2-12.6-34.1-25.4-44.6-20.8,17-40.2,35.6-58.1,55.7l3.2,56.6c-16.4,10.9-37.5,14.4-57.7,17.3-14.2,23.6-26.6,48.4-36.8,74.3,103.9,31.7,195.3-45.7,174.7-159.4Z"/>
  <path d="M281.3,476.5c-48.3-34.9-181.4-12.5-118.9,56.2l76.5,9.5c48.4,204.8,163.2,21.5,42.5-65.8Z"/>
  <path d="M946,399.2c12.1,4.9,42.7,37,46.8,31.3.5-2.1.9-4.6,1.3-7.4-7.2-46.9-21-91.6-40.3-133.3,0,0,0,0,0,0-44.5-1.2-8,94.9-7.8,109.3Z"/>
  <path d="M867.4,383.4l8.9-70.3s52.8-56.6,30.8-78.7c-22-22-89,38.2-100,58.5-47.8,87.7,141.3,298.4,138.9,106.3-26.3-10.7-49.2-19.2-78.5-15.8Z"/>
  <path d="M657.3,729l-118.5,38.1c60.2,54.9,133.5,103.3,195.4,24.6l-9.2-61.9-67.7-.7Z"/>
  <path d="M554.1,266c-26.7-36.8-119.9-82-161.8-69.1-47.4,14.6-19.2,89.4,16.1,106.5,49.2-6.8,110.4,5.6,145.7-37.4Z"/>
  <path d="M540.6,192.9l45.3,10.7,44.6-60.1c-5.1-59.5-128.7-141.2-139.8-79-10.2,57,66.6,66.9,50,128.4Z"/>
  <path d="M443.1,146.8l30.5-97.7-49.7-39c-96.2,34.8-110.2,164.8,19.1,136.8Z"/>
</svg>