<?xml version="1.0" encoding="UTF-8"?>
<svg id="Layer_1" xmlns="http://www.w3.org/2000/svg" version="1.1" viewBox="0 0 1000 1000">
  <!-- Generator: Adobe Illustrator 29.0.0, SVG Export Plug-In . SVG Version: 2.1.0 Build 186)  -->
  <path d="M909.7,786.6c-6,8.5-12.2,16.8-18.7,25,7.6-7.5,14.1-15.8,18.7-25Z"/>
  <path d="M416.2,484.9c-56.2,90.9,107.7,26.3,145.3,96.4,25.7,47.8-55.6,76.1-9.3,120.5,19,14,64.2,1.8,76.4-12.7,8.9-10.6,10.5-45,21.9-65.6,13.9-25.4,68.6-54.3,39.1-91.3-84.1-15-204.6-158.5-273.4-47.3Z"/>
  <path d="M262.6,76c-10.9,9.7-38.8,5.9-43.7,11.1-19.8,21.2,6.1,95.9,37.5,109.7,9.6,0,121.5-167.1,136-87.5,8.4,46.4-144.3,62.2-95.9,151.9,133.8-2,176.3-120.2,141.4-237.4-5.6-8.8-24.8-11.9-46.9-11.8-38.2,8.5-74.7,21.4-109.1,38-5.5,9-10.7,18.4-19.3,26Z"/>
  <path d="M865.6,341.8c39.8-62.7-73-90.8-121-80.7l32-143.9c-114.6-32.9-123.2,205.4-63.7,233.1,24.6,11.5,46-5.7,69.6-3.4,17.2,1.7,51.9,44,83.1-5.1Z"/>
  <path d="M914.5,773.8c11-42.8-42.2-65.5-4.9-107.8,9.2-10.4,39.8-16.3,43.1-28.9-133.9-206.1-185.8,212.8-120.2,215.8,18.5-11.4,41.3-24.5,58.4-41.4,6.5-8.1,12.7-16.4,18.7-25,2-4.1,3.7-8.4,4.8-12.8Z"/>
  <path d="M552.4,845.6c-11.4-38-174.8-9.2-193.5,14.3-28.4,52.1-23.6,99.8,19.2,125.2,10.3,2.6,20.7,4.8,31.2,6.8l15.9-89.6c10.4-10.2,152,26.1,127.2-56.6Z"/>
  <path d="M360.6,565.3c-41.3,101.9,68.1,178.7,159.9,192,52.2-60.5-133.2-211.9-159.9-192Z"/>
  <path d="M817.3,164.1c15.4,52.5,38.7,125.3,104.4,90,3.5-2.4,6.3-5.3,8.6-8.8-27.9-47-63.2-89-104.3-124.4-17.4,8.5-14.5,23.5-8.7,43.2Z"/>
  <path d="M152.7,445.2c36.2,39.4,89,72.9,143.7,72,21.8-145.4-46.7-162.5-143.7-72Z"/>
  <path d="M205.5,580.9c-43.6,8.4-108.5-19.9-101,56.3,74.8,66.4,164.7,3.8,159.9-87.8-45.4-18.9-46.2,29.1-58.8,31.6Z"/>
  <path d="M617.1,892.5c-48.9-31.7-112.9,54.3-96.4,104.9,2.6.8,5.3,1.4,8.1,1.8,15-.8,29.8-2.4,44.4-4.5,52.6-16,101.3-65,44-102.2Z"/>
  <path d="M81.9,422.6c-67.6,20.8-26.6,141.4,38.3,142.5,2.3-40.6,44.6-168.1-38.3-142.5Z"/>
</svg>