<?xml version="1.0" encoding="UTF-8"?>
<svg id="Layer_1" xmlns="http://www.w3.org/2000/svg" version="1.1" viewBox="0 0 1000 1000">
  <!-- Generator: Adobe Illustrator 29.0.0, SVG Export Plug-In . SVG Version: 2.1.0 Build 186)  -->
  <path d="M812.6,664c-19.9-11.5-65.1-3.8-72.3,21.1l28.7,126c-49.8,30.1-111.1-27.3-150.1,24.3-34.4,114.6,243.8,65,243.5-76.3,0-18.7-41.6-90.5-49.7-95.1Z"/>
  <path d="M527.8,154.5c-124.9-109.9-179.7,219.7-80.7,216.3,26-3.3,44.4-27.1,65.6-42.6-28.3-82.2-44.1-101.1,15.1-173.7Z"/>
  <path d="M578.6,386.9c51.9-17.5,150.4-207.3,83.7-268.6-165.3-13.1-64.2,78.7-88.7,141.4-8.7,22.3-41.5,54.3-60.8,68.5,10.4,30.2-2.5,81.7,65.8,58.7Z"/>
  <path d="M270.7,433.9c-45.7-157.5-144.6-65.2-160.4,45.1-17.1,119.2,166.3,210.3,146,99.6-2.1-11.4-182.9-93.7,14.4-144.7Z"/>
  <path d="M339.6,857c30.8-3.8,66,20.4,87.7,14.2,41.5-11.8,52.1-76.5-13.2-88.8-87.2-16.4-227,1.9-218.2,114.4,6.8,5.2,13.7,10.3,20.8,15.1,54,17.8,82.8-50,123-55Z"/>
  <path d="M705.9,703c9.5-16.9-4.3-79.1-13.9-85.2-110.7-69.7-232.1,230.1-72.4,187.5-2.1-49.7,74.9-82.1,86.3-102.3Z"/>
  <path d="M906.1,381.4l60.5-23.1c25.7-27.4-72.9-89.2-117.6-4.1-37.7,71.7-9.5,126.1,34.8,185.5,47,16,100.9-95.9,81.3-119.4l-58.9-39Z"/>
  <path d="M301.6,404.2l-15.7,181.2c90.2,29.4,120.9-112.6,88-163.6-5.6-8.7-63.7-23.4-72.3-17.5Z"/>
  <path d="M211.1,200.5c77.6-24.9,115-140,62.1-146.2-15.1,7.7-29.8,16.2-44,25.3-17.2,29.6-36.5,76.8-87.8,71.9-7.5,7.7-14.8,15.7-21.8,23.9,7.6,37.7,47.7,39.1,91.5,25Z"/>
  <path d="M406.9,903c-8,40.7,1.7,76,26.8,92.7,21.5,2.9,43.5,4.3,65.8,4.4,43.6-69.8-24.8-109.9-92.6-97Z"/>
</svg>