<?xml version="1.0" encoding="UTF-8"?>
<svg id="Layer_1" xmlns="http://www.w3.org/2000/svg" version="1.1" viewBox="0 0 1000 1000">
  <!-- Generator: Adobe Illustrator 29.0.0, SVG Export Plug-In . SVG Version: 2.1.0 Build 186)  -->
  <defs>
    <style>
      .st0 {
        fill: none;
      }
    </style>
  </defs>
  <path class="st0" d="M468.6,23.3c59.8-19,54.2,41,16.9,45.1-35.8,3.9-44.1-36.4-16.9-45.1Z"/>
  <path class="st0" d="M243.8,108.5c31.7-9.9,43.9,35.3,16.4,44-47.9,15-42.9-35.7-16.4-44Z"/>
  <path d="M273.9,213.5c76-14.7,81.8-76.2,103-80.3,30-5.8,85.2,74.6,180.5,15.5,11.2-6.9,41.6-30.4,44.2-30.4,4.9,0,16.3,31,68.4,56.3,52,25.3,132,38.7,186.2-2,4.7-3.5,9-6.9,12.8-10.1-4.6-5-9.3-9.9-14.1-14.8-.9.9-1.8,1.8-2.8,2.7s-17.8,13.5-30,15.7c-74,13-178.2-18-191.5-65.6-9.8-35.2-6.1-59-2.7-84.1-8.1-2.1-16.3-4.1-24.6-5.8-8.5,36.7-17.3,75.1-21.3,78.9-11.4,10.9-23.2,25.5-33.6,31.8-61.6,37.1-145-3.8-162.8-30.8-8.9-13.6-19.7-43.3-28.8-69.8-6.6,2-13.1,4.1-19.5,6.3,7.4,23.8,14.2,49.8,14.2,67.9,0,40.6-77.6,118.6-140.2,91.4-33.4-14.5-51.5-29.2-63.6-41.2-7.6,7.6-15,15.4-22.2,23.5,13.2,13,31.7,27.6,50.7,35.2,34.3,13.7,72.1,14.6,97.7,9.6Z"/>
  <path d="M705,95.5c23,36.4,60.4,7.5,54.7-22.9-11.3-6.9-22.9-13.3-34.8-19.3-17.3,5.5-32.5,22.3-19.9,42.2Z"/>
  <path d="M485.5,68.4c37.4-4.1,42.9-64.1-16.9-45.1-27.2,8.7-18.9,49,16.9,45.1Z"/>
  <path d="M260.2,152.5c27.5-8.6,15.3-53.9-16.4-44-26.5,8.2-31.5,59,16.4,44Z"/>
</svg>