<?xml version="1.0" encoding="UTF-8"?>
<svg id="Layer_1" xmlns="http://www.w3.org/2000/svg" version="1.1" viewBox="0 0 1000 1000">
  <!-- Generator: Adobe Illustrator 29.0.0, SVG Export Plug-In . SVG Version: 2.1.0 Build 186)  -->
  <defs>
    <style>
      .st0 {
        fill: none;
      }
    </style>
  </defs>
  <path class="st0" d="M229.3,116.6c0-16.5,47.5-28.7,58.6-11.7,26.4,40.6-58.5,32.8-58.6,11.7Z"/>
  <path class="st0" d="M729.8,109.2c-13.6,21.9-80,19.3-84.9-3.7-12.4-58.4,103.5-26.4,84.9,3.7Z"/>
  <path class="st0" d="M435.2,31.8c33-8.9,46.9,36.9,15.7,47.7-47.7,16.6-47.7-39-15.7-47.7Z"/>
  <path d="M312.8,180.7c46-18.6,45-49,56.5-50.7,6.2-.9,22.9,29.3,98.7,29.3s87.5-51.5,91.6-49.2c2.6,1.5-8,24,29.5,61.5,37.5,37.5,168.3,24,201.5,4.7,20.3-11.8,38.3-29.3,50-42.4-8.1-7.6-16.6-14.9-25.2-21.9-10.9,12.2-26.9,39.9-61.7,48.3-42.9,10.3-140,8.4-165.4-25.9-5.1-6.9-9.9-30.8-4.1-61.4,2.8-15,10.1-40.6,16.6-62.8-5.6-1.1-11.2-2.2-16.8-3.1-10.9,26.2-25.4,60.9-37.7,80.6-15.9,25.6-47.9,41.5-81.7,43.6-11.3.7-55.8-6.8-86.5-32.1-19.1-15.8-26.5-51.1-30-75.6-7.2,2.3-14.4,4.8-21.5,7.4,6,30.8,15.9,77.2,12.5,91.5-5.1,21.6-53.6,58.1-96.5,48.7-42.9-9.4-60.5-33.1-81-39.2-6.6,6.1-13.1,12.4-19.4,18.9,12.2,7.1,28.6,15.9,48.2,25.4,43.6,21.2,76.3,23.2,122.3,4.6Z"/>
  <path d="M450.9,79.6c31.2-10.8,17.2-56.7-15.7-47.7-32,8.7-32,64.3,15.7,47.7Z"/>
  <path d="M729.8,109.2c18.6-30-97.3-62-84.9-3.7,4.9,23,71.3,25.6,84.9,3.7Z"/>
  <path d="M287.8,104.9c-11.1-17.1-58.6-4.8-58.6,11.7,0,21.1,85,29,58.6-11.7Z"/>
</svg>