<?xml version="1.0" encoding="UTF-8"?>
<svg id="Layer_1" xmlns="http://www.w3.org/2000/svg" version="1.1" viewBox="0 0 1000 1000">
  <!-- Generator: Adobe Illustrator 29.0.0, SVG Export Plug-In . SVG Version: 2.1.0 Build 186)  -->
  <defs>
    <style>
      .st0 {
        fill: none;
      }
    </style>
  </defs>
  <path class="st0" d="M742.2,85.6c34.8,32.2-17.3,56.4-40.8,40.3-15.2-10.4,6.1-72.4,40.8-40.3Z"/>
  <path class="st0" d="M236.8,139.9c-10.4-17.1,16.9-55.3,36.9-45.1,48,24.5-20.6,71.9-36.9,45.1Z"/>
  <path class="st0" d="M476,42.1c7.6-11,36.5-26.3,48.5-14.2s2.6,28.6-.6,37.6c-13.9,39-73.9,14.4-47.9-23.3Z"/>
  <path d="M243.7,219c50.9,5.3,86.3-20.5,103.9-49.5,8.6-14.1,20.3-49.7,21.8-51.1,4.3-4,35.7,35.1,81.9,39.3,46.2,4.2,70.5,1.4,96.1-5.4,16.6-4.4,53.3-30.9,63.5-29.6,4.5.6,38,39.7,63.1,50.6,21.9,9.5,61.6,21,85.2,18.9,5.8-.5,47.3-8.8,62.6-18.8,2.5-1.6,20.8-18.3,30.7-27.9-4.2-4.1-8.4-8.2-12.7-12.2-8,7.4-20.5,18.6-33.9,26.3-22,12.6-99.9.6-125.4-10.9-13.2-6-50.5-38.5-50.5-53.5s4.8-45.7,8.7-75.6c-5.6-1.6-11.2-3.1-16.9-4.6-4.7,25.1-11.4,58-20.2,73.9-15.2,27.4-38.4,33.6-50.7,38.1-28.7,10.4-71.5,6.8-101.6-.2-18.3-4.3-44.9-11.6-63.4-35.1-13.9-17.7-20-54.2-24.4-72.2-8.6,2.5-17.1,5.2-25.4,8.1,2.6,18.8,7.4,47.6,7.4,73.3,0,42.2-28.1,87.3-82.6,92.4-53.9,5.1-87.1-49-105.2-55.9-7.7,7.3-15.2,14.9-22.4,22.6,8.5,17.7,62.4,54.1,110.3,59Z"/>
  <path d="M523.9,65.5c3.2-9,12.7-25.5.6-37.6s-41,3.3-48.5,14.2c-26,37.8,34,62.4,47.9,23.3Z"/>
  <path d="M701.3,125.9c23.6,16.1,75.7-8.2,40.8-40.3-34.7-32.1-56.1,29.9-40.8,40.3Z"/>
  <path d="M273.7,94.8c-19.9-10.2-47.3,28-36.9,45.1,16.3,26.7,84.9-20.6,36.9-45.1Z"/>
</svg>