<?xml version="1.0" encoding="UTF-8"?>
<svg id="Layer_1" xmlns="http://www.w3.org/2000/svg" version="1.1" viewBox="0 0 1000 1000">
  <!-- Generator: Adobe Illustrator 29.0.0, SVG Export Plug-In . SVG Version: 2.1.0 Build 186)  -->
  <defs>
    <style>
      .st0 {
        fill: none;
      }
    </style>
  </defs>
  <path class="st0" d="M664.6,80c12.2-37.5,74.5-10.8,48.6,23.2-3,4-26.9,12.8-39.4,5.9-12.5-6.9-11.4-22.2-9.2-29.1Z"/>
  <path class="st0" d="M459.7,39.6c18-11.5,59.3-6.7,61.7,18.2,1,10.4-5.8,15.3-15.3,17-18.9,3.3-43.9-2.7-51.5-11.2-7.7-8.5-2.7-19,5.1-24Z"/>
  <path class="st0" d="M265.1,78.3c31.4-6.5,47.6,26.2,24.6,39.2-34.3,19.4-57.5-32.4-24.6-39.2Z"/>
  <path d="M237.2,190.7c35.4,11.6,91.5-1.6,122-45.8,5.3-7.8,22.2-30.8,23.2-31.6,6.7-5.1,23.1,18.4,41.5,27.1,18.4,8.7,83.6,19.7,115.2,7.5,31.6-12.2,42.5-36.2,48.9-29.1,6.4,7.1,22.1,32.2,50.9,44.2,33.6,13.9,110.8,25.7,141.2,3,9.1-6.8,34.4-31.4,45.7-45.2-7.1-6.1-14.3-12-21.7-17.6-8.4,8.6-25,25-38.8,37.4-18.6,16.7-77,13.7-99.2,6.9-27.5-8.5-46.7-26.3-54.7-50.1-5.1-15.2-2.7-56.4-1.2-85-5.2-1.2-10.5-2.3-15.8-3.3-3.2,27.6-9.2,65-22.2,82.7-22.1,30-48.6,46.8-97,39.7-51.5-7.5-68.2-28.2-82.2-53.9-9.7-17.7-14.2-45.8-17.1-61.8-5.4,1.4-10.7,2.8-16,4.4.8,18,4.1,53.4,3.2,69.4-1.1,21.3-32.2,55-44.8,64.3-19,14-41.9,20.6-68.7,12.3-18.8-5.8-51.3-42.5-64-54.6-9.9,8.1-19.6,16.5-28.9,25.3,0,0,0,.2.1.3,1.9,2.8,45.1,42.2,80.5,53.8Z"/>
  <path d="M506.1,74.8c9.6-1.7,16.3-6.6,15.3-17-2.4-24.9-43.7-29.7-61.7-18.2-7.8,5-12.8,15.4-5.1,24,7.7,8.5,32.7,14.5,51.5,11.2Z"/>
  <path d="M673.8,109.1c12.5,6.9,36.4-1.9,39.4-5.9,25.9-34.1-36.4-60.8-48.6-23.2-2.2,6.9-3.3,22.2,9.2,29.1Z"/>
  <path d="M289.7,117.5c22.9-13,6.8-45.7-24.6-39.2-32.9,6.8-9.7,58.6,24.6,39.2Z"/>
</svg>