<?xml version="1.0" encoding="UTF-8"?>
<svg id="Layer_1" xmlns="http://www.w3.org/2000/svg" version="1.1" viewBox="0 0 1000 1000">
  <!-- Generator: Adobe Illustrator 29.0.0, SVG Export Plug-In . SVG Version: 2.1.0 Build 186)  -->
  <defs>
    <style>
      .st0 {
        fill: none;
      }
    </style>
  </defs>
  <path class="st0" d="M723.3,94.6c19.7-16.7,59.9,5.3,54,25.9-13,44.9-93.8,7.9-54-25.9Z"/>
  <path class="st0" d="M206.6,103.5c25.2-13.3,41.9,5,44,23.3,2.2,18.4-10.2,36.8-43.1,23.9-20.5-8-26.1-34-1-47.3Z"/>
  <path class="st0" d="M494.3,30.7c27.6-2.9,54.3,28.8,18.3,52.8-60.8,40.5-58.7-48.6-18.3-52.8Z"/>
  <path d="M314,171c16-25.4,27.2-63.2,30.2-65.1,6.2-3.9,68.4,64.5,126.3,68.8,67.4,5.1,133.2-58.4,140.9-57.8,5.6.4,52.4,55.1,106.3,75.6s121,11.8,162-12.1c1.1-.6,1.7-1.8,2-3.4-6.3-7.5-12.9-14.7-19.6-21.8-29.1,7.4-95.7,31.7-142.1,4.3-58.2-34.4-72.3-43.8-79.3-81.4-4.1-21.9-2.7-43.7-1.6-58.5-6.3-1.8-12.6-3.5-19-5.1-2.4,16.1-6.4,41.7-13.4,61.2-11,30.6-61.5,79.1-132.8,68.8-48.4-7-91-47.2-100.6-73.7-5.2-14.4-10.9-34.8-15.2-50.4-11.2,3.3-22.1,7-33,11,1,12.9,2.3,28.8,2.3,44.9,0,36-7.2,32.5-16.6,48.8-24.7,42.9-66.1,74.9-115.1,67.4-20.6-3.1-44.1-17.8-64-30.7-7.8,8.5-15.3,17.3-22.5,26.3,20.7,17.4,53.8,30.7,90.3,33.6,58,4.6,98.5-25.5,114.6-50.8Z"/>
  <path d="M512.6,83.5c36-24,9.3-55.7-18.3-52.8-40.4,4.2-42.5,93.3,18.3,52.8Z"/>
  <path d="M777.3,120.4c5.9-20.6-34.2-42.6-54-25.9-39.9,33.8,41,70.7,54,25.9Z"/>
  <path d="M207.5,150.8c32.9,12.9,45.2-5.6,43.1-23.9-2.2-18.4-18.8-36.6-44-23.3-25.2,13.3-19.5,39.2,1,47.3Z"/>
</svg>