<?xml version="1.0" encoding="UTF-8"?>
<svg id="Layer_1" xmlns="http://www.w3.org/2000/svg" version="1.1" viewBox="0 0 1000 1000">
  <!-- Generator: Adobe Illustrator 29.0.0, SVG Export Plug-In . SVG Version: 2.1.0 Build 186)  -->
  <defs>
    <style>
      .st0 {
        fill: none;
      }
    </style>
  </defs>
  <path class="st0" d="M742.7,82.3c2.5-.6,28.5,2.1,44.3,27.3,15.8,25.2-5.6,36.6-21.8,35.3s-42.2-9.1-44.3-27.3c-2.1-18.2,19.7-34.8,21.8-35.3Z"/>
  <path class="st0" d="M524.2,14.7c36,26.1-22.8,64.3-43.9,53.2-48.3-25.4,4.1-82,43.9-53.2Z"/>
  <path class="st0" d="M196.5,110.6c12.3-39.2,89.2,4.6,60.3,29.9-5.7,5-69.1-1.9-60.3-29.9Z"/>
  <path d="M242.3,209c79.2-16,92.9-78.9,115.8-81,6.8-.6,41.3,37.8,130.1,37.8s138.8-63.3,151.1-63.3c21.6,0,30.1,39,48.1,57,26.3,26.3,141.7,58,196.8,20.5-3.7-4.5-7.5-8.8-11.4-13.2-31.2,3.9-66,9.1-97.6,5.7-48.2-5.1-88.9-27.9-98.1-72.2-3.2-15.5-1.1-51.4-.6-68.4-5.7-2.1-11.4-4.2-17.2-6.1-9.5,13.5-28.1,40.5-38.9,56.1-39,56-126.8,76.7-196.3,44.3-65.3-30.5-58.5-83.1-76.9-102.5-4.9,1.6-9.8,3.2-14.7,4.9,18.2,98.2-56.1,168.4-136.3,160.7-14.2-1.4-46.6-16.9-70.4-21.1-7.5,8.5-14.8,17.3-21.7,26.3,18.4,12.7,73.3,27.6,138.2,14.4Z"/>
  <path d="M480.3,67.8c21.1,11.1,79.8-27.1,43.9-53.2-39.7-28.8-92.2,27.8-43.9,53.2Z"/>
  <path d="M256.8,140.6c28.8-25.3-48.1-69.2-60.3-29.9-8.8,28,54.6,34.9,60.3,29.9Z"/>
  <path d="M765.3,144.8c16.2,1.3,37.6-10.1,21.8-35.3-15.8-25.2-41.8-27.9-44.3-27.3-2,.5-23.9,17.1-21.8,35.3,2.1,18.2,28.1,26,44.3,27.3Z"/>
</svg>