<?xml version="1.0" encoding="UTF-8"?>
<svg id="Layer_1" xmlns="http://www.w3.org/2000/svg" version="1.1" viewBox="0 0 1000 1000">
  <!-- Generator: Adobe Illustrator 29.0.0, SVG Export Plug-In . SVG Version: 2.1.0 Build 186)  -->
  <defs>
    <style>
      .st0 {
        fill: none;
      }
    </style>
  </defs>
  <path class="st0" d="M734.6,94.4c13.5-18.8,47.4,13.2,46.4,20.5-5.2,36.1-71.7,14.7-46.4-20.5Z"/>
  <path class="st0" d="M249.4,109.6c12.2-7.4,32-17.3,45.8-2,13.8,15.3-9.9,42.4-26,41.7-22.4-1-46.5-23.5-19.8-39.7Z"/>
  <path class="st0" d="M496.6,25.9c10.5-17.2,73.2,1.7,47.4,38.8-12.3,17.6-76.4,8.5-47.4-38.8Z"/>
  <path d="M198.3,197.5c40.3,15.3,84.9,25.7,132.9-3,48-28.7,63.4-90.3,70.7-90.3,4.2,0,44.3,39.6,115.7,46.9,71.3,7.4,118.1-49.8,125.3-43.9,2.7,2.2,13.4,38,39.7,55.3,39,25.6,146.5,37.4,192.2,6.5-3.5-3.9-7-7.8-10.6-11.6-81.3,9.6-164.8,5.6-182.3-38.2-18.4-46.2-9.9-72.9-11.4-88.8,0-.2,0-.4,0-.6-4.5-1.6-9-3.2-13.6-4.7-3,8.9-5.2,24.2-24.8,47.5-25.1,29.9-88.9,70.9-155.9,42.2-11.8-5.1-51.9-21.6-70.7-46.5-10-13.2-21.9-38.3-33.8-51.7-6.1,1.6-12.1,3.3-18,5.1,7.5,19.2,19.9,48.8,20,52.9,1.1,81.1-86.3,126.2-139.3,111.2-48.8-13.8-56-44.3-69.7-56.7-8.5,7.7-16.8,15.8-24.8,24.1,9.3,13,29.8,33.3,58.6,44.2Z"/>
  <path d="M544,64.7c25.8-37.1-36.9-56-47.4-38.8-29,47.3,35.1,56.4,47.4,38.8Z"/>
  <path d="M269.1,149.3c16.1.7,39.8-26.4,26-41.7-13.8-15.3-33.6-5.4-45.8,2-26.8,16.3-2.6,38.7,19.8,39.7Z"/>
  <path d="M780.9,114.9c1-7.3-32.8-39.3-46.4-20.5-25.3,35.2,41.2,56.5,46.4,20.5Z"/>
</svg>