<?xml version="1.0" encoding="UTF-8"?>
<svg id="Layer_1" xmlns="http://www.w3.org/2000/svg" version="1.1" viewBox="0 0 1000 1000">
  <!-- Generator: Adobe Illustrator 29.0.0, SVG Export Plug-In . SVG Version: 2.1.0 Build 186)  -->
  <defs>
    <style>
      .st0 {
        fill: none;
      }
    </style>
  </defs>
  <path class="st0" d="M681.9,55.8c34.7-10.7,56.5,24.4,32,41.6-36.6,25.6-68.4-30.4-32-41.6Z"/>
  <path class="st0" d="M482.6,13.4c73.7,5.5,2.7,75.6-29.1,43.8-27.6-27.5-5.7-46.4,29.1-43.8Z"/>
  <path class="st0" d="M251.4,88.3c48.7-30.3,36.9,55.1,2.6,58.6s-32.6-39.9-2.6-58.6Z"/>
  <path d="M482.6,13.4c-34.8-2.6-56.7,16.3-29.1,43.8,31.9,31.7,102.8-38.3,29.1-43.8Z"/>
  <path d="M254,147c34.3-3.5,46.1-89-2.6-58.6-30,18.7-31.7,62.1,2.6,58.6Z"/>
  <path d="M714,97.3c24.5-17.1,2.7-52.3-32-41.6-36.4,11.2-4.5,67.2,32,41.6Z"/>
  <path d="M163,178.3c43.1,40.3,132.7,24.2,168.5-18.6,10-12,25.4-59,28.2-60.9,6.9-4.8,65,48.4,126.5,39.6,61.5-8.8,85.3-34.9,88.6-34.8,4,.1,22.1,37.8,52.4,50.5,75.3,31.4,136.3,5.2,201.9-30.4-9.2-8.1-18.8-15.9-28.6-23.3-20.8,9.7-46,29.8-63.9,33.6-45.9,9.6-129.4-1.7-133.5-59.4-.6-8.8,12.1-41.6,18.7-59.6-9.5-2.4-19-4.5-28.7-6.3-18.1,30.3,2.4,57.4-56.4,93.9-58.7,36.6-121.8.4-163.6-41.2-7.3-7.3-10.7-30.4-12.4-41.7-5.5,1.6-11,3.3-16.4,5.1-1.5,8.1-2.1,17.5-3.2,22.4-16.2,71.2-31.1,154.6-133.9,124.5-25.7-7.5-30.9-35.7-32.6-51.2-11.2,9.6-22,19.7-32.3,30.2,4.2,8.9,10.9,18.3,20.8,27.6Z"/>
</svg>