<?xml version="1.0" encoding="UTF-8"?>
<svg id="Layer_1" xmlns="http://www.w3.org/2000/svg" version="1.1" viewBox="0 0 1000 1000">
  <!-- Generator: Adobe Illustrator 29.0.0, SVG Export Plug-In . SVG Version: 2.1.0 Build 186)  -->
  <defs>
    <style>
      .st0 {
        fill: none;
      }
    </style>
  </defs>
  <path class="st0" d="M116.1,662.7c2.3-11.2,43.4-76.3,47.5-78.6,62.9-36.3,179.9,24,199.4,95.3,56.5,206.6-289,192.1-246.9-16.7ZM220.5,394.4c-121.4-44.7-116.9-227.6-19.8-256.5,70.4-21,154.4,37.1,173.2,104.4,19.7,70.2-68.4,183.5-153.5,152.2ZM385.9,532.9c8.5-44,61.3-131,105.7-149.4,31-12.9,144.3,5.7,169.5,23.5,55.9,39.5,24.3,135.3-10.1,181.4-80.4,108-281.5,29.5-265.1-55.5Z"/>
  <path d="M651,588.4c34.4-46.1,66-142,10.1-181.4-25.2-17.8-138.5-36.4-169.5-23.5-44.4,18.5-97.2,105.4-105.7,149.4-16.4,85,184.7,163.5,265.1,55.5Z"/>
  <path d="M630.4,256.6c98.2,21.4,186.2-20.5,228.5-104.7-68.5-70.7-157.7-121.2-257.9-141.7-50.3,69.4-80.9,222.4,29.3,246.4Z"/>
  <path d="M874.7,831.1c-.5-2-1.3-4-2.4-5.9-106.4-65.5-275.4-87.7-306.9,68.5-10,49.8-7.8,82.2,2.6,101.6,121.5-16.5,229.2-76.8,306.6-164.3Z"/>
  <path d="M200.7,137.9c-97.2,28.9-101.6,211.9,19.8,256.5,85.1,31.3,173.2-82,153.5-152.2-18.9-67.2-102.8-125.3-173.2-104.4Z"/>
  <path d="M163.5,584c-4.1,2.4-45.2,67.4-47.5,78.6-42.1,208.8,303.4,223.3,246.9,16.7-19.5-71.3-136.5-131.6-199.4-95.3Z"/>
  <path d="M860.6,411.7c-37.9,73.6-18.7,259.6,94.5,258.3l15.9-1.7c18.8-52.6,29-109.2,29-168.3s-8.5-105.4-24.1-153.9c-49.1,10.7-103.9,43.5-115.2,65.6Z"/>
</svg>