<?xml version="1.0" encoding="UTF-8"?>
<svg id="Layer_1" xmlns="http://www.w3.org/2000/svg" version="1.1" viewBox="0 0 1000 1000">
  <!-- Generator: Adobe Illustrator 29.0.0, SVG Export Plug-In . SVG Version: 2.1.0 Build 186)  -->
  <defs>
    <style>
      .st0 {
        fill: none;
      }
    </style>
  </defs>
  <path d="M92.7,209.9c2.1-3,4.3-5.9,6.5-8.9-2.3,2.9-4.4,5.8-6.5,8.9Z"/>
  <path class="st0" d="M623.4,663.8c-80.9,51.1-176.3-13.6-210.1-100.6-22.4-57.8-13.4-116.6,31.3-161.4s116.6-36.1,162.9-8c77.1,46.8,118.6,205.1,15.8,270Z"/>
  <path d="M338.9,693.8c-52.1-96-129.8-110.4-223.7-85.9-41.1,10.7-69.3,33.9-85.3,62.8,34.3,94.5,96.3,175.7,176.1,233.8,105.1-12.9,175.8-131.6,132.9-210.7Z"/>
  <path d="M607.6,393.8c-46.3-28.1-118.1-36.8-162.9,8s-53.7,103.6-31.3,161.4c33.7,87.1,129.2,151.7,210.1,100.6,102.8-64.9,61.3-223.1-15.8-270Z"/>
  <path d="M89.2,372.4c32.4,51.2,155.4,57.5,200,20.8,57.2-47.1,62.6-175.3,12.5-233.3-76.4-44.3-158.2-15.5-202.6,41.2-2.2,2.9-4.3,5.9-6.5,8.9-31.1,45.8-38.7,106.7-3.5,162.5Z"/>
  <path d="M513.6,173.7c17.1,50.3,37.5,83.1,136.8,83.1s125.9-113.9,100-189.7c-50.4-29.2-106.4-49.9-166-60-76.4,29.1-83.8,128.4-70.8,166.6Z"/>
  <path d="M955.5,328.8c-159.7-67.2-221,311.8-22.7,302.8,21.6,0,38.1-2.2,51.1-5.5,10.5-40.3,16.1-82.6,16.1-126.1s-8.5-105.8-24.3-154.4c-6.6-8-14.1-14.9-20.2-16.8Z"/>
  <path d="M665.4,808.8c-96.7-3-197.7,125-134.6,190.3,105.5-6.4,202.2-45.6,280-107.4-4.1-13.9-13.3-29.6-29.7-46-46.5-46.5-94.7-36.2-115.7-36.8Z"/>
</svg>