<?xml version="1.0" encoding="UTF-8"?>
<svg id="Layer_1" xmlns="http://www.w3.org/2000/svg" version="1.1" viewBox="0 0 1000 1000">
  <!-- Generator: Adobe Illustrator 29.0.0, SVG Export Plug-In . SVG Version: 2.1.0 Build 186)  -->
  <defs>
    <style>
      .st0 {
        fill: none;
      }
    </style>
  </defs>
  <path class="st0" d="M463.3,682.2c-46.2,34.4-184.2,48.4-228.1,4.7-41.2-40.9-42.9-155.7-2.6-204.4,5.7-6.9,51.6-88,130.4-88s128.3,40.3,148.7,70.5c26.2,38.7-12.9,190.8-48.4,217.2ZM592.6,229.9c27.2-73.4,105.2-77.4,129.2-79.4,72-5.9,165.5,13.2,176,67.8,8.8,46-14,173.9-51,204.4-44.8,36.8-183,22.5-223.5-15.2-27.3-25.4-57.9-104.3-30.7-177.7Z"/>
  <path d="M363,394.5c-78.8,0-124.7,81.1-130.4,88-40.3,48.7-38.7,163.4,2.6,204.4,44,43.7,181.9,29.7,228.1-4.7,35.5-26.5,74.5-178.6,48.4-217.2-20.4-30.2-69.9-70.5-148.7-70.5Z"/>
  <path d="M846.8,422.7c37-30.5,59.8-158.4,51-204.4-10.4-54.6-104-73.7-176-67.8-24,2-102,6-129.2,79.4-27.2,73.4,3.4,152.3,30.7,177.7,40.5,37.7,178.7,52,223.5,15.2Z"/>
  <path d="M957.7,701.5c-52-241.1-401.1-101.4-293.9,110.5,30.3,59.9,102.7,84.1,164.1,65.4,55.2-48.1,99.8-108,129.8-175.9Z"/>
  <path d="M200.7,356c96.2,50.4,224.9-125.8,134.8-234.2-31-37.2-63.9-51.3-94.4-49.7-38.2,23.2-73.1,51.4-103.8,83.7-30,66.4-22.1,155.3,63.4,200.2Z"/>
  <path d="M314,825.9c-78.2-24.8-152.1-9.3-175.2,19.8,67.5,70.5,155.4,121.3,254.2,142.8,53.5-15.8,14.6-133-79-162.6Z"/>
</svg>