<?xml version="1.0" encoding="UTF-8"?>
<svg id="Layer_1" xmlns="http://www.w3.org/2000/svg" version="1.1" viewBox="0 0 1000 1000">
  <!-- Generator: Adobe Illustrator 29.0.0, SVG Export Plug-In . SVG Version: 2.1.0 Build 186)  -->
  <defs>
    <style>
      .st0 {
        fill: none;
      }
    </style>
  </defs>
  <path class="st0" d="M354.4,924.5c-207,60.9-243-204-85.2-240.4,61.4-14.1,152.4,20.3,166.1,87.6,9.3,45.8-35.3,139.4-80.9,152.8ZM474.7,500.4c-19.5,77.5-130.7,123.7-184.1,60.5-134.5-159.4,232.1-251.7,184.1-60.5ZM666.5,271.9c60.2-40,94.4-48.6,143.9,2,76.2,77.8,12.2,225.6-102.1,213.1-110.5-12.1-133.6-154.1-41.9-215.1ZM853.8,820.2c-35.6,35.6-108.3,24.7-127.7,16.7-78.8-32.3-119.1-164.4-33.9-211.7,87.9-48.7,206.4,2.2,203.9,86.1-.6,19.4-6.7,73.3-42.3,108.9Z"/>
  <path d="M269.1,684.2c-157.8,36.3-121.8,301.2,85.2,240.4,45.6-13.4,90.2-107,80.9-152.8-13.7-67.3-104.7-101.7-166.1-87.6Z"/>
  <path d="M248.7,312.4c164.4,26,209.5-223.8,68.1-277.7-53.6,21.1-102.7,51.2-145.4,88.5-35.5,64.2-5.2,176.2,77.3,189.3Z"/>
  <path d="M692.1,625.3c-85.2,47.3-45,179.3,33.9,211.7,19.5,8,92.1,18.9,127.7-16.7s41.7-89.5,42.3-108.9c2.5-83.9-116.1-134.8-203.9-86.1Z"/>
  <path d="M810.5,273.9c-49.6-50.6-83.7-42-143.9-2-91.7,61-68.6,202.9,41.9,215.1,114.2,12.5,178.3-135.2,102.1-213.1Z"/>
  <path d="M290.7,560.9c53.3,63.2,164.6,17,184.1-60.5,48-191.3-318.5-99-184.1,60.5Z"/>
</svg>