<?xml version="1.0" encoding="UTF-8"?>
<svg id="Layer_1" xmlns="http://www.w3.org/2000/svg" version="1.1" viewBox="0 0 1000 1000">
  <!-- Generator: Adobe Illustrator 29.0.0, SVG Export Plug-In . SVG Version: 2.1.0 Build 186)  -->
  <g id="_x34_">
    <path d="M615.9,585.7c42.5-43,88.8-34,137.6-7.3,67.9,37.1,57.4,168,3.9,208.6-107,81.2-241.9-99.8-141.6-201.3Z"/>
    <path d="M611.3,340.8c-79.7-79.8,5.8-264.6,141.5-187.9,150.5,85.1-14,315.6-141.5,187.9Z"/>
    <path d="M403.4,419.7c-38.5,38.2-100,42.4-147.1,16.5-102.5-120.5,22-219.9,151.9-178.4,43.1,49.9,42.2,115.3-4.8,161.9Z"/>
    <path d="M364.7,846.4c-76,71.3-242.9-74.6-150.4-170.2,111.1-95.7,253.2,73.9,150.4,170.2Z"/>
  </g>
</svg>