<?xml version="1.0" encoding="UTF-8"?>
<svg id="Layer_1" xmlns="http://www.w3.org/2000/svg" version="1.1" viewBox="0 0 1000 1000">
  <!-- Generator: Adobe Illustrator 29.0.0, SVG Export Plug-In . SVG Version: 2.1.0 Build 186)  -->
  <g id="_x33_">
    <path d="M713.2,150.1c79.1,17.2,130.4,54.4,77.5,160.7-85.8,172.8-269.7,38.9-212.6-112.5,21.3-56.5,110.2-53.6,135-48.2Z"/>
    <path d="M314.8,196.3c57.8,73.8,1.8,204.5-107,184.1-65.5-12.3-105.5-52.7-110.4-103.2-10.5-108,75.7-125,101.4-126.7,44.1-2.9,88.6,10.9,116,45.8Z"/>
    <path d="M868.9,824.8c-57.9,48.7-159.7,33-183-43.9-4-90.8,43.1-169.3,140.1-173.2,88.8-3.6,98.4,170.5,42.8,217.2Z"/>
    <path d="M321,616.1c20,20,12.3,52.7,8.8,73.9-11.6,71.8-61.5,128.9-147,102-139.5-43.9-53.3-221.9,63.7-210.3,27,2.7,54.5,14.3,74.5,34.3Z"/>
    <path d="M486.9,437.6c82.6-24.3,105.9,37.8,112,104.1,6.1,66.3-32.8,135.9-117.3,118.7-45.3-9.2-62.5-48.3-64.3-92.6-1.8-44.3-13-105.8,69.6-130.2Z"/>
  </g>
</svg>