<?xml version="1.0" encoding="UTF-8"?>
<svg id="Layer_1" xmlns="http://www.w3.org/2000/svg" version="1.1" viewBox="0 0 1000 1000">
  <!-- Generator: Adobe Illustrator 29.0.0, SVG Export Plug-In . SVG Version: 2.1.0 Build 186)  -->
  <defs>
    <style>
      .st0 {
        fill: none;
      }
    </style>
  </defs>
  <path class="st0" d="M171.5,805.9c-167.3-62.5,37.9-299,157.6-151.2,49.8,61.6-31.8,198.2-157.6,151.2ZM402,395.6c80.6-60.4,227.9,93.9,111.8,170.5-109.5,72.2-219.1-90.1-111.8-170.5ZM552.9,982c-124-40.4-94.2-253,43.1-224.8,10,2,79.1,34.2,84,39.4,58.6,60.8-5.4,225-127.1,185.4ZM516.5,190.6c.7-118.6,128.1-165.9,214.8-106.1,19.9,13.7,45.8,67,44.3,93.2-.9,14.7-40.4,88.7-49.7,97.8-65.8,63.9-210,15.3-209.3-84.9ZM809.1,674.1c-105.2-31.3-106.8-244.8,26.6-266.7,227-37.2,187.7,330.5-26.6,266.7Z"/>
  <path d="M835.7,407.4c-133.4,21.9-131.8,235.4-26.6,266.7,214.3,63.8,253.6-303.9,26.6-266.7Z"/>
  <path d="M63.9,427.5c194.8,130.7,319.3-276.5,108.4-268.4-20,.8-37.6,6.8-52.9,16.6-24.4,28.6-45.7,60-63.2,93.7-15.9,54.1-13.6,116.3,7.7,158.1Z"/>
  <path d="M731.3,84.5c-86.7-59.8-214-12.5-214.8,106.1-.6,100.2,143.5,148.8,209.3,84.9,9.3-9.1,48.9-83.1,49.7-97.8,1.5-26.2-24.3-79.5-44.3-93.2Z"/>
  <path d="M596,757.3c-137.3-28.2-167.1,184.4-43.1,224.8,121.7,39.6,185.7-124.6,127.1-185.4-4.9-5.1-74-37.3-84-39.4Z"/>
  <path d="M171.5,805.9c125.8,47,207.5-89.7,157.6-151.2-119.7-147.8-324.9,88.8-157.6,151.2Z"/>
  <path d="M402,395.6c-107.3,80.4,2.4,242.6,111.8,170.5,116.1-76.5-31.2-230.9-111.8-170.5Z"/>
</svg>