<?xml version="1.0" encoding="UTF-8"?>
<svg id="Layer_1" xmlns="http://www.w3.org/2000/svg" version="1.1" viewBox="0 0 1000 1000">
  <!-- Generator: Adobe Illustrator 29.0.0, SVG Export Plug-In . SVG Version: 2.1.0 Build 186)  -->
  <g id="_x31_">
    <path d="M772.2,563.7c36.9,1.7,106.4,68.7,112.8,104.1,7.4,41.2-27.9,118-62.8,142.5-188.1,132-309.3-258.4-50-246.6Z"/>
    <path d="M186.1,753.8c-52.4-64.7-42-190.8,52.7-205.6,238-37.2,176.4,326.5-52.7,205.6Z"/>
    <path d="M149.4,205.6c76-91.3,234-27.4,200.2,95.3-55.8,203-332.3,63.5-200.2-95.3Z"/>
    <path d="M522.7,404.9c-4.1-4.9-16.5-5.3-18.5-14.4-21-92.3,66.1-167.2,157.1-130.1,149.4,60.9-3.8,307.1-138.6,144.5Z"/>
  </g>
</svg>