<?xml version="1.0" encoding="UTF-8"?>
<svg id="Layer_1" xmlns="http://www.w3.org/2000/svg" version="1.1" viewBox="0 0 1000 1000">
  <!-- Generator: Adobe Illustrator 29.0.0, SVG Export Plug-In . SVG Version: 2.1.0 Build 186)  -->
  <defs>
    <style>
      .st0 {
        fill: none;
      }
    </style>
  </defs>
  <g>
    <path class="st0" d="M513.1,393.8c-89.9,9.3-96.5-106.4-16.2-123.6M521.6,170.7c19.2,5.7,35.4,51.8,20.5,62.2-36.6,25.3-75.7-9.9-75.7-9.9-18.7-52.4,36-58,55.2-52.3ZM556.2,131.7c-37.6,52.9-113.6,24.8-121.2-33.5-4-30.6,5.3-56.2,49.5-63.4s71.9,14,81.5,34.5"/>
    <path class="st0" d="M548.6,342.2c7.2-13.1-5.2-44.4-23.3-49-18.1-4.6-39.5,5.6-44.2,8.6-21.7,14.1-18.8,64.6,13.9,71.1M504.9,355.4c-16.2-3.1-14.8-33.9-6.4-40.8,8.5-6.9,34,0,34.1,9.9,0,24.1-11.5,34-27.7,30.9Z"/>
    <path class="st0" d="M536,60.3c-7.3-7.3-94.4-16.5-74.7,37M512.8,77.5c9.8,2.6,18.1,23.9,10.4,28.6-18.6,11.6-38.6-4.6-38.6-4.6-9.5-24.1,18.4-26.7,28.2-24.1Z"/>
    <path d="M302,335c0,69.9,137,108.5,192.6,113.4,264.4,23.6,214.8-224.3,201.2-408.5-13-5.5-26.2-10.5-39.7-14.9,4.8,26.5,15.8,61.3,17.4,80.6,7.8,98.1,24.8,286.4-103.4,300.8-268.4,30.1-235.5-108.4-235.8-312.4,0-14.3,7.4-50,10-69.2-14.5,4.7-28.7,10.1-42.6,16.1-12.3,50.3.3,229,.3,294.1Z"/>
    <path d="M541.2,114.3c-16.9,27.9-58.9,40.1-79.8-16.9-19.7-53.5,67.4-44.3,74.7-37,8.1,8.1,11.9,17.6,12.4,27l22.7,14.7c2.5-11.2.4-21.3-5-32.8-9.6-20.5-37.3-41.7-81.5-34.5s-53.5,32.9-49.5,63.4c7.6,58.3,83.6,86.4,121.2,33.5l-15.1-17.4Z"/>
    <path d="M571.7,349.1c9.3-39.8-23.7-89.8-74.7-78.9-80.3,17.1-73.7,132.8,16.2,123.6,25.5-2.6,42-13.2,51.2-27.3l-24.1-9.9c-9.7,14.9-19.7,21.4-45.2,16.3-32.7-6.5-35.6-57-13.9-71.1,4.7-3,26.1-13.2,44.2-8.6,18.1,4.6,30.5,35.9,23.3,49l23.1,7Z"/>
    <path d="M523.2,106.2c7.6-4.8-.6-26-10.4-28.6-9.8-2.6-37.7,0-28.2,24.1,0,0,19.9,16.2,38.6,4.6Z"/>
    <path d="M498.6,314.6c-8.5,6.9-9.8,37.7,6.4,40.8,16.2,3.1,27.7-6.8,27.7-30.9,0-9.9-25.6-16.8-34.1-9.9Z"/>
    <path d="M542.1,232.9c15-10.4-1.2-56.5-20.5-62.2-19.2-5.7-74-.1-55.2,52.3,0,0,39.1,35.2,75.7,9.9Z"/>
  </g>
  <path d="M556.2,131.7c8.1-11.4,12.9-20.9,14.8-29.6l-22.7-14.7c.5,9.4-2.3,18.9-7.2,27l15.1,17.4Z"/>
  <path d="M564.3,366.5c3.5-5.4,5.9-11.3,7.4-17.4l-23.1-7c-3,5.4-5.7,10.3-8.4,14.5l24.1,9.9Z"/>
</svg>