<?xml version="1.0" encoding="UTF-8"?>
<svg id="Layer_1" xmlns="http://www.w3.org/2000/svg" version="1.1" viewBox="0 0 1000 1000">
  <!-- Generator: Adobe Illustrator 29.0.0, SVG Export Plug-In . SVG Version: 2.1.0 Build 186)  -->
  <defs>
    <style>
      .st0 {
        fill: none;
      }
    </style>
  </defs>
  <g>
    <path class="st0" d="M552.7,70c-11.9-18.7-59.3-13.1-64.8,22.6M535.2,78c5.9,6.7-4.5,37.5-14.1,37.6-28.6.3-1.9-56,14.1-37.6Z"/>
    <path class="st0" d="M530.2,294c-76-5.5-28.1,120.2,36.4,79.9M552.2,339.5c-2,9.8-29.8,25-36.5-3.8-10-42.8,41-18.6,36.5,3.8Z"/>
    <path class="st0" d="M454.6,324.1c3.9-29.6,9.3-33,35.4-45.4,26.1-12.4,53.5-6.5,76.8-1.2s27.3,7.9,34.1,22.2M491.3,195.8c14.8-15.2,52.9-9.8,72.8,10.2,11.9,12,1.6,30.8-9.2,41.6-10.8,10.8-41.8,9.5-55.6-4.4s-17.8-37.5-8-47.5ZM578.1,130.4c-25.6,65.6-120.9,38.9-126.8-19.9-2.2-21.7,3.7-43.5,16-60.1,12.3-16.7,30.3-23.9,54.6-23.9s43.1,12,53.8,29.8"/>
    <path d="M422.7,441c46.5,19.5,186.4,21.2,228.8-3.3,62.7-36.1,60.3-232.4,53.6-298.1-.3-2.8-8.6-55.1-17.4-103.1-8.2-3.3-16.6-6.5-25-9.4,1.6,30.7,3.4,62,4,69.4,5.5,75.5,35.8,277.2-44,309.9-50.9,20.9-208,30.1-219.1-40.9-9.2-58.8-4.9-222.7,8.6-281.5,1.7-7.2,3.8-46,4.1-77.2-7.9,1.3-15.7,2.8-23.4,4.5-6.4,30.3-10.3,67.7-14.1,80.8,7.5,87.4-55.6,307,43.8,348.7Z"/>
    <path d="M607.2,315.9c-1.5-5.2-3.6-10.6-6.3-16.2-6.8-14.3-10.8-16.8-34.1-22.2s-50.7-11.2-76.8,1.2c-26.1,12.4-31.6,15.7-35.4,45.4-14.2,108.1,134.7,102.4,153.9,29.3l-28.7-3.4c-1.4,10.5-6.2,19.5-13.2,23.9-64.5,40.3-112.4-85.4-36.4-79.9,21.8,1.6,35.5,11.2,43,23.4l34.1-1.5Z"/>
    <path d="M554.9,247.6c10.8-10.8,21.1-29.7,9.2-41.6-19.9-20-57.9-25.4-72.8-10.2-9.8,10-5.8,33.6,8,47.5s44.8,15.2,55.6,4.4Z"/>
    <path d="M582.2,81.7c-.8-10.1-2.8-19.4-6.5-25.5-10.7-17.8-29.5-29.8-53.8-29.8s-42.2,7.3-54.6,23.9c-12.3,16.7-18.2,38.4-16,60.1,5.8,58.8,101.2,85.6,126.8,19.9,1.4-3.5,2.7-10.3,3.6-18.5l-24.3-1.3c-15.6,33.6-78.7,41.6-69.5-17.9,5.5-35.8,52.9-41.3,64.8-22.6,2.4,3.8,4.3,7.6,5.6,11.2l23.9.5Z"/>
    <path d="M515.7,335.7c6.7,28.7,34.6,13.6,36.5,3.8,4.5-22.4-46.5-46.6-36.5-3.8Z"/>
    <path d="M521.1,115.6c9.6,0,20-30.8,14.1-37.6-16-18.4-42.7,37.8-14.1,37.6Z"/>
  </g>
  <path d="M608.4,353.4c2.9-11,2.8-23.6-1.2-37.5l-34.1,1.5c6.2,10.2,8.1,22.1,6.6,32.6l28.7,3.4Z"/>
  <path d="M581.7,111.9c1-9.1,1.3-20,.5-30.2l-23.9-.5c3.9,10.9,3,21-1,29.4l24.3,1.3Z"/>
</svg>