<?xml version="1.0" encoding="UTF-8"?>
<svg id="Layer_1" xmlns="http://www.w3.org/2000/svg" version="1.1" viewBox="0 0 1000 1000">
  <!-- Generator: Adobe Illustrator 29.0.0, SVG Export Plug-In . SVG Version: 2.1.0 Build 186)  -->
  <defs>
    <style>
      .st0 {
        fill: none;
      }
    </style>
  </defs>
  <g>
    <path class="st0" d="M505.5,286.7c-78.9-5.7-29.2,124.9,37.8,83M492.2,328.7c1.3-10.3,29-28.1,38.1,1.2,13.5,43.6-41.1,22.3-38.1-1.2Z"/>
    <path class="st0" d="M533.4,75.2c-12.4-19.4-61.6-13.6-67.3,23.5M515.4,91c5.7,5.2-4.4,28.8-13.7,28.9-27.8.2-1.9-43.1,13.7-28.9Z"/>
    <path class="st0" d="M559.8,137.9c-26.6,68.2-125.6,40.4-131.7-20.7-3.1-31,9.6-62.1,33.8-79.4,11-7.8,24.9-15.7,53.1-13.6s40.4,14,47.2,31.8M540.7,226.3c-6.1,11.7-18,14.5-30.4,16.7-12.4,2.2-22.6-4-27-7-12-7.9-21.9-17.9-20.4-29.4,3-22.2,54.7-27.9,74.3-10.8,7.6,6.6,9.7,18.8,3.6,30.5ZM427,318c6.7-51.1,46.4-52.2,58.8-54.9,12.5-2.7,37.3.4,50.2,4.3s34.5,7.6,43,25.2"/>
    <path d="M351.7,137.8c-8.3,106.3-39.2,270.1,46.7,306.1,48.3,20.3,193.6,22,237.7-3.5,65.1-37.5,62.7-241.4,55.7-309.7-.3-3.3-9.1-59.3-15.8-99-9.2-3.5-18.6-6.7-28-9.6,1.3,22.6,3,47.5,3.2,52.6,2.7,67.1,42.2,297.4-45,333.2-52.9,21.7-216,31.2-227.5-42.5-9.5-61-5-231.3,9-292.3,1.7-7.5,0-36.1-2.5-60-8.1,1.9-16,4-23.9,6.3-1.2,8.1-2.1,16.7-3,25-1.6,15-4.7,71.7-6.4,93.3Z"/>
    <path d="M462.8,206.6c-1.6,11.5,8.4,21.4,20.4,29.4,4.4,2.9,14.7,9.2,27,7,12.4-2.2,24.3-5,30.4-16.7,6.1-11.7,4-23.8-3.6-30.5-19.6-17.1-71.3-11.4-74.3,10.8Z"/>
    <path d="M557.4,340.1c-.5,12.9-5.8,24.5-14.2,29.7-67,41.9-116.7-88.8-37.8-83,22.1,1.6,36.3,11.3,44.1,23.6l35.9-.8c-1.6-5.4-3.7-11.1-6.5-16.9-8.4-17.6-30-21.3-43-25.2s-37.8-7-50.2-4.3c-12.5,2.7-52.2,3.8-58.8,54.9-15.1,115.4,148.7,105.9,161.2,23.9l-30.7-1.9Z"/>
    <path d="M538.6,116.4c-15.4,35.7-82.3,44.8-72.6-17.6,5.8-37.2,55-42.9,67.3-23.5,3.2,5,5.4,9.8,6.7,14.5l25.4,1.5c.3-14.1-.6-27.7-3.4-35.1-6.8-17.8-18.9-29.6-47.2-31.8s-42.1,5.7-53.1,13.6c-24.1,17.2-36.8,48.4-33.8,79.4,6.1,61.1,105.1,88.9,131.7,20.7,1.2-3,2.3-8.5,3.3-15.3l-24.4-6.3Z"/>
    <path d="M530.3,329.9c-9.1-29.3-36.8-11.5-38.1-1.2-3,23.5,51.7,44.9,38.1,1.2Z"/>
    <path d="M501.7,119.9c9.3,0,19.4-23.7,13.7-28.9-15.6-14.2-41.5,29.1-13.7,28.9Z"/>
  </g>
  <path d="M563,122.6c1.3-9,2.2-20.4,2.5-31.4l-25.4-1.5c2.8,9.8,1.9,18.9-1.5,26.7l24.4,6.3Z"/>
  <path d="M588.1,341.9c1.5-9.8.8-20.6-2.6-32.4l-35.9.8c5.9,9.2,8.2,19.9,7.8,29.8l30.7,1.9Z"/>
</svg>