<?xml version="1.0" encoding="UTF-8"?>
<svg id="Layer_1" xmlns="http://www.w3.org/2000/svg" version="1.1" viewBox="0 0 1000 1000">
  <!-- Generator: Adobe Illustrator 29.0.0, SVG Export Plug-In . SVG Version: 2.1.0 Build 186)  -->
  <defs>
    <style>
      .st0 {
        fill: none;
      }
    </style>
  </defs>
  <g>
    <path class="st0" d="M497.4,292.5c-29,7.1-20.9,80.7,34.9,52.8M526.4,329.5c-6.5,9.5-17,9.1-23.8,2.7-6.7-6.4-3.4-28.1,10.6-24.8s19.7,12.6,13.2,22.1Z"/>
    <path class="st0" d="M499.1,380.5c-80.8-3.6-66.7-109.7,6.6-113.7M546.7,193.6c28,46.6-53.4,65.4-71.8,40-41-56.7,49.9-76.5,71.8-40ZM448.1,68.7c7.3-12.4,21.5-26.9,46.6-33.3,25-6.3,46.2-.4,54.1,4.2,14.8,8.6,24.5,19,23,47.1"/>
    <path class="st0" d="M544.5,64.5c-15.3-21.2-80,3-73.9,30.5,6,27.5,25.8,39.8,52.9,30.9M525.4,79c7.7,7.5.3,27.2-9.6,29.7-9.9,2.6-20.6-7.1-20.9-18.8-.3-11.7,22.6-18.6,30.5-10.9Z"/>
    <path d="M380.5,393.1c28.6,59.4,190.7,70.4,242.5,29,41.8-33.4,46.5-136.9,45.3-188.7l-4.7-206.1c-11.2-3.9-22.7-7.4-34.3-10.5,2.5,22.9,4.7,48.9,6.2,58.5,6.4,39.7,6.1,173.7,3.1,216.8-1.4,20.9-8,73.8-17.4,89.8-26.2,44.6-187.6,38.4-211.9-9-25.1-49-4.4-295.6-.8-364.7-14,2.6-27.8,5.8-41.4,9.5l.5,39.5c6.4,93.6-27.5,252,12.8,335.8Z"/>
    <path d="M515.7,108.7c9.9-2.6,17.3-22.3,9.6-29.7-8-7.7-30.8-.8-30.5,10.9.3,11.7,11,21.4,20.9,18.8Z"/>
    <path d="M566.7,116.4c2.7-8.3,4.5-18.1,5.2-29.6,1.5-28.2-8.2-38.5-23-47.1-7.9-4.6-29.1-10.5-54.1-4.2-25,6.3-39.3,20.8-46.6,33.3-31.7,53.9,75.6,122,112.1,61.8l-22.4-15.3c-4.3,5.2-9.4,9.1-14.4,10.7-27.1,8.9-46.9-3.4-52.9-30.9-6-27.5,58.6-51.7,73.9-30.5s6.6,27.5.2,40.2l22,11.7Z"/>
    <path d="M536.4,343.1c-1.3.8-2.6,1.5-4.1,2.2-55.8,27.8-63.9-45.7-34.9-52.8,23.5-5.8,73,23.7,44.5,46.8l16.6,18.9c30.5-34.2,15.4-95.4-52.8-91.6-73.2,4.1-87.3,110.2-6.6,113.7,21.1.9,38-4.7,50.2-13.8l-13-23.5Z"/>
    <path d="M546.7,193.6c-21.9-36.5-112.8-16.7-71.8,40,18.4,25.4,99.8,6.6,71.8-40Z"/>
    <path d="M513.2,307.4c-14-3.3-17.3,18.3-10.6,24.8,6.7,6.4,17.2,6.8,23.8-2.7s.9-18.8-13.2-22.1Z"/>
  </g>
  <path d="M544.7,104.7c-1.9,3.8-4.2,7.4-6.8,10.4l22.4,15.3c2.5-4.1,4.6-8.8,6.4-14.1l-22-11.7Z"/>
  <path d="M541.9,339.4c-1.6,1.3-3.4,2.5-5.5,3.8l13,23.5c3.4-2.5,6.4-5.3,9.1-8.4l-16.6-18.9Z"/>
</svg>