<?xml version="1.0" encoding="UTF-8"?>
<svg id="Layer_1" xmlns="http://www.w3.org/2000/svg" version="1.1" viewBox="0 0 1000 1000">
  <!-- Generator: Adobe Illustrator 29.0.0, SVG Export Plug-In . SVG Version: 2.1.0 Build 186)  -->
  <defs>
    <style>
      .st0 {
        fill: none;
      }
    </style>
  </defs>
  <g>
    <path class="st0" d="M524.7,58c-11.5-11.5-37.7-6.5-52.3,3.7-14.7,10.2-15.9,53,22.1,58.2M491.7,73.4c5-5,13.8-6.3,20,0,6.2,6.2,6.5,29.1-5.1,30-31.2,2.6-19.8-24.9-14.9-29.9Z"/>
    <path class="st0" d="M531.3,341.5c21.4-20.2,9.9-48.1-11.9-59.9-18.8-10.3-46.1-6.7-55.6,2.7-9.9,9.9-7.7,44.4,8.4,61.9M512.4,323c-3.7,5-15,17.5-26.6,5.9s9.8-27.6,11.2-28c12.7-4,22.6,12.5,15.4,22.1Z"/>
    <path class="st0" d="M454.7,358.7c-18.5-18.5-23.1-50.4-17.4-67.1,5.6-16.5,16.8-30.3,33.8-35.3,33.8-9.9,61.2,1.7,77.7,21.1,24,28.1,25.3,72.4-9.7,90.9M467.3,196.8c3.7-18.3,66-41.6,72.6-1,9,55.1-79.9,36.8-72.6,1ZM493.3,151.8c-84.9-8.4-79.8-91.5-55.7-109.6s77.9-22.7,110-6.4"/>
    <path d="M381.6,414.1c6.8,5.4,50.6,25.5,59.6,27.3,21.8,4.5,164.5-3.8,185-9.8,28.7-8.3,53.6-63.8,57.1-92.4,3.7-30.4,2-243.8-6.1-307-14-5.3-28.4-10-43-14.1,12,39.7,17.4,79.5,19.4,121.1,2.8,56.5,16.5,244.4-47.3,262.5-13.1,3.7-109,12.8-127.4,12.8-146.9.4-112.4-172.5-109.3-292.3.1-5.2,2.2-75.6,3-105.9-8.8,2.3-17.4,4.8-26,7.6-1.3,4.9-2,10.4-2.1,16.2-.6,89.8-34,317.8,37.1,373.9Z"/>
    <path d="M560.6,100.2c7.4-27.2,2.5-56.4-13.1-64.3-32.1-16.3-85.9-11.8-110,6.4s-29.2,101.3,55.7,109.6c30.9,3,51.1-14.2,61.7-36.4l-22.3-8.5c-5,9.7-16.3,16-38.2,13-38-5.3-36.8-48.1-22.1-58.2,14.7-10.2,40.8-15.2,52.3-3.7,5.4,5.4,11.9,21.1,11.3,35.5l24.6,6.8Z"/>
    <path d="M523,348.2c-19.3,13.2-39.2,10.6-50.8-2-16.1-17.5-18.3-52-8.4-61.9,9.4-9.4,36.8-12.9,55.6-2.7,21.7,11.8,33.3,39.7,11.9,59.9l7.8,26.9c35-18.5,33.7-62.9,9.7-90.9-16.6-19.4-44-31.1-77.7-21.1-16.9,5-28.1,18.8-33.8,35.3-5.7,16.7-1.1,48.6,17.4,67.1,15.3,15.3,52.3,17.6,73.6,13.2l-5.2-23.8Z"/>
    <path d="M539.9,195.8c-6.6-40.6-68.9-17.3-72.6,1-7.2,35.8,81.6,54.1,72.6-1Z"/>
    <path d="M506.6,103.3c11.6-1,11.3-23.8,5.1-30-6.2-6.2-15-4.9-20,0s-16.3,32.5,14.9,29.9Z"/>
    <path d="M497,300.9c-1.4.5-22.8,16.4-11.2,28s22.8-.9,26.6-5.9c7.2-9.7-2.6-26.1-15.4-22.1Z"/>
  </g>
  <path d="M531.3,341.5c-2.7,2.6-5.5,4.8-8.2,6.7l5.2,23.8c4.4-.9,8.1-2.1,10.8-3.5l-7.8-26.9Z"/>
  <path d="M536,93.4c-.2,4.8-1.2,9.4-3.3,13.5l22.3,8.5c2.3-4.9,4.2-10,5.6-15.2l-24.6-6.8Z"/>
</svg>