<?xml version="1.0" encoding="UTF-8"?>
<svg id="Layer_1" xmlns="http://www.w3.org/2000/svg" version="1.1" viewBox="0 0 1000 1000">
  <!-- Generator: Adobe Illustrator 29.0.0, SVG Export Plug-In . SVG Version: 2.1.0 Build 186)  -->
  <path d="M645.1,337.4c28.2,122.7,122.1,166.1,125,327,.5,27.9-29.6,156.2,20.7,90.7,55.5-72.3-4.8-206.7,4.5-289.4,11.1-98.6,95.4-198.4,79.5-296.4-51.1-57.8-115.5-103.7-188.3-133-31,58-51.4,257.4-41.3,301.1Z"/>
  <path d="M642.6,915.4c-2.5-40.7,23.1-105.5,26-150.8,10.2-154.5-60.5-196.1-84-329.2-11.6-65.8-16.2-151.3-3.6-215.8-28-5.2-28.9,12.7-37.2,31.6-50.4,114.3,11.9,185.9,8,295-5.3,147.3-106.8,261.4-82.8,430.9,1.2,8.5,2.5,15.9,3.8,22.5,8.9.5,18,.7,27,.7,56.6,0,111-9.4,161.7-26.7,1.5-4.5,2.4-7.6,2.4-8.3,0-8.3-20.1-25.7-21.5-49.9Z"/>
  <path d="M308,184.8c26.8,141.3,195.5,306,123,486,115-99.3,9.1-300.5,25.6-419,2.9-20.9,64.4-202.4,75.1-223.6,2.5-5.1,8.3-15.2,14.4-25.8-15.2-1.4-30.5-2.1-46-2.1-61.8,0-120.9,11.2-175.6,31.7-12.9,52.1-20.8,129.7-16.5,152.8Z"/>
  <path d="M331.7,676.1c-8.5-71.2,9.6-115.9-4.9-195.9-9.6-53-27.2-140-71.3-172.9,44.9,112.9,37,241.1-20.2,349.7-19.9,37.8-59.8,65.6-77.9,110.8-14.1,35.1-19.5,59.9-18.7,78.2,62.9,65.7,143.6,114.3,234.3,138,42-87.2-31.1-222.1-41.3-308Z"/>
  <path d="M141.9,489.7c5,28.8,3.9,80.4-2.1,109.2-5,23.9-56,88.2-47.2,96.8,45.5,44.3,142.6-169.2,137.2-230.3-12.9-147.5-102.7-163.1-17.3-338.6,9-18.4,11.7-32.6,10-42.5C130.5,145.9,60,237.1,24.8,344.4c26.3,52.9,107.5,90.2,117.1,145.3Z"/>
  <path d="M982.2,633.1c1-7.5,1.4-13.9,1.1-18.8-2-32.5-29.5-56.7-35.8-90.5-8.6-45.9,6.7-108.3-4.9-145.5-6.7-21.5-40-28.3-48.1-20.7-3.7,3.5,12.6,38.3,11.4,54.9-10.9,153.2-9.5,292-78,421.6-12.4,23.4-12.3,39.8-5,48,75.7-64.2,132.1-150.4,159.2-248.9Z"/>
</svg>