<?xml version="1.0" encoding="UTF-8"?>
<svg id="Layer_1" xmlns="http://www.w3.org/2000/svg" version="1.1" viewBox="0 0 1000 1000">
  <!-- Generator: Adobe Illustrator 29.0.0, SVG Export Plug-In . SVG Version: 2.1.0 Build 186)  -->
  <path d="M15.6,375.5c28.6-111.7,94.9-208.4,184.5-275.6,1.3-2.9,2.5-6,3.8-9.3"/>
  <path d="M684.4,539.6c-11.2,32.3-102.4,170.8-.7,112.9,7.4-4.2,97.8-115.2,108.2-131.8,28.5-45.6,102.6-189.7,115.7-238,5.2-19.1,8.3-40.8,7.2-62-55.6-82.5-135.2-147.4-228.7-185-2.6,16.3-12.8,47.3-63,101.6-91.9,99.3,119.1,235.7,61.3,402.2Z"/>
  <path d="M307.6,208c44.8,124.9,176.2,179.7,148,355.6-2.6,16.2-78.8,189.4,6.4,82.1,97.6-122.9,13.9-249.2,18.9-359.1,3.2-70.6,120-199.3,61.2-281.5-.9-1.2-2-2.4-3.4-3.6-12.8-1-25.7-1.5-38.8-1.5-77,0-150,17.4-215.2,48.5-5.7,25.2,13.6,133.7,22.8,159.4Z"/>
  <path d="M712.4,883c-9.2-11.1-11.8-47.6-25.9-68.8-26-39.1-70.7-84.8-87.2-127.4-36.7-94.6,20-162.6,9.1-261.8-1.2-11.2-22.4-90.7-25.7-94.3-39.1-43-12.1,72.2-11.9,81.5,3.3,192.1-66.4,209.8-88.2,342.3-15.5,94.5,36.1,163.1-36,242.7,17.6,1.9,35.4,2.8,53.4,2.8,103.5,0,199.7-31.5,279.5-85.4-22.6-14.1-57.8-20.3-67.2-31.6Z"/>
  <path d="M304.8,779.3c-14.5-120.2,58.8-161.1,47.2-274.8-7.3-71-30.8-173.2-97.3-211.8,6.2,81.9,69.2,106.5,61.8,194.1-12.2,144.8-171.2,187.6-152.2,383.6,63,57.1,140.6,98.4,226.5,117.5-2.7-18.2-13-69.6-15.7-77-16.7-46-61.8-62-70.3-131.7Z"/>
  <path d="M140.5,526.7c15.3,78-13.7,117.2-50.1,176.8-25.7,42.2,21.7,29.8,48.6-2.1,15.8-18.7,85.2-157.8,87.9-177.8,7.8-56.9-72.1-209.2-74.2-287.5-2-72.8,23.8-81.2,47.3-136.1C110.5,167.2,44.3,263.8,15.6,375.5c1.3,6.3,3.1,12.3,5.6,18,15.9,37,110,85.5,119.3,133.1Z"/>
  <path d="M962.9,689.3c-12.9,1-27.1,6.1-31.6,5.1-65-14.9,38.8-244.2-8.7-274.5-49.3-31.4-31.8,38.9-39.9,65.5-15,49.2-79.1,114.9-79,179.6l33.1,204.5c54.4-49.6,97.7-111,126.1-180.2Z"/>
</svg>