<?xml version="1.0" encoding="UTF-8"?>
<svg id="Layer_1" xmlns="http://www.w3.org/2000/svg" version="1.1" viewBox="0 0 1000 1000">
  <!-- Generator: Adobe Illustrator 29.0.0, SVG Export Plug-In . SVG Version: 2.1.0 Build 186)  -->
  <defs>
    <style>
      .st0 {
        fill: none;
      }
    </style>
  </defs>
  <path class="st0" d="M177,437.7c-1.9,25.1-58.5,185.6-79.5,179.8-34-9.4,27.7-102,13.2-129.4-13.4-46.9-86.2-108.1-78.9-156.8,3.3-21.7,105.6-211.2,133.2-181.3,4.1,4.4-26.5,83.5-25.5,116.9,1.6,56.9,41.6,115.5,37.5,170.9Z"/>
  <path d="M669,749.3c-51.1-51.1-149-101.6-131.5-233.2,3.5-26.1,96.3-254.6,39.8-255.2-22-.2-18.3,77.2-24.4,98.5-27.6,96.4-121.3,229.1-116.3,325.1,2.9,55.3,35.4,93.1,22.9,172.3-8.1,51.4-48.5,72.4-60.6,117.5,13.5,8.6,30,16.3,48.5,23,17.3,1.8,34.8,2.7,52.5,2.7,88,0,170.6-22.7,242.4-62.6-88.9-19.8,37.2-77.5-73.4-188.1Z"/>
  <path d="M620.1,513.6c-2.1,71.1,47.4,197.5,135.6,177.7-93.8-132.6-120.6-158.8-17.5-288.2,17-21.4,37.4-58.7,55.4-73.8,29.2-24.5,121.2-40,142.1-74.6-64.7-114.7-173.4-201.3-303.2-236.9,4.3,20.8,66.3,128.6,71,153.4,31.2,163.8-79.3,203.4-83.5,342.4Z"/>
  <path d="M317.2,177.5c129.2,178.8,76.1,285.5,32.8,471.3-2.1,9.2-21.1,44.3,5.9,42.3,16-1.2,61.2-203.1,100.5-242.5s35-97,34.3-122.2c-2.7-93.3-51.9-161.5,9.5-278.4,10.4-19.7,27.4-30.6,39.3-46.5-13-1-26.2-1.5-39.5-1.5-101.4,0-195.8,30.2-274.7,82.1-16.9,29,57.3,47.6,91.9,95.4Z"/>
  <path d="M262.9,753.6c-14.9-18.9-9.7-47.3-9.2-53.1,4.5-49.1,66.4-123.3,67.6-172.8,1.3-55.8-44.5-112.3-45.6-168.7-64,.3-6.2,62.1-2.4,108.2,5.5,66-81.3,126.8-110.4,191.2-22.8,50.4-39,149.5-8.8,197.8,1.8,2.9,3.5,6.2,5.1,9.7,39.2,36.5,84.2,66.7,133.5,89.2,24.1-32.6,46.8-104.2-29.8-201.6Z"/>
  <path d="M962.2,691.1c8.2-33.2,9.9-63.3-2.9-82.4-16.1-23.9-101.4-11.2-104.5-105.4-1.3-39.8,67.8-110.4,61-115.5-35.9-26.9-103.6,57.7-110.1,92.8-25.4,136.6,77.1,206.1,28.2,360.6-6.8,21.6-44.1,61-41.2,63.3.2.2.4.3.7.5,74.3-53.9,133.2-127.9,168.8-213.9Z"/>
  <path d="M165.1,149.9c-27.6-29.9-129.9,159.6-133.2,181.3-7.4,48.8,65.5,109.9,78.9,156.8,14.5,27.5-47.2,120-13.2,129.4,21,5.8,77.6-154.7,79.5-179.8,4.1-55.4-35.9-114-37.5-170.9-.9-33.4,29.6-112.5,25.5-116.9Z"/>
</svg>