<?xml version="1.0" encoding="UTF-8"?>
<svg id="Layer_1" xmlns="http://www.w3.org/2000/svg" version="1.1" viewBox="0 0 1000 1000">
  <!-- Generator: Adobe Illustrator 29.0.0, SVG Export Plug-In . SVG Version: 2.1.0 Build 186)  -->
  <path d="M289.7,246.3c8.5,62.3,72.3,131.1,77.3,180.7,11.5,113.1-67.5,238.7,59.6,330.6l-7.1-86.4c-88.2-93.9,45.5-207.7,55.8-297.2,17.3-149.8-48.1-173.4,73.1-316.7,3.5-4.2,15.5-25.8,28.3-51.5-25-3.9-50.7-5.9-76.8-5.9-71.1,0-138.7,14.8-199.9,41.6-7.5,41.7-14.3,176.4-10.4,204.7Z"/>
  <path d="M581.6,205.2c-10,66.1,45.5,107.3,54.3,163,11.4,71.3-22.3,137.7-8.4,212.8,9.3,50.1,72.1,137.7,68.4,52.2-2.8-63.8-48.3-96.5-4.2-174.6,10.9-19.3,42.9-267.2,172.7-175.7,41.6,29.3,72.1,30.2,94.1,17.7-49.5-113.8-140.2-205.5-253.2-256.5-25.8,17.9-52.3,38.3-60,46.2-31.7,32.2-59.7,87.9-63.9,115Z"/>
  <path d="M535.2,579.6c-5.9-46.6,24-99.1,11.6-146-41.1,32.6-65.3,94.8-70.8,146.4-10.2,95.4,46.5,130.4,6.9,234.2-19.6,51.4-83.2,115.4-39.6,176.9,2,2.8,9.2,5.3,20.1,7.6,12.1.9,24.3,1.3,36.6,1.3,94.5,0,182.8-26.2,258.2-71.7-1.3-26.4-14.5-70.4-79.5-135.4-100.3-100.3-124.6-63.7-143.5-213.3Z"/>
  <path d="M232.9,557.5c.3-37.6,49.8-179.7,6.6-207.2-50.3-32-24.2,21.6-22.7,40.8,12.2,156.7-94.6,281.4-89.3,380.6.5,10.2,9.2,48.2,17.6,80.4,43.4,43.8,94.9,79.5,152,104.9,1.7-6.6,3-14.7,4.1-24.5,16.6-150.7-69.3-245.3-68.2-375.1Z"/>
  <path d="M972.7,631.6c-1.2-22.4-107.2.4-135.1-93.8-13.6-45.9,40.8-115,27.2-128.3-35.6-34.7-90.7,82-94.9,115.1-12.5,98.5,47.2,150.4,53.1,226.8,3.5,45-50.1,140.7,19.3,112.9,15.8-14.9,30.7-30.8,44.5-47.6,37.9-62.2,86.7-170.1,85.8-185.1Z"/>
  <path d="M82,530.5c-12.5,84.1,37.7,20.1,54.2-18.1,55.9-130.1-13.5-191.3-3-290.7,3.3-31,55.1-87.9,51-109.3-64.5,52.6-115.6,121-147.5,199.2,16.2,30.2,52,63.7,58.7,93,11.7,52-6.7,80.9-13.4,125.9Z"/>
</svg>