<?xml version="1.0" encoding="UTF-8"?>
<svg id="Layer_1" xmlns="http://www.w3.org/2000/svg" version="1.1" viewBox="0 0 1000 1000">
  <!-- Generator: Adobe Illustrator 29.0.0, SVG Export Plug-In . SVG Version: 2.1.0 Build 186)  -->
  <path d="M691.7,798.7c-15.3-45.7-.9-92.6-12.9-139.2-11-42.6-67.5-90.2-75.9-124.8-21.7-88.6,37.2-204.4,43.8-293.1-33.7-7-118.5,189.8-125.6,248.3-10.6,87.3,32.3,163.9,24.3,252.6-8.3,92.5-81.5,147.8-38,253.4.6,1.4,1.2,2.8,1.8,4.1,111.1-2,213.3-40.2,295.4-103.3-31.1-24.7-97.4-51.6-112.9-97.9Z"/>
  <path d="M422.9,333.1c13,59.9-92.2,371.2-10.6,390.1,46.3,10.7,18-62.6,18.3-81.8,1.8-157.1,63.7-200.7,75.2-319,8-82.7-28.2-154.2-24.6-226.3,1-19.8,20.9-66.7,31.9-96-4.4-.1-8.7-.2-13.1-.2C395.5,0,298.4,32.1,218.2,86.9c46.1,77.6,187.8,168.4,204.7,246.2Z"/>
  <path d="M739.9,92.5c93.5,128.2-39.6,213.2-41.2,334.2-.8,62.3,48,138.7,42.8,208,16.7,31.3,40.5-22.1,44.1-32.3,26.5-73.5-17.3-142.2,25.2-215.8,41.6-72,133.4-75.7,149.9-81.2-52.1-123.3-152.3-221.4-277.1-270.7,1.8,5,4.2,10.6,7.3,16.7,7.1,14.1,34.5,21.1,48.9,40.9Z"/>
  <path d="M265.4,653.5c.3-46.1,27.3-79.9,26.7-126.1-.4-30-45.7-195.3-70.1-197-26.3-1.8-8.2,37.6-7.8,45.3,2.3,44.7,15,93.2,11.5,134.6-7.6,87.8-116.7,253.5-111.2,307.4,0,.2,0,.5,0,.7,50.3,60.8,114.7,109.5,188.2,141.1,21-64.3-37.7-254-37.4-306.1Z"/>
  <path d="M941.8,605.6c-40.6-62.2,16.7-204.5,9-211.9-46.8-45.5-97.3,129.7-99.7,160-7.9,99.4,38.4,178.6,31.9,267.7,45.7-54.4,80-118.7,99.3-189.2-14.4-11.1-33.6-15.9-40.5-26.5Z"/>
  <path d="M73,599.6c-3.9,21.6-41,56.5-3,73,2.9,1.2,40.3-43.9,41.4-46.8,6.6-16.1,39.5-148,40.3-164.3,2.6-52.4-38.5-101.2-32.1-173.2,2.4-27.3,36.8-138.4,32.9-147.7C82,208.7,31.4,297.5,10.6,397.2l78.5,81.5c-2.7,40.2-9,81.2-16.1,120.9Z"/>
</svg>