<?xml version="1.0" encoding="UTF-8"?>
<svg id="Layer_1" xmlns="http://www.w3.org/2000/svg" version="1.1" viewBox="0 0 1000 1000">
  <!-- Generator: Adobe Illustrator 29.0.0, SVG Export Plug-In . SVG Version: 2.1.0 Build 186)  -->
  <path d="M342.5,53.1c-84.2,242,60.1,295,43.4,500.4-1.7,20.7-27.3,103.4-23.2,107,32.6,28,50.4-40,56.3-61.5,26-95,26.2-205.1,51.2-289.7,6.6-22.3,3.2-46.3,13.8-67.5,19.8-39.9,139.3-185.2,160.9-224.1C602.7,6.1,558.4,0,512.7,0s-118,10.7-171.5,30.2c1.1,8.2,3.3,17.2,1.3,22.9Z"/>
  <path d="M623.8,939.5c-3.5-106.9-63.6-165.3-73.4-261.8-8-78.9,17.3-146.4,7.9-219-1.8-14-33.2-150.9-59.1-120.9-8.3,9.6,0,217,0,254.5s-103.1,193.5-109,251c-4.4,42,25.6,97.9,24.2,147,31.8,6.3,64.7,9.7,98.3,9.7s75.5-4.3,111.3-12.5c.7-11.7.5-27.2-.2-48.1Z"/>
  <path d="M691.1,138.6c-40.8,114.3-30.3,323.6-31.6,453.7-.3,34.7,24.8,108.8,38.2,49.7,12.1-53.4,17.1-128.1,34.5-176.8,24.6-68.7,164.9-210.8,161.1-289.6-44.2-51.8-98.9-94.5-160.7-124.8-1,0-1.9.2-2.7.4-4.6,1.2-33.8,73.6-38.7,87.4Z"/>
  <path d="M957.9,727.8l-11.7-17.6c-13.8-86.9-69.4-120.7-69.7-215.1,0-25,49.9-130.8,19.1-100s-96,111.4-96,175.9c0,97.1-82.7,148-61.6,254.4,1.9,9.5,23.7,83.4,31.9,103.5,79.9-48,145.3-117.8,188-201.1Z"/>
  <path d="M253.6,666.9c-.9-101.6,81.9-227.3-21.3-316.4l-9.2,201.6c-13.6,58.5-93.7,182.4-107.4,251.9,51.4,67,119.4,120.7,197.9,154.8-1.9-29.4-13.5-102.4-15.9-115.2-10-54-43.6-119.5-44.1-176.7Z"/>
  <path d="M93,489.5c6.1,20.8,13,121.7,27.5,121.2,76.7-2.7,20.6-232.3,23.8-273,5.9-75.3,67-163.8,81.1-242.8.3-1.7.5-3.2.5-4.5-83.6,58.6-148.4,142.2-183.7,239.9-2.6,57.9,35.7,107.6,50.8,159.2Z"/>
</svg>