<?xml version="1.0" encoding="UTF-8"?>
<svg id="Layer_1" xmlns="http://www.w3.org/2000/svg" version="1.1" viewBox="0 0 1000 1000">
  <!-- Generator: Adobe Illustrator 29.0.0, SVG Export Plug-In . SVG Version: 2.1.0 Build 186)  -->
  <path d="M559.6,825.5c.3-49.1,39.1-105,36.6-158.6-4.8-104.8-75-195.9-62.9-345.9,3.4-41.8,35.2-116.8,37.1-123,15.5-51-50.1,15.1-57.6,27.9-88.7,150.7-24.9,179.3-36.6,321.9-6.1,74-47.9,131-64.5,194.3-18.6,71.1-7.8,127.4-14.3,195.4-1.9,20.2-17,36-19.7,47.5,39.1,9.8,80.1,15.1,122.2,15.1s79.1-4.7,116.4-13.6c-35.9-28.4-57-126.4-56.8-160.9Z"/>
  <path d="M621.4,298c-17.1,145.5,33.9,153.2,57.5,260.5,9.7,44.2,2.6,104,15.3,151.3,79.5-86.4,4.5-210.3,29.8-321.6,4.3-18.7,72.4-174.8,82.7-188.6,9.7-12.9,43.2-33,55.3-44.6-64.2-67.3-146.9-116.8-240.1-140.1,9.1,26.1,45,69,46.9,97.4,3.1,47.9-40.9,130.3-47.4,185.7Z"/>
  <path d="M951.5,715.2c-14.7-58.6-47.3-119.1-48.4-172.5-.5-23.6,21.9-96,35.5-159.7,10.4-48.6-42.6-109.9-48.5-97.4-10.2,96.8-76.8,198.9-91.9,287.9-21.6,127.2,41.4,284.1-73.6,373.3,99-49.8,179.1-131.6,226.9-231.7Z"/>
  <path d="M308.3,152.2c11.9,135,68,292.1,64.1,414.8-.4,11-46.6,145.6.8,105.9,17.3-14.5,45-127.1,48-155.6,8.9-83.4-11.5-189.6,4.3-267,12.6-61.6,109.3-178.9,107.9-238-.1-4.4-1.2-8.1-3.2-11.2C520.2.3,510.2,0,500,0,428.9,0,361.2,14.9,300,41.6c-23.4,26.6,4.2,63.7,8.3,110.5Z"/>
  <path d="M309.1,880.2c-9.3-59.7-45.3-127.9-47-189.5-1.3-45.3,37.4-239.6,12.7-264.6-40.6-40.9-38.2,67.9-45.6,96.3-18.6,71.2-116.2,224.6-115.6,267.8.2,12.6,9.4,32.1,23.8,54,48.9,51.5,108.6,92.6,175.6,119.6.2-24.8-2.9-77.7-3.8-83.6Z"/>
  <path d="M64.2,324.5c16.4,52.6,31.9,107.3,47.4,160.3,1.4,4.7,1.9,9.9,2.1,15.2.7,25.8,4.7,45.9,2.6,57-6.3,33.3-73.3,146,19.7,63.3,9.9-8.8,36.5-119.6,38.9-139.9,12-102.1-23-208.8,4.6-303.8,2.6-8.8,12.3-42.5,9.4-67.9-64.3,51.2-115.7,117.9-148.5,194.4.8,3.4,1.2,5.7,1.2,6.7-.2,4.7,19.4,4.4,22.7,14.8Z"/>
</svg>