<?xml version="1.0" encoding="UTF-8"?>
<svg id="Layer_1" xmlns="http://www.w3.org/2000/svg" version="1.1" viewBox="0 0 1000 1000">
  <!-- Generator: Adobe Illustrator 29.0.0, SVG Export Plug-In . SVG Version: 2.1.0 Build 186)  -->
  <defs>
    <style>
      .st0 {
        fill: none;
      }
    </style>
  </defs>
  <path d="M127.2,833.2c2.9,7,14.3,17.7,28.1,29-9.8-9.3-19.2-19-28.1-29Z"/>
  <path class="st0" d="M215,908.3c-11-9.5-38.3-28.5-59.7-46,20.5,19.5,42.8,37.4,66.4,53.2-2.1-2.7-4.4-5.2-6.7-7.2Z"/>
  <path d="M705.6,341.6c14.9,89,0,208.6,15.7,301.2,8.1,48,45.5,42.1,51.3-12,4.9-45.5-4.2-80.4,8-131.4,11.9-49.4,92.6-205.4,124.7-292.1-67.5-93.3-166.4-162.3-281.2-191.6-43.9,75,73.3,277.2,81.5,326Z"/>
  <path d="M608.3,629c-11.5-87,9.3-189.7-2.2-276.7-2.1-16.1-44.1-153.4-49.7-159.6-27.3-29.7-39.1,82.5-38.8,95.1,2.4,111.9,37.3,211.9,26.1,342.1-9.6,111.9-102.5,267.3-73.2,365.2.4,1.4.9,2.8,1.5,4.1,9.3.5,18.6.8,28,.8,68.1,0,133.1-13.6,192.3-38.3,8.3-117-70.4-229.8-83.9-332.7Z"/>
  <path d="M388.2,481.6c6.7,51.6,2.7,103.2,3.7,154.9,69.2-53.3,30.6-195.2,39.4-283.6C436.3,303.6,503.5,75.1,508.6,0c-2.9,0-5.7,0-8.6,0-80.3,0-156.2,18.9-223.4,52.6-21,101.1,96.2,310.2,111.6,429Z"/>
  <path d="M964.4,685.7c-1.3-1.1-2.4-2.3-3.4-3.5-45.8-61.6,30.2-290.5,3.6-317.2-5.3-5.3-92.1,152-101,204.8-14.3,84.8,0,182.1-16.5,275-1.2,6.9-7.8,17.1-13.5,27.7,56.8-50.9,101.9-114.7,130.7-186.7Z"/>
  <path d="M279.1,818.8c-1.1-45.1,14.6-94.1,11-150.5-2-32.4-47.4-271.1-50.5-285.3-9.9-46-25.3,28.6-25.3,31.6.5,84.5,0,169,0,253.5s-89.9,150.3-87.8,163c.1.7.3,1.4.6,2.1,9,10.1,18.4,19.7,28.1,29,21.4,17.5,48.7,36.5,59.7,46,2.4,2,4.6,4.5,6.7,7.2,24,16.1,49.5,30.2,76.2,42,9.8-31-18.2-109.8-18.9-138.7Z"/>
  <path d="M34.1,442.3c16.4,83.6,17.1,184.4,41,270.1,78.4-46.9,20.9-168.8,26.5-244.8,4-54.3,96.1-324.6,88.8-360.3C97.4,180.8,31.1,286.6,8.5,407.7c8.6,4.3,21.3,12.7,25.6,34.6Z"/>
</svg>