<?xml version="1.0" encoding="UTF-8"?>
<svg id="Layer_1" xmlns="http://www.w3.org/2000/svg" version="1.1" viewBox="0 0 1000 1000">
  <!-- Generator: Adobe Illustrator 29.0.0, SVG Export Plug-In . SVG Version: 2.1.0 Build 186)  -->
  <path d="M621.9,513.4c45.2-21.3,19.3-82,29.7-123.4,13-51.9,92.2-138.3,102.6-203.9,5.1-32.4.8-87.4-16.4-126-45.7-24.8-95.7-42.6-148.5-52.1-101,175.2,52.7,326.4,32.6,505.5Z"/>
  <path d="M355.3,373.5c4.2,50.6-11.3,91.3-13.4,139.8l73.4-164.6c-15.6-82.2,16-122.4,37.4-197.6,13.9-48.7,8.7-102.5,26.6-150.8-70.4,2.9-137.1,20.3-197.1,49.4-27.5,79.1,63.9,211.5,73.1,323.8Z"/>
  <path d="M136.4,458.6c33.7,44.9,27.3-110.1,29.7-123.4,15.2-84.1,67.4-153.3,51.8-248.1-52.7,36.1-98.1,81.9-133.7,135,12.6,78.2,71.4,152.3,52.1,236.5Z"/>
  <path d="M857,462.6c42-40.8,78.5-116.8,88.2-190.3-22-42.9-49.9-82.1-82.8-116.7,2.7,103.7-38,197.8-5.4,307Z"/>
</svg>