<?xml version="1.0" encoding="UTF-8"?>
<svg id="Layer_1" xmlns="http://www.w3.org/2000/svg" version="1.1" viewBox="0 0 1000 1000">
  <!-- Generator: Adobe Illustrator 29.0.0, SVG Export Plug-In . SVG Version: 2.1.0 Build 186)  -->
  <path d="M583,165.7c3.3,56.6,49.7,124.1,57.2,174.2,8.1,53.8-20.6,130.2,37.1,163.6-73.3-145.8,141.4-305.9,81.4-431.3-49.5-30-104.6-51.6-163.4-63,1.4,52.6-15,112.6-12.4,156.6Z"/>
  <path d="M327.4,160.1c11.7,33.2,13.7,30,44.5,85.9,30.8,56-40.9,255.4-24.6,219.3,16.3-36.1,79.4-93.2,89.4-136.6C457.2,239.6,525.2,114.3,505.8,0c-1.9,0-3.9,0-5.8,0-65.2,0-127.5,12.5-184.6,35.2-12.2,24.9-9.6,63.5,12,124.9Z"/>
  <path d="M165,432.5c20.3-3.2,22.4-79.1,22-105.3-.4-37.2-1.7-75.3,2.4-107.5,6.4-50.2,26.8-90.3,33.8-136.3-54,35.9-100.6,82.1-137.1,135.7,38.3,70.9,97.3,123.4,78.8,213.3Z"/>
  <path d="M831.5,422.5c44.1-62.8,97.9-107.9,97.5-179.5-22.9-38.1-50.7-72.9-82.5-103.5,9.1,101.3-47.8,175.1-15,283Z"/>
</svg>