<?xml version="1.0" encoding="UTF-8"?>
<svg id="Layer_1" xmlns="http://www.w3.org/2000/svg" version="1.1" viewBox="0 0 1000 1000">
  <!-- Generator: Adobe Illustrator 29.0.0, SVG Export Plug-In . SVG Version: 2.1.0 Build 186)  -->
  <defs>
    <style>
      .st0 {
        fill: none;
      }
    </style>
  </defs>
  <path d="M528.1.5c-2.4,0-4.9,0-7.3,0,2.4,0,4.8.2,7.2.4,0,0,0-.2,0-.3Z"/>
  <path class="st0" d="M500,0c-2.9,0-5.8,0-8.6,0,10.2,0,20,.2,29.4.4-6.9-.3-13.8-.4-20.8-.4Z"/>
  <path d="M378.5,278.3c52.7,151.6-50.4,293.5-18.7,261.8,31.7-31.7,67-87.1,71.4-110.1,15.3-80.1,4.6-115,22.6-200.3,16.8-79.7,53-151.1,74.2-228.9-2.4-.1-4.8-.3-7.2-.4-9.4-.1-19.3-.3-29.4-.4-70.5,1.2-137.5,17-198,44.5-21.7,54.6,72.7,189.7,85.1,233.7Z"/>
  <path d="M585.4,152.4c8.7,59.4,37,117,63.5,179.4,26.5,62.4-23.8,246.2.9,194.8,24.7-51.4,83.7-177.8,63.2-276.8-20.5-99,68.3-116.5,68.3-161.8s0-1,0-1.5c-58.5-39.9-126-67.7-198.7-79.7.8,48.4-4.1,97.3,3,145.6Z"/>
  <path d="M123.8,473.1c30.8,5.8,52-100.6,52.3-122.8.6-52.7-19.6-63.1-14.1-124.6,3.6-40.6,18.3-82.8,34.9-123.5-58.1,44.3-106.2,101.1-140.3,166.3,82,44.6,74.2,118.1,67.1,204.6Z"/>
  <path d="M835.1,355c0,10.1,19,84.9,40.3,87.7-2.2-47.5,51.2-148.2,53.1-181.8.3-5.8-1.6-15.4-5.1-26.9-24.1-38.2-53.2-73-86.4-103.3-.6.5-1.2,1.1-1.9,1.7v222.6Z"/>
</svg>