<?xml version="1.0" encoding="UTF-8"?>
<svg id="Layer_1" xmlns="http://www.w3.org/2000/svg" version="1.1" viewBox="0 0 1000 1000">
  <!-- Generator: Adobe Illustrator 29.0.0, SVG Export Plug-In . SVG Version: 2.1.0 Build 186)  -->
  <path d="M295.2,207.6c3.6,35,22.4,69.1,37.1,105.4,20.1,49.4-63.8,196.2-21.1,153.5s80.2-117.8,79.9-189.8c-.4-104.1-.6-204.8,93.9-268.6-68.4,2-133.3,17.8-192.2,44.6,30.4,31.1-3,103.1,2.4,155Z"/>
  <path d="M628.9,466.9c22.2,44.3,8.4-72.7,10.2-95.8,3.6-48.2,10.4-44.3,22.9-94.9,11.8-47.6,80.3-147.2,80.3-205.9-61.3-34-130.6-55.6-204.3-61.1,153.5,112.9,34,305.1,90.9,457.7Z"/>
  <path d="M119.9,428.7c16.6-24.4,63.1-124.9,59.9-181.8-2.2-39.2-6.2-78.6-5.9-118.2-35.2,30.3-66.2,65.5-91.8,104.4,16.5,18.3,36.8,38.2,39.5,56,6.1,40.9-18.3,164-1.7,139.6Z"/>
  <path d="M850.9,414c11.5-64.8,43-137.9,52.2-202.2-29.6-40.3-65.2-76-105.3-105.8,9.2,27.6,22.9,54.3,25.2,83.5,1.2,16.1-24.2,272.1,28,224.4Z"/>
</svg>