<?xml version="1.0" encoding="UTF-8"?>
<svg id="Layer_1" xmlns="http://www.w3.org/2000/svg" version="1.1" viewBox="0 0 1000 1000">
  <!-- Generator: Adobe Illustrator 29.0.0, SVG Export Plug-In . SVG Version: 2.1.0 Build 186)  -->
  <path d="M587.2,160.6c42.1,108.1,104.6,241.4,69.2,365.9,0,0,61.1-63.1,61.1-89.8s18.7-117.9-6.6-197.9c-23.4-74.1-45.8-113.3,18.4-183.3-58.7-30.4-124.3-49.4-193.7-54.3.5,1,1,2,1.5,3,22.6,47.8,30.4,105.6,50.1,156.3Z"/>
  <path d="M302.4,221.8c7.2,44,38.6,86.7,61.7,153.1,23.1,66.5-42.4,176.4-17.6,151.6,24.8-24.8,73.5-102.8,77.6-126.6,12.4-71.5-6.4-86.1-.6-160.7,3.4-44.6-12.5-82.2-10.9-120.3,1.7-40.7,21.9-77.3,32-115.9-64.2,7.1-124.8,26.3-179.3,55.3,55.5,38.5,25.8,94.7,37.1,163.4Z"/>
  <path d="M889,449s-38.3-119.4,10.5-168.2c13.3-13.3,23.1-25.6,30.3-36.4-34.3-57.5-79.8-107.6-133.5-147.2,3.4,31.5,23.2,61.8,24.6,83.6,5.6,82.8-30.7,212.9,68,268.2Z"/>
  <path d="M114.4,475.3c32.8-32.8,58.5-71.3,61.7-94.7,5.5-39.9-19.2-142.2-14.8-206,1.1-16.5,3.8-32.7,7.1-48.8-39.9,35.4-74.1,77-101,123.4,16,17.5,36.6,39.4,50,73.5,25.1,63.8-35.8,185.5-3,152.7Z"/>
</svg>