<?xml version="1.0" encoding="UTF-8"?>
<svg id="Layer_1" xmlns="http://www.w3.org/2000/svg" version="1.1" viewBox="0 0 1000 1000">
  <!-- Generator: Adobe Illustrator 29.0.0, SVG Export Plug-In . SVG Version: 2.1.0 Build 186)  -->
  <path d="M531.5,84.9c40.2,128.3,57.9,351.4,43,484,0,0,56.7-69.4,56.7-122s-3.7-118,21.9-194.4c10.9-32.6,43.3-59.2,51.2-96.3,9.9-46.7,10.8-83.6,2.5-111.6C643.7,16,573.7,0,500,0s-7.8,0-11.7.1c-.7,19.9,32.3,49.9,43.2,84.7Z"/>
  <path d="M391.4,560.4c21.2,37-20.6-118.8-8.4-162.6,12.2-43.9,5.5-188.2,11.1-240.3,3.7-34.4,28.7-109.7,35.1-152.5-65.2,9.2-126.4,31.1-181,63,2.2,82.7,72.9,196.8,86.9,257.5,10.4,45,35.1,197.9,56.4,234.9Z"/>
  <path d="M808.2,245.9c16.2,65.8,45.5,57.9,45.5,132.1s-63,163.3-13.2,128.1c48.5-34.3,119.4-185.4,101.5-240.1-33.8-63.7-81-119.2-137.8-162.9-12.9,34-7.3,97.1,4,142.7Z"/>
  <path d="M161.8,417.7c66.1-42.7,25-138.9,28.8-198.4,1.2-18.5,14.5-81.9,23.2-129.4-53.6,37.5-99.6,85.3-135,140.4,58.2,40.1,79.3,120.5,82.9,187.4Z"/>
</svg>