<?xml version="1.0" encoding="UTF-8"?>
<svg id="Layer_1" xmlns="http://www.w3.org/2000/svg" version="1.1" viewBox="0 0 1000 1000">
  <!-- Generator: Adobe Illustrator 29.0.0, SVG Export Plug-In . SVG Version: 2.1.0 Build 186)  -->
  <path d="M320.2,522.9c113.1-42.6,61.4-212.2,79-305.9,5.8-31,71.7-164.1,85.9-216.8-63.8,1.9-124.7,15.7-180.4,39.4-15.2,162.6,62.5,322.1,15.5,483.3Z"/>
  <path d="M624.7,397.8c3,31.3-40.6,184.4-13.3,125.6,27.3-58.8,55.1-92,64.5-138.8,9.4-46.6,4.9-54.7,7.4-64.6,11.2-42.7,49.1-103.9,66.8-159.9,6.9-21.9,15-55.7,16-83.4-49.5-31.2-104.8-53.9-163.9-66.2-1.1,1.3-2.2,2.6-3.1,4.1-52.4,127.8,12.9,253.2,25.5,383.2Z"/>
  <path d="M173.9,238.8c-5.1-58.6,36.6-133.1,36.6-133.1l4.7-16.7c-49.3,34.2-92.2,77.1-126.4,126.5,9.8,53.5,50.2,172.2,74.6,203,26.2,33,15.5-121,10.4-179.6Z"/>
  <path d="M822.4,281.9c13.8,86.3,70.2,237.8,60.4,167.5s23.6-91.4,34.9-123.1c9.2-25.7,14.3-52.8,14.1-78.4-27.3-46.6-61.9-88.5-102.3-123.9h0c3.7,47.8-20.9,71.6-7.1,157.9Z"/>
</svg>