<?xml version="1.0" encoding="UTF-8"?>
<svg id="Layer_1" xmlns="http://www.w3.org/2000/svg" version="1.1" viewBox="0 0 1000 1000">
  <!-- Generator: Adobe Illustrator 29.0.0, SVG Export Plug-In . SVG Version: 2.1.0 Build 186)  -->
  <path d="M354.9,498.7c24.7-56.4,56.9-158.4,67.6-226.1,15.3-97,43.3-190,107.9-271.6C520.3.3,510.2,0,500,0,434.2,0,371.3,12.7,313.8,35.8c2,40.1,11.2,194.2,32.2,239.5,24.2,52.2-15.7,279.7,9,223.4Z"/>
  <path d="M619.7,311.8c8.6,41-4.3,84,13.8,132.4,7.6,20.2,30.8,97.2,30.8,61.2s-1.8-77,.1-94.9c15.6-144.1,141-278.4,53.6-360.6-39.5-19.2-81.9-33.3-126.3-41.5-51.3,93,8.5,211.2,27.9,303.4Z"/>
  <path d="M214.5,182.8c3.9-18.6,44.6-115.1,40.4-118.3-.2,0-.4,0-.6,0-61.1,34.6-114.2,81.6-155.9,137.7l90.7,174.4c26.3.6,19.5-165.6,25.4-193.7Z"/>
  <path d="M848,489.9c15.5-15.5,0-33.3,20.9-83.8,12.7-30.6,45.3-124.5,34.6-201.4-26.4-36-57.4-68.3-92.3-96l14.2,297.5s7.1,99.3,22.6,83.8Z"/>
</svg>