<?xml version="1.0" encoding="UTF-8"?>
<svg id="Layer_1" xmlns="http://www.w3.org/2000/svg" version="1.1" viewBox="0 0 1000 1000">
  <!-- Generator: Adobe Illustrator 29.0.0, SVG Export Plug-In . SVG Version: 2.1.0 Build 186)  -->
  <path d="M300.5,713.6c-33.5-52.4-173.2-56.1-262.9-23,6,14.7,12.8,29,20.1,42.9,77.9-25.7,201-18,210.8,36.4,12.8,71.4-43.9,99.7-104.3,100.6,12.9,11.7,26.4,22.7,40.5,33.1,15.9-4.2,28.9-9.5,36.5-11.8,69.2-20.6,97-119,59.2-178.2h.1Z"/>
  <path d="M659.7,703.4h0c-8.4,24.7-61.3,52.6-106.7,49.5-19.2-1.3-152.4-34.3-120.2-68.3l15-49.5c-17.5,3.1-67.9,42.1-68.4,61.3-3.2,105.9,233.9,125.8,301.3,36.6,12.3-16.2,23.8-32.4,17.5-59.6-6.3-27.3-32.3-22-51.8-25.2h0c0,0,13.4,55.2,13.4,55.2Z"/>
  <path d="M322.5,967.6c13.2,5,26.7,9.5,40.4,13.4,30-35.8,26.4-89.9,106.9-89.8,85.6,0,144.2,13.5,143.7,95.9,14.1-3.3,28-7.1,41.6-11.6-3.7-184.8-282.1-180.9-332.6-7.9h0Z"/>
  <path d="M899.5,684.4c-31.5,0-68.8,8.4-84.5,16-20.7,10-84,77.1-92.7,97.5-12.3,29-5.6,98.8,20.4,139.3,10.7-5.9,21.1-12.2,31.3-18.9-9.5-33.8-26.8-65.2-13.2-102.2,21.7-59.2,60.4-78.2,107.9-82.2,11-.9,42.1-1,73.7-.7,8-15.1,15.2-30.6,21.6-46.5-27.2-1.6-55.2-2.3-64.4-2.3h0Z"/>
  <path d="M432.8,684.6c58.7,2.3,235.3-6,226.9,18.8l-13.4-55.3c-31.2-5.1-175.3-17.1-198.5-13l-15,49.5Z"/>
</svg>