<?xml version="1.0" encoding="UTF-8"?>
<svg id="Layer_1" xmlns="http://www.w3.org/2000/svg" version="1.1" viewBox="0 0 1000 1000">
  <!-- Generator: Adobe Illustrator 29.0.0, SVG Export Plug-In . SVG Version: 2.1.0 Build 186)  -->
  <path d="M558.1,679.5c52.6-3.3,108.3-3.6,117.6,6.8-22.7,104-261.9,125.8-286.4,39h0c-7.4-26.1,58.9-33.3,75.8-36.3l-127-14.9h0c-47.2,26.6,7.5,42.9,19.8,65.2,9.9,17.9,13.2,49.6,24.2,62,32,36.3,175.2,33.6,219.2,18.6,34.9-11.9,114.6-95.2,132-131.2-3.5-43.9-84.1-55.9-172.3-53.1l-2.9,43.9Z"/>
  <path d="M595.9,854.3c-23.2-8.4-168.7-.3-197.4,4.8-38.8,6.9-92.3,53.4-107,95.4,17.9,8.2,36.3,15.4,55.3,21.5,16.7-40.4,38.6-68.7,93.4-78.2,20.6-3.6,122.1-7.6,135.5-2.3,15.3,6,26.9,28,39.1,47.3,6.2,9.8,14.9,24.4,25.1,37.3,14.5-4.2,28.7-9.1,42.6-14.5-11.5-25.1-26.1-54.9-34.7-67.4-13.5-19.6-30.4-36.3-51.8-44h0Z"/>
  <path d="M213.2,669.3c-17.3-4.2-119.3,4.5-177.9,15.4,7.1,17.7,15.1,35,24,51.6,32-5.1,68.4-20.7,91.3-20.7,100,0,102,73.5,72.6,141.2-2.9,6.7-12.9,24.6-23.5,43,11.4,8.6,23.2,16.7,35.3,24.3,16.3-23.7,34.7-55.2,39.1-66.7,25.9-68.8-1-173.6-60.9-188h0Z"/>
  <path d="M785.1,736.6c-61.4,23.3-93.8,59.2-95.4,88-1,17.6,20.9,77,45.2,116.9,16.2-8.6,31.8-18.1,46.9-28.4-13.4-30.3-31.1-62.2-11.6-104,17.5-37.7,98.3-41.8,151.5-40.3,9.7-15.2,18.6-31,26.7-47.2-39.2-17.5-105.2-6.9-163.2,15.1h-.1Z"/>
  <path d="M465.1,689c15-2.7,53.1-7,93-9.5l2.9-43.9c-92.9,3-194.3,22.5-222.9,38.5l127,14.9Z"/>
</svg>