<?xml version="1.0" encoding="UTF-8"?>
<svg id="Layer_1" xmlns="http://www.w3.org/2000/svg" version="1.1" viewBox="0 0 1000 1000">
  <!-- Generator: Adobe Illustrator 29.0.0, SVG Export Plug-In . SVG Version: 2.1.0 Build 186)  -->
  <path d="M454.1,693.1c56.1,4.6,112.4,8.8,168.6,3.9,4.4,143.5-293.5,95.5-321,6.6h.1c-3.1-31.7,15.3-17.8,36-17.5l13.6-41.9c-69.3-9.6-129.5-6.1-85.3,76.7,54.2,101.5,232.9,149,332.1,91.8,56.6-32.7,125.8-146.7,22.6-165.3h0c-43.1-7.7-109.1,15.2-155.5,13.8l-11.2,31.9Z"/>
  <path d="M414.8,857.4c-30.9,7-50,5.5-75.5,31-13.9,13.9-11,51.8-5.4,83.4,16.4,5.8,33.2,10.7,50.3,14.8l-1-40.8c-.6-25.5,20.2-46.2,45.7-45.6l104.5,2.8c36.2,1,69.3,21,86.5,52.9,5,9.2,10.4,18.1,17.1,25.1,13.2-3.8,26.2-8,38.9-12.8-28.2-114.8-153.5-135.2-261.1-110.8h0Z"/>
  <path d="M852.1,663.8c-99,10.3-183.9,87.5-173.2,197.7,2.6,26.3,22.4,60.7,46,85.3,17.7-8.9,34.7-18.8,51.1-29.7-48.8-35.4-45.8-120-18.2-161.9,26-39.5,144.3-40.3,193.2-38.8,8.1-16.8,15.2-34.1,21.4-51.9-39.5-2.1-103.8-2.3-120.3-.6h0Z"/>
  <path d="M132.9,705.1c-17.6,4.5-52.2,12-77.9,23,7.4,14.4,15.4,28.3,24.1,41.8,20.2-17.4,49.8-28,78.6-29.1,20.8-.8,40.2,10.4,50.2,28.6,11.4,20.8,26.7,39.8,31.6,63.6,5.7,27.7-1.9,64.8.2,94,12.9,7.9,26.2,15.2,39.9,21.9,6.5-133.6-13-277.7-146.7-243.8h0Z"/>
  <path d="M337.8,686.1c38.6.5,77.4,3.8,116.3,7l11.2-31.9c-27.5-.8-72.4-11.3-113.9-17l-13.6,41.9Z"/>
</svg>