<?xml version="1.0" encoding="UTF-8"?>
<svg id="Layer_1" xmlns="http://www.w3.org/2000/svg" version="1.1" viewBox="0 0 1000 1000">
  <!-- Generator: Adobe Illustrator 29.0.0, SVG Export Plug-In . SVG Version: 2.1.0 Build 186)  -->
  <path d="M619.2,686.1c12.2,40.4-40.4,43.5-68.9,46.1-40.7,3.6-101.8,11.1-130.9-23.3-7.3-37.3,29.9-21.8,53.6-22.8l-37.4-46.2c-105.1,0-82.2,50.4-74.9,64.4,41.2,79,119.6,89.9,219.3,73.1,47.5-8,104.3-54.8,98.4-100.7-1.6-12.6-6.5-33.9-20.5-36.8h-.1c-8.3-1.7-48-1.4-100.8-.9l62.2,47.1Z"/>
  <path d="M174.8,653.4c-52.3-10.3-95.9,17.4-145,17,7,19.4,15.2,38.2,24.5,56.4,48.6,7.8,131.3-26.4,179.7,16,75.2,65.7,17.5,128.2-4.7,177.7,14.4,9.3,29.4,17.9,44.8,25.7,81.8-103.9,36.7-265.9-99.3-292.7h0Z"/>
  <path d="M511.3,832.1c-37.9,8.4-88.2,20.7-106,38.5s-20.3,58.8-20.3,58.8l-8.7,55.1c17.8,4.5,36,8.1,54.5,10.7,6-26.5,6.2-61.4,21-84.6,29.8-46.6,246.3-55.4,254.9,44.7,16.9-7.7,33.3-16.3,49.1-25.7-59.4-104.5-147.1-119.1-244.6-97.5h.1Z"/>
  <path d="M763.9,692.6c-52.8,27.9,3.2,136.4,56.2,191.5,14.2-11.8,27.7-24.4,40.5-37.7-30.1-32.4-79.4-88.1-77.1-103.8,3.4-22.5,35.9-26.2,64.5-21.9,29,4.3,61.9,14.6,89.9,20.8,8.4-15.1,16-30.7,22.7-46.7-62.8-19.5-173.1-14.6-196.7-2.2h0Z"/>
  <path d="M473,686.1c48.6-2,97.8,1.4,146.2,0l-62.2-47.1c-36.2.4-78.7.9-121.4.9l37.4,46.2Z"/>
</svg>