<?xml version="1.0" encoding="UTF-8"?>
<svg id="Layer_1" xmlns="http://www.w3.org/2000/svg" version="1.1" viewBox="0 0 1000 1000">
  <!-- Generator: Adobe Illustrator 29.0.0, SVG Export Plug-In . SVG Version: 2.1.0 Build 186)  -->
  <path d="M480.2,659.6c43.8,3.4,89.2,7.9,132.1,8.9,11,.3,14.3,15.3,4.3,20h0c-77.8,37-184,42-253.4-5.2-18.6-23.8,4-27,25.1-27.4l-37.6-52.3c-32.3,2.8-72.4,10.8-72.4,45s87.2,111,172.3,112.9c59.5,1.3,170.1-9.8,218.1-58.3,28.2-28.5,8.4-77-31.7-77.5h-.1c-49.8-.7-104.7-8.6-156.8-15v48.8Z"/>
  <path d="M447.8,816.4c-48,.8-77.4,3.7-90.2,16.5-12.8,12.8-21.8,45.4-29.4,70-6.7,21.8-14,43.3-14.8,61.1,14.4,5.8,29.2,11,44.2,15.4,10.4-36.4,30.3-100.1,47.6-117.3,24.5-24.5,150.7-4.6,207.1,4.9,51.9,8.7,87.9,55,128.9,71,15-8.3,29.6-17.3,43.6-27-.8-2.9-2.5-5.7-4.1-9-28.3-57.6-206.7-87.7-332.8-85.6h-.1Z"/>
  <path d="M259.3,730.8c-13.9-30.3-88.4-74.2-121.3-77.5-21-2.1-72.4,11.5-102.6,31.6,4.8,11.9,10,23.6,15.6,35.1,64.6-19.5,105.3-39.2,167.7,30l-21.1,148.1c11.5,8.7,23.3,16.9,35.5,24.7,27-47.6,48.8-142.9,26.3-192h0Z"/>
  <path d="M752.3,729.8c-38.8,42.2,34.8,120.2,82.5,141.5,11.6-10.4,22.7-21.4,33.2-32.9-26.9-23.3-90.9-41.1-79.4-89.5,69.6-12.4,102.4-69.1,178.8-71.1,4.2-10.9,7.9-22,11.4-33.3-47.9-33.4-208.7,57.9-226.4,85.2h-.1Z"/>
  <path d="M388.4,655.9c28.7-.6,59.8,1.2,91.8,3.7v-48.8c-47.3-5.8-92.4-10.4-129.4-7.1l37.6,52.3Z"/>
</svg>