<?xml version="1.0" encoding="UTF-8"?>
<svg id="Layer_1" xmlns="http://www.w3.org/2000/svg" version="1.1" viewBox="0 0 1000 1000">
  <!-- Generator: Adobe Illustrator 29.0.0, SVG Export Plug-In . SVG Version: 2.1.0 Build 186)  -->
  <path d="M566.2,695.5c45.5-4.2,91.1-4.6,137.5,10.8,61.2,61.2-328.2,97.3-354.8,5h0c-2.9-45.2,51.5-4,80.6-3.9l7.5-40.7h0c-62.3.1-95.8-52-147,26.2-2.3,8.7,34.8,74.9,41.9,81.8,51.3,49.3,444.3,79.9,418.5-85-9.4-42.1-99.7-42.3-182.6-35.5l-1.7,41.3Z"/>
  <path d="M375.2,845.4c-49.5,4.6-79.6,59.3-103.8,99.4,13.9,7.2,28.2,13.7,42.8,19.5,12.3-30.3,37.9-65.8,58.7-70.8,23.9-5.7,271.8,6.3,297.3,16.8,3.3,1.4,29,23,54,36.6,16.3-8.2,32.2-17.3,47.4-27.2-32.6-79.3-337.1-64.6-396.4-74.4h0Z"/>
  <path d="M163.3,639.8c-17.3-1.8-94.3,11.6-136.2,23,5.5,15.9,11.7,31.4,18.7,46.6,39.4-8.6,86-24.8,98.9-24.1,57.5,3.2,111.9,65.2,102.4,123.5-4.6,28.6-43.3,60.3-53,86.7,13.9,10.8,28.5,20.9,43.5,30.2,13.2-47.5,54.7-67.1,57.7-126.4,3.3-64.9-64.4-152.4-132.1-159.5h0Z"/>
  <path d="M808.7,705.2c-9.5,12.6-49.2,91.8-49.3,103.8-.2,14.3,21,70,43,89.2,10.4-7.9,20.6-16.3,30.4-25-2.7-26.5-16.9-63.7-5.8-94,26.1-71.2,84.7-86.9,144.6-112.6,4-11.4,7.7-23,10.9-34.8-39-6-132.5,18.4-173.7,73.3h-.1Z"/>
  <path d="M429.6,707.4c45.8.2,91.1-7.7,136.6-11.9l1.7-41.3c-56.4,4.6-109.3,12.4-130.8,12.5l-7.5,40.7Z"/>
</svg>