<?xml version="1.0" encoding="UTF-8"?>
<svg id="Layer_1" xmlns="http://www.w3.org/2000/svg" version="1.1" viewBox="0 0 1000 1000">
  <!-- Generator: Adobe Illustrator 29.0.0, SVG Export Plug-In . SVG Version: 2.1.0 Build 186)  -->
  <path d="M582.9,694.3l144.8-6.4c-26.2,137.7-277.1,118.8-337.5,14.9l-4.5-52c-71.6,4.2-56.5,30.7-26.3,79.2,59.7,95.9,158.2,103.7,264.7,97.9,66.2-3.6,200.1-103.3,145.6-163.1h0c-18.8-20.6-100.8-24.9-185.7-23.6l-1,53.1Z"/>
  <path d="M367.1,847c-8.3-122.3-208.3-185.5-320.7-136.4,5.4,11.7,11.3,23.1,17.6,34.3,77.3,23.9,154.1-35.2,227.2,51.8,44.5,53,24.5,111.2,22.2,167.3,14.6,5.9,29.4,11.1,44.6,15.5,8-51,10.1-116.7,9-132.6h.1Z"/>
  <path d="M437.5,881.8c-32.4,22.5-41.9,70-39.7,107.8,15.6,3.2,31.4,5.7,47.5,7.5,3.8-16.1,7.4-36.9,10.4-63.3,13.7-20.5,139.7-37.7,160.6-31.3,29.1,8.9,29.7,47.6,43.7,71.4,11.6-3.9,22.9-8.2,34.1-12.9-2.8-31-12.8-68.7-26-82.8-39.1-41.8-184.5-28.2-230.5,3.6h0Z"/>
  <path d="M872,740.4c-100.9,3.6-152,74.4-118.4,190.6,14.7-8.7,29-18.1,42.7-28.3-1-29.8-16.5-72,10.7-101.5,18.1-19.7,49.1-15.2,75.4-16.1,7.6-.3,18.6-1,30.3-2.9,8.9-13,17.2-26.5,24.9-40.4-24.7-1.4-54.1-1.8-65.7-1.4h0Z"/>
  <path d="M390.2,702.8l192.7-8.5,1-53.1c-80.5,1.3-163.7,7.5-198.3,9.6l4.5,52Z"/>
</svg>