<?xml version="1.0" encoding="UTF-8"?>
<svg id="Layer_1" xmlns="http://www.w3.org/2000/svg" version="1.1" viewBox="0 0 1000 1000">
  <!-- Generator: Adobe Illustrator 29.0.0, SVG Export Plug-In . SVG Version: 2.1.0 Build 186)  -->
  <path d="M554.2,623.1c53.5,3.6,102,15.1,103,35-45.2,105.8-160.4,71-205.6,55h.1c-45.2-16-63.1-45.9-35.3-73.8l-46.7-22.3c-46.9,40,22.1,117.5,71.8,130.6,78.3,20.7,145.8,31.3,209.4-20.2,90-72.9,52.2-129.2-51.9-138.3l-44.8,34Z"/>
  <path d="M625.9,892.4c-31.4-33.3-33.2-66.3-89.4-75.2-33.9-5.4-111.8-5.3-141.8,8.6-19.6,9.1-63.4,94.2-76.8,140,12.2,4.8,24.6,9.1,37.2,12.9,23.2-35.7,42.7-104.6,54.4-112.8,23.3-18.1,106.6-17.3,133.9-4.9,17.2,7.8,71.7,83.8,111.4,114.6,12.5-4.1,24.7-8.6,36.7-13.6-6.8-33.8-47.5-50.4-65.5-69.6h-.1Z"/>
  <path d="M298.9,791.9c32.9-156.9-167.4-98.9-251-79,0,.2,0,.4,0,.6,5.7,12.1,11.9,23.9,18.6,35.5,35.3,2.1,107.2-37.4,140.6-35.5,94.8,5.2,33.3,126.2-19.6,176.7,10.2,8.2,20.7,15.9,31.4,23.3,1-.7,2-1.4,2.8-2.1,6.6-5.8,75.6-110.8,77.4-119.4h-.1Z"/>
  <path d="M835.1,703.8c-66.1,29.1-133.4,87.6-136.1,128.8-2.2,34.9,21.2,78.3,44.3,104.2,12.1-6.8,23.9-14,35.4-21.7-7.8-10.5-21-13.5-23.1-17.2-14.1-25.2-28.8-55.7-11.2-84.2,2.9-4.6,79.5-64.1,85.5-66.5,15.8-6.5,64.3-7.4,109.5-8.6,9.2-17,17.5-34.5,24.8-52.6-48.5.9-105.9,7.5-129.1,17.7h0Z"/>
  <path d="M416.4,639.3c14.6-14.6,79.2-20.2,137.8-16.2l44.8-34c-26.1-2.3-217.5,17.9-229.3,27.9l46.7,22.3Z"/>
</svg>